<?xml version="1.0" encoding="UTF-8" standalone="no"?>
<!-- Created with Inkscape (http://www.inkscape.org/) -->

<svg
   xmlns:dc="http://purl.org/dc/elements/1.1/"
   xmlns:cc="http://creativecommons.org/ns#"
   xmlns:rdf="http://www.w3.org/1999/02/22-rdf-syntax-ns#"
   xmlns:svg="http://www.w3.org/2000/svg"
   xmlns="http://www.w3.org/2000/svg"
   xmlns:sodipodi="http://sodipodi.sourceforge.net/DTD/sodipodi-0.dtd"
   xmlns:inkscape="http://www.inkscape.org/namespaces/inkscape"
   width="441"
   height="779"
   viewBox="0 0 441 779"
   version="1.1"
   id="svg4642"
   inkscape:version="0.92.1 r15371"
   sodipodi:docname="srilanka.svg">
  <defs
     id="defs4636" />
  <sodipodi:namedview
     id="base"
     pagecolor="#ffffff"
     bordercolor="#666666"
     borderopacity="1.0"
     inkscape:pageopacity="0.0"
     inkscape:pageshadow="2"
     inkscape:zoom="0.45254834"
     inkscape:cx="151.89274"
     inkscape:cy="753.52029"
     inkscape:document-units="px"
     inkscape:current-layer="Sri-Lanka"
     showgrid="false"
     fit-margin-top="0"
     fit-margin-left="0"
     fit-margin-right="0"
     fit-margin-bottom="0"
     inkscape:window-width="1920"
     inkscape:window-height="1051"
     inkscape:window-x="-4"
     inkscape:window-y="-4"
     inkscape:window-maximized="1"
     units="px" />
  <metadata
     id="metadata4639">
    <rdf:RDF>
      <cc:Work
         rdf:about="">
        <dc:format>image/svg+xml</dc:format>
        <dc:type
           rdf:resource="http://purl.org/dc/dcmitype/StillImage" />
        <dc:title></dc:title>
      </cc:Work>
    </rdf:RDF>
  </metadata>
  <g
     inkscape:label="Sri Lanka"
     inkscape:groupmode="layer"
     id="Sri-Lanka">
    <path
       id="Central-Province"
       style="display:inline;fill:#fefee4;stroke:#808080;stroke-width:0.50948542;stroke-opacity:1"
       d="m 238.98588,525.60051 8.4533,-1.27433 8.19868,1.68218 -0.20367,3.61905 1.5277,4.9445 -0.45832,1.83505 0.40739,1.68206 0.91663,1.07048 0.71294,1.01949 -1.37495,1.63116 -0.91662,1.88599 1.0694,3.51719 0.30557,1.37625 -0.66201,1.47826 -1.32402,1.63112 -1.57863,1.47825 -1.78232,3.51719 -0.91662,3.87403 -4.37941,6.57555 -7.43485,1.63116 -3.56464,1.68214 -3.15726,2.8545 -0.91663,3.97596 -2.64801,3.05839 -3.71742,-0.20408 -3.56466,0.15306 0.25464,3.21134 6.26359,3.16032 1.32402,2.80356 1.1203,3.05839 0.96755,1.22338 0.81478,1.32534 -2.90263,4.74054 1.78232,1.1724 1.83324,0.91752 -2.03693,2.8545 -3.71742,0.91753 -11.15226,5.91297 -6.16175,0.81556 -6.51821,-0.20408 -4.88865,0.35676 -4.17572,0.71364 -10.7958,-1.47822 -10.23564,-2.29381 -4.83773,-0.40782 -4.02297,-3.10937 0.71294,-2.03894 1.47678,-1.42727 -1.32402,-1.47826 0.15283,-3.26228 2.24064,-1.988 -0.30557,-2.65061 -1.52771,-5.25031 -4.53219,-3.4152 -5.75436,-1.88599 -1.68048,-5.76003 1.37495,-7.39114 -1.27309,-1.27436 -1.12032,-1.52924 1.12032,-1.47821 1.47678,-0.50975 2.74986,-2.44672 1.73139,-2.80352 -0.66198,-0.15306 -0.25464,-0.66269 5.65252,0.50978 8.80976,13.20216 5.75436,3.41523 4.27757,-4.53669 2.3425,-6.62653 -2.3425,-3.21133 -2.95355,-2.8036 -3.46281,-6.42264 -1.52771,-0.71363 -1.62954,0.50974 4.48127,-3.56814 7.1293,0.86651 3.97204,-0.86651 5.75434,-4.02693 3.81927,-0.051 3.41188,0.86658 12.67994,-15.08819 4.02297,-6.77948 -1.83325,-7.44212 -0.61108,-5.81101 3.41188,3.10937 2.80079,3.82301 2.08786,0.71364 1.68047,0.20408 4.53219,7.18729 z m 3.31003,-103.8841 10.59209,0.76462 10.18471,-1.88604 -0.15283,3.31327 1.42587,4.53665 0.4583,3.82304 -1.88417,9.43009 -1.93508,9.37915 0.96755,16.26058 -6.2636,-0.66266 -3.97204,0.61167 -2.18971,3.6701 -1.27309,1.07048 -1.42585,0.81552 -2.39341,-2.95643 -3.25909,1.58014 -8.09686,-0.051 -6.26358,5.14835 -5.65252,0.86655 -7.33298,-6.06589 -2.90264,-1.17235 -2.74987,1.68211 -1.17126,3.10941 0.66201,7.34016 -4.22664,4.63861 -7.23114,-0.40782 -12.52719,-7.90089 -4.07389,-5.60708 0.10182,-2.03894 1.1203,-1.5292 0.4074,-2.39574 -0.56016,-2.49773 -1.01847,-2.08989 -1.17124,-1.988 -1.98601,-4.0269 0.4583,-4.17984 2.8008,-2.54869 0.71293,-1.73312 -0.051,-1.83502 0.61108,-2.34479 0.051,-2.29382 -3.61558,-3.56813 -1.06939,-6.16781 -0.56016,-6.67755 -1.01847,-1.42727 -0.71295,-0.5097 -0.051,-3.41527 -1.37493,-3.41519 -1.9351,-3.31331 -1.42585,-3.10937 -1.47678,-0.40782 -1.73141,-0.96847 -0.50922,-3.51719 0.91662,-3.26232 4.17572,-3.10934 6.62007,-2.44675 3.51371,-4.23084 3.15727,0.15306 2.34247,1.5292 2.95358,-2.0389 1.47678,-2.39578 1.37493,-0.96851 1.27309,-0.76462 -0.15282,-1.37624 -0.40738,-0.91753 2.49526,-2.65065 1.88415,-2.85453 v -3.72099 l 1.06941,-3.1604 h 1.98601 l 1.4768,0.35676 1.17124,-0.81556 3.81924,-4.0269 2.54619,-2.29385 3.76834,-1.88599 4.1248,-1.68215 1.73139,1.68215 2.69897,3.10936 -0.051,3.5172 1.06939,1.1724 1.68048,0.61167 1.27309,-0.81557 0.0508,-1.27435 2.39343,-1.12145 2.29155,0.66269 3.10633,0.61167 2.90263,1.73312 -5.90711,6.21873 -1.9351,9.43013 -0.56015,4.58763 -1.88418,8.05379 -0.66201,1.42727 -0.40737,1.42731 -5.70345,1.27432 -1.324,5.50512 2.64802,12.08077 -0.3565,3.874 1.98603,2.80355 5.1942,1.12141 4.93957,-2.03897 3.92112,-3.61912 1.68047,2.39578 3.00448,1.88603 0.8657,-3.51719 z m -67.37184,53.0125 2.3425,-0.56069 2.34246,-1.12145 4.0739,5.60708 12.52719,7.90089 7.23114,0.40785 4.22665,-4.6386 -0.66201,-7.34021 1.17125,-3.10937 2.74987,-1.68214 2.90264,1.17239 7.33299,6.06584 5.65251,-0.8665 6.26358,-5.14836 8.09686,0.051 3.2591,-1.58018 2.3934,2.95648 1.42585,-0.81556 1.27309,-1.07044 2.18972,-3.67014 3.97203,-0.61167 6.2636,0.66265 1.73139,30.12539 4.32851,14.37455 -0.3565,6.47366 -5.29605,4.99537 -4.22665,1.1724 -2.49526,1.52923 -8.19868,-1.6821 -8.4533,1.27428 -7.23115,-0.56069 -4.53219,-7.18729 -1.68047,-0.20408 -2.08786,-0.71363 -2.80079,-3.82301 -3.41188,-3.10938 0.61108,5.81101 1.83324,7.44209 -4.02296,6.77951 -12.67994,15.08819 -3.41188,-0.86658 -3.81927,0.051 -5.75437,4.02686 -3.97204,0.86654 -7.12929,-0.86654 -4.48127,3.56817 1.62956,-0.50974 1.5277,0.71363 3.46279,6.42264 2.95358,2.80356 2.34248,3.21138 -2.34248,6.62653 -4.27758,4.53664 -5.75435,-3.41519 -8.80978,-13.20215 -5.6525,-0.50978 0.10181,-3.92494 1.42586,-3.05843 -1.42586,-2.4977 -3.00447,-7.1873 2.24061,-2.08988 6.82376,-1.12146 3.10634,-3.36424 2.18971,-0.15306 2.13879,-0.50975 1.52771,-2.44672 1.12031,-2.59967 -2.29157,-2.90548 -2.85171,-2.8545 -0.051,-2.90553 0.4583,-3.56809 -2.39341,-2.90553 -4.99049,-2.80355 -1.68048,-1.1724 0.3565,-3.87396 -8.55515,-7.49314 -2.3934,-6.11679 4.07386,0.45873 3.51374,-1.01946 -0.30557,-0.9685 -0.15282,-1.27437 0.66201,-1.17235 0.81476,-1.07044 0.66202,-4.02694 h 2.8008 l 3.05541,2.19189 3.41187,0.25472 0.25464,-2.03894 -0.30557,-2.24283 2.90264,-1.63116 2.85172,0.50971 2.08786,-1.01946 -1.17124,-2.70155 z"
       inkscape:connector-curvature="0" />
    <path
       id="Eastern-Province"
       style="display:inline;fill:#fefee4;stroke:#808080;stroke-width:0.50948542;stroke-opacity:1"
       d="m 243.11068,170.31477 3.81927,-1.07043 3.10634,-1.37631 0.10181,3.1094 2.29158,1.68214 -2.08787,1.98795 -1.88416,2.19187 3.10633,2.44673 3.36095,-0.25488 2.69895,-2.54868 2.03693,-3.56813 1.32402,-3.26231 7.12928,8.61452 6.36545,10.90835 2.54617,2.65062 3.61556,1.07044 2.90266,2.34479 4.22664,10.29665 2.24064,2.34478 4.83774,2.19187 2.44432,5.1993 2.74988,10.39861 0.50923,-1.88602 0.61107,-0.7646 1.06941,0.25487 1.93508,1.07046 -0.56016,1.88601 5.44882,6.01488 1.83324,2.95647 v 3.61912 l -1.42585,1.42728 -2.03693,0.91752 -1.88418,2.19185 2.90263,-0.7646 1.12034,-0.61168 4.3285,9.32815 0.61108,4.89347 -4.93958,0.76461 1.01845,-3.21135 -1.32399,-2.59964 -2.13879,-0.30585 -1.57864,3.41523 0.50923,2.65062 1.42587,1.88603 0.76385,2.03893 -1.47678,3.05841 -3.31002,-2.54866 -3.41188,-2.14089 -3.41188,-0.81559 -3.31003,1.42727 -2.54618,3.41521 0.86569,1.83506 3.05542,-0.50974 4.12481,-3.36425 2.8008,3.00744 2.54616,3.61912 3.10634,3.00746 4.3285,1.22338 9.06438,-0.15305 3.05541,-1.98798 -2.03693,-4.6386 5.19419,-2.39575 2.08787,-0.61169 2.13879,0.15299 2.39338,1.37629 2.18971,2.34478 1.62958,2.7016 1.42586,8.00285 3.05539,10.24569 0.20375,5.40319 -2.49526,-1.78408 -2.59713,-5.30125 -2.34247,-1.12138 -0.0511,1.47821 1.01847,6.93239 1.06938,2.49771 2.54619,1.17239 h 2.69895 l 2.08786,0.96851 1.27309,7.64601 1.73138,6.16781 0.45834,3.21134 -17.72139,-1.88604 -3.2591,1.17244 h -3.05541 -2.44433 l -1.83324,1.93697 -1.27309,2.39575 -1.47678,1.12145 -1.37495,1.17236 -1.27309,5.19933 -0.96755,1.93699 -2.80078,6.5246 -4.93958,1.12145 -0.96756,-0.30574 -0.76385,-0.56077 2.24064,-1.4272 1.0694,-2.49769 -0.66201,-3.77207 0.051,-2.59967 -0.30557,-2.4977 -1.37494,-2.03891 -2.49526,0.20371 -3.51372,-1.78408 -3.15726,-2.44671 -3.25911,-1.88604 h -3.56465 l -14.92059,-3.6701 -8.30051,0.8156 -2.44435,-2.44672 -0.81477,-4.17984 -3.05542,-2.3448 -3.20817,-1.27432 -2.29157,-3.41524 -2.95355,0.86655 4.27757,-15.29208 0.4583,-2.4977 0.8148,-2.44672 2.44432,-2.3448 2.80078,-1.83504 1.62956,-2.95646 -1.32402,-3.05842 -2.29155,-1.78407 -1.78232,-2.24285 -2.74987,-6.62655 -5.24512,-7.74799 -0.81477,-4.79151 -2.08789,-2.03896 -1.68046,-1.886 -0.15282,-4.0779 3.05541,-7.13629 -1.47678,-4.17984 -3.66649,-8.00285 -0.10182,-8.56356 3.31003,-4.94444 2.29155,-5.14832 -1.83326,-1.42726 -1.62953,-2.14089 -3.00451,-3.36425 -8.60606,-6.01488 -4.99051,-2.85452 -5.80528,-0.10193 -5.55067,2.2938 0.8657,-3.51717 1.62956,-2.80354 7.74038,-3.61913 9.11531,-1.22336 3.76832,-1.07046 z m 83.31089,143.33768 1.01846,10.39859 -1.57864,31.39975 1.4768,7.34016 3.2591,7.18727 1.62958,7.44216 -1.78236,0.15269 -7.1802,-0.96851 -5.6016,0.81556 -4.43034,2.95644 -1.47677,5.81101 -1.78235,15.34302 2.8008,15.39408 5.34698,1.07043 6.36544,-0.30574 5.24513,1.73309 6.7219,9.78692 4.3794,4.17984 6.009,1.68215 6.26359,1.22334 -0.30561,5.96391 -1.93509,5.81098 0.40738,3.31329 1.78234,2.95643 6.21265,3.77207 3.36099,3.26232 12.93455,2.24279 13.13829,-1.42726 4.58309,-2.59964 0.10178,4.99541 1.5277,4.89348 0.61106,11.26518 1.42588,3.21133 6.92564,-6.83049 3.97198,-3.26228 5.39791,-0.86655 3.76831,-0.61171 -0.15286,-0.71363 2.08783,-1.58018 -1.42584,-1.27432 -0.56013,-1.12142 -0.40739,-1.12141 -0.96756,-1.27432 -1.01849,-1.78411 0.8657,-1.22334 1.42588,-1.07048 0.76385,-1.37628 -0.20356,-0.8156 -0.96757,-1.886 -0.20356,-0.66265 1.17131,-5.04635 0.20357,-0.35676 -3.6665,-9.32813 -1.06942,-1.58021 -4.58312,-3.36425 -2.29155,-0.8665 0.71292,2.75253 -1.2222,1.47822 -0.91659,-1.88599 -0.35643,-1.3763 0.25427,-1.12141 1.01845,-1.17239 -2.13876,-3.61913 -2.03694,-2.34476 -5.24512,-4.94446 0.30534,-2.14086 -1.22216,-1.47826 -2.13876,-1.07043 -2.34255,-0.86659 -1.47677,2.03899 -1.93509,0.71363 -2.29158,-0.30574 -2.34243,-1.07043 1.37491,-4.43472 2.03698,-2.14087 2.69893,-0.20407 3.31007,1.17243 2.54611,2.24283 4.83777,6.1678 1.98598,1.37629 4.37945,-1.3253 -0.45832,-3.82301 -2.7499,-4.38378 -8.50418,-8.92034 -2.03691,-3.36425 -1.37502,-4.1289 h -1.32399 l -4.22663,0.71364 -4.07392,-4.68959 -2.29154,-6.77944 1.17124,-4.33279 0.71299,-0.50971 1.06938,-0.71364 0.9166,-0.051 -1.47681,-2.39578 -3.97204,-3.05837 -1.42585,-2.7016 -0.0511,-2.44676 0.66199,-1.58018 0.40741,-1.63116 -1.01847,-2.49771 -1.01848,0.8156 -1.98602,0.96848 -1.01848,0.8156 -0.15294,-0.86659 -0.25449,-0.56068 -0.40738,-0.45877 -0.40741,-0.71364 0.86573,-0.96846 -0.86573,-1.88604 -0.56013,0.91753 -1.32403,0.96851 -0.91661,0.96846 -2.44434,-5.60703 -1.42585,-2.34483 -2.18971,-2.44673 -1.68048,-2.75261 -1.62954,-7.18726 -1.57865,-2.90548 h -1.22217 l -1.1203,4.28178 -3.31002,0.25471 -3.46281,-2.54868 -1.62955,-4.17981 -0.35646,-0.61167 -1.6805,-0.50978 -0.662,-0.76458 -0.25453,-1.22339 v -0.9685 l 0.15297,-0.61168 0.10186,0.051 -0.20371,-1.98795 0.20371,-6.26974 h 1.47679 l 3.0045,8.30871 2.24064,9.37911 3.61557,-4.99545 -1.57861,-9.07324 -4.68498,-16.00571 -17.72139,-1.88604 -2.1201,0.90933 m 80.64412,103.38261 2.49529,2.4977 2.44433,5.76002 1.78234,2.65062 2.29151,6.11686 6.97656,11.16318 3.36093,17.382 -0.15324,3.97594 -2.90265,2.44673 -2.80079,-2.24283 -1.22216,-1.27436 -0.25426,-1.98797 0.81477,-12.94727 -0.56013,-4.33276 -2.18969,-1.83505 -0.81482,-1.78411 -6.56914,-9.7359 -0.40735,-2.08992 -1.62959,-3.61916 -0.66199,-1.93698 0.10178,-2.08996 0.6111,-1.83501 0.25427,-1.93698 -0.96666,-2.34483 m 32.23487,139.36169 0.30572,4.12887 -1.12061,7.95187 -9.06436,31.6036 -0.50921,3.26232 -0.20356,4.33276 -0.66203,3.56817 -2.85164,5.60708 -0.61114,2.44676 -1.12035,3.41515 -5.65247,8.81849 1.37495,4.84246 -2.18976,5.76003 -12.52718,19.98167 -1.73137,-0.61171 -4.78684,-1.47825 -3.31,-3.77203 -2.49529,-0.35676 -2.29151,-0.15306 -5.85622,-7.28919 5.09237,-73.14703 -0.96756,-3.92498 -2.34255,-3.41523 -0.0511,-3.82301 -1.32398,-3.87399 0.91659,-3.92497 0.35643,-3.72108 -5.8053,-3.51716 -7.0274,-1.83509 -1.01849,-0.91752 -1.22216,-0.71364 h -1.47675 l -1.57865,-0.71363 -1.52772,-2.75254 -0.81475,-3.05843 -2.54619,-4.68959 2.29157,-6.16777 4.1248,-4.89348 3.2082,-2.54865 -4.27757,-5.91297 -0.56017,-4.28173 -2.74988,-4.8425 -4.37942,-3.82301 -0.81476,-3.82301 0.3056,-4.79152 -2.34247,-10.50059 0.40738,-2.65061 -1.324,-0.25473 -1.22216,-0.71363 2.90264,-4.58759 -3.87018,-1.01949 -4.9396,2.65061 -2.3934,0.8156 -2.18971,0.96847 -0.71294,1.88603 -1.32402,2.14087 -2.74985,0.71364 -2.03696,0.15306 0.0511,2.59966 1.06938,2.3448 0.25449,2.34476 -0.91662,1.93701 -1.37496,1.6821 -0.91661,1.37629 -3.97202,2.24283 -4.88866,-0.20407 v 7.64605 l 1.06938,7.39115 -3.6665,2.70159 -4.02294,1.42727 -1.73141,-3.26228 -1.52771,-3.82301 -0.71291,-3.56818 -1.73142,-3.61911 -1.37492,-2.29382 -0.81479,-1.78407 -2.44432,-0.45876 -1.7314,0.40782 -2.95356,-2.9565 -2.13878,-4.63861 -1.32403,-8.76744 -0.76384,-2.4977 -0.61108,-2.44672 0.56015,-1.78407 1.12032,-2.03894 2.03695,-9.68499 -0.71294,-9.99082 -8.75885,-1.88603 -9.67547,5.40322 -4.22664,3.92494 -2.3934,0.91752 -1.93511,0.45876 -3.61557,1.27437 -4.83773,-8.15581 -1.57863,-4.79151 -0.2546,-3.21134 -1.27309,-2.8545 -3.00449,-1.83506 -0.50923,-0.50974 1.88415,-9.43008 -0.4583,-3.82305 -1.42585,-4.53665 0.15283,-3.31326 h 3.71742 l 7.33299,-0.7136 3.61556,-0.66269 7.18023,2.80352 5.80528,5.86199 9.5736,2.95643 4.63405,2.70167 3.81926,0.45876 0.50925,-2.08996 0.91662,-2.29382 1.27309,-1.3253 1.06938,-2.14087 -0.61108,-4.74061 0.8657,-4.48562 5.34698,1.07043 6.36544,-0.30574 5.24512,1.73313 6.72192,9.78692 4.37942,4.1798 6.00897,1.68215 6.26359,1.22334 -0.3056,5.96391 -1.93509,5.81098 0.40737,3.31333 1.78234,2.95643 6.21266,3.77203 3.36095,3.26232 12.93459,2.24283 13.13833,-1.42727 4.58309,-2.59963 0.10178,4.99537 1.52773,4.89352 0.61107,11.26514 1.42587,3.21133 6.9256,-6.83049 3.97207,-3.26228 5.39783,-0.86655 3.76838,-0.61171 0.20357,0.8156 1.57866,0.30574 1.62959,-2.03898 h 1.22213 l 1.52773,8.0538 -0.0511,2.95651 h 1.37499 l 0.15286,-2.85454 0.45832,-2.75258 0.8657,-2.39574 1.17131,-1.63115 v -1.3763 l -0.50928,-1.58018 0.35642,-0.6117 1.06949,0.45877 1.7823,1.73311 0.61107,1.58015 0.45831,4.23086 3.00451,4.84246 4.93958,16.9232 -0.91663,46.89572 0.45828,3.16035 z"
       inkscape:connector-curvature="0"
       sodipodi:nodetypes="cccccccccccccccccccccccccccccccccccccccccccccccccccccccccccccccccccccccccccccccccccccccccccccccccccccccccccccccccccccccccccccccccccccccccccccccccccccccccccccccccccccccccccccccccccccccccccccccccccccccccccccccccccccccccccccccccccccccccccccccccccccccccccccccccccccccccccccccccccccccccccccccccccccccccccccccccccccccccccccccccccccccccccccccccccccccccccccccccccccccccccccccccccccccccccccccccccccccccccccccccccccccccccccccccccccccccccccccccccccccccccccccccccccccccccccccccccccccccccccc" />
    <path
       id="North-Central-Province"
       style="display:inline;fill:#fefee4;stroke:#808080;stroke-width:0.50948542;stroke-opacity:1"
       d="m 110.76043,336.59054 -18.179685,-8.35966 -4.226644,-2.39573 -2.240643,-2.85455 -2.902635,-2.34478 -3.972033,0.15305 -3.513732,-2.65061 -3.360951,1.5292 h -4.073894 l -1.222161,-3.51719 -4.888659,-20.0836 -2.90263,-5.60707 2.13879,-4.94443 3.310023,-1.5292 0.916625,-1.7841 0.254603,-1.37625 6.161756,-5.04643 3.564634,-7.64602 -1.120308,-8.20674 1.629556,0.81558 1.935081,0.20389 0.407396,-18.45243 -1.578632,-11.72392 8.758858,3.61913 h 9.675461 l 19.198164,-5.04639 0.051,6.47364 2.03694,5.6071 3.0045,1.07044 2.90263,1.32531 1.27309,2.44674 0.71294,2.70159 2.08786,4.23081 4.17572,2.24284 2.03694,0.56071 1.9351,0.10193 3.00448,-5.45418 3.51373,-1.5292 3.6665,-8.56357 7.79129,-10.14373 6.00898,-2.75258 3.61557,1.93698 3.36096,2.39578 6.26358,-0.0511 5.24512,-4.02692 4.99052,-4.48566 4.3285,-5.04639 2.34248,-3.6701 2.80079,-3.36426 4.68496,-3.72108 -1.68047,-5.1993 -3.61556,-4.68955 -5.14328,-1.78409 -0.3565,-4.38371 14.66598,-0.45878 5.75435,-4.02689 5.14328,-1.47825 5.44881,-1.01946 5.55067,-2.29382 5.80528,0.10193 4.99051,2.85452 8.60606,6.01488 3.00451,3.36426 1.62953,2.14089 1.83325,1.42725 -2.29155,5.14832 -3.31002,4.94444 0.10181,8.56356 3.6665,8.00285 1.47678,4.17984 -3.05541,7.1363 0.15282,4.07789 1.68047,1.886 2.08788,2.03897 0.81477,4.7915 5.24512,7.74799 2.74987,6.62656 1.78232,2.24284 2.29155,1.78408 1.32402,3.05841 -1.62956,2.95644 -2.80078,1.83505 -2.44433,2.34479 -0.81479,2.44677 -0.4583,2.49766 -4.27758,15.29208 -2.54618,2.65065 -1.47677,3.56813 -0.81478,3.46621 -2.54618,1.47822 h -8.70793 l -7.79129,1.47825 -2.90265,7.64602 -1.62954,8.35969 -2.85172,7.49307 -1.32402,7.79896 -0.35646,6.93239 3.97204,3.1604 -3.8702,5.40319 -0.25465,5.25024 -4.12479,1.68218 -3.76834,1.88603 -2.54619,2.29377 -3.81925,4.02695 -1.17123,0.81555 -1.47681,-0.35676 h -1.986 l -1.06941,3.16036 v 3.72103 l -1.88415,2.8545 -2.49526,2.65064 0.40738,0.91757 0.15282,1.37625 -1.27309,0.76461 -1.37493,0.96851 -1.47677,2.39575 -2.95359,2.03893 -2.34247,-1.52919 -3.15727,-0.15306 -3.51371,4.23083 -6.62008,2.44675 -4.17571,3.10938 -5.04142,-4.79151 0.76384,-6.93239 -0.96755,-4.68955 -1.83325,-4.63862 -0.50923,-3.31327 -1.62956,-2.75258 -3.20817,-0.25472 -2.74987,-1.1724 -0.3565,-3.41523 0.25464,-3.6701 -0.56015,-4.23079 0.35649,-2.54868 -0.051,-2.44677 -3.00448,-2.44672 -3.71743,0.10204 -3.56465,-2.19181 -3.20818,-3.26235 -5.90713,-4.84251 -6.56912,-2.54865 -3.61557,-0.50974 -2.95358,-2.1409 -3.76833,-1.5292 z m 200.99517,49.59726 -1.78235,15.34306 2.8008,15.39403 -0.86569,4.48563 0.61108,4.74061 -1.06938,2.14087 -1.27309,1.3253 -0.91663,2.29381 -0.50925,2.08996 -3.81925,-0.45876 -4.63405,-2.70166 -9.57362,-2.95643 -5.80529,-5.862 -7.18021,-2.80351 -3.61556,0.66269 -7.33299,0.71359 h -3.71741 l -10.18471,1.88604 -10.59209,-0.76462 -0.45831,3.56814 -0.86571,3.51719 -3.00449,-1.88603 -1.68046,-2.39578 -3.92111,3.61916 -4.93958,2.03897 -5.19421,-1.12145 -1.98602,-2.80355 0.3565,-3.87396 -2.64802,-12.08081 1.324,-5.50512 5.70345,-1.27432 0.40737,-1.42727 0.66201,-1.42727 1.88418,-8.05383 0.56015,-4.58759 1.9351,-9.43013 5.90713,-6.21876 -2.90265,-1.73313 -3.10633,-0.61167 -2.29155,-0.66265 -2.39341,1.12141 -0.051,1.27436 -1.27309,0.81556 -1.68048,-0.61167 -1.06938,-1.17239 0.051,-3.5172 -2.69894,-3.10937 -1.73142,-1.68214 0.25464,-5.25025 3.87021,-5.40322 -3.97204,-3.16036 0.3565,-6.93239 1.32399,-7.79896 2.85173,-7.49311 1.62955,-8.35969 2.90264,-7.64602 7.79131,-1.47825 h 8.7079 l 2.54619,-1.47822 0.81477,-3.46621 1.47678,-3.56813 2.54618,-2.65065 2.95356,-0.86655 2.29157,3.41523 3.20817,1.27436 3.05541,2.34476 0.81477,4.17984 2.44433,2.44677 8.30053,-0.8156 14.9206,3.6701 h 3.56465 l 3.2591,1.886 3.15727,2.44675 3.51371,1.78407 2.49526,-0.20408 1.37494,2.03895 0.30557,2.49769 -0.051,2.59968 0.66201,3.77202 -1.0694,2.4977 -2.24065,1.42723 0.76386,0.56074 0.96755,0.30573 4.93959,-1.12145 2.80078,-6.5246 0.96755,-1.93702 1.27309,-5.1993 1.37495,-1.17239 1.47678,-1.12142 1.27308,-2.39578 1.83325,-1.93697 h 2.44433 3.05541 l 1.01846,10.39863 -1.57864,31.39971 1.4768,7.34016 3.2591,7.18727 1.62956,7.44216 -1.78234,0.15269 -7.1802,-0.96851 -5.6016,0.81556 -4.43034,2.95644 z"
       inkscape:connector-curvature="0" />
    <path
       id="Northern-Province"
       style="display:inline;fill:#fefee4;stroke:#808080;stroke-width:0.50948542;stroke-opacity:1"
       d="m 110.60767,113.47924 0.50923,5.55613 -5.1942,-0.66267 -3.76832,2.85453 -4.175747,2.08992 -6.772834,0.61168 h -1.425847 l 1.222165,-4.84249 v -11.62197 l 0.407392,-1.68214 -0.356498,-1.12141 -2.342473,-0.45876 -5.448836,-2.85452 -2.087858,-1.937002 -1.578636,-4.43469 -0.916621,-4.68958 -0.101819,-2.65062 2.342495,-2.4977 4.379407,-2.19187 4.837749,-1.52921 3.972034,-0.61168 1.782322,-0.86655 4.328495,-5.81099 1.27308,-0.91752 1.42587,-0.86655 1.78232,-0.66266 2.24064,-0.3568 -1.83325,-3.4662 -2.29156,-3.05842 -2.902633,-2.90548 -3.819275,-2.85453 -14.615044,-8.56356 -2.90265,-3.67007 6.365453,0.20389 5.958043,2.4467 11.916106,6.88145 11.35595,2.85452 2.95356,1.88603 4.68496,4.12885 1.12032,2.14089 -2.3934,1.22337 0.50922,1.37629 0.71294,1.37628 -1.22216,1.32531 4.12481,2.80356 9.77731,-2.39577 17.7723,-7.08532 4.78682,0.45876 10.54116,2.9055 12.37443,5.60708 9.36992,1.78407 0.10182,0.10193 -1.01849,0.86654 -0.40737,3.3133 -4.22664,3.31328 -0.56018,4.53665 0.50924,4.48566 -4.48128,-2.44673 -3.87018,-3.26231 -1.5277,-1.88602 -0.91663,0.30586 -2.74987,9.02232 -3.31002,1.78408 -4.99051,0.30586 -9.01346,-0.45878 -2.64804,0.10193 -3.36094,8.614542 -5.24512,0.50975 -5.29605,-0.96851 -5.39789,0.0511 -15.12428,1.78408 z m 44.609,-62.799442 2.49526,7.59508 0.40738,2.03894 -2.44433,0.10192 -1.57861,0.61169 -0.66201,1.07045 -0.71294,0.3568 -2.64801,-1.886 -1.06941,-0.20393 -6.36544,0.15298 -1.83324,-0.50973 -14.0549,-12.18267 -6.00897,-3.87399 -2.13878,-0.9685 4.12479,-7.28922 2.69895,-5.70904 9.42087,10.29667 6.11082,3.82299 z m 35.08632,25.38486 -0.91663,0.76459 -0.10182,-0.10193 -13.39289,-9.17524 -4.63404,-2.19187 -4.07389,-0.86655 -1.22216,-0.5607 -3.56464,-2.70159 -1.32402,-0.81559 -1.37492,-0.20389 -1.57864,0.10192 -0.40739,-2.03893 -2.49524,-7.59508 0.45831,0.20392 v -1.47824 l -7.1802,-3.61912 -17.31399,-14.17066 -14.20767,-16.41348 -7.18021,-3.87399 -11.355947,-2.7015896 -2.953582,-2.14089 -0.407373,-3.00743 4.124796,-1.83508 5.499736,-0.86654997 8.14823,-0.45816 3.92066,0.76400997 2.74987,1.937 1.78232,6.47365 1.83324,2.7525696 25.76731,30.38023 3.81925,2.80356 7.74039,4.38371 31.06335,25.23192 z m -175.227854,-10.09277 -3.157245,3.00743 -4.9905112,0.30586 -4.6340441,-1.5292 -2.03734861,-2.49771 -0.001241,-8.20674 0.56181073,-2.03896 1.32401798,0.25488 1.3749254,1.68211 0.8147889,2.08992 3.3609529,1.07045 4.073868,0.30586 1.018478,0.76459 z m 32.336451,-49.59729 -0.712939,2.3448 -0.560154,2.75256 0.051,2.70161 0.356498,2.34478 0.814776,1.98795 1.629553,1.83506 0.814773,0.20393 3.819271,-0.20393 0.661992,0.61168 0.254603,3.00746 0.50923,1.22336 2.240639,1.42725 3.055416,1.27435 2.546163,1.47823 0.865689,1.88602 -1.374923,1.42725 h -2.597099 l -2.800774,-0.86654 -1.9351,-1.22337 -1.425855,-0.35679 -3.513732,2.08991 -2.495257,0.30585 -3.055401,-2.24281 -3.055408,-4.53666 -4.786806,-9.58302 2.189715,-3.41523 0.509233,-4.33275 1.222161,-3.56816 4.277577,-0.91751 2.342476,0.71363 z m 78.014823,13.60995 -2.69895,5.70904 -4.12479,7.28922 -10.13378,-4.43469 -3.6665,-2.08993 -2.44433,-0.0511 0.4583,4.8425 1.37495,1.42725 2.13878,1.63117 1.22217,1.93699 -1.27309,2.54865 -1.47678,0.45878 -1.42585,-0.76461 -1.32402,-1.12142 -3.768344,-1.93698 -7.383912,-6.47365 -4.277577,-1.78407 2.189711,2.34478 3.870204,3.36426 2.189695,2.44673 -4.786806,-0.91754 -4.735881,-1.98795 -9.471771,-5.25028 -7.587626,-5.96392 -4.481255,-1.58016 -2.13879,-1.3763 -1.578633,-0.66266 -0.254641,1.42727 -2.13879,-1.47825 -0.814769,-1.93699 -0.407396,-2.29382 -0.76384,-2.59963 -1.27309,-2.19187 -2.800796,-3.6701 -1.324022,-2.29382 4.277577,-2.1409 7.791304,-7.1872596 3.462789,-1.58018 15.42984,1.37629 8.045919,-0.91751 2.902631,0.35679 1.17124,2.65063 -0.203675,4.17982 0.560158,1.4782296 1.73139,0.5607 1.629561,0.2039 4.735905,1.22336 0.96752,0.50974 0.86572,1.78406 2.13879,-0.0511 2.29155,-0.76459 1.68048,-0.20388 2.13879,1.27434 z m 130.87346,131.511792 0.76386,0.61169 -0.051,1.37629 -0.91663,1.42725 -1.83325,0.66266 -0.50924,-0.61168 -2.1897,-3.46621 -2.34249,-1.27433 -5.39789,-1.37629 -3.15727,-1.42726 2.24065,3.10938 7.12929,6.67755 v 0.66264 l -3.10633,1.37631 -3.81927,1.07043 -3.41189,2.03895 -3.76832,1.07044 -9.11531,1.22336 -7.74038,3.61913 3.61556,-13.50798 -2.3934,-3.21135 -6.2636,-3.823 -6.21266,-0.96851 -2.90265,1.98796 -3.05541,0.71364 0.30557,-2.7016 1.9351,-2.80354 -2.29157,-4.02692 -5.29603,-0.56071 -0.71294,-6.42266 -6.11082,-2.34479 -6.41638,0.20389 -0.4583,0.9685 -0.3565,1.01947 -1.88417,1.07044 -1.98603,0.96851 -3.36095,3.00743 -4.83773,2.14089 -3.05541,-4.53664 -4.93958,-3.1094 -6.77282,0.20389 -3.81927,-0.25486 -3.51371,0.35683 -0.50925,2.90548 1.5277,2.08993 2.90265,0.45876 0.20368,1.63116 -0.051,1.78407 0.71294,3.36426 0.2546,3.36425 -3.51373,5.35221 -5.49974,4.48569 -9.16623,5.76001 -32.54004,1.7331 2.49525,-7.13628 -0.86569,-1.37631 -0.96756,-1.78406 0.71294,-2.29383 1.01846,-2.2938 0.662,-2.14089 0.8657,-1.98798 4.32851,-1.5292 0.30557,-4.07787 -0.4583,-4.63861 0.71291,-2.9055 0.20371,-3.05841 -0.2546,-1.47823 -0.35646,-1.37628 -3.66649,-5.81098 -1.22217,-6.52463 -0.20371,-6.77949 5.1942,0.66267 -0.50923,-5.55613 5.14327,-6.67753 15.12429,-1.78408 5.39789,-0.0511 5.29605,0.96851 5.24511,-0.50974 3.36095,-8.614552 2.64804,-0.10192 9.01345,0.45877 4.99051,-0.30586 3.31003,-1.78407 2.74987,-9.02232 0.91663,-0.30586 1.5277,1.88602 3.87018,3.26231 4.48128,2.44673 -0.50925,-4.48567 0.56018,-4.53664 4.22665,-3.31329 0.40737,-3.31327 1.01848,-0.86657 0.91663,-0.76459 1.22216,-1.01948 23.32298,18.96217 1.62957,2.65063 2.18969,2.75258 4.22667,4.026892 2.69894,3.46622 -2.3934,1.27433 -1.52771,-0.71363 -2.08788,-2.65061 -1.17124,-0.6117 -3.56464,-0.61168 -1.5277,0.50973 1.01848,2.08992 10.23561,9.53206 4.02297,2.19186 -1.57864,-2.44673 -0.96755,-2.24284 0.45832,-1.68212 2.74988,-0.66266 1.27309,0.86655 2.08786,6.1678 9.42085,18.80926 -5.70343,-2.08993 -2.59711,-0.0511 -1.12031,2.85453 1.52771,0.71363 3.20817,0.50973 2.85172,1.83505 0.4583,4.53664 h 1.37495 l 0.662,-1.17239 0.56016,-0.45875 0.66201,-0.35679 0.91662,-0.61169 1.12032,4.48566 2.80079,6.3717 3.71742,5.70905 z m -197.888801,92.7719 -5.194202,-1.98798 -2.291567,-1.32529 0.763863,-0.76462 2.240621,-7.08533 0.407395,-0.40777 0.458321,-1.7841 1.833251,-3.97594 1.782318,-19.42092 -4.786825,-12.38658 0.407396,-2.14089 0.30557,-14.32356 -0.458305,-4.68956 -0.560173,-2.29382 -1.018456,-1.78408 -0.814791,-1.98795 1.833247,-0.96851 2.648034,-0.50975 1.731391,-0.56069 11.457806,-10.29667 5.958043,-2.95646 2.444329,-2.19187 1.324014,-4.84247 2.393409,-4.99543 1.324013,-6.93239 6.365438,-16.4135 0.814769,-3.31328 h 1.425852 l 6.772834,-0.61168 4.175746,-2.08992 3.76832,-2.85453 0.20371,6.77949 1.22217,6.52463 3.66649,5.81098 0.35646,1.37628 0.25461,1.47823 -0.20368,3.05841 -0.71292,2.9055 0.4583,4.63861 -0.30557,4.07787 -4.3285,1.5292 -0.8657,1.98798 -0.66201,2.14089 -1.01846,2.29381 -0.71293,2.29381 0.96755,1.78407 0.86569,1.3763 -2.49525,7.13628 32.54014,-1.73309 5.34696,2.49771 3.05541,4.89347 3.00448,7.64603 -1.01845,6.98337 -10.59211,3.87399 -11.10131,1.42725 -7.1293,-0.81557 -5.49974,3.05841 -2.95356,6.67754 -5.09236,0.50975 -0.71292,2.95645 -0.051,2.59965 4.63402,3.56816 7.48577,9.63399 -19.198171,5.04641 h -9.675476 l -8.758843,-3.61913 1.578636,11.72391 -0.407396,18.45243 -1.935077,-0.20389 -1.629564,-0.81558 -5.245123,-3.00744 -5.041417,-2.14089 z m -37.836174,-109.23635 7.944069,2.03893 8.402372,3.21135 7.994993,4.68957 6.772834,6.5246 -3.259117,-0.71361 -5.703427,-2.80355 -3.310023,-0.56072 9.166231,10.44957 1.731391,3.1094 -4.684946,-0.56071 -3.106344,-2.39575 -2.087862,-2.59966 -1.629556,-1.22337 -2.036936,-1.01946 -8.096849,-7.23826 -8.09683,-3.61912 -4.481282,-1.27434 -4.328503,-0.45876 -2.1897139,-0.86654 -0.967531,-1.93701 0.611082,-1.88602 2.5461629,-0.86654 z m 96.041745,96.39101 -2.03693,-5.60709 -0.051,-6.47366 -7.48577,-9.63399 -4.63405,-3.56816 0.051,-2.59965 0.71293,-2.95645 5.09235,-0.50975 2.95357,-6.67754 5.49975,-3.05841 7.12927,0.81557 11.10134,-1.42725 10.59209,-3.87399 1.01847,-6.98337 -3.00448,-7.64603 -3.05541,-4.89347 -5.34698,-2.49771 9.16623,-5.76001 5.49974,-4.48569 3.51373,-5.35221 -0.25464,-3.36425 -0.71294,-3.36426 0.051,-1.78407 -0.20367,-1.63116 -2.90265,-0.45876 -1.52771,-2.08993 0.50925,-2.90548 3.51372,-0.35679 3.81927,0.25486 6.77281,-0.20389 4.93958,3.10939 3.05542,4.53665 4.83773,-2.14089 3.36095,-3.00744 1.98602,-0.9685 1.88418,-1.07045 0.3565,-1.01946 0.4583,-0.96851 6.41638,-0.20388 6.11082,2.34478 0.71294,6.42266 5.29605,0.56071 2.29155,4.02692 -1.9351,2.80355 -0.30557,2.7016 3.05541,-0.71364 2.90265,-1.98796 6.21266,0.9685 6.2636,3.82301 2.3934,3.21134 -3.61557,13.50798 -1.62956,2.80355 -0.86569,3.51718 -5.44882,1.01947 -5.14327,1.47825 -5.75435,4.02689 -14.66599,0.45877 0.35646,4.38371 5.1433,1.7841 3.61557,4.68954 1.68046,5.19931 -4.68495,3.72107 -2.80079,3.36426 -2.34251,3.6701 -4.32848,5.04639 -4.99052,4.48567 -5.24512,4.02692 -6.26358,0.0511 -3.36096,-2.39578 -3.61558,-1.93698 -6.00897,2.75257 -7.79129,10.14374 -3.66649,8.56357 -3.51373,1.5292 -3.00449,5.45417 -1.9351,-0.10192 -2.03694,-0.56071 -4.17572,-2.24284 -2.08788,-4.23081 -0.71291,-2.70159 -1.27309,-2.44673 -2.90266,-1.32532 z"
       inkscape:connector-curvature="0"
       sodipodi:nodetypes="ccccccccccccccccccccccccccccccccccccccccccccccccccccccccccccccccccccccccccccccccccccccccccccccccccccccccccccccccccccccccccccccccccccccccccccccccccccccccccccccccccccccccccccccccccccccccccccccccccccccccccccccccccccccccccccccccccccccccccccccccccccccccccccccccccccccccccccccccccccccccccccccccccccccccccccccccccccccccccccccccccccccccccccccccccccccccccccccccccccccccccccccccccccccccccccccccccccccccccccccccccccccccccccccccccccccccccccccccccccccccccccccccccccccccccccccccccccccccccccccccccccccccccccccccccccccccccccccccccccccccccccccccccccccccc" />
    <path
       id="North-Western-Province"
       style="display:inline;fill:#fefee4;stroke:#808080;stroke-width:0.50948542;stroke-opacity:1"
       d="m 42.573857,508.5244 -3.666495,0.96851 -4.684971,-0.25472 -8.55515,-62.54456 -1.171238,-2.54868 0.763843,-0.91753 0.611082,-0.051 1.425872,0.96848 0.305539,-3.46615 1.018458,-3.97594 0.458321,-3.874 -1.069403,-3.00745 -1.527705,-2.70159 -0.560156,-3.67011 0.051,-7.3402 -5.092346,-24.92609 -2.342494,-4.89344 -1.986008,-10.29665 -3.259099,-8.1558 -4.939585,-22.47929 v -6.3717 l 0.8147704,0.35677 0.1018149,0.10203 v 0.20408 l 0.4073754,0.71367 0.7129353,-3.72101 -1.0184754,-11.77503 -1.0184577,-3.56817 3.2590991,-2.14087 3.055411,-3.97595 2.240642,-4.48567 0.865696,-3.82301 0.865697,-2.44676 5.856208,-9.2262 -3.004485,7.08534 -3.71742,6.62656 1.018477,2.0389 1.425852,1.42728 1.9351,0.76462 h 2.342476 l -1.9351,5.40318 -1.986008,3.97596 -0.865697,0.71363 -0.916623,0.10204 -0.712936,0.56073 -0.305539,2.08992 0.152819,4.74053 -0.152819,1.42727 -3.360953,10.70442 0.356468,5.91297 4.481263,5.30126 -3.972035,8.25769 6.31451,4.58763 9.115326,0.71363 4.684951,-3.31327 -0.916625,-3.51723 -2.08786,-3.87399 -2.444328,-3.05835 -1.9351,-1.27436 -0.611082,-2.14091 6.620068,-12.6924 -0.203721,-2.29382 -0.865697,-1.73312 -0.96755,-1.42727 -0.611082,-1.47822 -0.20369,-2.39578 0.254611,-4.12882 -0.051,-1.78407 -0.66199,-1.73313 -0.712936,-0.66265 -0.356467,-0.8156 0.356467,-2.19185 0.967551,-1.93697 2.546164,-3.36425 0.509248,-2.19189 0.458302,-4.17984 1.833249,-8.35966 1.884174,-19.47192 1.222164,-2.19185 1.273089,-1.12142 0.967547,-1.3253 0.458308,-2.9055 v -8.25772 l 1.120328,-4.0779 2.698944,-2.59963 3.157242,-2.19187 1.833247,-1.98795 2.291571,1.32529 5.194194,1.98798 5.805284,0.50972 5.041417,2.1409 5.245123,3.00744 1.120334,8.20674 -3.56466,7.64602 -6.161752,5.04639 -0.254603,1.37629 -0.916625,1.7841 -3.310023,1.5292 -2.138786,4.94443 2.902645,5.60707 4.888659,20.0836 1.222165,3.51719 h 4.073867 l 3.360955,-1.52919 3.513728,2.6506 3.972037,-0.15305 2.902631,2.34479 2.240643,2.85451 0.356498,3.82301 -0.101819,3.97591 2.087869,7.90093 0.712932,3.874 1.833251,3.61911 2.698936,0.91752 2.393409,1.47822 -0.509234,2.39574 -0.763859,2.59971 0.152823,5.3522 -0.203676,4.53661 -1.476779,2.24287 -1.171259,2.34476 2.393424,4.43472 -2.495262,1.93701 -4.073886,-2.3448 -1.171236,1.93702 -0.05097,2.4467 -1.476779,1.58021 -1.273089,0.35677 0.152822,-0.35677 0.254604,-0.30573 -2.953555,1.32526 -1.222161,2.80356 -0.254604,1.98799 -0.814788,1.83506 -4.175723,2.14086 -0.916622,2.03898 -0.560158,2.19185 -2.444325,1.63116 -2.546186,1.32531 -0.712932,2.19185 -0.35646,2.34475 -1.884171,4.84254 -0.611082,5.25024 1.069383,2.24287 0.763864,2.08992 -1.425871,1.83506 -2.13879,0.86654 -2.800778,0.20407 -2.546186,0.81557 -1.374941,2.29385 -0.967524,2.65062 2.393401,0.56068 1.120305,1.83509 -2.342477,1.27433 -2.851721,0.76458 -1.425852,1.98799 -0.712935,2.24283 -2.953559,5.04635 -2.13879,5.50515 -0.407392,6.83046 0.356498,6.88148 7.28206,39.24966 0.509233,11.87681 -3.462788,-1.32531 -2.902654,1.78407 -2.291552,-0.25472 -1.5277,-1.73313 z m 71.802163,-1.52923 -4.07389,3.6701 -4.02296,2.29381 -3.41188,-2.49767 -4.939585,-5.60711 -1.120304,-1.68211 -0.560162,-1.68218 -1.782319,-1.98795 -5.499741,0.9685 -4.83773,3.46625 -5.703447,1.68211 -5.448813,-3.874 -4.684976,0.20408 -7.536667,5.91294 -4.175724,1.68214 -0.509248,-11.87685 -7.282064,-39.24965 -0.356498,-6.88145 0.407392,-6.83049 2.13879,-5.50512 2.953556,-5.04635 0.712935,-2.24287 1.425855,-1.98799 2.851725,-0.76458 2.342469,-1.27433 -1.120304,-1.83508 -2.393402,-0.56065 0.967543,-2.65066 1.37493,-2.29381 2.546186,-0.81556 2.800793,-0.20408 2.138791,-0.86654 1.425851,-1.83506 -0.763848,-2.08992 -1.069399,-2.24283 0.611082,-5.25028 1.884168,-4.84253 0.356498,-2.34476 0.712912,-2.19184 2.546182,-1.32532 2.44433,-1.63116 0.560157,-2.19189 0.916622,-2.03893 4.175739,-2.14083 0.814773,-1.8351 0.254641,-1.98795 1.222165,-2.80356 2.953555,-1.32526 -0.254642,0.30573 -0.152822,0.35677 1.273089,-0.35677 1.47678,-1.58014 0.05097,-2.44673 1.171236,-1.93702 4.07389,2.34479 2.495258,-1.93697 -2.393405,-4.43472 1.17124,-2.34479 1.476779,-2.24283 0.203676,-4.53665 -0.152823,-5.35221 0.763863,-2.59967 0.50923,-2.39577 -2.393405,-1.47818 -2.69894,-0.91756 -1.833251,-3.61908 -0.712932,-3.87403 -2.087861,-7.9009 0.101818,-3.97594 -0.356498,-3.82301 4.226645,2.39576 18.179696,8.35966 3.92111,0.96851 3.76835,1.5292 2.95356,2.14086 3.61557,0.50974 6.56914,2.54866 5.90712,4.84254 3.20819,3.26231 3.56464,2.19185 3.71742,-0.10204 3.00448,2.44672 0.051,2.44676 -0.3565,2.54869 0.56015,4.23079 -0.2546,3.6701 0.35649,3.41523 2.74988,1.1724 3.20819,0.25472 1.62954,2.75258 0.50925,3.31327 1.83324,4.63861 0.96753,4.68956 -0.76384,6.93239 5.04142,4.79151 -0.91663,3.26232 0.50925,3.51715 1.73139,0.96851 1.47679,0.40782 1.42587,3.10937 1.93508,3.31327 1.37494,3.41526 0.051,3.41524 0.71292,0.5097 1.01847,1.42727 0.56016,6.67755 1.06941,6.16781 3.61556,3.56813 -0.051,2.29381 -0.61108,2.34476 0.051,1.8351 -0.71293,1.73311 -2.80079,2.54866 -0.45831,4.17984 1.98601,4.02686 1.17124,1.988 1.01847,2.08989 0.56016,2.49773 -0.40737,2.39578 -1.12034,1.5292 -0.10181,2.0389 -2.34248,1.12146 -2.34247,0.56072 1.57861,2.54869 1.17126,2.70155 -2.08789,1.01946 -2.8517,-0.50967 -2.90265,1.63112 0.30557,2.24287 -0.25464,2.03894 -3.41188,-0.25472 -3.05541,-2.19185 h -2.80091 l -0.66199,4.0269 -0.81479,1.07043 -0.66201,1.17236 0.15283,1.27436 0.30556,0.96851 -3.51371,1.01945 -4.07389,-0.45872 -1.83324,-3.82301 -2.85172,-3.00749 -4.73588,-0.61171 -4.32851,1.73316 -0.71292,3.77203 0.25464,4.07788 -0.66201,2.34476 -1.42585,1.93702 -2.08788,0.10204 -9.62454,2.1409 -4.63404,2.19181 z"
       inkscape:connector-curvature="0" />
    <path
       id="Southern-Province"
       style="display:inline;fill:#fefee4;stroke:#808080;stroke-width:0.50948542;stroke-opacity:1"
       d="m 205.83466,765.48216 5.04144,2.29378 1.06938,0.61167 -3.00448,3.5172 -8.09683,-0.45877 -3.36096,0.45877 -2.59711,1.01948 -2.74987,1.58018 -4.78681,3.61912 -2.74987,0.61091 -3.25912,-1.27356 -3.46278,-1.78407 -3.36096,-1.01949 -11.4578,1.37629 -3.20817,-0.66269 -1.68048,-1.68207 -1.06938,-2.1409 -1.42588,-2.24287 -3.36095,1.98799 -3.00448,0.20408 -5.29604,-0.76462 v -0.20408 l -0.3565,-2.08996 -0.051,-2.19184 2.1897,-3.874 3.56466,-1.3253 1.22216,-2.39574 -3.51373,-1.47825 -1.5277,-0.8156 -0.61108,-2.08989 1.17123,-1.88603 2.69896,-1.07047 3.15725,-3.2113 2.69894,-3.21134 -3.10632,-2.85454 -3.56466,-2.39574 -3.00448,-2.90553 -1.27309,-3.87398 1.78231,-3.87399 1.42588,-4.1288 -0.96755,-3.21137 -2.03693,-2.4977 6.92559,1.22337 3.4628,-4.23082 -1.4768,-5.70904 -4.17572,-5.96391 -3.9211,-2.54865 -1.9351,-3.67014 3.15726,-0.86651 3.2591,0.96847 4.17574,3.16035 3.76833,3.56818 6.05989,1.42724 1.17126,-5.65807 -3.0045,-3.05843 -2.34248,-3.5681 2.64802,-2.70163 4.07389,-1.22334 3.87018,-0.56073 3.8702,-0.91753 1.324,-3.21133 3.36095,-0.051 8.657,-1.12146 2.85174,5.25028 -1.2731,3.56821 3.51371,0.61165 4.73591,-0.76462 2.18971,2.70163 -0.15282,1.886 2.54616,1.88602 -1.06939,1.07044 v 1.88603 l -1.83324,0.76458 0.30557,1.47825 -1.32402,3.51723 1.32402,3.16032 -7.5367,5.76003 -2.3934,8.56354 3.41188,2.39574 3.71742,1.42727 1.78232,-0.30575 1.01848,1.07048 -0.91663,2.08988 -1.17123,1.78407 0.66201,3.41523 3.2591,1.73309 2.29154,-0.35677 2.18972,0.45877 -0.71291,1.73308 -1.83325,1.68218 2.18969,7.64602 -6.36543,2.75258 0.45832,3.16032 2.69894,1.83505 1.93511,0.15306 1.68045,0.91752 -0.10182,1.68211 -1.37492,0.76462 z m 193.25475,-105.71918 4.78684,1.47821 1.73137,0.61171 -6.00897,9.58303 -6.21268,6.21875 -11.40687,8.15576 -3.76827,1.17241 -4.99055,2.70162 -36.61402,28.95296 -7.28206,3.97595 -23.78128,8.51257 -0.3565,-3.05839 -1.42585,-1.12145 -1.5277,0.40781 -0.71294,1.58014 -0.40739,3.36424 -1.12031,1.27437 -1.7314,0.4588 -2.24064,1.01945 -4.27757,2.59967 -4.27758,1.93698 -20.57309,4.43468 -9.93009,3.41526 -10.89763,1.98797 -4.99051,1.93701 -2.95356,4.23078 -5.34698,-1.07042 -5.14327,1.98795 -15.17521,11.31616 -0.50924,0.56065 -1.06939,-0.61167 -5.04144,-2.29378 -2.29154,-3.6701 1.37492,-0.76461 0.10182,-1.68211 -1.68046,-0.91752 -1.93511,-0.15306 -2.69894,-1.83502 -0.45832,-3.16039 6.36543,-2.75254 -2.18969,-7.64606 1.83325,-1.6821 0.71291,-1.73312 -2.18971,-0.45881 -2.29155,0.35677 -3.2591,-1.73309 -0.66201,-3.41523 1.17124,-1.78407 0.91662,-2.08988 -1.01847,-1.07052 -1.78233,0.30575 -3.71742,-1.42727 -3.41187,-2.39574 2.3934,-8.56358 7.53669,-5.76003 -1.32401,-3.16036 1.32401,-3.51719 -0.30557,-1.47825 1.83325,-0.76458 11.30502,2.19185 14.46229,5.30126 3.76833,0.56073 3.76834,-0.86654 3.76833,-0.40782 3.0045,2.39578 2.29155,2.70159 7.23114,1.42723 4.12481,1.37633 1.01848,-3.46621 -1.83325,-5.09737 -3.66649,-4.07789 4.88866,-3.16035 4.93956,-2.7016 5.60159,-1.83504 4.27758,-3.26233 -1.9351,-4.4857 0.96755,-4.48562 h 2.49525 l 2.64802,-0.20408 1.62956,-2.29382 v -2.65057 l 2.3934,1.73305 1.88418,-2.14087 4.93958,-0.051 4.88866,0.61168 3.36095,1.22337 1.52771,3.6701 1.9351,0.25511 2.13879,-0.10205 1.78232,-1.27435 2.49525,-0.25473 3.6665,4.84246 3.00448,5.14832 4.93959,2.03898 5.39788,-2.95647 1.9351,-1.93698 3.05541,-1.27436 5.70343,-1.52923 11.71241,-4.58763 2.18971,-1.58014 0.45831,0.61168 1.7314,0.25471 5.29604,-1.93697 5.49974,1.22337 2.54619,-4.23086 v -1.73305 l -0.10186,-1.6312 0.86572,-1.22338 0.86569,-1.37625 -1.01845,-2.70159 -0.10186,-3.36425 3.92113,-3.10941 4.68497,-2.14087 3.56464,-3.46621 4.17574,-3.2113 5.296,-0.96855 3.56467,-4.12886 5.85622,7.28922 2.29151,0.15306 2.4953,0.35676 z m -255.43237,108.67561 0.3565,2.08996 v 0.20408 l -1.2731,-0.15306 -0.96755,-0.45876 -0.61108,-0.91753 -0.86569,-0.91749 -1.52771,-0.45875 -0.91662,0.35676 -0.71293,0.61171 -0.76385,0.56065 -1.01848,-0.051 -0.71293,-0.56069 -1.22216,-1.78411 -0.76385,-0.45872 -9.82824,-3.56817 -5.90714,-1.22335 -4.27757,-3.46621 -2.85171,-1.42723 -1.47679,1.47821 -3.66649,-2.95646 -16.091833,-17.12713 -1.324021,-1.07047 -0.611078,-0.7136 -0.203676,-0.8156 0.05097,-1.73309 -0.50923,-0.86658 -2.444326,-3.21133 -9.115307,-19.36992 -0.356497,-1.83506 0.101818,-3.31327 -0.356498,-1.01948 -1.629556,-3.41523 -1.629538,-9.32816 -3.666494,-6.52465 -2.240643,-9.37913 1.324017,0.30574 1.069384,1.5292 1.17124,1.07042 1.27309,-0.91752 1.986028,-0.81556 1.425855,1.4272 1.018474,1.68221 7.231135,3.4152 3.615566,0.71359 3.921109,1.73312 3.157257,2.80356 3.259106,2.19185 8.555148,1.63117 5.39791,-3.00742 5.95804,-0.50978 5.85621,4.4857 3.00448,2.95646 3.10634,2.44676 0.3565,-3.97596 -1.47679,-4.33275 v -4.28177 l 3.6665,-1.58018 6.87467,-4.2818 7.02745,-1.63113 2.3934,2.49767 2.69894,2.29382 3.31005,1.32534 2.95355,0.10204 6.11082,3.00745 3.20817,-0.10204 1.68049,2.49773 -4.07389,1.22335 -2.64801,2.70159 2.34247,3.56813 3.00449,3.05843 -1.17124,5.65807 -6.0599,-1.42727 -3.76834,-3.56814 -4.17573,-3.16039 -3.25909,-0.96847 -3.15727,0.86654 1.9351,3.67014 3.9211,2.54865 4.17573,5.96392 1.47678,5.70903 -3.46278,4.23079 -6.92562,-1.22338 2.03696,2.49775 0.96755,3.21133 -1.42588,4.12883 -1.78232,3.87399 1.2731,3.87399 3.00448,2.90553 3.56464,2.39573 3.10633,2.85451 -2.69894,3.21133 -3.15726,3.21134 -2.69894,1.07044 -1.17124,1.88603 0.61109,2.08992 1.5277,0.81556 3.51373,1.47825 -1.22216,2.39574 -3.56466,1.32535 -2.18972,3.87399 z"
       inkscape:connector-curvature="0"
       sodipodi:nodetypes="cccccccccccccccccccccccccccccccccccccccccccccccccccccccccccccccccccccccccccccccccccccccccccccccccccccccccccccccccccccccccccccccccccccccccccccccccccccccccccccccccccccccccccccccccccccccccccccccccccccccccccccccccccccccccccccccccccccccccccccccccccccccccccccccccccccccccccccccccccccccccccccccccccccccccccccccccccccccccccccccccc" />
    <path
       id="Uva"
       style="display:inline;fill:#fefee4;stroke:#808080;stroke-width:0.50948542;stroke-opacity:1"
       d="m 310.88988,515.04904 v -4.1289 l 7.68945,-1.83501 1.52771,3.82301 1.73141,3.26228 4.02294,-1.42727 3.6665,-2.70159 -1.06938,-7.39115 v -7.64606 l 4.88867,0.20408 3.97201,-2.24283 0.91661,-1.37633 1.37496,-1.68206 0.91662,-1.93702 -0.25449,-2.34475 -1.06937,-2.3448 -0.0511,-2.59967 2.03695,-0.15306 2.74985,-0.71363 1.32403,-2.14087 0.71293,-1.88603 2.18971,-0.96847 2.3934,-0.8156 4.9396,-2.65061 3.87019,1.01945 -2.90265,4.58763 1.22216,0.71363 1.324,0.25472 -0.40738,2.65061 2.34248,10.5006 -0.30561,4.79152 0.81476,3.82301 4.37942,3.82301 2.74988,4.8425 0.56017,4.28173 4.27757,5.91297 -3.20819,2.54865 -4.12481,4.89348 -2.29157,6.16777 2.5462,4.68959 0.81475,3.05843 1.52771,2.75253 1.57865,0.71364 h 1.47675 l 1.22217,0.71363 1.01847,0.91753 7.0274,1.83509 5.80529,3.51715 -0.35642,3.72109 -0.91663,3.92497 1.32398,3.87399 0.0511,3.82301 2.34255,3.41523 0.96756,3.92494 -5.09241,73.14707 -3.56468,4.12887 -5.29597,0.9685 -4.17574,3.21134 -3.56464,3.46617 -4.68494,2.14091 -3.92112,3.10941 0.10186,3.36425 1.01848,2.70163 -0.86569,1.37625 -0.86572,1.22334 0.10186,1.63116 v 1.73313 l -2.54619,4.23079 -5.49974,-1.22338 -5.29604,1.93697 -1.7314,-0.25471 -0.45831,-0.61168 -2.18971,1.58018 -11.71242,4.58763 -5.70343,1.52919 -3.0554,1.27436 -1.93511,1.93698 -5.39788,2.95651 -4.93959,-2.03898 -3.00448,-5.14832 -3.66649,-4.8425 -2.49526,0.25473 -1.78232,1.27436 -2.13879,0.10204 -1.9351,-0.2551 -1.52771,-3.67007 -3.36095,-1.22337 -4.88866,-0.61168 -4.93958,0.051 -1.88417,2.14087 -2.3934,-1.73308 v 2.6506 l -1.62957,2.29382 -2.64801,0.2037 h -2.49526 l -0.96755,4.48566 1.9351,4.4857 -4.27757,3.26233 -5.6016,1.83504 -4.93956,2.7016 -4.88866,3.16035 -1.52771,-4.6386 -1.88417,-3.61917 -3.61557,-2.54864 -3.76834,-2.03894 -2.74987,-3.72108 -2.24064,-4.28178 -0.15283,-12.33557 -1.22216,-3.10941 -0.61108,-3.31327 3.00448,-5.65809 3.71742,-5.30123 1.93508,-8.66547 1.88418,-4.38377 3.56465,-4.38374 2.03693,-5.09733 3.25911,-4.94446 2.3425,0.10204 1.5277,2.39577 0.91662,3.41519 1.57862,0.81556 1.5277,0.35677 1.83325,4.07784 1.37494,4.38374 1.37493,0.66265 1.32402,0.81556 0.86569,6.32075 2.29157,2.8545 1.73139,2.75254 0.76387,-5.30118 2.80078,-4.3328 2.08787,1.37629 2.13879,1.01945 0.61108,-4.74049 4.1248,-1.47826 -2.95356,-4.58758 -1.83325,-5.55618 -0.051,-3.05835 0.40739,-2.90552 2.90263,-4.58763 -0.20368,-3.51715 -3.46281,-0.91757 -0.76384,-2.59963 1.68047,-3.61912 -0.40739,-4.28181 0.45831,-4.17977 6.67099,-0.61171 1.73139,-3.31326 5.70345,-1.73312 -4.78681,-6.77948 4.22665,-2.3448 5.04142,-1.37628 2.44433,-2.03891 2.03693,-2.54872 0.86572,-1.58018 1.17124,-1.22334 1.986,0.86654 2.54618,-0.56072 1.01848,-2.85454 0.50923,-3.10938 1.32402,-2.08988 1.06938,-2.14091 0.76386,-5.50515 0.91663,-3.61916 v -3.67002 l -0.56017,-2.8036 -1.01846,-2.65061 -1.47678,-1.78407 -1.0694,-0.96851 -2.13879,-2.75253 -7.23114,1.93697 -2.3425,-2.44676 -1.93508,-4.07784 -3.05541,-2.9565 -2.44432,-3.21134 0.61108,-4.0269 2.29154,-3.51716 3.25912,0.40778 2.74987,2.95647 3.2591,-1.37629 1.78232,-3.05843 5.39789,-6.88144 z m -48.93749,-47.71127 -0.96755,-16.26058 1.93508,-9.37915 0.50925,0.50974 3.00449,1.83505 1.27309,2.85451 0.2546,3.21134 1.57863,4.79151 4.83774,8.15581 3.61557,-1.27437 1.9351,-0.45876 2.3934,-0.91753 4.22665,-3.92497 9.67546,-5.40318 8.75886,1.88602 0.71292,9.99082 -2.03694,9.685 -1.12031,2.0389 -0.56016,1.7841 0.61109,2.44673 0.76384,2.4977 1.32402,8.76743 2.13879,4.63861 2.95355,2.95651 1.7314,-0.40782 2.44433,0.45876 0.81478,1.78407 1.37493,2.29381 1.73141,3.61912 0.71292,3.56818 -7.68946,1.83501 v 4.1289 l -1.5277,3.72101 -5.39789,6.88144 -1.78232,3.05843 -3.2591,1.37629 -2.74987,-2.95647 -3.25911,-0.40778 -2.29156,3.51716 -0.61107,4.0269 2.44432,3.21133 3.05541,2.95651 1.93509,4.07784 2.34249,2.44676 7.23113,-1.93698 2.13879,2.75254 1.0694,0.96851 1.47678,1.78407 1.01846,2.65061 0.56018,2.8036 v 3.67006 l -0.91663,3.61916 -0.76386,5.50511 -1.06938,2.1409 -1.32402,2.08989 -0.50923,3.10941 -1.01848,2.8545 -2.54618,0.56077 -1.98601,-0.86658 -1.17124,1.22334 -0.86571,1.58018 -2.03694,2.54872 -2.44432,2.0389 -5.04142,1.37629 -4.22667,2.3448 4.78683,6.77947 -5.70345,1.73313 -1.7314,3.31326 -6.67098,0.61171 -0.45832,4.17981 0.4074,4.28177 -1.68047,3.61912 0.76384,2.59963 3.46281,0.9176 0.20368,3.51712 -2.90263,4.58763 -0.4074,2.90552 0.051,3.05835 1.83324,5.55617 2.95356,4.58759 -4.12479,1.47825 -0.61109,4.74054 -2.13879,-1.01945 -2.08787,-1.37629 -2.80079,4.33275 -0.76386,5.30123 -1.73139,-2.75258 -2.29157,-2.8545 -0.86569,-6.32075 -1.32402,-0.81556 -1.37492,-0.66266 -1.37495,-4.38373 -1.83325,-4.07785 -1.5277,-0.35676 -1.57861,-0.81556 -0.91663,-3.41519 -1.5277,-2.39578 -2.3425,-0.10204 -3.61556,0.15306 -4.02297,3.00745 -4.73587,1.93694 -4.48129,-0.86654 -3.00448,-2.44672 -2.08787,-3.31327 0.91663,-2.59967 5.34698,-2.44672 0.76384,-0.76461 0.61108,-1.58018 0.45833,-1.83505 -3.36096,-1.0704 -2.69896,-2.9565 -1.47677,0.56076 -1.42586,0.71356 -0.56016,-7.34016 3.71743,-0.91757 2.03693,-2.85446 -1.83325,-0.91756 -1.78232,-1.17237 2.90263,-4.74053 -0.81477,-1.32534 -0.96755,-1.22338 -1.12031,-3.0584 -1.32401,-2.80355 -6.26359,-3.16036 -0.25464,-3.21134 3.56466,-0.15306 3.71742,0.20408 2.64801,-3.05843 0.91663,-3.97592 3.15726,-2.85454 3.56465,-1.68214 7.43484,-1.63112 4.37941,-6.57559 0.91662,-3.87399 1.78232,-3.51719 1.57863,-1.47825 1.32402,-1.63113 0.66201,-1.47825 -0.30557,-1.37629 -1.0694,-3.51715 0.91662,-1.886 1.37494,-1.63119 -0.71293,-1.01946 -0.91663,-1.07047 -0.40739,-1.6821 0.45832,-1.83501 -1.52771,-4.9445 0.20368,-3.61909 2.49525,-1.52923 4.22665,-1.1724 5.29605,-4.99537 0.3565,-6.47366 -4.32851,-14.37455 z"
       inkscape:connector-curvature="0" />
    <path
       id="Sabaragamuwa"
       style="display:inline;fill:#fefee4;stroke:#808080;stroke-width:0.50948542;stroke-opacity:1"
       d="m 120.79238,587.63535 -8.1987,-8.35965 -3.05541,1.37629 -0.10182,-1.93698 -0.25459,-1.93701 2.64803,-2.44673 -0.61108,-3.61912 -3.41187,-1.73312 -4.27758,-0.30574 0.56015,-1.63112 v -1.83502 l -2.95356,-9.43016 1.01846,-5.81101 2.49526,-5.81096 2.85172,-1.98796 1.47678,-3.36425 -4.12482,-1.22338 -4.83773,1.12142 -2.393397,-4.99541 0.865693,-5.65806 3.106334,-1.58022 2.54619,-2.44672 0.56015,-6.83046 1.93511,-1.58017 -0.3565,-2.65062 4.02296,-2.29381 4.07387,-3.6701 4.32851,-3.10937 4.63404,-2.19185 9.62453,-2.14091 2.08788,-0.10204 1.42585,-1.93701 0.66201,-2.3448 -0.25464,-4.07788 0.71292,-3.77203 4.32851,-1.73312 4.73589,0.61171 2.85171,3.00744 1.83324,3.82301 2.3934,6.11683 8.55516,7.49315 -0.35646,3.87395 1.68047,1.1724 4.99051,2.80356 2.3934,2.90548 -0.45832,3.56814 0.051,2.90552 2.85172,2.8545 2.29155,2.90548 -1.12032,2.59967 -1.5277,2.44676 -2.13879,0.50971 -2.18971,0.15306 -3.10634,3.36424 -6.82374,1.12138 -2.24064,2.08996 3.00448,7.18726 1.42588,2.4977 -1.42588,3.0584 -0.10181,3.92497 0.25464,0.66265 0.66198,0.15306 -1.73139,2.80356 -2.74986,2.44672 -1.47678,0.50975 -1.12032,1.47821 1.12032,1.5292 1.27309,1.27436 -1.37495,7.39118 1.68048,5.76003 5.75436,1.88599 4.53219,3.41523 1.52771,5.25028 0.30557,2.65065 -2.24064,1.98796 -3.92111,0.15306 -3.92111,-0.56073 -5.44881,-1.83509 -4.22665,-2.44672 -3.00449,-0.10204 -2.44433,0.25472 -6.00899,3.41523 -4.93958,-1.07047 -0.91662,-1.98796 -1.42586,-1.73309 -1.986,0.45873 -1.42587,0.8156 -3.00449,-2.39578 z m 125.22095,108.67565 1.88417,3.61913 1.52771,4.6386 3.66649,4.07789 1.83324,5.09737 -1.01847,3.46618 -4.12481,-1.3763 -7.23114,-1.42719 -2.29155,-2.70163 -3.0045,-2.39578 -3.76833,0.40782 -3.76835,0.86654 -3.76832,-0.56073 -14.46229,-5.30126 -11.30502,-2.19185 v -1.88603 l 1.06938,-1.07043 -2.54616,-1.88607 0.15282,-1.88596 -2.18971,-2.70167 -4.73588,0.76462 -3.51374,-0.61164 1.2731,-3.56814 -2.85174,-5.25031 -8.65698,1.12146 -3.36095,0.051 -1.32402,3.21129 -3.87018,0.91753 -3.8702,0.56076 -1.68047,-2.4977 -3.20819,0.10204 -6.11082,-3.00744 -2.95356,-0.10205 -3.31003,-1.3253 -2.69894,-2.29381 -2.3934,-2.49767 -7.1293,-12.48856 -8.35146,-11.77488 -1.01847,-3.36429 2.95357,-1.1724 -2.85173,-5.45417 -4.37941,-4.07784 -2.74987,-1.07047 -2.18971,-2.03898 -1.17124,-5.81097 -6.00899,-5.86199 -1.88418,-3.97591 -1.27307,-3.77199 0.30557,-3.16036 -3.4628,-9.17525 -0.66201,-4.07792 4.3285,-3.92494 -4.83773,-5.14835 1.01846,-2.39574 0.86571,-2.75258 2.13879,-3.41526 2.49524,-3.10938 3.05541,-1.37629 8.1987,8.35966 2.44433,3.10941 3.00449,2.39574 1.42585,-0.81556 1.98602,-0.45873 1.42586,1.73309 0.91662,1.98792 4.93958,1.07051 6.00897,-3.41527 2.44433,-0.25472 3.00449,0.10204 4.22665,2.44672 5.44883,1.83505 3.92111,0.56069 3.92111,-0.15268 -0.15283,3.26229 1.32402,1.47825 -1.4768,1.42723 -0.71292,2.03894 4.02297,3.10941 4.83773,0.40778 10.23561,2.29382 10.79579,1.47821 4.17574,-0.7136 4.88866,-0.35676 6.5182,0.2037 6.16174,-0.81552 11.15227,-5.91297 0.56015,7.3402 1.42585,-0.71363 1.47678,-0.56073 2.69897,2.95651 3.36095,1.07039 -0.45832,1.83505 -0.61109,1.58018 -0.76384,0.76462 -5.34698,2.44672 -0.91663,2.59967 2.08787,3.31326 3.0045,2.44672 4.48127,0.86658 4.73587,-1.93697 4.02297,-3.00745 3.61556,-0.15306 -3.2591,4.94442 -2.03693,5.09734 -3.56466,4.38373 -1.88416,4.38374 -1.9351,8.66551 -3.71742,5.30122 -3.00448,5.6581 0.61108,3.3133 1.22216,3.10938 0.15283,12.33561 2.24064,4.28176 2.74987,3.7211 3.76834,2.0389 z"
       inkscape:connector-curvature="0" />
    <path
       id="Western-Province"
       style="display:inline;fill:#fefee4;stroke:#808080;stroke-width:0.50948542;stroke-opacity:1"
       d="m 67.017147,677.45076 -1.069407,-1.52912 -1.324013,-0.30575 -0.865701,-3.36424 -0.407377,-0.35676 -0.865712,-0.50971 -0.865698,-0.8156 -0.560158,-1.07043 0.254604,-1.17244 0.96755,-0.25472 1.018478,0.10204 0.458298,-0.051 -1.629538,-11.26518 -13.647517,-35.22276 0.305569,-0.56069 h 0.101819 v -0.10204 l -0.05097,-2.49774 -0.611083,-2.54865 -1.222164,-3.6701 0.203675,-3.31326 9.166235,5.65802 5.652515,-2.14087 2.291552,-0.50974 2.189714,-1.01945 7.587603,-6.52464 2.189715,-0.25473 2.189715,1.01946 3.055408,-1.58014 2.444329,-2.85454 1.222168,0.25472 1.018479,0.61167 2.546159,5.96388 3.8702,0.96854 -1.27309,-5.76006 6.416363,-2.70156 5.754353,1.32531 0.66202,4.07788 3.4628,9.17525 -0.30557,3.16036 1.27307,3.77203 1.88417,3.97591 6.00899,5.86199 1.17124,5.81101 2.18971,2.0389 2.74988,1.07047 4.3794,4.07788 2.85173,5.45417 -2.95356,1.1724 1.01846,3.36425 8.35146,11.77488 7.1293,12.48856 -7.02745,1.63113 -6.87468,4.2818 -3.6665,1.58018 v 4.28177 l 1.47679,4.33275 -0.3565,3.97596 -3.10632,-2.44676 -3.0045,-2.95647 -5.85619,-4.4857 -5.95806,0.50979 -5.39789,3.00741 -8.555158,-1.63116 -3.259121,-2.19181 -3.157238,-2.8036 -3.921108,-1.73304 -3.615585,-0.71368 -7.231136,-3.41519 -1.018478,-1.68214 -1.425847,-1.42724 -1.986013,0.81556 -1.273089,0.91749 z M 45.934808,574.58615 42.67569,572.904 l -4.277572,-1.68214 1.986024,-4.74053 0.509233,-2.24283 -0.051,-2.3448 -9.42085,-33.69353 1.273091,-4.89344 -0.051,3.00741 0.712916,1.93702 1.069405,1.47821 0.96755,1.73312 1.884173,6.67752 0.916627,1.63119 h 1.222161 l 0.305569,-1.93697 0.560151,-0.8156 0.458308,-0.10204 0.152823,0.10204 -0.051,-6.11686 -0.458301,-2.7016 -0.967546,-2.19181 -0.916626,-0.61171 -2.597111,-0.61167 -1.171239,-0.76465 -0.865696,-1.68211 0.356468,-1.58017 0.763844,-1.47826 0.407395,-1.42727 -1.171239,-8.61452 4.68497,0.25472 3.666494,-0.96855 3.819253,-0.5097 1.527704,1.73308 2.291567,0.25472 2.902638,-1.78403 3.462804,1.32535 4.175724,-1.68215 7.536667,-5.91293 4.684976,-0.20408 5.448813,3.87399 5.703447,-1.6821 4.837734,-3.46625 5.499737,-0.96847 1.782319,1.98792 0.560162,1.68218 1.120304,1.68211 4.939589,5.60711 3.41187,2.49767 0.3565,2.65061 -1.9351,1.58018 -0.56015,6.83046 -2.54619,2.44672 -3.106316,1.58021 -0.865716,5.65806 2.393422,4.99541 4.83773,-1.12141 4.1248,1.22338 -1.47679,3.36424 -2.85171,1.98796 -2.49524,5.81097 -1.01848,5.81101 2.95356,9.43016 v 1.83501 l -0.56016,1.63112 -3.615564,1.27437 -5.34698,-0.56073 -3.870176,1.83505 -3.157276,3.10941 -0.763848,3.72109 -0.254604,3.92493 -4.226621,0.20408 -3.462808,-0.40778 -2.291571,-0.91753 -2.24062,-1.22337 -2.342496,-2.19185 -2.648016,-1.63116 -3.360954,0.25472 -3.41188,0.66265 -9.777313,-2.90545 -1.782319,0.76462 -1.578632,0.81552 z m 2.800781,46.53888 0.05097,-0.051 -0.305569,0.56068 -7.332992,-18.96217 -2.953556,-16.51542 v -14.37455 l 0.203789,-0.5608 4.277429,1.68222 3.259117,1.68218 3.462789,0.81556 1.578632,-0.81556 1.782319,-0.76466 9.777314,2.90552 3.411879,-0.66269 3.360955,-0.25472 2.648035,1.63116 2.342476,2.19185 2.240639,1.22334 2.291553,0.91757 3.462807,0.40778 4.226645,-0.20408 0.254603,-3.92498 0.763867,-3.72104 3.157242,-3.10941 3.870199,-1.83505 5.346961,0.56076 3.615568,-1.27436 4.27757,0.30574 3.41188,1.73316 0.61109,3.61912 -2.64802,2.44672 0.2546,1.93698 0.10182,1.93698 -2.49525,3.10941 -2.13879,3.41526 -0.8657,2.75254 -1.01847,2.39574 4.83773,5.14836 -4.32849,3.92497 -5.75437,-1.32534 -6.416367,2.70159 1.273097,5.76002 -3.870181,-0.9685 -2.546186,-5.96388 -1.018455,-0.61167 -1.222168,-0.25472 -2.44433,2.8545 -3.055408,1.58018 -2.189714,-1.01949 -2.189715,0.25472 -7.587603,6.52464 -2.189715,1.01949 -2.291567,0.50974 -5.652503,2.14087 -9.166232,-5.65806 -0.203675,3.31327 1.222161,3.67013 0.611083,2.54865 0.05097,2.49774 -0.101819,0.10204 -0.05097,0.051 H 48.53185 v 0.15306 z"
       inkscape:connector-curvature="0"
       sodipodi:nodetypes="ccccccccccccccccccccccccccccccccccccccccccccccccccccccccccccccccccccccccccccccccccccccccccccccccccccccccccccccccccccccccccccccccccccccccccccccccccccccccccccccccccccccccccccccccccccccccccccccccccccccccccccccccccccccccccccc" />
  </g>
</svg>
