<?xml version="1.0" encoding="UTF-8" standalone="no"?>
<!-- Created with Inkscape (http://www.inkscape.org/) -->

<svg
   xmlns:dc="http://purl.org/dc/elements/1.1/"
   xmlns:cc="http://creativecommons.org/ns#"
   xmlns:rdf="http://www.w3.org/1999/02/22-rdf-syntax-ns#"
   xmlns:svg="http://www.w3.org/2000/svg"
   xmlns="http://www.w3.org/2000/svg"
   xmlns:sodipodi="http://sodipodi.sourceforge.net/DTD/sodipodi-0.dtd"
   xmlns:inkscape="http://www.inkscape.org/namespaces/inkscape"
   width="502.3508"
   height="886.4303"
   viewBox="0 0 132.91365 234.53469"
   version="1.1"
   id="svg4642"
   inkscape:version="0.92.1 r15371"
   sodipodi:docname="srilanka.svg">
  <defs
     id="defs4636" />
  <sodipodi:namedview
     id="base"
     pagecolor="#ffffff"
     bordercolor="#666666"
     borderopacity="1.0"
     inkscape:pageopacity="0.0"
     inkscape:pageshadow="2"
     inkscape:zoom="0.49497475"
     inkscape:cx="691.03482"
     inkscape:cy="487.34233"
     inkscape:document-units="px"
     inkscape:current-layer="Sri-Lanka"
     showgrid="false"
     fit-margin-top="0"
     fit-margin-left="0"
     fit-margin-right="0"
     fit-margin-bottom="0"
     inkscape:window-width="1920"
     inkscape:window-height="1051"
     inkscape:window-x="-4"
     inkscape:window-y="-4"
     inkscape:window-maximized="1"
     units="px" />
  <metadata
     id="metadata4639">
     <views>
     <view h="886.4303" padding="0" w="502.3508">
     <proj id="laea-usa" lat0="45" lon0="-100"/>
     <bbox h=" 234.53469" w="132.91365" x="0" y="0"/>
     </view></views>
    <rdf:RDF>
      <cc:Work
         rdf:about="">
        <dc:format>image/svg+xml</dc:format>
        <dc:type
           rdf:resource="http://purl.org/dc/dcmitype/StillImage" />
        <dc:title></dc:title>
      </cc:Work>
    </rdf:RDF>
  </metadata>
  <g
     inkscape:label="Sri Lanka"
     inkscape:groupmode="layer"
     id="Sri-Lanka">
    <path
       id="Central-Province"
       style="display:inline;fill:#fefee4;stroke:#808080;stroke-width:0.15347895;stroke-opacity:1"
       d="m 72.028178,158.23714 2.547749,-0.3837 2.47101,0.50649 -0.06139,1.08969 0.460437,1.48875 -0.138134,0.55253 0.122785,0.50647 0.276262,0.32231 0.214873,0.30696 -0.414396,0.49113 -0.276262,0.56787 0.322308,1.05901 0.09209,0.41439 -0.199524,0.44509 -0.399047,0.49113 -0.475786,0.44509 -0.537175,1.059 -0.276262,1.16645 -1.319915,1.97987 -2.240795,0.49114 -1.074351,0.50648 -0.951571,0.85948 -0.276262,1.19714 -0.798089,0.92087 -1.120397,-0.0614 -1.074357,0.0461 0.07674,0.96692 1.887789,0.95156 0.399047,0.84414 0.337652,0.92087 0.291611,0.36835 0.245564,0.39905 -0.874827,1.42735 0.537175,0.35301 0.552524,0.27626 -0.613913,0.85948 -1.120398,0.27626 -3.361192,1.78036 -1.857096,0.24556 -1.964527,-0.0614 -1.473398,0.10744 -1.258525,0.21487 -3.253759,-0.44509 -3.08493,-0.69065 -1.458049,-0.12279 -1.212484,-0.93622 0.214872,-0.61392 0.445088,-0.42974 -0.399047,-0.44509 0.04606,-0.98226 0.675309,-0.59857 -0.09209,-0.79809 -0.460437,-1.58084 -1.365962,-1.0283 -1.734311,-0.56787 -0.506483,-1.73431 0.414396,-2.22545 -0.383698,-0.3837 -0.337652,-0.46044 0.337652,-0.44508 0.445088,-0.15349 0.828786,-0.7367 0.521826,-0.84412 -0.199517,-0.0461 -0.07675,-0.19953 1.70362,0.15349 2.655184,3.9751 1.734312,1.02831 1.289223,-1.36597 0.706007,-1.99522 -0.706007,-0.96692 -0.890176,-0.84414 -1.043659,-1.93383 -0.460437,-0.21487 -0.491129,0.15348 1.350613,-1.07435 2.148708,0.26091 1.197138,-0.26091 1.734306,-1.21249 1.151095,-0.0154 1.02831,0.26092 3.821623,-4.54298 1.212484,-2.04127 -0.552524,-2.24079 -0.184175,-1.74966 1.02831,0.93622 0.844136,1.15109 0.629262,0.21487 0.506478,0.0614 1.365962,2.16406 z m 0.997612,-31.27901 3.192361,0.23022 3.069581,-0.56787 -0.04606,0.99761 0.429745,1.36596 0.138128,1.1511 -0.567873,2.83936 -0.583216,2.82401 0.291611,4.89598 -1.887794,-0.19952 -1.197136,0.18417 -0.65996,1.10505 -0.383699,0.32231 -0.429739,0.24556 -0.72135,-0.89017 -0.982263,0.47578 -2.440318,-0.0154 -1.887789,1.55014 -1.703619,0.26091 -2.210097,-1.8264 -0.874827,-0.353 -0.828786,0.50648 -0.353007,0.93622 0.199524,2.2101 -1.273874,1.39666 -2.1794,-0.12279 -3.775585,-2.37892 -1.227833,-1.68827 0.03069,-0.61392 0.337652,-0.46043 0.122785,-0.72135 -0.168826,-0.75205 -0.30696,-0.62926 -0.353001,-0.59857 -0.598565,-1.21248 0.138129,-1.25853 0.844135,-0.7674 0.214872,-0.52183 -0.01537,-0.55252 0.184175,-0.706 0.01537,-0.69066 -1.089705,-1.07435 -0.322303,-1.8571 -0.168826,-2.01057 -0.30696,-0.42974 -0.214873,-0.15348 -0.01537,-1.02831 -0.41439,-1.02831 -0.583222,-0.99762 -0.429739,-0.93622 -0.445088,-0.12278 -0.521832,-0.29161 -0.153477,-1.05901 0.276262,-0.98227 1.258525,-0.93621 1.995231,-0.7367 1.059001,-1.27388 0.951572,0.0461 0.706001,0.46043 0.890184,-0.61391 0.445088,-0.72136 0.41439,-0.2916 0.383699,-0.23022 -0.04606,-0.41439 -0.122779,-0.27626 0.752048,-0.7981 0.567867,-0.85948 v -1.12039 l 0.322309,-0.95158 h 0.598565 l 0.445094,0.10744 0.353,-0.24556 1.151089,-1.21249 0.767397,-0.69066 1.135746,-0.56787 1.243177,-0.50648 0.521826,0.50648 0.813444,0.93622 -0.01537,1.05901 0.322303,0.353 0.506483,0.18418 0.383698,-0.24557 0.01531,-0.3837 0.721356,-0.33766 0.690653,0.19953 0.936222,0.18417 0.874827,0.52184 -1.780352,1.87243 -0.583222,2.83936 -0.168825,1.38132 -0.567874,2.42496 -0.199523,0.42974 -0.122779,0.42975 -1.718969,0.3837 -0.399041,1.65757 0.798089,3.63745 -0.107437,1.16644 0.598571,0.84414 1.565486,0.33765 1.488741,-0.61392 1.181792,-1.08969 0.506478,0.72135 0.905525,0.56787 0.260913,-1.059 z m -20.305271,15.96181 0.706007,-0.16882 0.706001,-0.33766 1.227834,1.68827 3.775585,2.37892 2.179399,0.12279 1.273875,-1.39666 -0.199524,-2.2101 0.353006,-0.93622 0.828787,-0.50648 0.874827,0.353 2.210097,1.8264 1.703619,-0.26091 1.887788,-1.55014 2.440318,0.0154 0.982264,-0.47578 0.72135,0.89017 0.429739,-0.24556 0.383698,-0.32231 0.659961,-1.10505 1.197136,-0.18417 1.887794,0.19952 0.521826,9.07061 1.304572,4.3281 -0.107436,1.94919 -1.596183,1.50409 -1.273874,0.353 -0.752048,0.46044 -2.47101,-0.50648 -2.547749,0.38369 -2.179405,-0.16882 -1.365962,-2.16406 -0.506477,-0.0614 -0.629263,-0.21487 -0.844135,-1.15109 -1.02831,-0.93622 0.184175,1.74966 0.552524,2.24079 -1.212485,2.04127 -3.821623,4.54298 -1.02831,-0.26092 -1.151095,0.0154 -1.734312,1.21248 -1.197138,0.26091 -2.148707,-0.26091 -1.350613,1.07435 0.491135,-0.15348 0.460436,0.21487 1.043653,1.93383 0.890182,0.84414 0.706002,0.96692 -0.706002,1.99522 -1.289223,1.36597 -1.734311,-1.02831 -2.655191,-3.9751 -1.703613,-0.15349 0.03069,-1.18178 0.429739,-0.92088 -0.429739,-0.75204 -0.905525,-2.16406 0.675303,-0.62926 2.05662,-0.33766 0.936223,-1.01296 0.65996,-0.0461 0.644612,-0.15349 0.460437,-0.7367 0.337652,-0.78274 -0.690659,-0.87483 -0.859478,-0.85948 -0.01537,-0.87483 0.138128,-1.07435 -0.72135,-0.87483 -1.50409,-0.84413 -0.506483,-0.35301 0.107436,-1.16643 -2.578446,-2.25615 -0.72135,-1.84174 1.227827,0.13813 1.059008,-0.30696 -0.09209,-0.29161 -0.04606,-0.3837 0.199524,-0.353 0.245564,-0.3223 0.199524,-1.21249 h 0.844135 l 0.920874,0.65996 1.02831,0.0767 0.07674,-0.61392 -0.09209,-0.6753 0.874827,-0.49114 0.859484,0.15348 0.629263,-0.30695 -0.353001,-0.81344 z"
       inkscape:connector-curvature="0" />
    <path
       id="Eastern-Province"
       style="display:inline;fill:#fefee4;stroke:#808080;stroke-width:0.15347895;stroke-opacity:1"
       d="m 73.271355,51.262307 1.151095,-0.322303 0.936222,-0.414396 0.03069,0.936223 0.690659,0.506483 -0.629263,0.598565 -0.567873,0.659961 0.936222,0.736699 1.012961,-0.07674 0.813438,-0.767397 0.613914,-1.07435 0.399047,-0.982264 2.148701,2.59379 1.918492,3.284453 0.767391,0.798089 1.0897,0.322302 0.874833,0.706007 1.273874,3.100273 0.675309,0.706001 1.458049,0.659961 0.736699,1.565485 0.828787,3.130971 0.153477,-0.567873 0.184174,-0.230216 0.322309,0.07674 0.583216,0.322308 -0.168826,0.567868 1.642224,1.811055 0.552524,0.890176 v 1.0897 l -0.429739,0.429745 -0.613914,0.276262 -0.567873,0.659954 0.874827,-0.230215 0.337658,-0.184175 1.304572,2.808662 0.184175,1.473398 -1.488747,0.230221 0.306954,-0.96692 -0.399041,-0.78274 -0.644612,-0.09209 -0.475786,1.02831 0.153477,0.798088 0.429745,0.567874 0.230216,0.613913 -0.445088,0.920874 -0.997612,-0.767391 -1.02831,-0.644611 -1.02831,-0.245571 -0.997613,0.429745 -0.767396,1.028304 0.260913,0.552525 0.920874,-0.153477 1.243182,-1.012961 0.844135,0.905524 0.767391,1.0897 0.936223,0.905531 1.304572,0.368349 2.731923,-0.04606 0.920874,-0.598565 -0.613914,-1.396659 1.565485,-0.721351 0.629263,-0.184174 0.644612,0.04606 0.721344,0.414396 0.65996,0.706001 0.49114,0.813438 0.42974,2.40962 0.92087,3.084924 0.0614,1.626881 -0.75205,-0.537175 -0.78275,-1.596183 -0.706,-0.337652 -0.0154,0.445088 0.30696,2.087312 0.3223,0.752048 0.7674,0.353 h 0.81344 l 0.62926,0.291611 0.3837,2.302184 0.52182,1.857097 0.13814,0.966914 -5.341067,-0.567873 -0.982263,0.353007 h -0.920874 -0.736699 l -0.552524,0.583216 -0.383698,0.72135 -0.445088,0.337657 -0.414396,0.353001 -0.383699,1.565485 -0.291611,0.583222 -0.844129,1.964534 -1.488747,0.33765 -0.291611,-0.0921 -0.230221,-0.16884 0.675309,-0.42973 0.322309,-0.752055 -0.199524,-1.135741 0.01537,-0.782745 -0.09209,-0.752048 -0.414396,-0.613914 -0.752048,0.06139 -1.059002,-0.537176 -0.951571,-0.736699 -0.982264,-0.567873 H 86.8849 l -4.496932,-1.105048 -2.501702,0.24557 -0.736705,-0.736699 -0.245565,-1.258531 -0.920873,-0.706002 -0.966915,-0.383698 -0.690658,-1.02831 -0.890176,0.260913 1.289223,-4.604368 0.138128,-0.752042 0.245571,-0.736699 0.736698,-0.706007 0.84413,-0.552525 0.491134,-0.890176 -0.399047,-0.920873 -0.690652,-0.537176 -0.537175,-0.675309 -0.828787,-1.995224 -1.580834,-2.332882 -0.245564,-1.442701 -0.629269,-0.613919 -0.506478,-0.567868 -0.04606,-1.227833 0.920874,-2.148707 -0.445088,-1.258526 -1.105049,-2.40962 -0.03069,-2.578447 0.997613,-1.488747 0.690652,-1.550136 -0.552524,-0.429739 -0.491129,-0.644612 -0.905531,-1.01296 -2.593789,-1.81105 -1.504096,-0.859484 -1.74966,-0.03069 -1.672921,0.690652 0.260913,-1.059002 0.491134,-0.844135 2.332882,-1.0897 2.747273,-0.368349 1.13574,-0.322309 z m 25.10916,43.158285 0.306954,3.13097 -0.475786,9.454298 0.445094,2.2101 0.982264,2.16405 0.491139,2.2408 -0.537186,0.046 -2.16405,-0.29161 -1.688271,0.24557 -1.335264,0.89017 -0.445088,1.74966 -0.537181,4.61972 0.844135,4.63507 1.611532,0.32231 1.918486,-0.0921 1.580834,0.52183 2.025923,2.9468 1.31991,1.25852 1.81106,0.50649 1.88779,0.36835 -0.0921,1.7957 -0.58322,1.74966 0.12278,0.99761 0.53718,0.89018 1.87244,1.13574 1.01297,0.98227 3.89836,0.6753 3.95976,-0.42974 1.38131,-0.78274 0.0307,1.50409 0.46043,1.4734 0.18418,3.39189 0.42974,0.96692 2.08732,-2.05662 1.19713,-0.98227 1.62688,-0.26091 1.13574,-0.18418 -0.0461,-0.21487 0.62927,-0.47578 -0.42975,-0.3837 -0.16882,-0.33765 -0.12278,-0.33766 -0.29161,-0.38369 -0.30696,-0.53718 0.26091,-0.36835 0.42974,-0.32231 0.23022,-0.41439 -0.0614,-0.24557 -0.29161,-0.56787 -0.0614,-0.19952 0.353,-1.51944 0.0614,-0.10744 -1.10505,-2.80866 -0.3223,-0.47579 -1.38131,-1.01296 -0.69066,-0.26091 0.21487,0.82879 -0.36835,0.44508 -0.27626,-0.56787 -0.10744,-0.41439 0.0767,-0.33766 0.30696,-0.353 -0.64461,-1.0897 -0.61392,-0.706 -1.58083,-1.48875 0.0921,-0.64461 -0.36835,-0.44509 -0.64461,-0.3223 -0.70601,-0.26092 -0.44509,0.61392 -0.58322,0.21487 -0.69065,-0.0921 -0.706,-0.32231 0.41439,-1.33527 0.61391,-0.64461 0.81345,-0.0614 0.99761,0.353 0.76739,0.67531 1.45805,1.8571 0.59857,0.41439 1.31992,-0.39904 -0.13813,-1.15109 -0.82879,-1.31993 -2.5631,-2.68588 -0.61391,-1.01296 -0.4144,-1.24318 h -0.39904 l -1.27388,0.21487 -1.22783,-1.41201 -0.69066,-2.04127 0.35301,-1.30457 0.21487,-0.15348 0.32231,-0.21487 0.27626,-0.0154 -0.4451,-0.72135 -1.19713,-0.92087 -0.42974,-0.81344 -0.0154,-0.7367 0.19952,-0.47579 0.12279,-0.49113 -0.30696,-0.75205 -0.30696,0.24557 -0.59857,0.29161 -0.30696,0.24557 -0.0461,-0.26092 -0.0767,-0.16882 -0.12278,-0.13814 -0.12279,-0.21487 0.26092,-0.2916 -0.26092,-0.56788 -0.16882,0.27627 -0.39905,0.29161 -0.27626,0.2916 -0.7367,-1.68826 -0.42974,-0.70601 -0.65996,-0.7367 -0.50648,-0.82879 -0.49113,-2.16405 -0.47579,-0.87483 h -0.36835 l -0.33765,1.28922 -0.99761,0.0767 -1.04366,-0.7674 -0.49113,-1.25852 -0.10743,-0.18418 -0.50649,-0.15348 -0.19952,-0.23022 -0.0767,-0.36835 v -0.29161 l 0.0461,-0.18417 0.0307,0.0154 -0.0614,-0.59857 0.0614,-1.887789 h 0.44509 l 0.90553,2.501709 0.67531,2.82401 1.0897,-1.5041 -0.47578,-2.731919 -1.41201,-4.819241 -5.34107,-0.567873 -0.638979,0.273785 m 24.305429,31.128008 0.75205,0.75205 0.7367,1.73432 0.53718,0.79809 0.69065,1.84175 2.10267,3.36118 1.01296,5.23363 -0.0461,1.19714 -0.87483,0.7367 -0.84413,-0.6753 -0.36835,-0.3837 -0.0767,-0.59857 0.24556,-3.89836 -0.16882,-1.30458 -0.65996,-0.55252 -0.24557,-0.53718 -1.97988,-2.93144 -0.12278,-0.62927 -0.49113,-1.0897 -0.19953,-0.58322 0.0307,-0.62927 0.18417,-0.55252 0.0767,-0.58322 -0.29161,-0.70601 m 9.7153,41.96114 0.0921,1.24318 -0.33763,2.39427 -2.73192,9.51569 -0.15348,0.98227 -0.0614,1.30457 -0.19953,1.07436 -0.85947,1.68827 -0.18418,0.7367 -0.33766,1.0283 -1.70361,2.65519 0.41439,1.45805 -0.65996,1.73431 -3.77558,6.01638 -0.52183,-0.18418 -1.4427,-0.44509 -0.99761,-1.13574 -0.75205,-0.10744 -0.69066,-0.0461 -1.76501,-2.19474 1.5348,-22.02423 -0.29161,-1.18179 -0.70601,-1.02831 -0.0154,-1.15109 -0.39904,-1.16644 0.27626,-1.18179 0.10743,-1.12039 -1.74966,-1.05901 -2.11801,-0.55253 -0.30696,-0.27626 -0.36835,-0.21487 h -0.44508 l -0.47579,-0.21487 -0.46044,-0.82878 -0.24556,-0.92088 -0.7674,-1.41201 0.69066,-1.85709 1.24318,-1.4734 0.96692,-0.76739 -1.28922,-1.78036 -0.16883,-1.28922 -0.82879,-1.45805 -1.31992,-1.15109 -0.24556,-1.15109 0.0921,-1.4427 -0.706,-3.16167 0.12278,-0.79809 -0.39904,-0.0767 -0.36835,-0.21487 0.87483,-1.38131 -1.16644,-0.30696 -1.48875,0.79809 -0.72135,0.24557 -0.65996,0.29161 -0.21487,0.56787 -0.39905,0.64461 -0.82878,0.21487 -0.61392,0.0461 0.0154,0.78274 0.3223,0.706 0.0767,0.706 -0.27626,0.58323 -0.4144,0.50647 -0.27626,0.4144 -1.19713,0.6753 -1.473401,-0.0614 v 2.30219 l 0.322303,2.22544 -1.105049,0.81344 -1.212478,0.42974 -0.521833,-0.98226 -0.460437,-1.15109 -0.214866,-1.07436 -0.521833,-1.0897 -0.41439,-0.69065 -0.24557,-0.53718 -0.736699,-0.13813 -0.521827,0.12279 -0.890176,-0.89019 -0.644611,-1.39666 -0.399047,-2.63983 -0.230216,-0.75205 -0.184175,-0.7367 0.168826,-0.53717 0.337652,-0.61392 0.61392,-2.9161 -0.214873,-3.00819 -2.639842,-0.56787 -2.916098,1.62688 -1.273874,1.18179 -0.72135,0.27626 -0.583222,0.13813 -1.0897,0.3837 -1.458049,-2.45567 -0.475786,-1.4427 -0.07674,-0.96692 -0.383698,-0.85948 -0.905525,-0.55252 -0.153477,-0.15348 0.567867,-2.83936 -0.138128,-1.1511 -0.429739,-1.36596 0.04606,-0.99761 h 1.120397 l 2.210097,-0.21487 1.0897,-0.19953 2.164056,0.84414 1.74966,1.76501 2.8854,0.89017 1.39666,0.81345 1.151089,0.13813 0.153483,-0.62927 0.276262,-0.69066 0.383698,-0.39904 0.322303,-0.64461 -0.184175,-1.42736 0.260914,-1.35061 1.611532,0.3223 1.918486,-0.0921 1.580834,0.52183 2.025925,2.9468 1.31992,1.25852 1.81105,0.50648 1.88779,0.36835 -0.0921,1.7957 -0.58322,1.74966 0.12278,0.99762 0.53718,0.89018 1.87244,1.13574 1.01296,0.98227 3.89837,0.6753 3.95976,-0.42974 1.38131,-0.78274 0.0307,1.50409 0.46044,1.4734 0.18418,3.39188 0.42974,0.96692 2.08731,-2.05662 1.19714,-0.98226 1.62687,-0.26091 1.13575,-0.18418 0.0614,0.24557 0.47578,0.0921 0.49114,-0.61392 h 0.36835 l 0.46044,2.42496 -0.0154,0.89019 h 0.4144 l 0.0461,-0.85949 0.13813,-0.82878 0.26092,-0.72135 0.353,-0.49114 v -0.41439 l -0.15348,-0.47578 0.10743,-0.18418 0.32231,0.13813 0.53717,0.52183 0.18418,0.47578 0.13813,1.27388 0.90553,1.45805 1.48874,5.0955 -0.27626,14.12006 0.13813,0.95157 z"
       inkscape:connector-curvature="0" />
    <path
       id="North-Central-Province"
       style="display:inline;fill:#fefee4;stroke:#808080;stroke-width:0.15347895;stroke-opacity:1"
       d="m 33.382171,101.32714 -5.479196,-2.517052 -1.273874,-0.72135 -0.675309,-0.859484 -0.874827,-0.706002 -1.197136,0.04606 -1.059008,-0.798089 -1.012961,0.460437 h -1.227834 l -0.368349,-1.059008 -1.473398,-6.047069 -0.874827,-1.68827 0.644611,-1.488741 0.997613,-0.460437 0.276262,-0.537181 0.07674,-0.41439 1.857097,-1.519445 1.07435,-2.302184 -0.337651,-2.47101 0.491134,0.24557 0.583216,0.06139 0.122785,-5.555941 -0.475785,-3.530012 2.639842,1.0897 h 2.916098 l 5.786155,-1.519444 0.01537,1.949183 0.613914,1.688271 0.905531,0.322302 0.874827,0.399048 0.383698,0.736699 0.214873,0.813437 0.629262,1.273874 1.258526,0.67531 0.613914,0.168826 0.583222,0.03069 0.905525,-1.642224 1.059007,-0.460437 1.105049,-2.578446 2.348225,-3.054232 1.811055,-0.828787 1.0897,0.583216 1.012961,0.721356 1.887788,-0.01537 1.580834,-1.212484 1.504096,-1.350613 1.304572,-1.519445 0.706004,-1.105048 0.844135,-1.012961 1.412003,-1.120398 -0.506478,-1.565485 -1.0897,-1.412002 -1.550139,-0.537182 -0.107436,-1.319914 4.420197,-0.138134 1.734311,-1.212479 1.550137,-0.445094 1.642223,-0.306954 1.672922,-0.690658 1.74966,0.03069 1.504096,0.859484 2.593789,1.81105 0.905531,1.01296 0.491129,0.644612 0.552524,0.429739 -0.690653,1.550137 -0.997612,1.488746 0.03069,2.578447 1.105049,2.40962 0.445088,1.258526 -0.920874,2.148707 0.04606,1.227834 0.506478,0.567867 0.629268,0.61392 0.245565,1.4427 1.580834,2.332882 0.828786,1.995224 0.537176,0.67531 0.690652,0.537175 0.399047,0.920874 -0.491134,0.890176 -0.84413,0.552524 -0.736699,0.706007 -0.24557,0.736699 -0.138128,0.752042 -1.289223,4.604368 -0.767397,0.798095 -0.445088,1.074351 -0.245564,1.043658 L 73.21,93.008565 h -2.624493 l -2.348225,0.445088 -0.874833,2.302185 -0.491129,2.517056 -0.859484,2.256136 -0.399047,2.34823 -0.10743,2.08731 1.197135,0.95158 -1.166444,1.62687 -0.07674,1.58083 -1.243177,0.50648 -1.135746,0.56788 -0.767397,0.69065 -1.151089,1.21249 -0.353,0.24556 -0.445094,-0.10743 h -0.598565 l -0.322309,0.95157 v 1.12039 l -0.567867,0.85948 -0.752048,0.7981 0.122779,0.27626 0.04606,0.41439 -0.383699,0.23022 -0.41439,0.29161 -0.445088,0.72135 -0.890184,0.61392 -0.706001,-0.46044 -0.951572,-0.0461 -1.059001,1.27388 -1.995231,0.7367 -1.258525,0.93622 -1.519439,-1.4427 0.230216,-2.08731 -0.291611,-1.41201 -0.552525,-1.39666 -0.153477,-0.99761 -0.491134,-0.82879 -0.966915,-0.0767 -0.828786,-0.353 -0.107436,-1.02831 0.07674,-1.10505 -0.168826,-1.27387 0.107437,-0.7674 -0.01537,-0.7367 -0.905525,-0.7367 -1.120398,0.0307 -1.074356,-0.65996 -0.966915,-0.98227 -1.780357,-1.45805 -1.979876,-0.76739 -1.0897,-0.15348 -0.890181,-0.64462 -1.135741,-0.46043 z m 60.57815,14.9335 -0.537181,4.61972 0.844135,4.63507 -0.260913,1.35061 0.184175,1.42736 -0.322303,0.64461 -0.383698,0.39904 -0.276263,0.69066 -0.153482,0.62927 -1.15109,-0.13813 -1.396659,-0.81345 -2.885406,-0.89017 -1.74966,-1.76501 -2.164051,-0.84414 -1.089699,0.19953 -2.210097,0.21487 h -1.120397 l -3.069581,0.56787 -3.192361,-0.23022 -0.138128,1.07436 -0.260919,1.059 -0.905525,-0.56787 -0.506477,-0.72135 -1.181787,1.0897 -1.488747,0.61392 -1.565486,-0.33766 -0.59857,-0.84414 0.107436,-1.16643 -0.798089,-3.63746 0.399042,-1.65757 1.718968,-0.3837 0.122779,-0.42974 0.199524,-0.42974 0.567873,-2.42497 0.168826,-1.38131 0.583222,-2.83936 1.780357,-1.87244 -0.874833,-0.52184 -0.936222,-0.18417 -0.690652,-0.19952 -0.721351,0.33765 -0.01537,0.3837 -0.383698,0.24557 -0.506483,-0.18418 -0.322303,-0.353 0.01537,-1.05901 -0.813438,-0.93622 -0.521832,-0.50648 0.07674,-1.58083 1.166444,-1.62688 -1.197135,-0.95157 0.107436,-2.08731 0.399041,-2.34823 0.859484,-2.256138 0.491135,-2.517056 0.874827,-2.302185 2.348231,-0.445088 h 2.624487 l 0.767397,-0.445088 0.245564,-1.043658 0.445088,-1.074351 0.767397,-0.798095 0.890176,-0.260913 0.690658,1.02831 0.966914,0.383699 0.920874,0.706001 0.245565,1.258531 0.736699,0.736699 2.501707,-0.24557 4.496933,1.105048 h 1.074356 l 0.982264,0.567873 0.951571,0.736699 1.059002,0.537176 0.752048,-0.06139 0.414396,0.613914 0.09209,0.752048 -0.01537,0.782745 0.199524,1.135741 -0.322309,0.752048 -0.675309,0.42974 0.230221,0.16883 0.291611,0.0921 1.488747,-0.33766 0.844129,-1.964527 0.291611,-0.583222 0.383699,-1.565485 0.414396,-0.353 0.445088,-0.337658 0.383698,-0.72135 0.552524,-0.583216 h 0.736699 0.920874 l 0.306954,3.13097 -0.475786,9.454298 0.445094,2.2101 0.982263,2.16405 0.491136,2.2408 -0.537182,0.046 -2.164051,-0.29161 -1.68827,0.24557 -1.335264,0.89017 z"
       inkscape:connector-curvature="0" />
    <path
       id="Northern-Province"
       style="display:inline;fill:#fefee4;stroke:#808080;stroke-width:0.15347895;stroke-opacity:1"
       d="m 33.33613,34.149405 0.153477,1.672921 -1.565485,-0.199523 -1.13574,0.859484 -1.258532,0.629263 -2.041271,0.184174 H 27.05884 l 0.36835,-1.458049 v -3.49932 l 0.122785,-0.506483 -0.107437,-0.337652 -0.706001,-0.138128 -1.642229,-0.859484 -0.629263,-0.583222 -0.475786,-1.335264 -0.276262,-1.412009 -0.03069,-0.798088 0.706007,-0.752048 1.319915,-0.659961 1.458055,-0.460436 1.197136,-0.184175 0.537175,-0.260913 1.304572,-1.74966 0.383693,-0.276263 0.429745,-0.260913 0.537175,-0.199523 0.675309,-0.107437 -0.552524,-1.043658 -0.690658,-0.920874 -0.874827,-0.874827 -1.151095,-0.859484 -4.404845,-2.578447 -0.874833,-1.105042 1.918492,0.06139 1.7957,0.736693 3.591408,2.071969 3.422582,0.859484 0.890176,0.567873 1.412008,1.243177 0.337652,0.644612 -0.72135,0.368349 0.153477,0.414396 0.214872,0.41439 -0.368349,0.399048 1.243182,0.844135 2.946796,-0.721356 5.35641,-2.133353 1.442706,0.138128 3.177012,0.874833 3.729541,1.688265 2.824013,0.537175 0.03069,0.03069 -0.306963,0.260914 -0.122779,0.997618 -1.273874,0.997612 -0.168832,1.365962 0.153483,1.350613 -1.350619,-0.736699 -1.166438,-0.982264 -0.460437,-0.567873 -0.276262,0.09209 -0.828786,2.716581 -0.997612,0.537175 -1.504096,0.09209 -2.716575,-0.138134 -0.798094,0.03069 -1.012961,2.593795 -1.580829,0.153483 -1.596183,-0.291611 -1.626875,0.01537 -4.558327,0.537175 z m 13.444756,-18.908609 0.752048,2.286841 0.12278,0.613914 -0.736699,0.03069 -0.47578,0.184175 -0.199524,0.322309 -0.214872,0.10743 -0.798089,-0.567867 -0.322309,-0.0614 -1.918486,0.04606 -0.552524,-0.153477 -4.236019,-3.668146 -1.81105,-1.166438 -0.644611,-0.291611 1.243176,-2.194748 0.813438,-1.718962 2.839365,3.100273 1.841748,1.151089 z m 10.574702,7.643258 -0.276262,0.230215 -0.03069,-0.03069 -4.036497,-2.762621 -1.39666,-0.659961 -1.227833,-0.260913 -0.36835,-0.168826 -1.074351,-0.813437 -0.399047,-0.24557 -0.41439,-0.06139 -0.475786,0.03069 -0.122785,-0.613914 -0.752042,-2.286841 0.138128,0.0614 V 14.857103 L 44.754976,13.767404 39.536693,9.5006869 35.254628,4.5586666 33.090577,3.3922285 29.667996,2.578791 28.777814,1.9341794 28.655035,1.0286546 29.898211,0.47612456 31.555784,0.2152113 l 2.455801,-0.13806434 1.181653,0.23015172 0.828786,0.58322193 0.537176,1.94918369 0.552524,0.8287863 7.766037,9.1473414 1.151089,0.844136 2.332882,1.319915 9.362217,7.597211 z M 4.5434751,19.84517 3.5919094,20.750695 2.0878138,20.842782 0.69115433,20.382346 0.07724044,19.630298 l -4.9887e-4,-2.47101 0.16932475,-0.61392 0.39904722,0.07674 0.41439026,0.506478 0.2455702,0.629263 1.0129611,0.322308 1.2278277,0.09209 0.3069599,0.230215 z m 9.7459179,-14.9335028 -0.214872,0.7060071 -0.168826,0.8287805 0.01537,0.8134433 0.107436,0.7060012 0.245565,0.5985651 0.491134,0.5525242 0.245565,0.061395 1.151095,-0.061395 0.199517,0.1841747 0.07674,0.9055307 0.153477,0.368349 0.675309,0.42974 0.920874,0.383698 0.767391,0.445088 0.260913,0.567873 -0.41439,0.429739 h -0.782746 l -0.844129,-0.260913 -0.583222,-0.36835 -0.429739,-0.107436 -1.059008,0.629263 -0.752048,0.09209 -0.920874,-0.675303 -0.920873,-1.365968 -1.442701,-2.8854002 0.659961,-1.0283099 0.153477,-1.3045721 0.368349,-1.0743507 1.289224,-0.2762621 0.706001,0.2148724 z m 23.512972,4.097891 -0.813438,1.7189618 -1.243176,2.194749 -3.054232,-1.335264 -1.105049,-0.629269 -0.736699,-0.01537 0.138128,1.458055 0.414396,0.429739 0.644612,0.491135 0.36835,0.583216 -0.383699,0.767391 -0.445088,0.138134 -0.429739,-0.230222 -0.399047,-0.337652 -1.135746,-0.583216 -2.225446,-1.949183 -1.289223,-0.537176 0.65996,0.706002 1.166444,1.012961 0.659955,0.736699 L 27.150927,13.352984 25.723576,12.754419 22.868868,11.173585 20.582026,9.3778786 19.231414,8.9020987 18.586802,8.4877026 18.111016,8.288179 18.034278,8.717924 17.389666,8.2728302 17.144102,7.689614 17.021317,6.9989558 16.791101,6.2162161 16.407403,5.5562556 15.563268,4.4512072 15.16422,3.760549 l 1.289224,-0.6446116 2.34823,-2.16405035 1.043653,-0.4757857 4.650416,0.41439605 2.424969,-0.27626211 0.874827,0.10743623 0.353001,0.79808858 -0.06139,1.2585255 0.168826,0.445088 0.521826,0.1688259 0.491135,0.061395 1.427357,0.3683495 0.291605,0.153477 0.260919,0.5371754 0.644612,-0.015372 0.690652,-0.2302155 0.506484,-0.061395 0.644611,0.3836983 z m 39.444095,39.5975638 0.230222,0.184175 -0.01537,0.414396 -0.276262,0.429739 -0.552525,0.199524 -0.153482,-0.184175 -0.659955,-1.043659 -0.706007,-0.383698 -1.626875,-0.414391 -0.951572,-0.429739 0.67531,0.936217 2.148707,2.010579 v 0.199518 l -0.936223,0.414396 -1.151095,0.322303 -1.02831,0.61392 -1.13574,0.322303 -2.747272,0.368349 -2.332882,1.0897 1.089699,-4.067188 -0.72135,-0.96692 -1.887794,-1.151089 -1.872439,-0.291611 -0.874833,0.598565 -0.920874,0.214872 0.09209,-0.813437 0.583222,-0.844135 -0.690659,-1.212485 -1.596177,-0.168826 -0.214872,-1.933835 -1.841748,-0.706001 -1.933837,0.06139 -0.138129,0.291611 -0.107436,0.306954 -0.567873,0.322308 -0.598571,0.291611 -1.012961,0.905525 -1.458049,0.644612 -0.920874,-1.365962 -1.488746,-0.936223 -2.041266,0.06139 -1.151095,-0.07674 -1.059002,0.107436 -0.153482,0.874827 0.460436,0.629268 0.874833,0.138129 0.06139,0.491134 -0.01537,0.537176 0.214872,1.012961 0.07674,1.012961 -1.059008,1.611526 -1.657572,1.350618 -2.762622,1.734312 -9.807278,0.521826 0.752047,-2.148701 -0.260913,-0.414396 -0.291611,-0.537176 0.214873,-0.690658 0.306954,-0.690652 0.199523,-0.644612 0.260913,-0.598571 1.304573,-0.460437 0.09209,-1.227827 -0.138128,-1.39666 0.214866,-0.874833 0.0614,-0.920873 -0.07674,-0.445088 -0.107431,-0.414391 -1.105048,-1.74966 -0.36835,-1.964532 -0.0614,-2.041271 1.565485,0.199523 -0.153477,-1.672921 1.550136,-2.010574 4.558328,-0.537175 1.626875,-0.01537 1.596183,0.291611 1.580829,-0.153483 1.012961,-2.593795 0.798094,-0.03069 2.716575,0.138134 1.504095,-0.09209 0.997613,-0.537175 0.828786,-2.71658 0.276262,-0.09209 0.460437,0.567873 1.166438,0.982264 1.350619,0.736699 -0.153483,-1.350613 0.168832,-1.365962 1.273874,-0.997612 0.122779,-0.997612 0.306962,-0.260919 0.276262,-0.230216 0.36835,-0.30696 7.029338,5.709417 0.491135,0.798095 0.659955,0.828786 1.27388,1.212479 0.813437,1.043659 -0.72135,0.383698 -0.460437,-0.214872 -0.629268,-0.798089 -0.353001,-0.184175 -1.074351,-0.184174 -0.460436,0.153477 0.306959,0.629262 3.084925,2.870058 1.212484,0.65996 -0.475786,-0.736699 -0.291611,-0.675309 0.138134,-0.506478 0.828787,-0.199523 0.383698,0.260913 0.629263,1.857096 2.83936,5.663376 -1.718963,-0.629268 -0.782745,-0.01537 -0.337652,0.859484 0.460437,0.214872 0.966914,0.153477 0.859484,0.552525 0.138128,1.365961 h 0.414397 l 0.199523,-0.353 0.168826,-0.138128 0.199524,-0.107437 0.276262,-0.184174 0.337652,1.350612 0.844135,1.918486 1.120397,1.718968 z m -59.641921,27.933171 -1.565486,-0.598571 -0.690658,-0.399041 0.230221,-0.230222 0.675304,-2.133358 0.122785,-0.122779 0.138134,-0.537182 0.552524,-1.197135 0.537176,-5.847546 -1.442706,-3.729541 0.122785,-0.644612 0.09209,-4.312757 -0.138128,-1.412002 -0.168832,-0.690658 -0.306954,-0.537176 -0.24557,-0.598565 0.552524,-0.291611 0.798095,-0.153483 0.521826,-0.168825 3.453279,-3.100273 1.795701,-0.890176 0.736699,-0.659961 0.399047,-1.458049 0.721351,-1.504096 0.399047,-2.087311 1.918486,-4.942027 0.245564,-0.997612 h 0.429739 l 2.041271,-0.184174 1.258532,-0.629263 1.13574,-0.859484 0.0614,2.041271 0.36835,1.964532 1.105048,1.74966 0.107431,0.414391 0.07674,0.445088 -0.06139,0.920873 -0.214867,0.874833 0.138128,1.39666 -0.09209,1.227827 -1.304572,0.460437 -0.260914,0.598571 -0.199523,0.644612 -0.306954,0.690652 -0.214873,0.690658 0.291611,0.537176 0.260914,0.414396 -0.752048,2.148701 9.807308,-0.521826 1.611526,0.752048 0.920874,1.473397 0.905524,2.302185 -0.306954,2.10266 -3.192366,1.166438 -3.345837,0.429739 -2.148707,-0.245564 -1.657573,0.920873 -0.890176,2.010574 -1.534793,0.153483 -0.214867,0.890176 -0.01537,0.782739 1.396654,1.074357 2.256143,2.900749 -5.786156,1.519445 h -2.916103 l -2.639837,-1.0897 0.475786,3.530012 -0.122785,5.55594 -0.583216,-0.06139 -0.491135,-0.24557 -1.580834,-0.905525 -1.519439,-0.644611 z m -11.4034856,-32.89054 2.3942716,0.613914 2.5324,0.96692 2.40962,1.412008 2.041271,1.964527 -0.982269,-0.214867 -1.718962,-0.844135 -0.997612,-0.168826 2.762621,3.146314 0.521826,0.936223 -1.412002,-0.168826 -0.936223,-0.72135 L 12.186733,49.788909 11.695598,49.42056 11.081684,49.113606 8.6413658,46.934201 6.2010534,45.844501 4.8504349,45.460803 3.5458628,45.322674 2.8859024,45.061761 2.5942972,44.478539 2.7784719,43.910666 3.5458628,43.649753 Z m 28.9461266,29.02287 -0.613914,-1.68827 -0.01537,-1.949184 -2.256143,-2.900749 -1.39666,-1.074357 0.01537,-0.782739 0.214873,-0.890176 1.534787,-0.153483 0.890182,-2.010574 1.657573,-0.920873 2.148701,0.245564 3.345843,-0.429739 3.192361,-1.166438 0.306959,-2.10266 -0.905524,-2.302185 -0.920874,-1.473397 -1.611532,-0.752048 2.762621,-1.734312 1.657573,-1.350618 1.059007,-1.611526 -0.07674,-1.012961 -0.214873,-1.012961 0.01537,-0.537176 -0.06139,-0.491134 -0.874833,-0.138129 -0.460437,-0.629268 0.153483,-0.874827 1.059002,-0.107436 1.151095,0.07674 2.041265,-0.06139 1.488747,0.936223 0.920874,1.365962 1.458049,-0.644612 1.012961,-0.905525 0.598571,-0.291611 0.567873,-0.322308 0.107436,-0.306954 0.138128,-0.291611 1.933837,-0.06139 1.841748,0.706001 0.214873,1.933835 1.596183,0.168826 0.690652,1.212485 -0.583222,0.844135 -0.09209,0.813437 0.920873,-0.214872 0.874833,-0.598565 1.87244,0.291611 1.887794,1.151089 0.72135,0.96692 -1.0897,4.067188 -0.491134,0.844135 -0.260914,1.059008 -1.642223,0.306954 -1.550137,0.445093 -1.734311,1.212479 -4.420197,0.138134 0.107431,1.319915 1.550144,0.537181 1.0897,1.412002 0.506478,1.565486 -1.412003,1.120397 -0.844135,1.012961 -0.70601,1.105049 -1.304566,1.519444 -1.504096,1.350613 -1.580834,1.212485 -1.887788,0.01537 -1.012961,-0.721356 -1.089705,-0.583216 -1.81105,0.828786 -2.348225,3.054232 -1.105049,2.578447 -1.059007,0.460436 -0.905525,1.642224 -0.583222,-0.03069 -0.613914,-0.168826 -1.258526,-0.675309 -0.629268,-1.273874 -0.214867,-0.813438 -0.383698,-0.736699 -0.874833,-0.399047 z"
       inkscape:connector-curvature="0" />
    <path
       id="North-Western-Province"
       style="display:inline;fill:#fefee4;stroke:#808080;stroke-width:0.15347895;stroke-opacity:1"
       d="m 12.831344,153.0956 -1.105048,0.29161 -1.412009,-0.0767 -2.578446,-18.83187 -0.3530007,-0.76739 0.2302156,-0.27626 0.1841747,-0.0154 0.429745,0.29161 0.092087,-1.04365 0.3069541,-1.19714 0.1381339,-1.16644 -0.3223087,-0.90552 -0.4604368,-0.81344 -0.1688259,-1.10505 0.015372,-2.2101 -1.5347875,-7.50513 -0.7060069,-1.47339 -0.598565,-3.10028 -0.9822634,-2.45566 -1.4887468,-6.76842 v -1.91849 l 0.2455644,0.10744 0.030686,0.0307 v 0.0614 l 0.1227793,0.21489 0.2148725,-1.12039 L 2.8245243,97.797127 2.5175703,96.722776 3.4998337,96.078164 4.4207074,94.881029 5.0960167,93.53041 5.35693,92.379321 5.6178432,91.642622 7.382852,88.864652 6.4773271,90.99801 5.35693,92.993235 l 0.3069598,0.613913 0.429739,0.429745 0.5832219,0.230216 H 7.382852 l -0.583222,1.626881 -0.598565,1.197135 -0.2609133,0.214867 -0.2762619,0.03069 -0.2148725,0.168826 -0.092087,0.629263 0.046058,1.427357 -0.046058,0.429739 -1.0129611,3.223053 0.1074362,1.78036 1.3506127,1.59618 -1.1971357,2.48636 1.9031369,1.38131 2.7472781,0.21487 1.4120026,-0.99761 -0.276263,-1.05901 -0.629262,-1.16644 -0.7366989,-0.92087 -0.583222,-0.3837 -0.1841747,-0.64461 1.9952296,-3.82163 -0.0614,-0.69065 -0.2609131,-0.52183 -0.2916109,-0.42974 -0.1841748,-0.44509 -0.06139,-0.72135 0.076738,-1.243177 -0.015372,-0.537175 -0.1995178,-0.521832 -0.2148725,-0.199524 -0.1074362,-0.245564 0.1074362,-0.659961 0.291611,-0.583216 0.7673911,-1.012961 0.153483,-0.659961 0.138128,-1.258531 0.552525,-2.517051 0.567873,-5.8629 0.368349,-0.659954 0.383698,-0.337658 0.291611,-0.399041 0.138129,-0.874833 v -2.486359 l 0.337657,-1.227834 0.813438,-0.78274 0.951565,-0.65996 0.552524,-0.598565 0.690659,0.399041 1.565484,0.598571 1.74966,0.153477 1.519439,0.644612 1.580834,0.905525 0.337658,2.47101 -1.074357,2.302184 -1.857096,1.519445 -0.07674,0.41439 -0.276262,0.537181 -0.997612,0.460437 -0.644611,1.488741 0.874832,1.68827 1.473398,6.047069 0.36835,1.059008 h 1.227827 l 1.012962,-0.460437 1.059007,0.798089 1.197136,-0.04606 0.874827,0.706002 0.675309,0.859484 0.107437,1.151089 -0.03069,1.197129 0.629264,2.37893 0.214873,1.16644 0.552524,1.0897 0.813437,0.27626 0.721351,0.44509 -0.153477,0.72135 -0.230222,0.78275 0.04606,1.61152 -0.06139,1.36596 -0.445088,0.67531 -0.353007,0.706 0.721356,1.33527 -0.752048,0.58323 -1.227833,-0.70601 -0.353001,0.58322 -0.01537,0.7367 -0.445088,0.47579 -0.383698,0.10743 0.04606,-0.10743 0.07674,-0.0921 -0.890176,0.39904 -0.368349,0.84413 -0.07674,0.59858 -0.24557,0.55252 -1.258525,0.64461 -0.276262,0.61392 -0.168826,0.65996 -0.736699,0.49113 -0.767397,0.39904 -0.214872,0.65996 -0.107431,0.706 -0.567873,1.45806 -0.184175,1.58083 0.322303,0.67531 0.230222,0.62926 -0.429745,0.55253 -0.644612,0.26091 -0.844129,0.0614 -0.767397,0.24556 -0.414396,0.69066 -0.291605,0.79809 0.72135,0.16882 0.337652,0.55253 -0.706002,0.3837 -0.859484,0.23021 -0.429739,0.59857 -0.214872,0.67531 -0.890176,1.51944 -0.644612,1.65757 -0.122785,2.05662 0.107436,2.07197 2.194748,11.81788 0.153477,3.57606 -1.043653,-0.39905 -0.874833,0.53718 -0.690652,-0.0767 -0.460437,-0.52183 z m 21.640532,-0.46044 -1.227833,1.10505 -1.212485,0.69065 -1.02831,-0.75204 -1.488747,-1.68827 -0.337651,-0.50648 -0.168826,-0.50648 -0.537176,-0.59857 -1.657572,0.29161 -1.458049,1.04366 -1.718968,0.50648 -1.642224,-1.16644 -1.412009,0.0614 -2.271486,1.78036 -1.258526,0.50648 -0.153482,-3.57606 -2.194749,-11.81788 -0.107436,-2.07197 0.122785,-2.05662 0.644612,-1.65757 0.890176,-1.51944 0.214872,-0.67531 0.42974,-0.59857 0.859484,-0.23021 0.706001,-0.3837 -0.337652,-0.55253 -0.72135,-0.16882 0.291611,-0.79809 0.41439,-0.69066 0.767397,-0.24556 0.844135,-0.0614 0.644612,-0.26091 0.429739,-0.55253 -0.230216,-0.62926 -0.322308,-0.67531 0.184174,-1.58083 0.567873,-1.45806 0.107437,-0.706 0.214866,-0.65996 0.767397,-0.39904 0.736699,-0.49114 0.168826,-0.65996 0.276262,-0.61391 1.258531,-0.64461 0.245565,-0.55253 0.07674,-0.59857 0.36835,-0.84413 0.890176,-0.39904 -0.07674,0.0921 -0.04606,0.10744 0.383698,-0.10744 0.445088,-0.47578 0.01537,-0.7367 0.353001,-0.58322 1.227834,0.706 0.752047,-0.58322 -0.72135,-1.33527 0.353001,-0.706 0.445088,-0.67531 0.06139,-1.36596 -0.04606,-1.61153 0.230222,-0.78274 0.153477,-0.72135 -0.72135,-0.44509 -0.813438,-0.27626 -0.552524,-1.0897 -0.214873,-1.16644 -0.629262,-2.37893 0.03069,-1.197133 -0.107436,-1.151089 1.273874,0.72135 5.479201,2.517052 1.181787,0.29161 1.135747,0.46044 0.890176,0.64461 1.089699,0.15348 1.979882,0.76739 1.780352,1.45806 0.96692,0.98226 1.074351,0.65996 1.120397,-0.0307 0.905525,0.7367 0.01537,0.7367 -0.107436,0.7674 0.168825,1.27387 -0.07674,1.10505 0.107436,1.02831 0.828787,0.353 0.96692,0.0767 0.491129,0.82879 0.153482,0.99761 0.552525,1.39666 0.291605,1.41201 -0.230216,2.08731 1.519439,1.4427 -0.276262,0.98227 0.153483,1.059 0.521826,0.29161 0.445088,0.12279 0.429745,0.93622 0.583216,0.99761 0.414396,1.02832 0.01537,1.0283 0.214867,0.15348 0.30696,0.42974 0.168826,2.01058 0.322309,1.85709 1.089699,1.07435 -0.01537,0.69066 -0.184175,0.706 0.01537,0.55253 -0.214872,0.52183 -0.844135,0.76739 -0.138128,1.25853 0.598565,1.21248 0.353,0.59857 0.30696,0.62926 0.168826,0.75205 -0.122779,0.72135 -0.337658,0.46044 -0.03069,0.61391 -0.706001,0.33766 -0.706002,0.16883 0.47578,0.76739 0.353007,0.81344 -0.629269,0.30695 -0.859478,-0.15347 -0.874833,0.49113 0.09209,0.67531 -0.07674,0.61392 -1.02831,-0.0767 -0.920874,-0.65996 h -0.84417 l -0.199518,1.21248 -0.24557,0.3223 -0.199523,0.353 0.04606,0.3837 0.09209,0.29161 -1.059002,0.30696 -1.227833,-0.13813 -0.552524,-1.15109 -0.859479,-0.90553 -1.427357,-0.18418 -1.304572,0.52184 -0.214867,1.13574 0.07674,1.22783 -0.199524,0.706 -0.429739,0.58322 -0.629268,0.0307 -2.90075,0.64461 -1.396659,0.65996 z"
       inkscape:connector-curvature="0" />
    <path
       id="Southern-Province"
       style="display:inline;fill:#fefee4;stroke:#808080;stroke-width:0.15347895;stroke-opacity:1"
       d="m 62.036695,230.46434 1.519445,0.69065 0.322303,0.18417 -0.905525,1.05901 -2.440313,-0.13813 -1.012961,0.13813 -0.782745,0.30696 -0.828787,0.47578 -1.442703,1.0897 -0.828786,0.18409 -0.982269,-0.38361 -1.043653,-0.53718 -1.012961,-0.30695 -3.45328,0.41439 -0.966914,-0.19953 -0.506484,-0.50647 -0.322302,-0.64461 -0.429745,-0.67531 -1.012961,0.59857 -0.905525,0.0614 -1.596178,-0.23022 v -0.0614 l -0.107436,-0.62927 -0.01537,-0.65996 0.659955,-1.16644 1.074356,-0.39904 0.36835,-0.72135 -1.059008,-0.44509 -0.460437,-0.24557 -0.184174,-0.62926 0.353,-0.56787 0.813443,-0.32231 0.951566,-0.96691 0.813438,-0.96692 -0.936217,-0.85949 -1.074357,-0.72135 -0.905525,-0.87483 -0.383698,-1.16644 0.537175,-1.16644 0.429745,-1.24317 -0.291611,-0.96692 -0.613913,-0.75205 2.087311,0.36835 1.043659,-1.27388 -0.445094,-1.71896 -1.258525,-1.79571 -1.181787,-0.76739 -0.583222,-1.10505 0.951571,-0.26091 0.982264,0.29161 1.258531,0.95157 1.13574,1.07435 1.826399,0.42974 0.353006,-1.70362 -0.90553,-0.92087 -0.706001,-1.07435 0.798088,-0.81344 1.227834,-0.36835 1.166438,-0.16883 1.166444,-0.27626 0.399041,-0.96692 1.012961,-0.0154 2.609144,-0.33765 0.859487,1.58083 -0.383699,1.07436 1.059002,0.18417 1.427358,-0.23022 0.65996,0.81344 -0.04606,0.56787 0.767391,0.56787 -0.322303,0.32231 v 0.56787 l -0.552524,0.23022 0.09209,0.44509 -0.399047,1.05901 0.399047,0.95156 -2.271493,1.73432 -0.72135,2.57844 1.02831,0.72135 1.120398,0.42974 0.537176,-0.0921 0.306959,0.32231 -0.276262,0.62926 -0.353,0.53717 0.199523,1.02831 0.982264,0.52183 0.690652,-0.10744 0.65996,0.13814 -0.214866,0.52182 -0.552524,0.50649 0.659954,2.30218 -1.918486,0.82879 0.138134,0.95156 0.813438,0.55253 0.583222,0.0461 0.506477,0.27626 -0.03069,0.50648 -0.41439,0.23022 z m 58.245265,-31.83154 1.4427,0.44509 0.52183,0.18418 -1.81105,2.8854 -1.87245,1.87244 -3.43792,2.45566 -1.13575,0.353 -1.50409,0.81345 -11.03514,8.7176 -2.194748,1.19714 -7.167466,2.56309 -0.107436,-0.92087 -0.429739,-0.33765 -0.460437,0.12278 -0.214873,0.47578 -0.122785,1.01296 -0.337651,0.3837 -0.521827,0.13814 -0.675309,0.30695 -1.289223,0.78275 -1.289224,0.58321 -6.200545,1.33527 -2.992843,1.02831 -3.284448,0.59857 -1.504095,0.58322 -0.890176,1.27387 -1.611532,-0.3223 -1.550137,0.59857 -4.57367,3.40723 -0.153483,0.16882 -0.322303,-0.18417 -1.519445,-0.69065 -0.690652,-1.10505 0.41439,-0.23022 0.03069,-0.50648 -0.506477,-0.27626 -0.583222,-0.0461 -0.813438,-0.55252 -0.138134,-0.95157 1.918486,-0.82879 -0.659954,-2.30218 0.552524,-0.50648 0.214866,-0.52183 -0.65996,-0.13814 -0.690652,0.10744 -0.982264,-0.52183 -0.199523,-1.02831 0.353,-0.53717 0.276262,-0.62926 -0.306959,-0.32231 -0.537176,0.0921 -1.120398,-0.42974 -1.02831,-0.72135 0.72135,-2.57845 2.271493,-1.73432 -0.399047,-0.95156 0.399047,-1.05901 -0.09209,-0.44509 0.552524,-0.23021 3.407233,0.65995 4.358804,1.59618 1.135741,0.16883 1.135746,-0.26091 1.13574,-0.12279 0.905531,0.72136 0.690652,0.81343 2.179399,0.42974 1.243183,0.4144 0.30696,-1.04366 -0.552525,-1.53479 -1.105048,-1.22783 1.473398,-0.95157 1.488741,-0.81344 1.68827,-0.55252 1.289223,-0.98227 -0.583221,-1.35062 0.291611,-1.35061 h 0.752047 l 0.798089,-0.0614 0.491135,-0.69066 v -0.79808 l 0.72135,0.52182 0.567873,-0.64461 1.488747,-0.0154 1.473397,0.18417 1.012962,0.36835 0.460436,1.10505 0.583222,0.0768 0.644612,-0.0307 0.537175,-0.3837 0.752048,-0.0767 1.105049,1.45805 0.905524,1.55014 1.488747,0.61392 1.626875,-0.89018 0.583222,-0.58322 0.920874,-0.3837 1.718962,-0.46044 3.530015,-1.38131 0.65996,-0.47578 0.13813,0.18417 0.52183,0.0767 1.59618,-0.58322 1.65757,0.36835 0.7674,-1.27388 v -0.52182 l -0.0307,-0.49114 0.26092,-0.36835 0.26091,-0.41439 -0.30695,-0.81343 -0.0307,-1.01297 1.18179,-0.93622 1.41201,-0.64461 1.07435,-1.04366 1.25853,-0.96691 1.59617,-0.29161 1.07436,-1.24319 1.765,2.19475 0.69066,0.0461 0.75205,0.10744 z m -76.985045,32.72171 0.107436,0.62927 v 0.0614 l -0.383698,-0.0461 -0.291611,-0.13813 -0.184175,-0.27626 -0.260913,-0.27626 -0.460437,-0.13813 -0.276262,0.10743 -0.214872,0.18418 -0.230216,0.16882 -0.30696,-0.0154 -0.214872,-0.16882 -0.36835,-0.53718 -0.230215,-0.13813 -2.962145,-1.07435 -1.780358,-0.36835 -1.289223,-1.04366 -0.859478,-0.42974 -0.445094,0.44509 -1.105048,-0.89018 -4.849933,-5.15689 -0.399048,-0.32231 -0.184174,-0.21487 -0.06139,-0.24557 0.01537,-0.52182 -0.153477,-0.26092 -0.736699,-0.96692 -2.747272,-5.83219 -0.107436,-0.55253 0.03069,-0.99761 -0.107437,-0.30696 -0.491134,-1.02831 -0.491129,-2.80866 -1.105048,-1.96454 -0.67531,-2.82401 0.399048,0.0921 0.322302,0.46044 0.353001,0.3223 0.383698,-0.27626 0.598571,-0.24557 0.429739,0.42974 0.30696,0.50649 2.179399,1.0283 1.0897,0.21487 1.181787,0.52183 0.951571,0.84414 0.982264,0.65996 2.578446,0.49113 1.626881,-0.90552 1.795701,-0.15349 1.765009,1.35062 0.905525,0.89018 0.936222,0.7367 0.107436,-1.19714 -0.445088,-1.30457 v -1.28922 l 1.105049,-0.47579 2.071963,-1.28922 2.118009,-0.49113 0.72135,0.75204 0.813438,0.69066 0.997618,0.39905 0.890176,0.0307 1.841747,0.90553 0.966915,-0.0307 0.506483,0.75205 -1.227833,0.36835 -0.798089,0.81343 0.706001,1.07436 0.905525,0.92087 -0.353,1.70362 -1.826399,-0.42975 -1.135746,-1.07435 -1.258526,-0.95157 -0.982263,-0.29161 -0.951571,0.26092 0.583222,1.10505 1.181786,0.76739 1.258526,1.79571 0.445088,1.71896 -1.043653,1.27387 -2.087318,-0.36835 0.61392,0.75205 0.291611,0.96692 -0.429745,1.24318 -0.537175,1.16644 0.383698,1.16644 0.905525,0.87483 1.074351,0.72135 0.936222,0.85948 -0.813437,0.96692 -0.951572,0.96692 -0.813437,0.3223 -0.353001,0.56787 0.184175,0.62927 0.460437,0.24556 1.059007,0.44509 -0.368349,0.72135 -1.074357,0.39905 -0.65996,1.16644 z"
       inkscape:connector-curvature="0" />
    <path
       id="Uva"
       style="display:inline;fill:#fefee4;stroke:#808080;stroke-width:0.15347895;stroke-opacity:1"
       d="m 93.699402,155.06013 v -1.24318 l 2.317533,-0.55252 0.460437,1.15109 0.521833,0.98226 1.212478,-0.42974 1.105049,-0.81344 -0.322303,-2.22544 v -2.30219 l 1.473401,0.0614 1.19713,-0.6753 0.27626,-0.4144 0.4144,-0.50647 0.27626,-0.58323 -0.0767,-0.706 -0.3223,-0.706 -0.0154,-0.78274 0.61392,-0.0461 0.82878,-0.21487 0.39905,-0.64461 0.21487,-0.56787 0.65996,-0.29161 0.72135,-0.24557 1.48875,-0.79809 1.16644,0.30696 -0.87483,1.38131 0.36835,0.21487 0.39904,0.0767 -0.12278,0.79809 0.706,3.16167 -0.0921,1.4427 0.24556,1.15109 1.31992,1.15109 0.82879,1.45805 0.16883,1.28922 1.28922,1.78036 -0.96692,0.76739 -1.24318,1.4734 -0.69066,1.85709 0.7674,1.41201 0.24556,0.92088 0.46044,0.82878 0.47579,0.21487 h 0.44508 l 0.36835,0.21487 0.30696,0.27626 2.11801,0.55253 1.74966,1.05901 -0.10743,1.12039 -0.27626,1.18179 0.39904,1.16644 0.0154,1.15109 0.70601,1.02831 0.29161,1.18179 -1.5348,22.02423 -1.07435,1.24318 -1.59618,0.29161 -1.25853,0.96691 -1.07435,1.04366 -1.412,0.64461 -1.18179,0.93623 0.0307,1.01296 0.30696,0.81344 -0.26091,0.41439 -0.26092,0.36834 0.0307,0.49114 v 0.52183 l -0.7674,1.27387 -1.65757,-0.36835 -1.59618,0.58322 -0.52183,-0.0767 -0.13813,-0.18417 -0.65996,0.47579 -3.530017,1.38131 -1.718963,0.46043 -0.920873,0.3837 -0.583222,0.58322 -1.626875,0.89018 -1.488747,-0.61392 -0.905525,-1.55014 -1.105048,-1.45805 -0.752048,0.0767 -0.537176,0.3837 -0.644611,0.0307 -0.583222,-0.0768 -0.460437,-1.10505 -1.012961,-0.36835 -1.473398,-0.18417 -1.488747,0.0154 -0.567873,0.64461 -0.72135,-0.52182 v 0.79809 l -0.491135,0.69065 -0.798088,0.0614 h -0.752048 l -0.291611,1.35062 0.583222,1.35061 -1.289223,0.98227 -1.688271,0.55252 -1.488741,0.81344 -1.473398,0.95157 -0.460437,-1.39666 -0.567873,-1.0897 -1.089699,-0.76739 -1.135746,-0.61392 -0.828787,-1.1204 -0.675309,-1.28922 -0.04606,-3.71419 -0.36835,-0.93622 -0.184174,-0.99762 0.905524,-1.70361 1.120398,-1.59618 0.583216,-2.60914 0.567873,-1.31992 1.074356,-1.31992 0.613914,-1.53479 0.982264,-1.48875 0.706007,0.0307 0.460437,0.72135 0.276262,1.02831 0.47578,0.24556 0.460436,0.10744 0.552525,1.22783 0.414396,1.31992 0.41439,0.19952 0.399047,0.24557 0.260914,1.90314 0.690658,0.85948 0.521826,0.82878 0.230222,-1.59617 0.844129,-1.30458 0.629268,0.41439 0.644612,0.30696 0.184175,-1.42735 1.243176,-0.44509 -0.890176,-1.38131 -0.552524,-1.67292 -0.01537,-0.92087 0.122785,-0.87483 0.874827,-1.38131 -0.06139,-1.05901 -1.043659,-0.27626 -0.230216,-0.78274 0.506478,-1.0897 -0.122785,-1.28923 0.138134,-1.25852 2.010573,-0.18418 0.521827,-0.99761 1.718968,-0.52183 -1.4427,-2.04127 1.273874,-0.706 1.519439,-0.4144 0.736699,-0.61391 0.613914,-0.7674 0.260919,-0.47578 0.353,-0.36835 0.598565,0.26091 0.767397,-0.16882 0.30696,-0.85949 0.153477,-0.93622 0.399047,-0.62926 0.322303,-0.64461 0.230221,-1.65758 0.276262,-1.0897 v -1.10504 l -0.168831,-0.84414 -0.306954,-0.79809 -0.445088,-0.53718 -0.322309,-0.2916 -0.644612,-0.82879 -2.179399,0.58322 -0.706007,-0.7367 -0.583216,-1.22783 -0.920874,-0.89018 -0.736699,-0.96692 0.184175,-1.21248 0.690652,-1.05901 0.98227,0.12279 0.828786,0.89017 0.982263,-0.41439 0.537176,-0.92087 1.626875,-2.07197 z M 78.95008,140.6945 l -0.291611,-4.89598 0.583216,-2.82401 0.153483,0.15348 0.905525,0.55252 0.383698,0.85948 0.07674,0.96692 0.475786,1.4427 1.458049,2.45567 1.0897,-0.3837 0.583222,-0.13813 0.72135,-0.27626 1.273874,-1.18179 2.916098,-1.62688 2.639842,0.56787 0.214867,3.00819 -0.613914,2.9161 -0.337652,0.61392 -0.168826,0.53717 0.184175,0.7367 0.230216,0.75205 0.399047,2.63983 0.644611,1.39666 0.890176,0.89019 0.521827,-0.12279 0.736699,0.13813 0.24557,0.53718 0.41439,0.69065 0.521833,1.0897 0.214866,1.07436 -2.317533,0.55252 v 1.24318 l -0.460437,1.12039 -1.626875,2.07197 -0.537175,0.92087 -0.982263,0.41439 -0.828787,-0.89017 -0.982269,-0.12279 -0.690652,1.05901 -0.184175,1.21248 0.736699,0.96692 0.920874,0.89018 0.583216,1.22783 0.706007,0.7367 2.179399,-0.58322 0.644612,0.82879 0.322308,0.2916 0.445088,0.53718 0.306954,0.79809 0.168832,0.84414 v 1.10505 l -0.276262,1.0897 -0.230221,1.65757 -0.322303,0.64461 -0.399047,0.62926 -0.153477,0.93623 -0.30696,0.85948 -0.767397,0.16883 -0.598565,-0.26092 -0.353001,0.36835 -0.260919,0.47578 -0.613914,0.7674 -0.736698,0.61391 -1.519439,0.4144 -1.27388,0.706 1.442706,2.04127 -1.718968,0.52183 -0.521827,0.99761 -2.010573,0.18418 -0.138134,1.25853 0.122785,1.28922 -0.506478,1.0897 0.230216,0.78274 1.043659,0.27627 0.06139,1.059 -0.874827,1.38131 -0.122785,0.87483 0.01537,0.92087 0.552524,1.67292 0.890176,1.38131 -1.243176,0.44509 -0.184175,1.42736 -0.644612,-0.30696 -0.629268,-0.41439 -0.84413,1.30457 -0.230221,1.59618 -0.521826,-0.82879 -0.690659,-0.85948 -0.260913,-1.90314 -0.399047,-0.24557 -0.41439,-0.19952 -0.414396,-1.31992 -0.552525,-1.22783 -0.460437,-0.10744 -0.475779,-0.24556 -0.276263,-1.02831 -0.460436,-0.72135 -0.706007,-0.0307 -1.0897,0.0461 -1.212485,0.90553 -1.427351,0.58321 -1.350619,-0.26091 -0.905525,-0.7367 -0.629262,-0.99761 0.276262,-0.78274 1.611532,-0.7367 0.230215,-0.23022 0.184175,-0.47579 0.138134,-0.55252 -1.012961,-0.3223 -0.813444,-0.89019 -0.445087,0.16884 -0.42974,0.21486 -0.168826,-2.21009 1.120398,-0.27627 0.613914,-0.85947 -0.552525,-0.27627 -0.537175,-0.353 0.874827,-1.42735 -0.245564,-0.39905 -0.291611,-0.36835 -0.337652,-0.92087 -0.399047,-0.84414 -1.887788,-0.95157 -0.07675,-0.96692 1.074357,-0.0461 1.120397,0.0614 0.798089,-0.92088 0.276262,-1.19713 0.951571,-0.85949 1.074351,-0.50648 2.240795,-0.49113 1.319915,-1.97988 0.276262,-1.16644 0.537175,-1.059 0.475786,-0.44509 0.399047,-0.49113 0.199524,-0.44509 -0.09209,-0.4144 -0.322309,-1.059 0.276262,-0.56787 0.414396,-0.49114 -0.214872,-0.30695 -0.276263,-0.32231 -0.122785,-0.50648 0.138134,-0.55252 -0.460437,-1.48875 0.06139,-1.0897 0.752048,-0.46044 1.273874,-0.353 1.596183,-1.50409 0.107437,-1.94919 -1.304573,-4.3281 z"
       inkscape:connector-curvature="0" />
    <path
       id="Sabaragamuwa"
       style="display:inline;fill:#fefee4;stroke:#808080;stroke-width:0.15347895;stroke-opacity:1"
       d="m 36.405711,176.91553 -2.471016,-2.51705 -0.920873,0.41439 -0.03069,-0.58322 -0.07674,-0.58322 0.798094,-0.7367 -0.184174,-1.0897 -1.02831,-0.52183 -1.289224,-0.0921 0.168826,-0.49113 v -0.55252 l -0.890176,-2.83937 0.306954,-1.74966 0.752048,-1.74966 0.859484,-0.59856 0.445088,-1.01296 -1.243182,-0.36835 -1.458049,0.33765 -0.72135,-1.50409 0.260913,-1.70362 0.936222,-0.47579 0.767397,-0.7367 0.168826,-2.05661 0.583222,-0.47579 -0.107436,-0.79809 1.212484,-0.69065 1.227828,-1.10505 1.304572,-0.93622 1.39666,-0.65996 2.900749,-0.64461 0.629269,-0.0307 0.429739,-0.58322 0.199523,-0.706 -0.07674,-1.22783 0.214866,-1.13574 1.304573,-0.52184 1.427357,0.18418 0.859478,0.90553 0.552524,1.15109 0.72135,1.84175 2.578447,2.25614 -0.107431,1.16643 0.506478,0.35301 1.504096,0.84413 0.72135,0.87483 -0.138134,1.07435 0.01537,0.87484 0.859484,0.85947 0.690652,0.87484 -0.337652,0.78274 -0.460436,0.7367 -0.644612,0.15348 -0.65996,0.0461 -0.936223,1.01296 -2.056614,0.33765 -0.675309,0.62927 0.905524,2.16405 0.429745,0.75205 -0.429745,0.92087 -0.03069,1.18179 0.07675,0.19952 0.199517,0.0461 -0.521826,0.84413 -0.828786,0.7367 -0.445088,0.15348 -0.337652,0.44509 0.337652,0.46043 0.383698,0.3837 -0.414396,2.22545 0.506483,1.73431 1.734311,0.56787 1.365962,1.02831 0.460437,1.58083 0.09209,0.7981 -0.675309,0.59856 -1.181787,0.0461 -1.181787,-0.16883 -1.642224,-0.55253 -1.273874,-0.7367 -0.905525,-0.0307 -0.736699,0.0767 -1.811055,1.02831 -1.488747,-0.32231 -0.276262,-0.59857 -0.429739,-0.52183 -0.598565,0.13813 -0.429745,0.24557 -0.905525,-0.72135 z m 37.740477,32.72171 0.567873,1.0897 0.460437,1.39666 1.105048,1.22783 0.552524,1.53479 -0.30696,1.04366 -1.243182,-0.41439 -2.179399,-0.42974 -0.690653,-0.81344 -0.90553,-0.72136 -1.135741,0.12279 -1.135746,0.26091 -1.13574,-0.16882 -4.358804,-1.59619 -3.407233,-0.65995 v -0.56788 l 0.322303,-0.3223 -0.767391,-0.56788 0.04606,-0.56786 -0.65996,-0.81345 -1.427352,0.23022 -1.059008,-0.18417 0.383698,-1.07435 -0.859486,-1.58084 -2.609138,0.33766 -1.012961,0.0154 -0.399048,0.96691 -1.166438,0.27626 -1.166444,0.16884 -0.506477,-0.75205 -0.966921,0.0307 -1.841747,-0.90552 -0.890176,-0.0307 -0.997612,-0.39904 -0.813438,-0.69066 -0.72135,-0.75204 -2.148707,-3.76024 -2.517057,-3.54536 -0.306954,-1.01297 0.890176,-0.353 -0.859484,-1.64222 -1.319915,-1.22783 -0.828786,-0.32231 -0.659961,-0.61392 -0.353001,-1.74966 -1.811055,-1.76501 -0.567873,-1.19713 -0.383693,-1.13574 0.09209,-0.95157 -1.043659,-2.76262 -0.199524,-1.22784 1.304572,-1.18178 -1.458049,-1.55014 0.306954,-0.72135 0.260919,-0.82879 0.644612,-1.02831 0.752042,-0.93622 0.920874,-0.41439 2.471016,2.51705 0.736699,0.93622 0.905524,0.72135 0.42974,-0.24556 0.59857,-0.13813 0.42974,0.52183 0.276262,0.59856 1.488746,0.32231 1.81105,-1.02831 0.736699,-0.0767 0.905525,0.0307 1.273874,0.7367 1.64223,0.55252 1.181787,0.16883 1.181787,-0.046 -0.04606,0.98226 0.399047,0.44509 -0.445094,0.42974 -0.214867,0.61392 1.212485,0.93622 1.458049,0.12278 3.084924,0.69066 3.253753,0.44508 1.258531,-0.21486 1.473398,-0.10744 1.964527,0.0614 1.857096,-0.24556 3.361192,-1.78036 0.168826,2.2101 0.429739,-0.21487 0.445088,-0.16883 0.813444,0.89018 1.012961,0.3223 -0.138134,0.55253 -0.184175,0.47578 -0.230216,0.23022 -1.611531,0.7367 -0.276263,0.78274 0.629263,0.99761 0.905531,0.7367 1.350613,0.26092 1.427351,-0.58322 1.212485,-0.90552 1.089699,-0.0461 -0.982263,1.48874 -0.613914,1.53479 -1.074356,1.31992 -0.567868,1.31992 -0.583222,2.60914 -1.120397,1.59618 -0.905525,1.70362 0.184175,0.99762 0.368349,0.93621 0.04606,3.7142 0.675309,1.28922 0.828786,1.1204 1.135746,0.61391 z"
       inkscape:connector-curvature="0" />
    <path
       id="Western-Province"
       style="display:inline;fill:#fefee4;stroke:#808080;stroke-width:0.15347895;stroke-opacity:1"
       d="m 20.198334,203.95852 -0.322309,-0.46043 -0.399047,-0.0921 -0.260913,-1.01296 -0.12278,-0.10744 -0.260919,-0.15348 -0.260913,-0.24557 -0.168826,-0.3223 0.07674,-0.35301 0.291611,-0.0767 0.30696,0.0307 0.138128,-0.0154 -0.491129,-3.39188 -4.11324,-10.6054 0.09209,-0.16883 h 0.03069 v -0.0307 l -0.01537,-0.75205 -0.184175,-0.76739 -0.36835,-1.10505 0.06139,-0.99761 2.762621,1.70361 1.703619,-0.64461 0.690653,-0.15348 0.65996,-0.30696 2.286836,-1.96453 0.65996,-0.0767 0.659961,0.30696 0.920873,-0.47578 0.736699,-0.85949 0.36835,0.0767 0.30696,0.18417 0.76739,1.7957 1.166444,0.29161 -0.383698,-1.73431 1.933835,-0.81344 1.734311,0.39905 0.199524,1.22783 1.043658,2.76262 -0.09209,0.95157 0.383693,1.13574 0.567873,1.19714 1.811055,1.76501 0.353001,1.74966 0.65996,0.61391 0.828787,0.32231 1.319915,1.22783 0.859484,1.64223 -0.890176,0.353 0.306954,1.01296 2.517057,3.54536 2.148707,3.76024 -2.11801,0.49113 -2.071968,1.28922 -1.105049,0.47579 v 1.28922 l 0.445088,1.30457 -0.107436,1.19714 -0.936217,-0.7367 -0.905531,-0.89018 -1.765003,-1.35062 -1.795706,0.15349 -1.626875,0.90552 -2.578447,-0.49113 -0.982269,-0.65996 -0.951565,-0.84414 -1.181787,-0.52182 -1.089706,-0.21488 -2.179399,-1.0283 -0.30696,-0.50648 -0.429739,-0.42974 -0.598565,0.24556 -0.383698,0.27626 z m -6.354029,-30.97205 -0.982269,-0.50648 -1.289223,-0.50648 0.598571,-1.42736 0.153477,-0.6753 -0.01537,-0.70601 -2.83936,-10.14495 0.3836983,-1.4734 -0.015372,0.90552 0.2148667,0.58322 0.322309,0.44509 0.291611,0.52183 0.567873,2.01057 0.276262,0.49114 h 0.368349 l 0.09209,-0.58322 0.168826,-0.24557 0.138128,-0.0307 0.04606,0.0307 -0.01537,-1.84175 -0.138128,-0.81343 -0.291611,-0.65996 -0.276262,-0.18418 -0.782746,-0.18417 -0.353001,-0.23023 -0.260913,-0.50647 0.107436,-0.47579 0.230216,-0.44509 0.122785,-0.42974 -0.353001,-2.59379 1.412009,0.0767 1.105048,-0.29161 1.151089,-0.15348 0.460437,0.52183 0.690658,0.0767 0.874828,-0.53717 1.043658,0.39905 1.258526,-0.50648 2.271486,-1.78036 1.412009,-0.0614 1.642224,1.16644 1.718968,-0.50648 1.458049,-1.04366 1.657572,-0.29161 0.537176,0.59857 0.168826,0.50648 0.337651,0.50648 1.488747,1.68827 1.02831,0.75204 0.107436,0.79809 -0.583222,0.47579 -0.168825,2.05661 -0.767397,0.7367 -0.936217,0.47579 -0.260919,1.70362 0.721356,1.50409 1.458049,-0.33765 1.243177,0.36835 -0.445088,1.01296 -0.859484,0.59856 -0.752042,1.74966 -0.30696,1.74966 0.890176,2.83937 v 0.55252 l -0.168826,0.49113 -1.0897,0.3837 -1.611532,-0.16883 -1.166438,0.55253 -0.951571,0.93622 -0.230216,1.1204 -0.07674,1.18178 -1.273875,0.0614 -1.043658,-0.12278 -0.690659,-0.27626 -0.675303,-0.36835 -0.706007,-0.65996 -0.798089,-0.49113 -1.012961,0.0767 -1.02831,0.19952 -2.946796,-0.87483 -0.537175,0.23022 -0.475786,0.24556 z m 0.84413,14.01263 0.01537,-0.0154 -0.09209,0.16882 -2.210097,-5.70942 -0.890176,-4.97271 v -4.32811 l 0.06139,-0.16883 1.289223,0.50648 0.982269,0.50649 1.043653,0.24556 0.475786,-0.24556 0.537176,-0.23023 2.946795,0.87484 1.02831,-0.19953 1.012961,-0.0767 0.798095,0.49114 0.706001,0.65995 0.675309,0.36835 0.690653,0.27627 1.043659,0.12278 1.273874,-0.0614 0.07674,-1.18179 0.230222,-1.12039 0.951565,-0.93623 1.166444,-0.55252 1.611526,0.16883 1.0897,-0.3837 1.289223,0.0921 1.02831,0.52184 0.184175,1.0897 -0.798089,0.7367 0.07674,0.58321 0.03069,0.58322 -0.752048,0.93623 -0.644611,1.02831 -0.260914,0.82878 -0.30696,0.72135 1.45805,1.55014 -1.304567,1.18179 -1.734317,-0.39905 -1.933835,0.81344 0.383699,1.73431 -1.166438,-0.29161 -0.767397,-1.7957 -0.306954,-0.18417 -0.36835,-0.0767 -0.736699,0.85949 -0.920873,0.47578 -0.659961,-0.30696 -0.65996,0.0767 -2.286836,1.96453 -0.65996,0.30696 -0.690658,0.15348 -1.703614,0.64461 -2.762621,-1.70361 -0.06139,0.99761 0.368349,1.10505 0.184175,0.76739 0.01537,0.75205 -0.03069,0.0307 -0.01537,0.0154 h -0.0614 v 0.0461 z"
       inkscape:connector-curvature="0" />
  </g>
</svg>
