<?xml version="1.0" encoding="UTF-8" standalone="no"?>
<!-- Created with Inkscape (http://www.inkscape.org/) -->

<svg
   xmlns:dc="http://purl.org/dc/elements/1.1/"
   xmlns:cc="http://creativecommons.org/ns#"
   xmlns:rdf="http://www.w3.org/1999/02/22-rdf-syntax-ns#"
   xmlns:svg="http://www.w3.org/2000/svg"
   xmlns="http://www.w3.org/2000/svg"
   xmlns:sodipodi="http://sodipodi.sourceforge.net/DTD/sodipodi-0.dtd"
   xmlns:inkscape="http://www.inkscape.org/namespaces/inkscape"
   width="866.00458"
   height="1528.1228"
   viewBox="0 0 229.13038 404.31584"
   version="1.1"
   id="svg4642"
   inkscape:version="0.92.1 r15371"
   sodipodi:docname="srilanka.svg">
  <defs
     id="defs4636" />
  <sodipodi:namedview
     id="base"
     pagecolor="#ffffff"
     bordercolor="#666666"
     borderopacity="1.0"
     inkscape:pageopacity="0.0"
     inkscape:pageshadow="2"
     inkscape:zoom="2.8"
     inkscape:cx="344.31309"
     inkscape:cy="-53.363419"
     inkscape:document-units="mm"
     inkscape:current-layer="layer1"
     showgrid="false"
     fit-margin-top="0"
     fit-margin-left="0"
     fit-margin-right="0"
     fit-margin-bottom="0"
     inkscape:window-width="1920"
     inkscape:window-height="1051"
     inkscape:window-x="-4"
     inkscape:window-y="-4"
     inkscape:window-maximized="1"
     units="px" />
  <metadata
     id="metadata4639">
    <rdf:RDF>
      <cc:Work
         rdf:about="">
        <dc:format>image/svg+xml</dc:format>
        <dc:type
           rdf:resource="http://purl.org/dc/dcmitype/StillImage" />
        <dc:title></dc:title>
      </cc:Work>
    </rdf:RDF>
  </metadata>
  <g
     inkscape:label="Layer 1"
     inkscape:groupmode="layer"
     id="layer1"
     transform="translate(-230.90475,296.74128)">
    <path
       class="country"
       id="10m-admin-1-states-provinces-shp.2662"
       d="m 321.78969,-50.360652 1.21709,-0.29104 1.21708,-0.58209 2.11667,2.91042 6.50875,4.10104 3.75708,0.21167 2.19604,-2.40771 -0.34396,-3.81 0.60855,-1.61396 1.42875,-0.87312 1.50812,0.60854 3.81,3.14854 2.93688,-0.44979 3.25437,-2.67229 4.20688,0.0265 1.69333,-0.82021 1.24354,1.53458 0.74083,-0.42333 0.66146,-0.55563 1.13771,-1.905 2.06375,-0.3175 3.25438,0.34396 0.89958,15.63688 2.24896,7.461244 -0.18521,3.36021 -2.75167,2.59292 -2.19604,0.60854 -1.29646,0.79375 -4.25979,-0.87313 -4.39208,0.66146 -3.75709,-0.29104 -2.35479,-3.73063 -0.87312,-0.10583 -1.08479,-0.37042 -1.45521,-1.98437 -1.77271,-1.61396 0.3175,3.01625 0.9525,3.86292 -2.09021,3.51896 -6.58812,7.83166 -1.77271,-0.44979 -1.98438,0.0265 -2.98979,2.09021 -2.06375,0.44979 -3.70417,-0.44979 -2.32833,1.85208 0.84667,-0.26458 0.79375,0.37041 1.79916,3.3337499 1.53459,1.45521 1.21708,1.66688 -1.21708,3.43957999 -2.2225,2.35479001 -2.98979,-1.77271001 -4.5773,-6.85269999 -2.93687,-0.26459 0.0529,-2.03729 0.74083,-1.5874999 -0.74083,-1.29646 -1.56104,-3.73062 1.16416,-1.08479 3.54542,-0.58209 1.61396,-1.74625 1.13771,-0.0794 1.11125,-0.26459 0.79375,-1.27 0.58208,-1.34937 -1.19063,-1.50813 -1.48166,-1.48166 -0.0265,-1.50813 0.23812,-1.85208 -1.24354,-1.50813 -2.59291,-1.4552 -0.87313,-0.60855 0.18521,-2.01082 -4.445,-3.889384 -1.24354,-3.175 2.11666,0.23813 1.82563,-0.52917 -0.15875,-0.50271 -0.0794,-0.66146 0.34396,-0.60854 0.42333,-0.55562 0.34396,-2.09021 h 1.45521 l 1.5875,1.13771 1.77271,0.13229 0.13229,-1.05834 -0.15875,-1.16416 1.50812,-0.84667 1.48167,0.26458 1.08479,-0.52916 -0.60854,-1.40229 z"
       inkscape:connector-curvature="0"
       style="display:inline;fill:#fefee4;stroke:#808080;stroke-width:0.26458332;stroke-opacity:1" />
    <path
       class="country"
       id="10m-admin-1-states-provinces-shp.2663"
       d="m 356.79407,-77.877324 5.50333,0.39688 5.29167,-0.97896 -0.0794,1.71979 0.74084,2.35479 0.23812,1.98438 -0.97896,4.894792 -1.00541,4.86833 0.50271,8.44021 -3.25438,-0.34396 -2.06375,0.3175 -1.13771,1.905 -0.66146,0.55563 -0.74083,0.42333 -1.24354,-1.53458 -1.69333,0.82021 -4.20688,-0.0265 -3.25437,2.67229 -2.93688,0.44979 -3.81,-3.14854 -1.50812,-0.60854 -1.42875,0.87312 -0.60855,1.61396 0.34396,3.81 -2.19604,2.40771 -3.75708,-0.21167 -6.50875,-4.10104 -2.11667,-2.91042 0.0529,-1.05833 0.58208,-0.79375 0.21167,-1.24354 -0.29104,-1.29646 -0.52917,-1.08479 -0.60854,-1.03188 -1.03187,-2.0902 0.23812,-2.16959 1.45521,-1.32291 0.37042,-0.89959 -0.0265,-0.9525 0.3175,-1.21708 0.0265,-1.19063 -1.87855,-1.85208 -0.55562,-3.201462 -0.29104,-3.46604 -0.52917,-0.74083 -0.37042,-0.26459 -0.0265,-1.7727 -0.71437,-1.772714 -1.00542,-1.71979 -0.74083,-1.61396 -0.76729,-0.21167 -0.89959,-0.50271 -0.26458,-1.82562 0.47625,-1.69334 2.16958,-1.61395 3.43959,-1.27 1.82562,-2.19605 1.64042,0.0794 1.21708,0.79375 1.53459,-1.05833 0.76729,-1.24355 0.71437,-0.5027 0.66146,-0.39688 -0.0794,-0.71437 -0.21166,-0.47625 1.29646,-1.37584 0.97895,-1.48166 v -1.931462 l 0.55563,-1.64042 h 1.03187 l 0.7673,0.18521 0.60854,-0.42333 1.98437,-2.09021 1.32292,-1.19063 1.95792,-0.97896 2.14312,-0.87312 0.89958,0.87312 1.4023,1.61396 -0.0265,1.82563 0.55562,0.60854 0.87313,0.3175 0.66146,-0.42333 0.0264,-0.66146 1.24355,-0.58209 1.19062,0.34396 1.61396,0.3175 1.50812,0.89959 -3.06916,3.22791 -1.00542,4.894792 -0.29104,2.38125 -0.97896,4.18042 -0.34396,0.74083 -0.21166,0.74084 -2.96334,0.66146 -0.68791,2.8575 1.37583,6.270624 -0.18521,2.01083 1.03188,1.45521 2.69875,0.58209 2.56645,-1.05834 2.0373,-1.87854 0.87312,1.24354 1.56104,0.97896 0.44979,-1.82562 z"
       inkscape:connector-curvature="0"
       style="display:inline;fill:#fefee4;stroke:#808080;stroke-width:0.26458332;stroke-opacity:1" />
    <path
       class="country"
       id="10m-admin-1-states-provinces-shp.2664"
       d="m 355.07428,-23.955238 4.39208,-0.66146 4.25979,0.87313 -0.10583,1.87854 0.79375,2.56646 -0.23813,0.9525 0.21167,0.87312 0.47625,0.55563 0.37042,0.52916 -0.71438,0.84667 -0.47625,0.97896 0.55563,1.82562 0.15875,0.71438 -0.34396,0.76729 -0.68792,0.84667 -0.82021,0.7672899 -0.92604,1.82562 -0.47625,2.01084 -2.27541,3.41312 -3.86292,0.84667 -1.85208,0.87311999 -1.64042,1.48167 -0.47625,2.06375001 -1.37583,1.5875 -1.93146,-0.10583 -1.85209,0.0794 0.1323,1.66688 3.25437,1.64041 0.68792,1.45521 0.58208,1.5874991 0.50271,0.635 0.42333,0.68792 -1.50812,2.46062 0.92604,0.60855 0.9525,0.47625 -1.05833,1.48166 -1.93146,0.47625 -5.79438,3.06917 -3.20146,0.42333 -3.38666,-0.10583 -2.54,0.18521 -2.16958,0.37041 -5.60917,-0.76729 -5.31813,-1.190619 -2.51354,-0.21167 -2.09021,-1.613961 0.37042,-1.05833 0.76729,-0.74083 -0.68792,-0.7673 0.0794,-1.69333 1.16417,-1.03187 -0.15875,-1.37584 -0.79375,-2.7252091 -2.35479,-1.7727 -2.98979,-0.97896 -0.87313,-2.98979 0.71438,-3.83646 -0.66146,-0.66146 -0.58208,-0.79375 0.58208,-0.76729 0.76729,-0.26459 1.42875,-1.27 0.89958,-1.4552 -0.34395,-0.0794 -0.1323,-0.34396 2.93688,0.26459 4.57729,6.85269999 2.98979,1.77271001 2.2225,-2.35479001 1.21709,-3.43957999 -1.21709,-1.66688 -1.53458,-1.45521 -1.79917,-3.3337499 -0.79375,-0.37041 -0.84666,0.26458 2.32833,-1.85208 3.70417,0.44979 2.06375,-0.44979 2.98978,-2.09021 1.98438,-0.0265 1.77271,0.44979 6.58812,-7.83166 2.09021,-3.51896 -0.9525,-3.86292 -0.3175,-3.01625 1.77271,1.61396 1.45521,1.98437 1.08479,0.37042 0.87312,0.10583 2.35479,3.73063 z"
       inkscape:connector-curvature="0"
       style="display:inline;fill:#fefee4;stroke:#808080;stroke-width:0.26458332;stroke-opacity:1" />
    <path
       class="country"
       id="10m-admin-1-states-provinces-shp.2665"
       d="m 459.74344,-8.1066981 0.15871,2.14313 -0.58204,4.1275 -4.70958,16.4041591 -0.26459,1.69334 -0.10583,2.24896 -0.34396,1.852081 -1.48166,2.910419 -0.3175,1.27 -0.58209,1.7727 -2.93687,4.577301 0.71437,2.51354 -1.13771,2.98979 -6.50875,10.37167 -0.89958,-0.3175 -2.48708,-0.7673 -1.71979,-1.95791 -1.29646,-0.18521 -1.19063,-0.0794 -3.04271,-3.78354 2.64584,-37.9677101 -0.50271,-2.03729001 -1.21708,-1.77270999 -0.0265,-1.98437 -0.68792,-2.01083 0.47625,-2.0373 0.18521,-1.9314499 -3.01625,-1.82563 -3.65125,-0.9525 -0.52917,-0.47625 -0.635,-0.37042 h -0.76729 l -0.82021,-0.37041 -0.79375,-1.42875 -0.42333,-1.5875 -1.32292,-2.43417 1.19063,-3.20146 2.14312,-2.54 1.66688,-1.32291 -2.2225,-3.06917 -0.29104,-2.2225 -1.42875,-2.51354 -2.27542,-1.984374 -0.42333,-1.98438 0.15875,-2.48708 -1.21709,-5.45042 0.21167,-1.37583 -0.68792,-0.13229 -0.635,-0.37042 1.50813,-2.38125 -2.01084,-0.52917 -2.56645,1.37584 -1.24355,0.42333 -1.1377,0.50271 -0.37042,0.97896 -0.68792,1.11125 -1.42875,0.37041 -1.05833,0.0794 0.0265,1.34937 0.55562,1.21709 0.13229,1.21708 -0.47625,1.00542 -0.71437,0.87312 -0.47625,0.71438 -2.06375,1.16416 -2.54,-0.10583 v 3.968754 l 0.55562,3.83645 -1.905,1.4023 -2.0902,0.74083 -0.89959,-1.69333 -0.79375,-1.98437 -0.37041,-1.85209 -0.89959,-1.878544 -0.71437,-1.19062 -0.42334,-0.92605 -1.27,-0.23812 -0.89958,0.21167 -1.53458,-1.53459 -1.11125,-2.40771 -0.68792,-4.55083 -0.39687,-1.29646 -0.3175,-1.27 0.29104,-0.92604 0.58208,-1.05833 1.05834,-5.02709 -0.37042,-5.18583 -4.55084,-0.97896 -5.02708,2.80459 -2.19604,2.03729 -1.24354,0.47625 -1.00542,0.23812 -1.87854,0.66146 -2.51354,-4.23333 -0.82021,-2.48709 -0.13229,-1.66687 -0.66146,-1.48167 -1.56104,-0.9525 -0.26458,-0.26458 0.97895,-4.894792 -0.23812,-1.98438 -0.74083,-2.35479 0.0794,-1.71979 h 1.93146 l 3.81,-0.37042 1.87854,-0.34396 3.73063,1.45521 3.01625,3.04271 4.97416,1.53458 2.40771,1.402302 1.98437,0.23812 0.26459,-1.084792 0.47625,-1.19063 0.66146,-0.68791 0.55562,-1.11125 -0.3175,-2.46063 0.44979,-2.328334 2.77813,0.555624 3.30729,-0.15875 2.72521,0.89959 3.4925,5.08 2.27542,2.169582 3.12208,0.87313 3.25437,0.635 -0.15875,3.09562 -1.00541,3.01625 0.21166,1.71979 0.92604,1.53459 3.22792,1.95791 1.74625,1.69334 6.72042,1.16416 6.82625,-0.74083 2.38125,-1.34938 0.0529,2.59292 0.79375,2.54 0.3175,5.84729 0.74084,1.66688 3.59833,-3.54542 2.06375,-1.69333 2.80458,-0.44979 1.95792,-0.3175 0.10583,0.42333 0.82021,0.15875 0.84667,-1.05833 h 0.635 l 0.79375,4.18041 -0.0265,1.53459 h 0.71438 l 0.0794,-1.48167 0.23813,-1.42875 0.44979,-1.24354 0.60854,-0.84667 v -0.71437 l -0.26458,-0.82021 0.1852,-0.3175 0.55563,0.23812 0.92604,0.89959 0.3175,0.8202 0.23813,2.19605 1.56104,2.51354 2.56646,8.78416 -0.47625,24.341674 0.23812,1.64041 z"
       inkscape:connector-curvature="0"
       style="display:inline;fill:#fefee4;stroke:#808080;stroke-width:0.26458332;stroke-opacity:1"
       sodipodi:nodetypes="cccccccccccccccccccccccccccccccccccccccccccccccccccccccccccccccccccccccccccccccccccccccccccccccccccccccccccccccccccccccccccccccccccccccccccccccccccccccccccccccccccc" />
    <path
       class="country"
       id="10m-admin-1-states-provinces-shp.2666"
       d="m 400.50324,-133.96899 0.52916,5.3975 -0.82021,16.29833 0.7673,3.81 1.69333,3.73062 0.84667,3.86292 -0.92605,0.0794 -3.73062,-0.50271 -2.91042,0.42333 -2.30187,1.534582 -0.76729,3.01625 -0.92605,7.96396 1.45521,7.99042 2.77813,0.555624 3.30729,-0.15875 2.72521,0.89959 3.4925,5.08 2.27541,2.169582 3.12209,0.87313 3.25437,0.635 -0.15875,3.09562 -1.00541,3.01625 0.21166,1.71979 0.92604,1.53459 3.22792,1.95791 1.74625,1.69334 6.72042,1.16416 6.82625,-0.74083 2.38125,-1.34938 0.0529,2.59292 0.79375,2.54 0.3175,5.84729 0.74084,1.66688 3.59833,-3.54542 2.06375,-1.69333 2.80458,-0.44979 1.95792,-0.3175 -0.0794,-0.37042 1.08479,-0.82021 -0.74084,-0.66146 -0.29104,-0.58208 -0.21166,-0.58208 -0.50271,-0.66146 -0.52917,-0.92604 0.44979,-0.635 0.74084,-0.55563 0.39687,-0.71437 -0.10583,-0.42334 -0.50271,-0.97896 -0.10583,-0.34395 0.60854,-2.61938 0.10583,-0.18521 -1.905,-4.84187 -0.55562,-0.82021 -2.38125,-1.74625 -1.19063,-0.44979 0.37042,1.42875 -0.635,0.76729 -0.47625,-0.97896 -0.18521,-0.71437 0.13229,-0.58209 0.52917,-0.60854 -1.11125,-1.878542 -1.05834,-1.21708 -2.7252,-2.56646 0.15875,-1.11125 -0.635,-0.76729 -1.11125,-0.55563 -1.21709,-0.44979 -0.76729,1.05833 -1.00542,0.37042 -1.19062,-0.15875 -1.21708,-0.55563 0.71437,-2.301874 1.05833,-1.11125 1.4023,-0.10583 1.71979,0.60854 1.32291,1.16416 2.51355,3.201464 1.03187,0.71438 2.27542,-0.68792 -0.23813,-1.98437 -1.42875,-2.275424 -4.41854,-4.63021 -1.05833,-1.74625 -0.71438,-2.14312 h -0.68791 l -2.19605,0.37041 -2.11666,-2.43416 -1.19063,-3.51896 0.60854,-2.24896 0.37042,-0.26458 0.55563,-0.37042 0.47625,-0.0265 -0.7673,-1.243542 -2.06375,-1.5875 -0.74083,-1.40229 -0.0265,-1.27 0.34396,-0.82021 0.21167,-0.84667 -0.52917,-1.29646 -0.52917,0.42334 -1.03187,0.50271 -0.52917,0.42333 -0.0794,-0.44979 -0.13229,-0.29104 -0.21167,-0.23813 -0.21167,-0.37042 0.44979,-0.5027 -0.44979,-0.97896 -0.29104,0.47625 -0.68792,0.50271 -0.47625,0.5027 -1.27,-2.91041 -0.74083,-1.21709 -1.13771,-1.27 -0.87312,-1.42875 -0.84667,-3.73062 -0.82021,-1.50813 h -0.635 l -0.58208,2.2225 -1.71979,0.1323 -1.79917,-1.32292 -0.84667,-2.16958 -0.1852,-0.3175 -0.87313,-0.26459 -0.34396,-0.39687 -0.13229,-0.635 v -0.50271 l 0.0794,-0.3175 0.0529,0.0265 -0.10583,-1.03188 0.10583,-3.25437 h 0.76729 l 1.56105,4.31271 1.16416,4.86833 1.87854,-2.59292 -0.8202,-4.70958 -2.43417,-8.30792 -9.2075,-0.97896 -1.10154,0.47198 m 41.90029,53.661772 1.29646,1.296464 1.27,2.98979 0.92604,1.37584 1.19062,3.175002 3.6248,5.79437 1.74625,9.02229 -0.0794,2.06375 -1.50812,1.27 -1.45521,-1.16416 -0.635,-0.66146 -0.13229,-1.03188 0.42333,-6.72041 -0.29104,-2.24896 -1.13771,-0.9525 -0.42333,-0.92604 -3.41313,-5.05354 -0.21167,-1.084802 -0.84666,-1.87854 -0.34396,-1.00541 0.0529,-1.0848 0.3175,-0.9525 0.13229,-1.00541 -0.50271,-1.217094"
       inkscape:connector-curvature="0"
       style="display:inline;fill:#fefee4;stroke:#808080;stroke-width:0.26458332;stroke-opacity:1"
       sodipodi:nodetypes="ccccccccccccccccccccccccccccccccccccccccccccccccccccccccccccccccccccccccccccccccccccccccccccccccccccccccccccccccccccccccccccccccccccccccccccccccccccccccccccccccccccc" />
    <path
       class="country"
       id="10m-admin-1-states-provinces-shp.2667"
       d="m 392.88324,-96.318788 -0.92605,7.96396 1.45521,7.99042 -0.44979,2.328334 0.3175,2.46063 -0.55562,1.11125 -0.66146,0.68791 -0.47625,1.19063 -0.26459,1.084792 -1.98437,-0.23812 -2.40771,-1.402302 -4.97417,-1.53458 -3.01625,-3.04271 -3.73062,-1.45521 -1.87854,0.34396 -3.81,0.37042 h -1.93146 l -5.29167,0.97896 -5.50333,-0.39688 -0.23812,1.85209 -0.4498,1.82562 -1.56104,-0.97896 -0.87312,-1.24354 -2.03729,1.87854 -2.56646,1.05834 -2.69875,-0.58209 -1.03188,-1.45521 0.18521,-2.01083 -1.37583,-6.270624 0.68791,-2.8575 2.96334,-0.66146 0.21166,-0.74084 0.34396,-0.74083 0.97896,-4.18042 0.29104,-2.38125 1.00542,-4.894792 3.06917,-3.22791 -1.50813,-0.89959 -1.61396,-0.3175 -1.19062,-0.34396 -1.24354,0.58209 -0.0265,0.66146 -0.66146,0.42333 -0.87313,-0.3175 -0.55562,-0.60854 0.0265,-1.82563 -1.40229,-1.61396 -0.89959,-0.87312 0.13229,-2.72521 2.01084,-2.80458 -2.06375,-1.64042 0.18521,-3.59833 0.68791,-4.04813 1.48167,-3.88937 0.84667,-4.33917 1.50812,-3.96875 4.04813,-0.76729 h 4.52437 l 1.32292,-0.76729 0.42333,-1.79917 0.76729,-1.85208 1.32292,-1.37584 1.53458,-0.44979 1.19063,1.77271 1.66687,0.66146 1.5875,1.21708 0.42333,2.16959 1.27,1.27 4.31271,-0.42334 7.75229,1.905 h 1.85209 l 1.69333,0.97896 1.64042,1.27 1.82562,0.92604 1.29646,-0.10583 0.71438,1.05833 0.15875,1.29646 -0.0265,1.34938 0.34396,1.95791 -0.55563,1.29646 -1.16417,0.74083 0.39688,0.29105 0.50271,0.15875 2.56646,-0.58209 1.4552,-3.38666 0.50271,-1.00542 0.66146,-2.69875 0.71438,-0.60854 0.76729,-0.58209 0.66146,-1.24354 0.9525,-1.00541 h 1.27 1.5875 l 0.52916,5.3975 -0.82021,16.29833 0.7673,3.81 1.69333,3.73062 0.84667,3.86292 -0.92605,0.0794 -3.73062,-0.50271 -2.91042,0.42333 -2.30187,1.534582 z"
       inkscape:connector-curvature="0"
       style="display:inline;fill:#fefee4;stroke:#808080;stroke-width:0.26458332;stroke-opacity:1" />
    <path
       class="country"
       id="10m-admin-1-states-provinces-shp.2668"
       d="m 357.2174,-208.36983 1.98438,-0.55562 1.61396,-0.71438 0.0529,1.61396 1.19063,0.87313 -1.08479,1.03187 -0.97896,1.13771 1.61396,1.27 1.74625,-0.13229 1.40229,-1.32292 1.05833,-1.85208 0.68792,-1.69333 3.70416,4.47145 3.3073,5.66209 1.32291,1.37583 1.87854,0.55562 1.50813,1.21709 2.19604,5.34458 1.16417,1.21708 2.51354,1.13771 1.27,2.69875 1.42875,5.3975 0.26458,-0.97896 0.3175,-0.39687 0.55563,0.13229 1.00541,0.55563 -0.29104,0.97895 2.83104,3.12209 0.9525,1.53458 v 1.87854 l -0.74083,0.74084 -1.05833,0.47625 -0.97896,1.1377 1.50812,-0.39687 0.58209,-0.3175 2.24896,4.84187 0.3175,2.54 -2.56646,0.39688 0.52916,-1.66688 -0.68791,-1.34937 -1.11125,-0.15875 -0.82021,1.77271 0.26458,1.37583 0.74084,0.97896 0.39687,1.05833 -0.76729,1.5875 -1.71979,-1.32291 -1.77271,-1.11125 -1.77271,-0.42334 -1.71979,0.74084 -1.32292,1.7727 0.44979,0.9525 1.5875,-0.26458 2.14313,-1.74625 1.45521,1.56104 1.32291,1.87854 1.61396,1.56105 2.24896,0.635 4.70958,-0.0794 1.5875,-1.03187 -1.05833,-2.40771 2.69875,-1.24354 1.08479,-0.3175 1.11125,0.0794 1.24354,0.71438 1.13771,1.21708 0.84667,1.40229 0.74083,4.15396 1.5875,5.31812 0.10584,2.80459 -1.29646,-0.92604 -1.34938,-2.75167 -1.21708,-0.58208 -0.0265,0.76729 0.52917,3.59833 0.55562,1.29646 1.32292,0.60854 h 1.40229 l 1.08479,0.50271 0.66146,3.96875 0.89958,3.20146 0.23813,1.66687 -9.2075,-0.97896 -1.69333,0.60855 h -1.5875 -1.27 l -0.9525,1.00541 -0.66146,1.24354 -0.76729,0.58209 -0.71438,0.60854 -0.66146,2.69875 -0.50271,1.00542 -1.4552,3.38666 -2.56646,0.58209 -0.50271,-0.15875 -0.39688,-0.29105 1.16417,-0.74083 0.55563,-1.29646 -0.34396,-1.95791 0.0265,-1.34938 -0.15875,-1.29646 -0.71438,-1.05833 -1.29646,0.10583 -1.82562,-0.92604 -1.64042,-1.27 -1.69333,-0.97896 h -1.85209 l -7.75229,-1.905 -4.3127,0.42334 -1.27001,-1.27 -0.42333,-2.16959 -1.5875,-1.21708 -1.66687,-0.66146 -1.19063,-1.77271 -1.53458,0.44979 2.2225,-7.9375 0.23812,-1.29645 0.42334,-1.27 1.27,-1.21709 1.4552,-0.9525 0.84667,-1.53458 -0.68792,-1.5875 -1.19062,-0.92604 -0.92604,-1.16417 -1.42875,-3.43958 -2.72521,-4.02167 -0.42333,-2.48708 -1.0848,-1.05834 -0.87312,-0.97895 -0.0794,-2.11667 1.5875,-3.70417 -0.76729,-2.16958 -1.905,-4.15396 -0.0529,-4.445 1.71979,-2.56646 1.19062,-2.67229 -0.9525,-0.74083 -0.84666,-1.11125 -1.56105,-1.74625 -4.47145,-3.12208 -2.59292,-1.48167 -3.01625,-0.0529 -2.88396,1.19062 0.44979,-1.82562 0.84667,-1.45521 4.02167,-1.87854 4.73604,-0.635 1.95791,-0.55563 z"
       inkscape:connector-curvature="0"
       style="display:inline;fill:#fefee4;stroke:#808080;stroke-width:0.26458332;stroke-opacity:1" />
    <path
       class="country"
       id="10m-admin-1-states-provinces-shp.2669"
       d="m 288.45219,-122.06274 -9.44562,-4.33917 -2.19604,-1.24354 -1.16417,-1.48167 -1.50812,-1.21708 -2.06375,0.0794 -1.82563,-1.37583 -1.74625,0.79375 h -2.11667 l -0.635,-1.82563 -2.54,-10.42458 -1.50812,-2.91042 1.11125,-2.56645 1.71979,-0.79375 0.47625,-0.92605 0.13229,-0.71437 3.20146,-2.61938 1.85208,-3.96875 -0.58208,-4.25979 0.84667,0.42334 1.00541,0.10583 0.21167,-9.57792 -0.82021,-6.08541 4.55084,1.87854 h 5.02708 l 9.97479,-2.61938 0.0265,3.36021 1.05833,2.91042 1.56105,0.55562 1.50812,0.68792 0.66146,1.27 0.37042,1.40229 1.08479,2.19604 2.16958,1.16417 1.05833,0.29104 1.00542,0.0529 1.56104,-2.83104 1.82563,-0.79375 1.905,-4.445 4.04812,-5.26521 3.12209,-1.42875 1.87854,1.00541 1.74625,1.24355 3.25437,-0.0265 2.72521,-2.09021 2.59292,-2.32833 2.24896,-2.61938 1.21708,-1.905 1.45521,-1.74625 2.43416,-1.93146 -0.87312,-2.69875 -1.87854,-2.43416 -2.67229,-0.92605 -0.18521,-2.27541 7.62,-0.23813 2.98979,-2.0902 2.67229,-0.7673 2.83104,-0.52916 2.88396,-1.19063 3.01625,0.0529 2.59292,1.48167 4.47145,3.12208 1.56105,1.74625 0.84666,1.11125 0.9525,0.74083 -1.19062,2.67229 -1.71979,2.56646 0.0529,4.445 1.905,4.15396 0.76729,2.16958 -1.5875,3.70417 0.0794,2.11667 0.87312,0.97895 1.0848,1.05834 0.42333,2.48708 2.72521,4.02167 1.42875,3.43958 0.92604,1.16417 1.19062,0.92604 0.68792,1.5875 -0.84667,1.53458 -1.4552,0.9525 -1.27,1.21709 -0.42334,1.27 -0.23812,1.29645 -2.2225,7.9375 -1.32292,1.37584 -0.76729,1.85208 -0.42333,1.79917 -1.32292,0.76729 h -4.52438 l -4.04812,0.76729 -1.50813,3.96875 -0.84666,4.33917 -1.48167,3.88937 -0.68792,4.04813 -0.1852,3.59833 2.06375,1.64042 -2.01084,2.80458 -0.13229,2.72521 -2.14312,0.87312 -1.95792,0.97896 -1.32292,1.19063 -1.98437,2.09021 -0.60854,0.42333 -0.7673,-0.18521 h -1.03187 l -0.55563,1.64042 v 1.931462 l -0.97895,1.48166 -1.29646,1.37584 0.21166,0.47625 0.0794,0.71437 -0.66146,0.39688 -0.71437,0.5027 -0.76729,1.24355 -1.53459,1.05833 -1.21708,-0.79375 -1.64042,-0.0794 -1.82562,2.19605 -3.43959,1.27 -2.16958,1.61395 -2.61937,-2.48708 0.39687,-3.59833 -0.50271,-2.43417 -0.9525,-2.40771 -0.26458,-1.719792 -0.84667,-1.42875 -1.66687,-0.13229 -1.42875,-0.60854 -0.18521,-1.77271 0.13229,-1.905 -0.29104,-2.19604 0.18521,-1.32292 -0.0265,-1.27 -1.56104,-1.27 -1.93146,0.0529 -1.85209,-1.13771 -1.66687,-1.69333 -3.06917,-2.51355 -3.41312,-1.32291 -1.87854,-0.26459 -1.53459,-1.11125 -1.95791,-0.79375 z"
       inkscape:connector-curvature="0"
       style="display:inline;fill:#fefee4;stroke:#808080;stroke-width:0.26458332;stroke-opacity:1" />
    <path
       class="country"
       id="10m-admin-1-states-provinces-shp.2670"
       d="m 291.4949,-171.46045 -1.05833,-2.91042 -0.0265,-3.36021 -3.88938,-5.00062 -2.40771,-1.85209 0.0265,-1.34937 0.37042,-1.53458 2.64583,-0.26459 1.53459,-3.46604 2.8575,-1.5875 3.70416,0.42333 5.76792,-0.74083 5.50333,-2.01083 0.52917,-3.62479 -1.56104,-3.96875 -1.5875,-2.54 -2.77813,-1.29646 4.7625,-2.98979 2.8575,-2.32834 1.82563,-2.77812 -0.13229,-1.74625 -0.37042,-1.74625 0.0265,-0.92604 -0.10583,-0.84667 -1.50813,-0.23812 -0.79375,-1.0848 0.26459,-1.50812 1.82562,-0.18521 1.98438,0.13229 3.51895,-0.10583 2.56646,1.61396 1.5875,2.35479 2.51354,-1.11125 1.74625,-1.56104 1.03188,-0.50271 0.97896,-0.55563 0.18521,-0.52916 0.23812,-0.50271 3.33375,-0.10583 3.175,1.21708 0.37042,3.33375 2.75167,0.29104 1.19062,2.09021 -1.00542,1.45521 -0.15875,1.40229 1.5875,-0.37042 1.50813,-1.03187 3.22791,0.50271 3.25438,1.98437 1.24354,1.66688 -1.87854,7.01145 -0.84667,1.45521 -0.44979,1.82563 -2.83104,0.52916 -2.67229,0.7673 -2.98979,2.0902 -7.62,0.23813 0.1852,2.27541 2.6723,0.92605 1.87854,2.43416 0.87312,2.69875 -2.43416,1.93146 -1.45521,1.74625 -1.21709,1.905 -2.24895,2.61938 -2.59292,2.32833 -2.72521,2.09021 -3.25437,0.0265 -1.74625,-1.24355 -1.87855,-1.00541 -3.12208,1.42875 -4.04812,5.26521 -1.905,4.445 -1.82563,0.79375 -1.56104,2.83104 -1.00542,-0.0529 -1.05833,-0.29104 -2.16958,-1.16417 -1.0848,-2.19604 -0.37041,-1.40229 -0.66146,-1.27 -1.50813,-0.68792 z"
       inkscape:connector-curvature="0"
       style="display:inline;fill:#fefee4;stroke:#808080;stroke-width:0.26458332;stroke-opacity:1" />
    <path
       class="country"
       id="10m-admin-1-states-provinces-shp.2671"
       d="m 241.59449,-221.49316 4.1275,1.05833 4.36562,1.66688 4.15396,2.43417 3.51896,3.38666 -1.69334,-0.37041 -2.96333,-1.45521 -1.71979,-0.29104 4.7625,5.42395 0.89958,1.61396 -2.43416,-0.29104 -1.61396,-1.24354 -1.08479,-1.34938 -0.84667,-0.635 -1.05833,-0.52916 -4.20688,-3.75709 -4.20687,-1.87854 -2.32834,-0.66146 -2.24896,-0.23812 -1.13771,-0.44979 -0.5027,-1.00542 0.3175,-0.97896 1.32291,-0.44979 z"
       inkscape:connector-curvature="0"
       style="display:inline;fill:#fefee4;stroke:#808080;stroke-width:0.26458332;stroke-opacity:1" />
    <path
       class="country"
       id="path20"
       d="m 261.25303,-164.79295 -2.69875,-1.03188 -1.19063,-0.68791 0.39688,-0.39688 1.16416,-3.67771 0.21167,-0.21166 0.23813,-0.92605 0.9525,-2.06375 0.92604,-10.08062 -2.48709,-6.42938 0.21167,-1.11125 0.15875,-7.43479 -0.23812,-2.43416 -0.29105,-1.19063 -0.52916,-0.92604 -0.42334,-1.03187 0.9525,-0.50271 1.37584,-0.26459 0.89958,-0.29104 5.95313,-5.34458 3.09562,-1.53458 1.27,-1.13771 0.68792,-2.51354 1.24354,-2.59292 0.68792,-3.59833 3.30729,-8.51959 0.42333,-1.71979 h 0.74083 l 3.51896,-0.3175 2.16959,-1.08479 1.95791,-1.48167 0.10584,3.51896 0.635,3.38667 1.905,3.01625 0.1852,0.71437 0.1323,0.76729 -0.10584,1.5875 -0.37041,1.50813 0.23812,2.40771 -0.15875,2.11666 -2.24896,0.79375 -0.44979,1.03188 -0.34396,1.11125 -0.52916,1.19062 -0.37042,1.19063 0.50271,0.92604 0.44979,0.71438 -1.29646,3.70416 16.90688,-0.89958 2.77812,1.29646 1.5875,2.54 1.56104,3.96875 -0.52916,3.62479 -5.50334,2.01083 -5.76791,0.74083 -3.70417,-0.42333 -2.8575,1.5875 -1.53458,3.46604 -2.64584,0.26459 -0.37041,1.53458 -0.0265,1.34937 2.4077,1.85209 3.88938,5.00062 -9.97479,2.61938 h -5.02709 l -4.55083,-1.87854 0.82021,6.08541 -0.21167,9.57792 -1.00541,-0.10583 -0.84667,-0.42334 -2.72521,-1.56104 -2.61937,-1.11125 z"
       inkscape:connector-curvature="0"
       style="display:inline;fill:#fefee4;stroke:#808080;stroke-width:0.26458332;stroke-opacity:1" />
    <path
       class="country"
       id="10m-admin-1-states-provinces-shp.2672"
       d="m 364.07011,-212.94712 0.39688,0.3175 -0.0265,0.71438 -0.47625,0.74083 -0.9525,0.34396 -0.26459,-0.3175 -1.1377,-1.79917 -1.21709,-0.66146 -2.80458,-0.71437 -1.64042,-0.74083 1.16417,1.61395 3.70417,3.46605 v 0.34395 l -1.61396,0.71438 -1.98438,0.55562 -1.77271,1.05834 -1.95791,0.55562 -4.73604,0.635 -4.02167,1.87854 1.87854,-7.01145 -1.24354,-1.66688 -3.25438,-1.98437 -3.22791,-0.50271 -1.50813,1.03187 -1.5875,0.37042 0.15875,-1.40229 1.00542,-1.45521 -1.19063,-2.09021 -2.75166,-0.29104 -0.37042,-3.33375 -3.175,-1.21708 -3.33375,0.10583 -0.23812,0.50271 -0.18521,0.52916 -0.97896,0.55563 -1.03188,0.50271 -1.74625,1.56104 -2.51354,1.11125 -1.5875,-2.35479 -2.56646,-1.61396 -3.51895,0.10583 -1.98438,-0.13229 -1.82562,0.18521 -0.26459,1.50812 0.79375,1.0848 1.50813,0.23812 0.10583,0.84667 -0.0265,0.92604 0.37042,1.74625 0.13229,1.74625 -1.82563,2.77812 -2.8575,2.32834 -4.7625,2.98979 -16.90683,0.89958 1.29646,-3.70416 -0.44979,-0.71438 -0.50271,-0.92604 0.37042,-1.19063 0.52916,-1.19062 0.34396,-1.11125 0.44979,-1.03188 2.24896,-0.79375 0.15875,-2.11666 -0.23812,-2.40771 0.37041,-1.50813 0.10584,-1.5875 -0.1323,-0.76729 -0.1852,-0.71437 -1.905,-3.01625 -0.635,-3.38667 -0.10584,-3.51896 2.69875,0.34396 -0.26458,-2.88396 2.67229,-3.46604 7.85813,-0.92604 2.80458,-0.0265 2.75167,0.50271 2.7252,-0.26459 1.74625,-4.47146 1.37584,-0.0529 4.68312,0.23813 2.59292,-0.15875 1.71979,-0.92604 1.42875,-4.68313 0.47625,-0.15875 0.79375,0.97896 2.01083,1.69333 2.32834,1.27 -0.26459,-2.32833 0.29105,-2.35479 2.19604,-1.71979 0.21166,-1.71979 0.52917,-0.4498 0.47625,-0.39687 0.635,-0.52917 12.11792,9.8425 0.84667,1.37584 1.1377,1.42875 2.19605,2.0902 1.40229,1.79917 -1.24354,0.66146 -0.79375,-0.37042 -1.0848,-1.37583 -0.60854,-0.3175 -1.85208,-0.3175 -0.79375,0.26458 0.52917,1.08479 5.31812,4.94771 2.09021,1.13771 -0.82021,-1.27 -0.50271,-1.16417 0.23813,-0.87312 1.42875,-0.34396 0.66146,0.44979 1.08479,3.20146 4.89479,9.76313 -2.96333,-1.0848 -1.34938,-0.0265 -0.58208,1.48167 0.79375,0.37042 1.66687,0.26458 1.48167,0.9525 0.23812,2.35479 h 0.71438 l 0.34396,-0.60854 0.29104,-0.23812 0.34396,-0.18521 0.47625,-0.3175 0.58208,2.32833 1.45521,3.30729 1.93146,2.96334 z"
       inkscape:connector-curvature="0"
       style="display:inline;fill:#fefee4;stroke:#808080;stroke-width:0.26458332;stroke-opacity:1" />
    <path
       class="country"
       id="10m-admin-1-states-provinces-shp.2673"
       d="m 296.07219,-281.20961 -1.40229,2.96333 -2.14312,3.78354 -5.26521,-2.30187 -1.905,-1.0848 -1.27,-0.0265 0.23812,2.51355 0.71438,0.74083 1.11125,0.84667 0.635,1.00541 -0.66146,1.32291 -0.76729,0.23813 -0.74083,-0.39688 -0.68792,-0.58208 -1.95792,-1.00541 -3.83646,-3.36021 -2.2225,-0.92604 1.13771,1.21708 2.01084,1.74625 1.1377,1.27 -2.48708,-0.47625 -2.46062,-1.03187 -4.92125,-2.72521 -3.9423,-3.09563 -2.32833,-0.8202 -1.11125,-0.71438 -0.82021,-0.34396 -0.13229,0.74084 -1.11125,-0.7673 -0.42333,-1.00541 -0.21167,-1.19063 -0.39687,-1.34937 -0.66146,-1.13771 -1.45521,-1.905 -0.68792,-1.19063 2.2225,-1.11125 4.04813,-3.73062 1.79916,-0.82021 8.01688,0.71438 4.18042,-0.47625 1.50812,0.18521 0.60854,1.37583 -0.10583,2.16958 0.29104,0.76729 0.89958,0.29104 0.84667,0.10584 2.46063,0.635 0.5027,0.26458 0.4498,0.92604 1.11125,-0.0265 1.19062,-0.39687 0.87313,-0.10584 1.11125,0.66146 z"
       inkscape:connector-curvature="0"
       style="display:inline;fill:#fefee4;stroke:#808080;stroke-width:0.26458332;stroke-opacity:1" />
    <path
       class="country"
       id="path24"
       d="m 255.53803,-288.27399 -0.37042,1.21709 -0.29104,1.42874 0.0265,1.4023 0.18521,1.21708 0.42333,1.03187 0.84667,0.9525 0.42333,0.10584 1.98438,-0.10584 0.34395,0.3175 0.1323,1.56105 0.26458,0.635 1.16417,0.74083 1.5875,0.66146 1.32291,0.76729 0.44979,0.97896 -0.71437,0.74083 h -1.34938 l -1.4552,-0.44979 -1.00542,-0.635 -0.74083,-0.18521 -1.82563,1.08479 -1.29646,0.15875 -1.5875,-1.16416 -1.5875,-2.3548 -2.48708,-4.97416 1.13771,-1.77271 0.26458,-2.24896 0.635,-1.85208 2.2225,-0.47625 1.21708,0.37042 z"
       inkscape:connector-curvature="0"
       style="display:inline;fill:#fefee4;stroke:#808080;stroke-width:0.26458332;stroke-opacity:1" />
    <path
       class="country"
       id="path26"
       d="m 238.73698,-262.53003 -1.64041,1.56104 -2.59292,0.15875 -2.40771,-0.79375 -1.05833,-1.29646 -8.6e-4,-4.25979 0.2919,-1.05834 0.68792,0.1323 0.71437,0.87312 0.42334,1.08479 1.74625,0.55563 2.11666,0.15875 0.52917,0.39687 z"
       inkscape:connector-curvature="0"
       style="display:inline;fill:#fefee4;stroke:#808080;stroke-width:0.26458332;stroke-opacity:1"
       sodipodi:nodetypes="cccccccccccccc" />
    <path
       class="country"
       id="path28"
       d="m 329.78011,-257.29128 -0.47625,0.39687 -0.0529,-0.0529 -6.95854,-4.7625 -2.40771,-1.13771 -2.11667,-0.44979 -0.635,-0.29104 -1.85208,-1.40229 -0.68792,-0.42334 -0.71437,-0.10583 -0.82021,0.0529 -0.21167,-1.05833 -1.29645,-3.9423 0.23812,0.10584 v -0.76729 l -3.73062,-1.87854 -8.99583,-7.35542 -7.38188,-8.51958 -3.73062,-2.01083 -5.90021,-1.40229 -1.53459,-1.11125 -0.21166,-1.56104 2.14312,-0.95251 2.8575,-0.44979 4.23357,-0.23801 2.03706,0.39676 1.42875,1.00542 0.92604,3.36021 0.9525,1.42875 13.38792,15.76916 1.98437,1.45521 4.02167,2.27541 16.13958,13.09688 z"
       inkscape:connector-curvature="0"
       style="display:inline;fill:#fefee4;stroke:#808080;stroke-width:0.26458332;stroke-opacity:1"
       sodipodi:nodetypes="cccccccccccccccccccccccccccccccccc" />
    <path
       class="country"
       id="10m-admin-1-states-provinces-shp.2674"
       d="m 311.55032,-270.46754 1.29646,3.9423 0.21166,1.05833 -1.27,0.0529 -0.8202,0.3175 -0.34396,0.55563 -0.37042,0.1852 -1.37583,-0.97895 -0.55563,-0.10584 -3.30729,0.0794 -0.9525,-0.26458 -7.3025,-6.32354 -3.12208,-2.01083 -1.11125,-0.50271 2.14312,-3.78354 1.40229,-2.96333 4.8948,5.34458 3.175,1.98437 z"
       inkscape:connector-curvature="0"
       style="display:inline;fill:#fefee4;stroke:#808080;stroke-width:0.26458332;stroke-opacity:1" />
    <path
       class="country"
       id="path31"
       d="m 288.37282,-237.87087 0.26458,2.88396 -2.69875,-0.34396 -1.95791,1.48167 -2.16959,1.08479 -3.51896,0.3175 h -0.74083 l 0.635,-2.51354 v -6.0325 l 0.21167,-0.87313 -0.18521,-0.58208 -1.21708,-0.23812 -2.83105,-1.48167 -1.08479,-1.00542 -0.82021,-2.30187 -0.47625,-2.43417 -0.0529,-1.37583 1.21709,-1.29646 2.27541,-1.13771 2.51355,-0.79375 2.06375,-0.3175 0.92604,-0.44979 2.24896,-3.01625 0.66145,-0.47625 0.74084,-0.44979 0.92604,-0.34396 1.16417,-0.18521 -0.9525,-1.79917 -1.19063,-1.5875 -1.50812,-1.50812 -1.98438,-1.48167 -7.59354,-4.445 -1.50813,-1.90499 3.3073,0.10583 3.09562,1.26999 6.19125,3.57188 5.90021,1.48167 1.53458,0.97896 2.43417,2.14312 0.58208,1.11125 -1.24354,0.635 0.26458,0.71438 0.37042,0.71437 -0.635,0.68792 2.14313,1.45521 5.08,-1.24355 9.23395,-3.6777 2.48709,0.23812 5.47687,1.50813 6.42938,2.91041 4.86833,0.92604 0.0529,0.0529 -0.52917,0.44979 -0.21166,1.7198 -2.19604,1.71979 -0.29105,2.35479 0.26459,2.32833 -2.32834,-1.27 -2.01083,-1.69333 -0.79375,-0.97896 -0.47625,0.15875 -1.42875,4.68313 -1.71979,0.92604 -2.59292,0.15875 -4.68312,-0.23813 -1.37584,0.0529 -1.74625,4.47146 -2.7252,0.26459 -2.75167,-0.50271 -2.80458,0.0265 -7.85813,0.92604 z"
       inkscape:connector-curvature="0"
       style="display:inline;fill:#fefee4;stroke:#808080;stroke-width:0.26458332;stroke-opacity:1" />
    <path
       class="country"
       id="10m-admin-1-states-provinces-shp.2675"
       d="m 290.33074,-33.612528 -2.11667,1.905 -2.09021,1.19062 -1.77271,-1.29645 -2.56646,-2.91042 -0.58208,-0.87312 -0.29104,-0.873134 -0.92604,-1.03187 -2.8575,0.50271 -2.51354,1.799164 -2.96334,0.87313 -2.83104,-2.010834 -2.43417,0.10583 -3.91583,3.069174 -2.16958,0.87312 -0.26459,-6.164794 -3.78354,-20.37292 -0.18521,-3.57187 0.21167,-3.54542 1.11125,-2.8575 1.53458,-2.61937 0.37042,-1.164172 0.74083,-1.03188 1.48167,-0.39687 1.21708,-0.66146 -0.58208,-0.9525 -1.24354,-0.29104 0.50271,-1.37583 0.71437,-1.19063 1.32292,-0.42333 1.45521,-0.10584 1.11125,-0.44979 0.74083,-0.952504 -0.39687,-1.08479 -0.55563,-1.16417 0.3175,-2.7252 0.97896,-2.51355 0.18521,-1.21708 0.37041,-1.13771 1.32292,-0.68791 1.27,-0.84667 0.29104,-1.13771 0.47625,-1.05833 2.16959,-1.11125 0.42333,-0.9525 0.13229,-1.03188 0.635,-1.45521 1.53458,-0.68791 -0.13229,0.15875 -0.0794,0.18521 0.66146,-0.18521 0.76729,-0.82021 0.0265,-1.270002 0.60854,-1.00542 2.11667,1.21709 1.29646,-1.00542 -1.24354,-2.30188 0.60854,-1.21708 0.76729,-1.16417 0.10583,-2.35479 -0.0794,-2.77812 0.39688,-1.34938 0.26458,-1.24354 -1.24354,-0.76729 -1.40229,-0.47625 -0.9525,-1.87854 -0.37042,-2.01084 -1.08479,-4.10104 0.0529,-2.06375 -0.18521,-1.98437 2.19604,1.24354 9.44563,4.33917 2.03729,0.5027 1.95792,0.79375 1.53458,1.11125 1.87854,0.26459 3.41313,1.32291 3.06916,2.51355 1.66688,1.69333 1.85208,1.13771 1.93146,-0.0529 1.56104,1.27 0.0265,1.27 -0.18521,1.32292 0.29104,2.19604 -0.13229,1.905 0.18521,1.77271 1.42875,0.60854 1.66688,0.13229 0.84666,1.42875 0.26459,1.719792 0.9525,2.40771 0.5027,2.43417 -0.39687,3.59833 2.61937,2.48708 -0.47625,1.69334 0.26459,1.82562 0.89958,0.50271 0.76729,0.21167 0.74084,1.61396 1.00541,1.71979 0.71438,1.772714 0.0265,1.7727 0.37041,0.26459 0.52917,0.74083 0.29104,3.46604 0.55563,3.201462 1.87854,1.85208 -0.0265,1.19063 -0.3175,1.21708 0.0265,0.9525 -0.37042,0.89959 -1.45521,1.32291 -0.23812,2.16959 1.03187,2.0902 0.60854,1.03188 0.52917,1.08479 0.29104,1.29646 -0.21166,1.24354 -0.58209,0.79375 -0.0529,1.05833 -1.21708,0.58209 -1.21708,0.29104 0.8202,1.32292 0.60855,1.40229 -1.0848,0.52916 -1.48166,-0.26458 -1.50813,0.84667 0.15875,1.16416 -0.13229,1.05834 -1.77271,-0.13229 -1.5875,-1.13771 h -1.45527 l -0.34395,2.09021 -0.42334,0.55562 -0.34396,0.60854 0.0794,0.66146 0.15875,0.50271 -1.82562,0.52917 -2.11667,-0.23813 -0.9525,-1.98437 -1.48166,-1.56105 -2.46063,-0.3175 -2.24896,0.89959 -0.37041,1.95791 0.13229,2.11667 -0.34396,1.21708 -0.74083,1.00542 -1.0848,0.0529 -5.00062,1.11125 -2.40771,1.137714 z"
       inkscape:connector-curvature="0"
       style="display:inline;fill:#fefee4;stroke:#808080;stroke-width:0.26458332;stroke-opacity:1" />
    <path
       class="country"
       id="10m-admin-1-states-provinces-shp.2676"
       d="m 253.02449,-32.818778 -1.905,0.50271 -2.43417,-0.13229 -4.445,-32.464374 -0.60854,-1.32292 0.39687,-0.47625 0.3175,-0.0265 0.74084,0.50271 0.15875,-1.79917 0.52916,-2.06375 0.23813,-2.01083 -0.55563,-1.561042 -0.79375,-1.40229 -0.29104,-1.905 0.0265,-3.810004 -2.64583,-12.93813 -1.21709,-2.54 -1.03187,-5.344582 -1.69333,-4.23334 -2.56646,-11.66812 v -3.30729 l 0.42333,0.18521 0.0529,0.0529 v 0.10584 l 0.21166,0.37046 0.37042,-1.93146 -0.52917,-6.11187 -0.52916,-1.85208 1.69333,-1.11125 1.5875,-2.06375 1.16417,-2.32834 0.44979,-1.98437 0.44979,-1.27 3.04271,-4.78896 -1.56104,3.67771 -1.93146,3.43958 0.52917,1.05833 0.74083,0.74084 1.00542,0.39687 h 1.21708 l -1.00542,2.80459 -1.03187,2.06375 -0.44979,0.37041 -0.47625,0.0529 -0.37042,0.29104 -0.15875,1.08479 0.0794,2.46063 -0.0794,0.74083 -1.74625,5.55625 0.18521,3.06917 2.32833,2.75166 -2.06375,4.28625 3.28083,2.38125 4.73605,0.37042 2.43416,-1.71979 -0.47625,-1.82563 -1.08479,-2.01083 -1.27,-1.5875 -1.00542,-0.66146 -0.3175,-1.11125 3.43959,-6.58812 -0.10584,-1.19063 -0.44979,-0.89958 -0.50271,-0.74083 -0.3175,-0.7673 -0.10583,-1.24354 0.13229,-2.14312 -0.0265,-0.92604 -0.34395,-0.89959 -0.37042,-0.34396 -0.18521,-0.42333 0.18521,-1.13771 0.50271,-1.00541 1.32291,-1.74625 0.26459,-1.13771 0.23812,-2.16959 0.9525,-4.33916 0.97896,-10.10709 0.635,-1.1377 0.66146,-0.58209 0.50271,-0.68791 0.23812,-1.50813 v -4.28625 l 0.58209,-2.11667 1.40229,-1.34937 1.64041,-1.13771 0.9525,-1.03187 1.19063,0.68791 2.69875,1.03188 3.01625,0.26458 2.61937,1.11125 2.72521,1.56104 0.58209,4.25979 -1.85209,3.96875 -3.20146,2.61938 -0.13229,0.71437 -0.47625,0.92605 -1.71979,0.79375 -1.11125,2.56645 1.50813,2.91042 2.54,10.42458 0.635,1.82563 h 2.11666 l 1.74625,-0.79375 1.82563,1.37583 2.06375,-0.0794 1.50812,1.21708 1.16417,1.48167 0.18521,1.98437 -0.0529,2.06375 1.08479,4.10104 0.37042,2.01084 0.9525,1.87854 1.40229,0.47625 1.24354,0.76729 -0.26458,1.24354 -0.39688,1.34938 0.0794,2.77812 -0.10583,2.35479 -0.76729,1.16417 -0.60855,1.21708 1.24355,2.30188 -1.29646,1.00542 -2.11667,-1.21709 -0.60854,1.00542 -0.0265,1.270002 -0.76729,0.82021 -0.66146,0.18521 0.0794,-0.18521 0.13229,-0.15875 -1.53458,0.68791 -0.635,1.45521 -0.13229,1.03188 -0.42334,0.9525 -2.16958,1.11125 -0.47625,1.05833 -0.29104,1.13771 -1.27,0.84667 -1.32292,0.68791 -0.37042,1.13771 -0.1852,1.21708 -0.97896,2.51355 -0.3175,2.7252 0.55562,1.16417 0.39688,1.08479 -0.74084,0.952504 -1.11125,0.44979 -1.4552,0.10584 -1.32292,0.42333 -0.71438,1.19063 -0.5027,1.37583 1.24354,0.29104 0.58208,0.9525 -1.21708,0.66146 -1.48167,0.39687 -0.74083,1.03188 -0.37042,1.164172 -1.53458,2.61937 -1.11125,2.8575 -0.21167,3.54542 0.18521,3.57187 3.78354,20.37292 0.26458,6.164794 -1.79916,-0.68792 -1.50813,0.92604 -1.19062,-0.13229 -0.79375,-0.89958 z"
       inkscape:connector-curvature="0"
       style="display:inline;fill:#fefee4;stroke:#808080;stroke-width:0.26458332;stroke-opacity:1" />
    <path
       class="country"
       id="10m-admin-1-states-provinces-shp.2677"
       d="m 358.72553,64.653722 0.97896,1.87854 0.79375,2.40771 1.905,2.11667 0.9525,2.64583 -0.52917,1.79917 -2.14313,-0.71438 -3.75708,-0.74083 -1.19062,-1.40229 -1.56105,-1.24355 -1.95791,0.21167 -1.95792,0.44979 -1.95791,-0.29104 -7.51417,-2.75167 -5.87375,-1.1377 v -0.97896 l 0.55562,-0.55563 -1.32291,-0.97896 0.0794,-0.97895 -1.13771,-1.4023 -2.46062,0.39688 -1.82563,-0.3175 0.66146,-1.85208 -1.48167,-2.72521 -4.49791,0.58208 -1.74625,0.0265 -0.68792,1.66687 -2.01083,0.47625 -2.01084,0.29105 -0.87312,-1.29646 -1.66688,0.0529 -3.175,-1.56104 -1.53458,-0.0529 -1.71979,-0.68792 -1.40229,-1.19063 -1.24354,-1.29645 -3.70417,-6.4823 -4.33917,-6.11187 -0.52916,-1.74625 1.53458,-0.60854 -1.48167,-2.83104 -2.27541,-2.11667 -1.42875,-0.55563 -1.13771,-1.05833 -0.60854,-3.01625 -3.12209,-3.042711 -0.97896,-2.06375 -0.66145,-1.95791 0.15875,-1.64042 -1.79917,-4.7625 -0.34396,-2.11667 2.24896,-2.03729 -2.51354,-2.67229 0.52916,-1.2435391 0.4498,-1.42875 1.11125,-1.77271 1.29645,-1.61396 1.5875,-0.71437 4.2598,4.33916 1.27,1.6139596 1.56104,1.2435395 0.74083,-0.42333 1.03188,-0.23813 0.74083,0.89959 0.47625,1.03187 2.56646,0.55563 3.12208,-1.77271 1.27,-0.13229 1.56104,0.0529 2.19604,1.27 2.83105,0.9525 2.03729,0.29105 2.03729,-0.0794 -0.0794,1.69333 0.68792,0.7673 -0.7673,0.74083 -0.37041,1.05833 2.09021,1.613961 2.51354,0.21167 5.31812,1.190619 5.60916,0.76729 2.16959,-0.37041 2.54,-0.18521 3.38666,0.10583 3.20146,-0.42333 5.79438,-3.06917 0.29104,3.81 0.74083,-0.37041 0.76729,-0.29105 1.4023,1.53459 1.74625,0.55562 -0.23813,0.9525 -0.3175,0.82021 -0.39687,0.39688 -2.77813,1.27 -0.47625,1.34937 1.08479,1.71979 1.56105,1.270001 2.32833,0.44979 2.46062,-1.00541 2.09021,-1.561041 1.87854,-0.0794 -1.69333,2.566461 -1.05833,2.64583 -1.85209,2.27542 -0.97895,2.27542 -1.00542,4.49791 -1.93146,2.75167 -1.56104,2.93687 0.3175,1.7198 0.635,1.61395 0.0794,6.40292 1.16417,2.2225 1.42875,1.93146 1.95792,1.05833 z"
       inkscape:connector-curvature="0"
       style="display:inline;fill:#fefee4;stroke:#808080;stroke-width:0.26458332;stroke-opacity:1" />
    <path
       class="country"
       id="10m-admin-1-states-provinces-shp.2678"
       d="m 305.54428,102.09226 0.18521,1.08479 v 0.10584 l -0.66146,-0.0794 -0.50271,-0.23812 -0.3175,-0.47625 -0.44979,-0.47625 -0.79375,-0.23813 -0.47625,0.18521 -0.37042,0.3175 -0.39687,0.29104 -0.52917,-0.0265 -0.37042,-0.29104 -0.635,-0.92604 -0.39687,-0.23813 -5.10646,-1.852078 -3.06917,-0.635 -2.2225,-1.79917 -1.48166,-0.74083 -0.7673,0.76729 -1.905,-1.53458 -8.36083,-8.89 -0.68792,-0.55563 -0.3175,-0.37041 -0.10583,-0.42334 0.0265,-0.89958 -0.26458,-0.44979 -1.27,-1.66688 -4.73604,-10.05416 -0.18521,-0.9525 0.0529,-1.71979 -0.18521,-0.52917 -0.84667,-1.77271 -0.84666,-4.84187 -1.905,-3.38667 -1.16417,-4.86833 0.68792,0.15875 0.55562,0.79375 0.60854,0.55562 0.66146,-0.47625 1.03188,-0.42333 0.74083,0.74083 0.52917,0.87313 3.75708,1.7727 1.87854,0.37042 2.03729,0.89958 1.64042,1.45521 1.69333,1.13771 4.445,0.84667 2.80459,-1.56104 3.09562,-0.26459 3.04271,2.32834 1.56104,1.53458 1.61396,1.27 0.18521,-2.06375 -0.76729,-2.24896 v -2.2225 l 1.905,-0.82021 3.57187,-2.2225 3.65125,-0.84666 1.24354,1.29645 1.40229,1.19063 1.7198,0.68792 1.53458,0.0529 3.175,1.56104 1.66687,-0.0529 0.87313,1.29646 -2.11667,0.635 -1.37583,1.40229 1.21708,1.85208 1.56104,1.5875 -0.60854,2.93688 -3.14854,-0.74084 -1.95792,-1.85208 -2.16958,-1.64042 -1.69333,-0.50271 -1.64042,0.4498 1.00542,1.905 2.03729,1.32291 2.16958,3.09563 0.76729,2.96333 -1.79916,2.19604 -3.59834,-0.635 1.05834,1.29646 0.50271,1.66688 -0.74084,2.14312 -0.92604,2.01083 0.66146,2.01084 1.56104,1.50812 1.85208,1.24354 1.61396,1.48167 -1.40229,1.66688 -1.64042,1.66687 -1.40229,0.55563 -0.60854,0.97895 0.3175,1.0848 0.79375,0.42333 1.82563,0.76729 -0.635,1.24354 -1.85209,0.68792 -1.13771,2.010828 z"
       inkscape:connector-curvature="0"
       style="display:inline;fill:#fefee4;stroke:#808080;stroke-width:0.26458332;stroke-opacity:1" />
    <path
       class="country"
       id="10m-admin-1-states-provinces-shp.2679"
       d="m 438.25928,45.683092 2.48708,0.7673 0.89958,0.3175 -3.12208,4.97416 -3.22792,3.22792 -5.92666,4.23333 -1.95792,0.60854 -2.59292,1.4023 -19.02354,15.02833 -3.78354,2.06375 -12.35604,4.41854 -0.18521,-1.5875 -0.74083,-0.58208 -0.79375,0.21166 -0.37042,0.82021 -0.21167,1.74625 -0.58208,0.66146 -0.89958,0.23813 -1.16417,0.52916 -2.2225,1.34938 -2.2225,1.00541 -10.68916,2.30188 -5.15938,1.77271 -5.66208,1.03187 -2.59292,1.00542 -1.53458,2.19604 -2.77813,-0.55562 -2.67229,1.03187 -7.88458,5.873748 -0.26459,0.29104 -0.55562,-0.3175 -2.61938,-1.19062 -1.19062,-1.904998 0.71437,-0.39688 0.0529,-0.87312 -0.87312,-0.47625 -1.00542,-0.0794 -1.40229,-0.9525 -0.23813,-1.64041 3.30729,-1.42875 -1.1377,-3.96875 0.9525,-0.87313 0.37041,-0.89958 -1.13771,-0.23813 -1.19062,0.18521 -1.69333,-0.89958 -0.34396,-1.77271 0.60854,-0.92604 0.47625,-1.08479 -0.52917,-0.55563 -0.92604,0.15875 -1.93146,-0.74083 -1.77271,-1.24354 1.24354,-4.445 3.91584,-2.9898 -0.68792,-1.64041 0.68792,-1.82563 -0.15875,-0.76729 0.9525,-0.39687 5.87375,1.1377 7.51417,2.75167 1.95791,0.29104 1.95792,-0.44979 1.95791,-0.21167 1.56105,1.24355 1.19062,1.40229 3.75708,0.74083 2.14313,0.71438 0.52917,-1.79917 -0.9525,-2.64583 -1.905,-2.11667 2.54,-1.64042 2.56645,-1.40229 2.91042,-0.9525 2.2225,-1.69333 -1.00542,-2.32834 0.50271,-2.32833 h 1.29646 l 1.37583,-0.10583 0.84667,-1.19063 v -1.37583 l 1.24354,0.89958 0.97896,-1.11125 2.56646,-0.0265 2.54,0.3175 1.74625,0.635 0.79375,1.905 1.00542,0.1323 1.11125,-0.0529 0.92604,-0.66146 1.29646,-0.13229 1.905,2.51354 1.56104,2.67229 2.56646,1.05834 2.80458,-1.53459 1.00542,-1.00541 1.5875,-0.66146 2.96333,-0.79375 6.08542,-2.38125 1.13771,-0.82021 0.23812,0.3175 0.89958,0.13229 2.75167,-1.00542 2.8575,0.635 1.32292,-2.19604 v -0.89958 l -0.0529,-0.84667 0.44979,-0.635 0.44979,-0.71437 -0.52916,-1.40229 -0.0529,-1.74625 2.03729,-1.61396 2.43417,-1.11125 1.85208,-1.79917 2.16959,-1.66687 2.75166,-0.50271 1.85209,-2.14313 3.0427,3.78354 1.19063,0.0794 1.29646,0.18521 z"
       inkscape:connector-curvature="0"
       style="display:inline;fill:#fefee4;stroke:#808080;stroke-width:0.26458332;stroke-opacity:1" />
    <path
       class="country"
       id="10m-admin-1-states-provinces-shp.2680"
       d="m 337.8499,100.55768 2.61938,1.19062 0.55562,0.3175 -1.56104,1.82563 -4.20687,-0.23813 -1.74625,0.23813 -1.34938,0.52916 -1.42875,0.82021 -2.48708,1.87854 -1.42875,0.31736 -1.69334,-0.66131 -1.79916,-0.92605 -1.74625,-0.52916 -5.95313,0.71437 -1.66687,-0.34396 -0.87313,-0.87312 -0.55562,-1.11125 -0.74084,-1.16417 -1.74625,1.03188 -1.56104,0.10583 -2.75166,-0.39687 v -0.10584 l -0.18521,-1.08479 -0.0265,-1.13771 1.1377,-2.010828 1.85209,-0.68792 0.635,-1.24354 -1.82563,-0.76729 -0.79375,-0.42333 -0.3175,-1.0848 0.60854,-0.97895 1.4023,-0.55563 1.64041,-1.66687 1.40229,-1.66688 -1.61395,-1.48167 -1.85209,-1.24354 -1.56104,-1.50812 -0.66146,-2.01084 0.92604,-2.01083 0.74084,-2.14312 -0.50271,-1.66688 -1.05833,-1.29646 3.59833,0.635 1.79917,-2.19604 -0.7673,-2.96333 -2.16958,-3.09563 -2.03729,-1.32291 -1.00542,-1.905 1.64042,-0.4498 1.69333,0.50271 2.16959,1.64042 1.95791,1.85208 3.14854,0.74084 0.60855,-2.93688 -1.56105,-1.5875 -1.21708,-1.85208 1.37583,-1.40229 2.11667,-0.635 2.01083,-0.29105 2.01084,-0.47625 0.68791,-1.66687 1.74625,-0.0265 4.49792,-0.58208 1.48167,2.72521 -0.66146,1.85208 1.82562,0.3175 2.46063,-0.39688 1.13771,1.4023 -0.0794,0.97895 1.32291,0.97896 -0.55562,0.55563 v 0.97896 l -0.9525,0.39687 0.15875,0.76729 -0.68792,1.82563 0.68792,1.64041 -3.91584,2.9898 -1.24354,4.445 1.77271,1.24354 1.93146,0.74083 0.92604,-0.15875 0.52917,0.55563 -0.47625,1.08479 -0.60854,0.92604 0.34396,1.77271 1.69333,0.89958 1.19062,-0.18521 1.13771,0.23813 -0.37041,0.89958 -0.9525,0.87313 1.1377,3.96875 -3.30729,1.42875 0.23813,1.64041 1.40229,0.9525 1.00542,0.0794 0.87312,0.47625 -0.0529,0.87312 -0.71437,0.39688 z"
       inkscape:connector-curvature="0"
       style="display:inline;fill:#fefee4;stroke:#808080;stroke-width:0.26458332;stroke-opacity:1"
       sodipodi:nodetypes="ccccccccccccccccccccccccccccccccccccccccccccccccccccccccccccccccccccccccccccccccccccccccccccccccccc" />
    <path
       class="country"
       id="10m-admin-1-states-provinces-shp.2681"
       d="m 367.00699,-54.197112 -0.50271,-8.44021 1.00541,-4.86833 0.26459,0.26458 1.56104,0.9525 0.66146,1.48167 0.13229,1.66687 0.82021,2.48709 2.51354,4.23333 1.87854,-0.66146 1.00542,-0.23812 1.24354,-0.47625 2.19604,-2.03729 5.02708,-2.80459 4.55084,0.97896 0.37041,5.18583 -1.05833,5.02709 -0.58208,1.05833 -0.29104,0.92604 0.3175,1.27 0.39687,1.29646 0.68792,4.55083 1.11125,2.40771 1.53458,1.53459 0.89958,-0.21167 1.27,0.23812 0.42334,0.92605 0.71437,1.19062 0.89959,1.878544 0.37041,1.85209 -3.99521,0.95249 v 2.14313 l -0.79375,1.93145 -2.80458,3.57188 -0.92604,1.5875 -1.69333,0.71437 -1.42875,-1.53458 -1.69334,-0.21167 -1.19062,1.82563 -0.3175,2.09021 1.27,1.66687 1.5875,1.53459 1.00541,2.11666 1.21709,1.27 3.75708,-1.00541 1.11125,1.42875 0.55563,0.5027 0.76729,0.92605 0.52916,1.3758299 0.29105,1.45521 v 1.905 l -0.47625,1.87854 -0.39688,2.8575 -0.55562,1.11124999 -0.68792,1.08479 -0.26458,1.61396001 -0.52917,1.48167 -1.32292,0.29104 -1.03187,-0.44979 -0.60854,0.635 -0.4498,0.8202 -1.05833,1.32292 -1.27,1.05833 -2.61937,0.71438 -2.19605,1.21708 2.48709,3.5189591 -2.96334,0.89958 -0.89958,1.7198 -3.46604,0.3175 -0.23813,2.16958 0.21167,2.222501 -0.87312,1.878539 0.39687,1.34938 1.79917,0.47625 0.10583,1.82562 -1.50812,2.38125 -0.21167,1.50813 0.0265,1.587501 0.9525,2.88395 1.53458,2.38125 -2.14312,0.7673 -0.3175,2.46062 -1.11125,-0.52917 -1.0848,-0.71437 -1.4552,2.24896 -0.39688,2.75166 -0.89958,-1.42875 -1.19063,-1.48166 -0.44979,-3.28084 -0.68792,-0.42333 -0.71437,-0.34396 -0.71438,-2.27541 -0.9525,-2.11667 -0.79375,-0.18521 -0.8202,-0.42333 -0.47625,-1.77271 -0.79375,-1.243541 -1.21709,-0.0529 -1.87854,0.0794 -2.09021,1.561041 -2.46062,1.00541 -2.32834,-0.44979 -1.56104,-1.270001 -1.08479,-1.71979 0.47625,-1.34937 2.77813,-1.27 0.39687,-0.39688 0.3175,-0.82021 0.23813,-0.9525 -1.74625,-0.55562 -1.4023,-1.53459 -0.76729,0.29105 -0.74083,0.37041 -0.29104,-3.81 1.93146,-0.47625 1.05833,-1.48166 -0.9525,-0.47625 -0.92604,-0.60855 1.50812,-2.46062 -0.42333,-0.68792 -0.50271,-0.635 -0.58208,-1.5874991 -0.68792,-1.45521 -3.25437,-1.64041 -0.1323,-1.66688 1.85209,-0.0794 1.93146,0.10583 1.37583,-1.5875 0.47625,-2.06375001 1.64042,-1.48167 1.85208,-0.87311999 3.86292,-0.84667 2.27541,-3.41312 0.47625,-2.01084 0.92604,-1.82562 0.82021,-0.7672899 0.68792,-0.84667 0.34396,-0.76729 -0.15875,-0.71438 -0.55563,-1.82562 0.47625,-0.97896 0.71438,-0.84667 -0.37042,-0.52916 -0.47625,-0.55563 -0.21167,-0.87312 0.23813,-0.9525 -0.79375,-2.56646 0.10583,-1.87854 1.29646,-0.79375 2.19604,-0.60854 2.75167,-2.59292 0.18521,-3.36021 -2.24896,-7.461244 z"
       inkscape:connector-curvature="0"
       style="display:inline;fill:#fefee4;stroke:#808080;stroke-width:0.26458332;stroke-opacity:1" />
    <path
       class="country"
       id="10m-admin-1-states-provinces-shp.2682"
       d="m 392.43344,-29.432108 v -2.14313 l 3.99521,-0.95249 0.79375,1.98437 0.89959,1.69333 2.0902,-0.74083 1.905,-1.4023 -0.55562,-3.83645 v -3.968754 l 2.54,0.10583 2.06375,-1.16416 0.47625,-0.71438 0.71437,-0.87312 0.47625,-1.00542 -0.13229,-1.21708 -0.55562,-1.21709 -0.0265,-1.34937 1.05833,-0.0794 1.42875,-0.37041 0.68792,-1.11125 0.37042,-0.97896 1.1377,-0.50271 1.24355,-0.42333 2.56645,-1.37584 2.01084,0.52917 -1.50813,2.38125 0.635,0.37042 0.68792,0.13229 -0.21167,1.37583 1.21709,5.45042 -0.15875,2.48708 0.42333,1.98438 2.27542,1.984374 1.42875,2.51354 0.29104,2.2225 2.2225,3.06917 -1.66688,1.32291 -2.14312,2.54 -1.19063,3.20146 1.32292,2.43417 0.42333,1.5875 0.79375,1.42875 0.82021,0.37041 h 0.76729 l 0.635,0.37042 0.52917,0.47625 3.65125,0.9525 3.01625,1.82563 -0.18521,1.9314499 -0.47625,2.0373 0.68792,2.01083 0.0265,1.98437 1.21708,1.77270999 0.50271,2.03729001 -2.64584,37.9677101 -1.85208,2.14313 -2.75167,0.50271 -2.16958,1.66687 -1.85208,1.79917 -2.43417,1.11125 -2.03729,1.61396 0.0529,1.74625 0.52916,1.40229 -0.44979,0.71437 -0.44979,0.635 0.0529,0.84667 v 0.89958 l -1.32292,2.19604 -2.8575,-0.635 -2.75167,1.00542 -0.89958,-0.13229 -0.23813,-0.3175 -1.1377,0.82021 -6.08542,2.38125 -2.96333,0.79375 -1.5875,0.66146 -1.00542,1.00541 -2.80458,1.53459 -2.56646,-1.05834 -1.56104,-2.67229 -1.905,-2.51354 -1.29646,0.13229 -0.92604,0.66146 -1.11125,0.0529 -1.00542,-0.1323 -0.79375,-1.905 -1.74625,-0.635 -2.54,-0.3175 -2.56646,0.0265 -0.97896,1.11125 -1.24354,-0.89958 v 1.37583 l -0.84667,1.19063 -1.37583,0.10583 h -1.29646 l -0.50271,2.32833 1.00542,2.32834 -2.2225,1.69333 -2.91042,0.9525 -2.56645,1.40229 -2.54,1.64042 -0.79375,-2.40771 -0.97896,-1.87854 -1.87854,-1.32292 -1.95792,-1.05833 -1.42875,-1.93146 -1.16417,-2.2225 -0.0794,-6.40292 -0.635,-1.61395 -0.3175,-1.7198 1.56104,-2.93687 1.93146,-2.75167 1.00541,-4.49791 0.97896,-2.27542 1.85209,-2.27542 1.05833,-2.64583 1.69333,-2.566461 1.21709,0.0529 0.79375,1.243541 0.47625,1.77271 0.8202,0.42333 0.79375,0.18521 0.9525,2.11667 0.71438,2.27541 0.71437,0.34396 0.68792,0.42333 0.44979,3.28084 1.19063,1.48166 0.89958,1.42875 0.39688,-2.75166 1.4552,-2.24896 1.0848,0.71437 1.11125,0.52917 0.3175,-2.46062 2.14312,-0.7673 -1.53458,-2.38125 -0.9525,-2.88395 -0.0265,-1.587501 0.21167,-1.50813 1.50812,-2.38125 -0.10583,-1.82562 -1.79917,-0.47625 -0.39687,-1.34938 0.87312,-1.878539 -0.21167,-2.222501 0.23813,-2.16958 3.46604,-0.3175 0.89958,-1.7198 2.96334,-0.89958 -2.48708,-3.5189591 2.19604,-1.21708 2.61937,-0.71438 1.27,-1.05833 1.05833,-1.32292 0.4498,-0.8202 0.60854,-0.635 1.03187,0.44979 1.32292,-0.29104 0.52917,-1.48167 0.26458,-1.61396001 0.68792,-1.08479 0.55562,-1.11124999 0.39688,-2.8575 0.47625,-1.87854 v -1.905 l -0.29105,-1.45521 -0.52916,-1.3758299 -0.76729,-0.92605 -0.55563,-0.5027 -1.11125,-1.42875 -3.75708,1.00541 -1.21709,-1.27 -1.00541,-2.11666 -1.5875,-1.53459 -1.27,-1.66687 0.3175,-2.09021 1.19062,-1.82563 1.69334,0.21167 1.42875,1.53458 1.69333,-0.71437 0.92604,-1.5875 2.80458,-3.57188 z"
       inkscape:connector-curvature="0"
       style="display:inline;fill:#fefee4;stroke:#808080;stroke-width:0.26458332;stroke-opacity:1" />
    <path
       class="country"
       id="10m-admin-1-states-provinces-shp.2683"
       d="m 293.66449,8.2445519 -4.2598,-4.33916 -1.5875,0.71437 -0.0529,-1.00542 -0.13229,-1.00541 1.37584,-1.27 -0.3175,-1.87854001 -1.77271,-0.89958999 -2.2225,-0.15875 0.29104,-0.84666 v -0.9525 l -1.53458,-4.8948 0.52916,-3.0162499 1.29646,-3.01625 1.48167,-1.03187 0.76729,-1.74625 -2.14313,-0.635 -2.51354,0.58208 -1.24354,-2.59291 0.44979,-2.93688 1.61396,-0.82021 1.32292,-1.27 0.29104,-3.54541 1.00542,-0.82021 -0.18521,-1.37584 2.09021,-1.19062 2.11666,-1.905 2.24896,-1.61395 2.40771,-1.137714 5.00062,-1.11125 1.0848,-0.0529 0.74083,-1.00542 0.34396,-1.21708 -0.13229,-2.11667 0.37041,-1.95791 2.24896,-0.89959 2.46063,0.3175 1.48166,1.56105 0.9525,1.98437 1.24354,3.175 4.445,3.889384 -0.1852,2.01082 0.87312,0.60855 2.59292,1.4552 1.24354,1.50813 -0.23813,1.85208 0.0265,1.50813 1.48167,1.48166 1.19062,1.50813 -0.58208,1.34937 -0.79375,1.27 -1.11125,0.26459 -1.13771,0.0794 -1.61396,1.74625 -3.54541,0.58209 -1.16417,1.08479 1.56104,3.73062 0.74084,1.29646 -0.74084,1.5874999 -0.0529,2.03729 0.1323,0.34396 0.34395,0.0794 -0.89958,1.4552 -1.42875,1.27 -0.76729,0.26459 -0.58208,0.76729 0.58208,0.79375 0.66146,0.66146 -0.71438,3.83646 0.87313,2.98979 2.98979,0.97896 2.35479,1.7727 0.79375,2.7252091 0.15875,1.37584 -1.16417,1.03187 -2.03729,0.0794 -2.03729,-0.29105 -2.83104,-0.9525 -2.19604,-1.27 -1.56104,-0.0529 -1.27,0.13229 -3.12209,1.77271 -2.56646,-0.55563 -0.47625,-1.03187 -0.74083,-0.89959 -1.03187,0.23813 -0.74084,0.42333 -1.56104,-1.2435395 z"
       inkscape:connector-curvature="0"
       style="display:inline;fill:#fefee4;stroke:#808080;stroke-width:0.26458332;stroke-opacity:1" />
    <path
       class="country"
       id="10m-admin-1-states-provinces-shp.2684"
       d="m 256.30532,25.601221 h -0.0529 l 0.0529,-0.0529 z"
       inkscape:connector-curvature="0"
       style="display:inline;fill:#fefee4;stroke:#808080;stroke-width:0.26458332;stroke-opacity:1" />
    <path
       class="country"
       id="10m-admin-1-states-provinces-shp.2685"
       d="m 256.12011,25.707051 v -0.0794 h 0.10583 z"
       inkscape:connector-curvature="0"
       style="display:inline;fill:#fefee4;stroke:#808080;stroke-width:0.26458332;stroke-opacity:1" />
    <path
       class="country"
       id="10m-admin-1-states-provinces-shp.2686"
       d="m 256.22594,25.627681 0.0265,-0.0265 -0.15875,0.29104 -3.81,-9.8425 -1.53458,-8.5724991 V 0.01597189 l 0.10583,-0.29104 2.2225,0.87312 1.69334,0.87313001 1.79916,0.42333 0.82021,-0.42333 0.92604,-0.39688 5.08,1.50813 1.77271,-0.34396 1.74625,-0.13229 1.37584,0.84667 1.21708,1.1377 1.16417,0.635 1.19062,0.47625 1.79917,0.21167 2.19604,-0.10583 0.13229,-2.03729 0.39688,-1.93146 1.64041,-1.61396001 2.01084,-0.95249999 2.77812,0.29103999 1.87854,-0.66145999 2.2225,0.15875 1.77271,0.89958999 0.3175,1.87854001 -1.37583,1.27 0.13229,1.00541 0.0529,1.00542 -1.29646,1.61396 -1.11125,1.77271 -0.44979,1.42875 -0.52917,1.2435391 2.51354,2.67229 -2.24895,2.03729 -2.9898,-0.68791 -3.33375,1.40229 0.66146,2.989791 -2.01083,-0.502711 -1.32292,-3.09562 -0.52916,-0.3175 -0.635,-0.1323 -1.27,1.48167 -1.5875,0.82021 -1.13771,-0.52917 -1.13771,0.13229 -3.94229,3.386671 -1.13771,0.529169 -1.19063,0.26458 -2.93687,1.11125 -4.7625,-2.936869 -0.10583,1.719789 0.635,1.905 0.3175,1.32291 0.0265,1.29646 -0.0529,0.0529 -0.0265,0.0265 h -0.10584 v 0.0794 z"
       inkscape:connector-curvature="0"
       style="display:inline;fill:#fefee4;stroke:#808080;stroke-width:0.26458332;stroke-opacity:1" />
    <path
       class="country"
       id="10m-admin-1-states-provinces-shp.2687"
       d="m 254.77074,1.4712219 -1.69334,-0.87313001 -2.2225,-0.87312 1.03188,-2.46062999 0.26458,-1.16416 -0.0265,-1.21709 -4.89479,-17.4889499 0.66146,-2.54 -0.0265,1.56104 0.37041,1.00541 0.55563,0.7673 0.50271,0.89958 0.97896,3.46604 0.47625,0.84667 h 0.635 l 0.15875,-1.00542 0.29104,-0.42333 0.23812,-0.0529 0.0794,0.0529 -0.0265,-3.175 -0.23812,-1.40229 -0.50271,-1.13771 -0.47625,-0.3175 -1.34938,-0.3175 -0.60854,-0.39688 -0.44979,-0.87312 0.18521,-0.82021 0.39687,-0.76729 0.21167,-0.74084 -0.60854,-4.47145 2.43417,0.13229 1.905,-0.50271 1.98437,-0.26458 0.79375,0.89958 1.19063,0.13229 1.50812,-0.92604 1.79917,0.68792 2.16958,-0.87312 3.91583,-3.069174 2.43417,-0.10583 2.83104,2.010834 2.96334,-0.87313 2.51354,-1.799164 2.8575,-0.50271 0.92604,1.03187 0.29104,0.873134 0.58208,0.87312 2.56646,2.91042 1.77271,1.29645 0.18521,1.37584 -1.00542,0.82021 -0.29104,3.54541 -1.32292,1.27 -1.61395,0.82021 -0.4498,2.93688 1.24355,2.59291 2.51354,-0.58208 2.14312,0.635 -0.76729,1.74625 -1.48167,1.03187 -1.29645,3.01625 -0.52917,3.0162499 1.53458,4.8948 v 0.9525 l -0.29104,0.84666 -1.87854,0.66145999 -2.77813,-0.29103999 -2.01083,0.95249999 -1.64042,1.61396001 -0.39687,1.93146 -0.13229,2.03729 -2.19604,0.10583 -1.79917,-0.21167 -1.19063,-0.47625 -1.16416,-0.635 -1.21709,-1.1377 -1.37583,-0.84667 -1.74625,0.13229 -1.77271,0.34396 -5.08,-1.50813 -0.92604,0.39688 -0.82021,0.42333 z"
       inkscape:connector-curvature="0"
       style="display:inline;fill:#fefee4;stroke:#808080;stroke-width:0.26458332;stroke-opacity:1" />
    <path
       class="country"
       id="10m-admin-1-states-provinces-shp.2688"
       d="m 265.72449,54.864142 -0.55563,-0.79375 -0.68792,-0.15875 -0.44979,-1.74625 -0.21166,-0.18521 -0.4498,-0.26459 -0.44979,-0.42333 -0.29104,-0.55562 0.13229,-0.60855 0.50271,-0.13229 0.52917,0.0529 0.23812,-0.0265 -0.84666,-5.84729 -7.09084,-18.282711 0.15875,-0.29104 h 0.0529 v -0.0529 l -0.0265,-1.29646 -0.3175,-1.32291 -0.635,-1.905 0.10583,-1.719789 4.7625,2.936869 2.93688,-1.11125 1.19062,-0.26458 1.13771,-0.529169 3.94229,-3.386671 1.13771,-0.13229 1.13771,0.52917 1.5875,-0.82021 1.27,-1.48167 0.635,0.1323 0.52917,0.3175 1.32291,3.09562 2.01084,0.502711 -0.66146,-2.989791 3.33375,-1.40229 2.98979,0.68791 0.34396,2.11667 1.79917,4.7625 -0.15875,1.64042 0.66145,1.95791 0.97896,2.06375 3.12209,3.042711 0.60854,3.01625 1.13771,1.05833 1.42875,0.55563 2.27541,2.11667 1.48167,2.83104 -1.53458,0.60854 0.52916,1.74625 4.33917,6.11187 3.70417,6.4823 -3.65125,0.84666 -3.57188,2.2225 -1.905,0.82021 v 2.2225 l 0.76729,2.24896 -0.18521,2.06375 -1.61395,-1.27 -1.56105,-1.53458 -3.0427,-2.32834 -3.09563,0.26459 -2.80458,1.56104 -4.445,-0.84667 -1.69334,-1.13771 -1.64041,-1.45521 -2.03729,-0.89958 -1.87855,-0.37042 -3.75708,-1.7727 -0.52917,-0.87313 -0.74083,-0.74083 -1.03187,0.42333 -0.66146,0.47625 z"
       inkscape:connector-curvature="0"
       style="display:inline;fill:#fefee4;stroke:#808080;stroke-width:0.26458332;stroke-opacity:1" />
  </g>
</svg>
