<?xml version="1.0" encoding="UTF-8" standalone="no"?>
<!-- Created with Inkscape (http://www.inkscape.org/) -->

<svg
   xmlns:dc="http://purl.org/dc/elements/1.1/"
   xmlns:cc="http://creativecommons.org/ns#"
   xmlns:rdf="http://www.w3.org/1999/02/22-rdf-syntax-ns#"
   xmlns:svg="http://www.w3.org/2000/svg"
   xmlns="http://www.w3.org/2000/svg"
   xmlns:sodipodi="http://sodipodi.sourceforge.net/DTD/sodipodi-0.dtd"
   xmlns:inkscape="http://www.inkscape.org/namespaces/inkscape"
   width="229.12985mm"
   height="404.3161mm"
   viewBox="0 0 229.12985 404.3161"
   version="1.1"
   id="svg4642"
   inkscape:version="0.92.1 r15371"
   sodipodi:docname="srilanka.svg">
  <defs
     id="defs4636" />
  <sodipodi:namedview
     id="base"
     pagecolor="#ffffff"
     bordercolor="#666666"
     borderopacity="1.0"
     inkscape:pageopacity="0.0"
     inkscape:pageshadow="2"
     inkscape:zoom="0.35"
     inkscape:cx="80.14415"
     inkscape:cy="569.7762"
     inkscape:document-units="mm"
     inkscape:current-layer="layer1"
     showgrid="false"
     fit-margin-top="0"
     fit-margin-left="0"
     fit-margin-right="0"
     fit-margin-bottom="0"
     inkscape:window-width="1920"
     inkscape:window-height="1051"
     inkscape:window-x="-4"
     inkscape:window-y="-4"
     inkscape:window-maximized="1" />
  <metadata
     id="metadata4639">
    <rdf:RDF>
      <cc:Work
         rdf:about="">
        <dc:format>image/svg+xml</dc:format>
        <dc:type
           rdf:resource="http://purl.org/dc/dcmitype/StillImage" />
        <dc:title></dc:title>
      </cc:Work>
    </rdf:RDF>
  </metadata>
  <g
     inkscape:label="Layer 1"
     inkscape:groupmode="layer"
     id="layer1"
     transform="translate(39.72564,104.72947)">
    <path
       class="country"
       id="10m-admin-1-states-provinces-shp.2662"
       d="m 51.158736,141.65125 1.217083,-0.29104 1.217084,-0.58209 2.116666,2.91042 6.508752,4.10104 3.75708,0.21167 2.19604,-2.40771 -0.34396,-3.81 0.60855,-1.61396 1.42875,-0.87312 1.50812,0.60854 3.81,3.14854 2.93688,-0.44979 3.25437,-2.67229 4.20688,0.0265 1.69333,-0.82021 1.24354,1.53458 0.74083,-0.42333 0.66146,-0.55563 1.13771,-1.905 2.06375,-0.3175 3.25438,0.34396 0.89958,15.63688 2.24896,7.46124 -0.18521,3.36021 -2.75167,2.59292 -2.19604,0.60854 -1.29646,0.79375 -4.25979,-0.87313 -4.39208,0.66146 -3.75709,-0.29104 -2.35479,-3.73063 -0.87312,-0.10583 -1.08479,-0.37042 -1.45521,-1.98437 -1.77271,-1.61396 0.3175,3.01625 0.9525,3.86292 -2.09021,3.51896 -6.58812,7.83166 -1.77271,-0.44979 -1.98438,0.0265 -2.989788,2.09021 -2.06375,0.44979 -3.704167,-0.44979 -2.328333,1.85208 0.846666,-0.26458 0.79375,0.37041 1.799167,3.33375 1.534583,1.45521 1.217084,1.66688 -1.217084,3.43958 -2.2225,2.35479 -2.989791,-1.77271 -4.577292,-6.8527 -2.936875,-0.26459 0.05292,-2.03729 0.740833,-1.5875 -0.740833,-1.29646 -1.561042,-3.73062 1.164167,-1.08479 3.545416,-0.58209 1.613959,-1.74625 1.137708,-0.0794 1.11125,-0.26459 0.79375,-1.27 0.582083,-1.34937 -1.190625,-1.50813 -1.481666,-1.48166 -0.02646,-1.50813 0.238125,-1.85208 -1.243541,-1.50813 -2.592917,-1.4552 -0.873125,-0.60855 0.185208,-2.01082 -4.445,-3.88938 -1.243541,-3.175 2.116666,0.23813 1.825625,-0.52917 -0.15875,-0.50271 -0.07937,-0.66146 0.343959,-0.60854 0.423333,-0.55562 0.343958,-2.09021 h 1.455209 l 1.5875,1.13771 1.772708,0.13229 0.132292,-1.05834 -0.15875,-1.16416 1.508125,-0.84667 1.481666,0.26458 1.084792,-0.52916 -0.608542,-1.40229 z"
       inkscape:connector-curvature="0"
       style="display:inline;fill:#fefee4;stroke:#808080;stroke-width:0.26458332;stroke-opacity:1" />
    <path
       class="country"
       id="10m-admin-1-states-provinces-shp.2663"
       d="m 86.163111,114.13458 5.50333,0.39688 5.29167,-0.97896 -0.0794,1.71979 0.74084,2.35479 0.23812,1.98438 -0.97896,4.89479 -1.00541,4.86833 0.50271,8.44021 -3.25438,-0.34396 -2.06375,0.3175 -1.13771,1.905 -0.66146,0.55563 -0.74083,0.42333 -1.24354,-1.53458 -1.69333,0.82021 -4.20688,-0.0265 -3.25437,2.67229 -2.93688,0.44979 -3.81,-3.14854 -1.50812,-0.60854 -1.42875,0.87312 -0.60855,1.61396 0.34396,3.81 -2.19604,2.40771 -3.75708,-0.21167 -6.508752,-4.10104 -2.116666,-2.91042 0.05292,-1.05833 0.582084,-0.79375 0.211666,-1.24354 -0.291041,-1.29646 -0.529167,-1.08479 -0.608542,-1.03188 -1.031875,-2.0902 0.238125,-2.16959 1.455209,-1.32291 0.370416,-0.89959 -0.02646,-0.9525 0.3175,-1.21708 0.02646,-1.19063 -1.878541,-1.85208 -0.555625,-3.20146 -0.291042,-3.46604 -0.529167,-0.74083 -0.370416,-0.26459 -0.02646,-1.7727 -0.714375,-1.77271 -1.005416,-1.71979 -0.740834,-1.61396 -0.767291,-0.21167 -0.899584,-0.50271 -0.264583,-1.82562 0.47625,-1.69334 2.169583,-1.61395 3.439584,-1.27 1.825625,-2.196053 1.640416,0.0794 1.217084,0.79375 1.534583,-1.05833 0.767292,-1.24355 0.714375,-0.5027 0.661455,-0.39688 -0.0794,-0.71437 -0.21166,-0.47625 1.29646,-1.37584 0.97895,-1.48166 v -1.93146 l 0.55563,-1.64042 h 1.03187 l 0.7673,0.18521 0.60854,-0.42333 1.98437,-2.09021 1.32292,-1.19063 1.95792,-0.97896 2.14312,-0.87312 0.89958,0.87312 1.4023,1.61396 -0.0265,1.82563 0.55562,0.60854 0.87313,0.3175 0.66146,-0.42333 0.0264,-0.66146 1.24355,-0.58209 1.19062,0.34396 1.61396,0.3175 1.50812,0.89959 -3.06916,3.22791 -1.00542,4.89479 -0.29104,2.38125 -0.97896,4.180423 -0.34396,0.74083 -0.21166,0.74084 -2.96334,0.66146 -0.68791,2.8575 1.37583,6.27062 -0.18521,2.01083 1.03188,1.45521 2.69875,0.58209 2.56645,-1.05834 2.0373,-1.87854 0.87312,1.24354 1.56104,0.97896 0.44979,-1.82562 z"
       inkscape:connector-curvature="0"
       style="display:inline;fill:#fefee4;stroke:#808080;stroke-width:0.26458332;stroke-opacity:1" />
    <path
       class="country"
       id="10m-admin-1-states-provinces-shp.2664"
       d="m 84.443321,168.05666 4.39208,-0.66146 4.25979,0.87313 -0.10583,1.87854 0.79375,2.56646 -0.23813,0.9525 0.21167,0.87312 0.47625,0.55563 0.37042,0.52916 -0.71438,0.84667 -0.47625,0.97896 0.55563,1.82562 0.15875,0.71438 -0.34396,0.76729 -0.68792,0.84667 -0.82021,0.76729 -0.92604,1.82562 -0.47625,2.01084 -2.27541,3.41312 -3.86292,0.84667 -1.85208,0.87312 -1.64042,1.48167 -0.47625,2.06375 -1.37583,1.5875 -1.93146,-0.10583 -1.85209,0.0794 0.1323,1.66688 3.25437,1.64041 0.68792,1.45521 0.58208,1.5875 0.50271,0.635 0.42333,0.68792 -1.50812,2.46062 0.92604,0.60855 0.9525,0.47625 -1.05833,1.48166 -1.93146,0.47625 -5.79438,3.06917 -3.20146,0.42333 -3.38666,-0.10583 -2.54,0.18521 -2.16958,0.37041 -5.609172,-0.76729 -5.318125,-1.19062 -2.513541,-0.21167 -2.090209,-1.61396 0.370417,-1.05833 0.767292,-0.74083 -0.687917,-0.7673 0.07937,-1.69333 1.164167,-1.03187 -0.15875,-1.37584 -0.79375,-2.72521 -2.354792,-1.7727 -2.989792,-0.97896 -0.873125,-2.98979 0.714375,-3.83646 -0.661458,-0.66146 -0.582083,-0.79375 0.582083,-0.76729 0.767292,-0.26459 1.42875,-1.27 0.899583,-1.4552 -0.343958,-0.0794 -0.132292,-0.34396 2.936875,0.26459 4.577292,6.8527 2.989791,1.77271 2.2225,-2.35479 1.217084,-3.43958 -1.217084,-1.66688 -1.534583,-1.45521 -1.799167,-3.33375 -0.79375,-0.37041 -0.846666,0.26458 2.328333,-1.85208 3.704167,0.44979 2.06375,-0.44979 2.989783,-2.09021 1.98438,-0.0265 1.77271,0.44979 6.58812,-7.83166 2.09021,-3.51896 -0.9525,-3.86292 -0.3175,-3.01625 1.77271,1.61396 1.45521,1.98437 1.08479,0.37042 0.87312,0.10583 2.35479,3.73063 z"
       inkscape:connector-curvature="0"
       style="display:inline;fill:#fefee4;stroke:#808080;stroke-width:0.26458332;stroke-opacity:1" />
    <path
       class="country"
       id="10m-admin-1-states-provinces-shp.2665"
       d="m 189.11248,183.9052 0.15875,2.14313 -0.58208,4.1275 -4.70958,16.40416 -0.26459,1.69334 -0.10583,2.24896 -0.34396,1.85208 -1.48166,2.91042 -0.3175,1.27 -0.58209,1.7727 -2.93687,4.5773 0.71437,2.51354 -1.13771,2.98979 -6.50875,10.37167 -0.89958,-0.3175 -2.48708,-0.7673 -1.71979,-1.95791 -1.29646,-0.18521 -1.19063,-0.0794 -3.04271,-3.78354 2.64584,-37.96771 -0.50271,-2.03729 -1.21708,-1.77271 -0.0265,-1.98437 -0.68792,-2.01083 0.47625,-2.0373 0.18521,-1.93145 -3.01625,-1.82563 -3.65125,-0.9525 -0.52917,-0.47625 -0.635,-0.37042 h -0.76729 l -0.82021,-0.37041 -0.79375,-1.42875 -0.42333,-1.5875 -1.32292,-2.43417 1.19063,-3.20146 2.14312,-2.54 1.66688,-1.32291 -2.2225,-3.06917 -0.29104,-2.2225 -1.42875,-2.51354 -2.27542,-1.98437 -0.42333,-1.98438 0.15875,-2.48708 -1.21709,-5.45042 0.21167,-1.37583 -0.68792,-0.13229 -0.635,-0.37042 1.50813,-2.38125 -2.01084,-0.52917 -2.56645,1.37584 -1.24355,0.42333 -1.1377,0.50271 -0.37042,0.97896 -0.68792,1.11125 -1.42875,0.37041 -1.05833,0.0794 0.0265,1.34937 0.55562,1.21709 0.13229,1.21708 -0.47625,1.00542 -0.71437,0.87312 -0.47625,0.71438 -2.06375,1.16416 -2.54,-0.10583 v 3.96875 l 0.55562,3.83645 -1.905,1.4023 -2.0902,0.74083 -0.89959,-1.69333 -0.79375,-1.98437 -0.37041,-1.85209 -0.89959,-1.87854 -0.71437,-1.19062 -0.42334,-0.92605 -1.27,-0.23812 -0.89958,0.21167 -1.53458,-1.53459 -1.11125,-2.40771 -0.68792,-4.55083 -0.39687,-1.29646 -0.3175,-1.27 0.29104,-0.92604 0.58208,-1.05833 1.05834,-5.02709 -0.37042,-5.18583 -4.55084,-0.97896 -5.02708,2.80459 -2.19604,2.03729 -1.24354,0.47625 -1.00542,0.23812 -1.87854,0.66146 -2.51354,-4.23333 -0.820209,-2.48709 -0.13229,-1.66687 -0.66146,-1.48167 -1.56104,-0.9525 -0.26458,-0.26458 0.97895,-4.89479 -0.23812,-1.98438 -0.74083,-2.35479 0.0794,-1.71979 h 1.93146 l 3.809999,-0.37042 1.87854,-0.34396 3.73063,1.45521 3.01625,3.04271 4.97416,1.53458 2.40771,1.4023 1.98437,0.23812 0.26459,-1.08479 0.47625,-1.19063 0.66146,-0.68791 0.55562,-1.11125 -0.3175,-2.46063 0.44979,-2.32833 2.77813,0.55562 3.30729,-0.15875 2.72521,0.89959 3.4925,5.08 2.27542,2.16958 3.12208,0.87313 3.25437,0.635 -0.15875,3.09562 -1.00541,3.01625 0.21166,1.71979 0.92604,1.53459 3.22792,1.95791 1.74625,1.69334 6.72042,1.16416 6.82625,-0.74083 2.38125,-1.34938 0.0529,2.59292 0.79375,2.54 0.3175,5.84729 0.74084,1.66688 3.59833,-3.54542 2.06375,-1.69333 2.80458,-0.44979 1.95792,-0.3175 0.10583,0.42333 0.82021,0.15875 0.84667,-1.05833 h 0.635 l 0.79375,4.18041 -0.0265,1.53459 h 0.71438 l 0.0794,-1.48167 0.23813,-1.42875 0.44979,-1.24354 0.60854,-0.84667 v -0.71437 l -0.26458,-0.82021 0.1852,-0.3175 0.55563,0.23812 0.92604,0.89959 0.3175,0.8202 0.23813,2.19605 1.56104,2.51354 2.56646,8.78416 -0.47625,24.34167 0.23812,1.64041 z"
       inkscape:connector-curvature="0"
       style="display:inline;fill:#fefee4;stroke:#808080;stroke-width:0.26458332;stroke-opacity:1" />
    <path
       class="country"
       id="10m-admin-1-states-provinces-shp.2666"
       d="m 129.87228,58.042917 0.52916,5.3975 -0.82021,16.29833 0.7673,3.81 1.69333,3.73062 0.84667,3.86292 -0.92605,0.0794 -3.73062,-0.50271 -2.91042,0.42333 -2.30187,1.53458 -0.76729,3.01625 -0.92605,7.963963 1.45521,7.99042 2.77813,0.55562 3.30729,-0.15875 2.72521,0.89959 3.4925,5.08 2.27541,2.16958 3.12209,0.87313 3.25437,0.635 -0.15875,3.09562 -1.00541,3.01625 0.21166,1.71979 0.92604,1.53459 3.22792,1.95791 1.74625,1.69334 6.72042,1.16416 6.82625,-0.74083 2.38125,-1.34938 0.0529,2.59292 0.79375,2.54 0.3175,5.84729 0.74084,1.66688 3.59833,-3.54542 2.06375,-1.69333 2.80458,-0.44979 1.95792,-0.3175 -0.0794,-0.37042 1.08479,-0.82021 -0.74084,-0.66146 -0.29104,-0.58208 -0.21166,-0.58208 -0.50271,-0.66146 -0.52917,-0.92604 0.44979,-0.635 0.74084,-0.55563 0.39687,-0.71437 -0.10583,-0.42334 -0.50271,-0.97896 -0.10583,-0.34395 0.60854,-2.61938 0.10583,-0.18521 -1.905,-4.84187 -0.55562,-0.82021 -2.38125,-1.74625 -1.19063,-0.44979 0.37042,1.42875 -0.635,0.76729 -0.47625,-0.97896 -0.18521,-0.71437 0.13229,-0.58209 0.52917,-0.60854 -1.11125,-1.87854 -1.05834,-1.21708 -2.7252,-2.56646 0.15875,-1.11125 -0.635,-0.76729 -1.11125,-0.55563 -1.21709,-0.44979 -0.76729,1.05833 -1.00542,0.37042 -1.19062,-0.15875 -1.21708,-0.55563 0.71437,-2.30187 1.05833,-1.11125 1.4023,-0.10583 1.71979,0.60854 1.32291,1.16416 2.51355,3.20146 1.03187,0.71438 2.27542,-0.68792 -0.23813,-1.98437 -1.42875,-2.27542 -4.41854,-4.63021 -1.05833,-1.74625 -0.71438,-2.14312 h -0.68791 l -2.19605,0.37041 -2.11666,-2.434163 -1.19063,-3.51896 0.60854,-2.24896 0.37042,-0.26458 0.55563,-0.37042 0.47625,-0.0265 -0.7673,-1.24354 -2.06375,-1.5875 -0.74083,-1.40229 -0.0265,-1.27 0.34396,-0.82021 0.21167,-0.84667 -0.52917,-1.29646 -0.52917,0.42334 -1.03187,0.50271 -0.52917,0.42333 -0.0794,-0.44979 -0.13229,-0.29104 -0.21167,-0.23813 -0.21167,-0.37042 0.44979,-0.5027 -0.44979,-0.97896 -0.29104,0.47625 -0.68792,0.50271 -0.47625,0.5027 -1.27,-2.91041 -0.74083,-1.21709 -1.13771,-1.27 -0.87312,-1.42875 -0.84667,-3.73062 -0.82021,-1.50813 h -0.635 l -0.58208,2.2225 -1.71979,0.1323 -1.79917,-1.32292 -0.84667,-2.16958 -0.1852,-0.3175 -0.87313,-0.26459 -0.34396,-0.39687 -0.13229,-0.635 v -0.50271 l 0.0794,-0.3175 0.0529,0.0265 -0.10583,-1.03188 0.10583,-3.25437 h 0.76729 l 1.56105,4.31271 1.16416,4.86833 1.87854,-2.59292 -0.8202,-4.70958 -2.43417,-8.30792 -9.2075,-0.97896 -1.10154,0.47198 m 41.90029,53.661773 1.29646,1.29646 1.27,2.98979 0.92604,1.37584 1.19062,3.175 3.6248,5.79437 1.74625,9.02229 -0.0794,2.06375 -1.50812,1.27 -1.45521,-1.16416 -0.635,-0.66146 -0.13229,-1.03188 0.42333,-6.72041 -0.29104,-2.24896 -1.13771,-0.9525 -0.42333,-0.92604 -3.41313,-5.05354 -0.21167,-1.0848 -0.84666,-1.87854 -0.34396,-1.00541 0.0529,-1.0848 0.3175,-0.9525 0.13229,-1.00541 -0.50271,-1.21709"
       inkscape:connector-curvature="0"
       style="display:inline;fill:#fefee4;stroke:#808080;stroke-width:0.26458332;stroke-opacity:1"
       sodipodi:nodetypes="ccccccccccccccccccccccccccccccccccccccccccccccccccccccccccccccccccccccccccccccccccccccccccccccccccccccccccccccccccccccccccccccccccccccccccccccccccccccccccccccccccccc" />
    <path
       class="country"
       id="10m-admin-1-states-provinces-shp.2667"
       d="m 122.25228,95.693117 -0.92605,7.963963 1.45521,7.99042 -0.44979,2.32833 0.3175,2.46063 -0.55562,1.11125 -0.66146,0.68791 -0.47625,1.19063 -0.26459,1.08479 -1.98437,-0.23812 -2.40771,-1.4023 -4.97417,-1.53458 -3.01625,-3.04271 -3.73062,-1.45521 -1.87854,0.34396 -3.809999,0.37042 h -1.93146 l -5.29167,0.97896 -5.50333,-0.39688 -0.23812,1.85209 -0.4498,1.82562 -1.56104,-0.97896 -0.87312,-1.24354 -2.03729,1.87854 -2.56646,1.05834 -2.69875,-0.58209 -1.03188,-1.45521 0.18521,-2.01083 -1.37583,-6.27062 0.68791,-2.8575 2.96334,-0.66146 0.21166,-0.74084 0.34396,-0.74083 0.97896,-4.180423 0.29104,-2.38125 1.00542,-4.89479 3.06917,-3.22791 -1.50813,-0.89959 -1.61396,-0.3175 -1.19062,-0.34396 -1.24354,0.58209 -0.0265,0.66146 -0.66146,0.42333 -0.87313,-0.3175 -0.55562,-0.60854 0.0265,-1.82563 -1.40229,-1.61396 -0.89959,-0.87312 0.13229,-2.72521 2.01084,-2.80458 -2.06375,-1.64042 0.18521,-3.59833 0.68791,-4.04813 1.48167,-3.88937 0.84667,-4.33917 1.50812,-3.96875 4.04813,-0.76729 h 4.52437 l 1.32292,-0.76729 0.42333,-1.79917 0.76729,-1.85208 1.32292,-1.37584 1.53458,-0.44979 1.19063,1.77271 1.66687,0.66146 1.5875,1.21708 0.42333,2.16959 1.27,1.27 4.312709,-0.42334 7.75229,1.905 h 1.85209 l 1.69333,0.97896 1.64042,1.27 1.82562,0.92604 1.29646,-0.10583 0.71438,1.05833 0.15875,1.29646 -0.0265,1.34938 0.34396,1.95791 -0.55563,1.29646 -1.16417,0.74083 0.39688,0.29105 0.50271,0.15875 2.56646,-0.58209 1.4552,-3.38666 0.50271,-1.00542 0.66146,-2.69875 0.71438,-0.60854 0.76729,-0.58209 0.66146,-1.24354 0.9525,-1.00541 h 1.27 1.5875 l 0.52916,5.3975 -0.82021,16.29833 0.7673,3.81 1.69333,3.73062 0.84667,3.86292 -0.92605,0.0794 -3.73062,-0.50271 -2.91042,0.42333 -2.30187,1.53458 z"
       inkscape:connector-curvature="0"
       style="display:inline;fill:#fefee4;stroke:#808080;stroke-width:0.26458332;stroke-opacity:1" />
    <path
       class="country"
       id="10m-admin-1-states-provinces-shp.2668"
       d="m 86.586441,-16.35792 1.98438,-0.555625 1.61396,-0.714375 0.0529,1.613958 1.19063,0.873125 -1.08479,1.031875 -0.97896,1.137709 1.61396,1.27 1.74625,-0.132292 1.40229,-1.322917 1.05833,-1.852083 0.68792,-1.693333 3.70416,4.471458 3.307299,5.6620832 1.32291,1.375834 1.87854,0.55562 1.50813,1.21709 2.19604,5.34458 1.16417,1.21708 2.51354,1.13771 1.27,2.69875 1.42875,5.3974998 0.26458,-0.97896 0.3175,-0.39687 0.55563,0.13229 1.00541,0.55563 -0.29104,0.97895 2.83104,3.12209 0.9525,1.53458 v 1.87854 l -0.74083,0.74084 -1.05833,0.47625 -0.97896,1.1377 1.50812,-0.39687 0.58209,-0.3175 2.24896,4.84187 0.3175,2.54 -2.56646,0.39688 0.52916,-1.66688 -0.68791,-1.34937 -1.11125,-0.15875 -0.82021,1.77271 0.26458,1.37583 0.74084,0.97896 0.39687,1.05833 -0.76729,1.5875 -1.71979,-1.32291 -1.77271,-1.11125 -1.77271,-0.42334 -1.71979,0.74084 -1.32292,1.7727 0.44979,0.9525 1.5875,-0.26458 2.14313,-1.74625 1.45521,1.56104 1.32291,1.87854 1.61396,1.56105 2.24896,0.635 4.70958,-0.0794 1.5875,-1.03187 -1.05833,-2.40771 2.69875,-1.24354 1.08479,-0.3175 1.11125,0.0794 1.24354,0.71438 1.13771,1.21708 0.84667,1.40229 0.74083,4.15396 1.5875,5.31812 0.10584,2.80459 -1.29646,-0.92604 -1.34938,-2.75167 -1.21708,-0.58208 -0.0265,0.76729 0.52917,3.59833 0.55562,1.29646 1.32292,0.60854 h 1.40229 l 1.08479,0.50271 0.66146,3.96875 0.89958,3.20146 0.23813,1.66687 -9.2075,-0.97896 -1.69333,0.60855 h -1.5875 -1.27 l -0.9525,1.00541 -0.66146,1.24354 -0.76729,0.58209 -0.71438,0.60854 -0.66146,2.69875 -0.50271,1.00542 -1.4552,3.38666 -2.56646,0.58209 -0.50271,-0.15875 -0.39688,-0.29105 1.16417,-0.74083 0.55563,-1.29646 -0.34396,-1.95791 0.0265,-1.34938 -0.15875,-1.29646 -0.71438,-1.05833 -1.29646,0.10583 -1.82562,-0.92604 -1.64042,-1.27 -1.69333,-0.97896 h -1.85209 l -7.75229,-1.905 -4.312699,0.42334 -1.27001,-1.27 -0.42333,-2.16959 -1.5875,-1.21708 -1.66687,-0.66146 -1.19063,-1.77271 -1.53458,0.44979 2.2225,-7.9375 0.23812,-1.29645 0.42334,-1.27 1.27,-1.21709 1.4552,-0.9525 0.84667,-1.53458 -0.68792,-1.5875 -1.19062,-0.92604 -0.92604,-1.16417 -1.42875,-3.43958 -2.72521,-4.02167 -0.42333,-2.48708 -1.0848,-1.05834 -0.87312,-0.97895 -0.0794,-2.11667 1.5875,-3.70417 -0.76729,-2.16958 -1.905,-4.1539598 -0.0529,-4.445 1.71979,-2.56646 1.19062,-2.67229 -0.9525,-0.74083 -0.84666,-1.11125 -1.56105,-1.746252 -4.47145,-3.122083 -2.59292,-1.4816672 -3.01625,-0.05292 -2.88396,1.1906252 0.44979,-1.8256252 0.84667,-1.455208 4.02167,-1.878542 4.73604,-0.635 1.95791,-0.555625 z"
       inkscape:connector-curvature="0"
       style="display:inline;fill:#fefee4;stroke:#808080;stroke-width:0.26458332;stroke-opacity:1" />
    <path
       class="country"
       id="10m-admin-1-states-provinces-shp.2669"
       d="m 17.821236,69.949167 -9.4456253,-4.33917 -2.196042,-1.24354 -1.164166,-1.48167 -1.508125,-1.21708 -2.06375,0.0794 -1.82562503,-1.37583 -1.74624997,0.79375 h -2.116667 l -0.635,-1.82563 -2.54,-10.42458 -1.508125,-2.91042 1.11125,-2.56645 1.719792,-0.79375 0.47625,-0.92605 0.132291,-0.71437 3.201459,-2.61938 1.85208297,-3.96875 -0.58208297,-4.25979 0.84666597,0.42334 1.005417,0.10583 0.21166703,-9.57792 -0.82020903,-6.08541 4.55083403,1.87854 h 5.027083 l 9.9747923,-2.61938 0.02646,3.36021 1.058333,2.91042 1.561042,0.55562 1.508125,0.68792 0.661458,1.27 0.370417,1.40229 1.084792,2.19604 2.169583,1.16417 1.058333,0.29104 1.005417,0.0529 1.561042,-2.83104 1.825625,-0.79375 1.905,-4.445 4.048125,-5.26521 3.122083,-1.42875 1.878542,1.00541 1.74625,1.24355 3.254375,-0.0265 2.725208,-2.09021 2.592917,-2.32833 2.248958,-2.6193798 1.217083,-1.905 1.455209,-1.74625 2.434161,-1.93146 -0.87312,-2.69875 -1.878541,-2.43416 -2.672292,-0.92605 -0.185208,-2.275412 7.620001,-0.238125 2.98979,-2.090208 2.67229,-0.767292 2.83104,-0.529167 2.88396,-1.1906252 3.01625,0.05292 2.59292,1.4816672 4.47145,3.122083 1.56105,1.746249 0.84666,1.11125 0.9525,0.74083 -1.19062,2.67229 -1.71979,2.56646 0.0529,4.445 1.905,4.1539598 0.76729,2.16958 -1.5875,3.70417 0.0794,2.11667 0.87312,0.97895 1.0848,1.05834 0.42333,2.48708 2.72521,4.02167 1.42875,3.43958 0.92604,1.16417 1.19062,0.92604 0.68792,1.5875 -0.84667,1.53458 -1.4552,0.9525 -1.27,1.21709 -0.42334,1.27 -0.23812,1.29645 -2.2225,7.9375 -1.32292,1.37584 -0.76729,1.85208 -0.42333,1.79917 -1.32292,0.76729 h -4.52438 l -4.04812,0.76729 -1.50813,3.96875 -0.84666,4.33917 -1.48167,3.88937 -0.68792,4.04813 -0.1852,3.59833 2.06375,1.64042 -2.01084,2.80458 -0.13229,2.72521 -2.14312,0.87312 -1.95792,0.97896 -1.32292,1.19063 -1.98437,2.09021 -0.60854,0.42333 -0.7673,-0.18521 h -1.03187 l -0.55563,1.64042 v 1.93146 l -0.97895,1.48166 -1.29646,1.37584 0.21166,0.47625 0.0794,0.71437 -0.661456,0.39688 -0.714375,0.5027 -0.767292,1.24355 -1.534583,1.05833 -1.217084,-0.79375 -1.640416,-0.0794 -1.825625,2.196053 -3.439584,1.27 -2.169583,1.61395 -2.619375,-2.48708 0.396875,-3.598333 -0.502708,-2.43417 -0.9525,-2.40771 -0.264584,-1.71979 -0.846666,-1.42875 -1.666875,-0.13229 -1.42875,-0.60854 -0.185209,-1.77271 0.132292,-1.905 -0.291042,-2.19604 0.185209,-1.32292 -0.02646,-1.27 -1.561041,-1.27 -1.931459,0.0529 -1.852083,-1.13771 -1.666875,-1.69333 -3.069167,-2.51355 -3.413125,-1.32291 -1.878541,-0.26459 -1.534584,-1.11125 -1.957916,-0.79375 z"
       inkscape:connector-curvature="0"
       style="display:inline;fill:#fefee4;stroke:#808080;stroke-width:0.26458332;stroke-opacity:1" />
    <path
       class="country"
       id="10m-admin-1-states-provinces-shp.2670"
       d="m 20.863944,20.551457 -1.058333,-2.91042 -0.02646,-3.36021 -3.889375,-5.0006198 -2.407709,-1.85209 0.02646,-1.34937 0.370416,-1.53458 2.645834,-0.26459 1.534583,-3.46604 2.8575,-1.5875 3.704167,0.42333 5.767916,-0.74083 5.503334,-2.01083 0.529166,-3.624794 -1.561041,-3.9687502 -1.5875,-2.54 -2.778125,-1.296458 4.7625,-2.989792 2.8575,-2.328333 1.825625,-2.778125 -0.132292,-1.74625 -0.370417,-1.74625 0.02646,-0.926042 -0.105834,-0.846666 -1.508125,-0.238125 -0.79375,-1.084792 0.264584,-1.508125 1.825625,-0.185208 1.984375,0.132291 3.518958,-0.105833 2.566458,1.613958 1.5875,2.354792 2.513542,-1.11125 1.74625,-1.561042 1.031875,-0.502708 0.978958,-0.555625 0.185209,-0.529167 0.238125,-0.502708 3.33375,-0.105833 3.174998,1.217083 0.37042,3.33375 2.75167,0.291042 1.19062,2.090208 -1.00542,1.455208 -0.15875,1.402292 1.5875,-0.370417 1.50813,-1.031875 3.22791,0.502709 3.25438,1.984375 1.24354,1.666875 -1.87854,7.011458 -0.84667,1.455208 -0.44979,1.8256252 -2.83104,0.529167 -2.67229,0.767292 -2.98979,2.090208 -7.620003,0.238125 0.185208,2.275412 2.672292,0.92605 1.878543,2.43416 0.87312,2.69875 -2.434163,1.93146 -1.455209,1.74625 -1.217083,1.905 -2.248958,2.6193798 -2.592917,2.32833 -2.725208,2.09021 -3.254375,0.0265 -1.74625,-1.24355 -1.878542,-1.00541 -3.122083,1.42875 -4.048125,5.26521 -1.905,4.445 -1.825625,0.79375 -1.561042,2.83104 -1.005417,-0.0529 -1.058333,-0.29104 -2.169583,-1.16417 -1.084792,-2.19604 -0.370417,-1.40229 -0.661458,-1.27 -1.508125,-0.68792 z"
       inkscape:connector-curvature="0"
       style="display:inline;fill:#fefee4;stroke:#808080;stroke-width:0.26458332;stroke-opacity:1" />
    <path
       class="country"
       id="10m-admin-1-states-provinces-shp.2671"
       d="m -29.036472,-29.481253 4.1275,1.058333 4.365625,1.666875 4.153958,2.434167 3.518958,3.386666 -1.693333,-0.370416 -2.963333,-1.455209 -1.719792,-0.291041 4.7625,5.423958 0.899583,1.613958 -2.434166,-0.291041 -1.613959,-1.243542 -1.084791,-1.349375 -0.846667,-0.635 -1.058333,-0.529167 -4.206875,-3.757083 -4.206875,-1.878542 -2.328334,-0.661458 -2.248958,-0.238125 -1.137709,-0.449792 -0.502708,-1.005416 0.3175,-0.978959 1.322917,-0.449791 z"
       inkscape:connector-curvature="0"
       style="display:inline;fill:#fefee4;stroke:#808080;stroke-width:0.26458332;stroke-opacity:1" />
    <path
       class="country"
       id="path20"
       d="m -9.3779313,27.218957 -2.6987497,-1.03188 -1.190625,-0.68791 0.396875,-0.39688 1.164167,-3.67771 0.211667,-0.21166 0.238125,-0.92605 0.9525,-2.06375 0.9260407,-10.0806198 -2.4870827,-6.42938 0.211667,-1.11125 0.15875,-7.434787 -0.238125,-2.434167 -0.291042,-1.1906252 -0.529167,-0.926041 -0.423333,-1.031875 0.9525,-0.502709 1.375833,-0.264583 0.8995837,-0.291042 5.953125,-5.344583 3.09562497,-1.534583 1.27,-1.137709 0.68791603,-2.513541 1.243542,-2.592917 0.687917,-3.598333 3.307291,-8.519584 0.423334,-1.719791 h 0.740833 l 3.5189583,-0.3175 2.169584,-1.084792 1.957916,-1.481667 0.105834,3.518959 0.635,3.386666 1.905,3.01625 0.185208,0.714375 0.132292,0.767292 -0.105834,1.5875 -0.370416,1.508125 0.238125,2.407708 -0.15875,2.116667 -2.248959,0.79375 -0.449791,1.031875 -0.343959,1.11125 -0.529166,1.190625 -0.370417,1.190625 0.502708,0.926042 0.449792,0.714375 -1.296458,3.704166 16.906875,-0.899583 2.778125,1.296458 1.5875,2.54 1.561041,3.9687502 -0.529166,3.624794 -5.503334,2.01083 -5.767916,0.74083 -3.704167,-0.42333 -2.8575,1.5875 -1.534583,3.46604 -2.645834,0.26459 -0.370416,1.53458 -0.02646,1.34937 2.407709,1.85209 3.889375,5.0006198 -9.9747923,2.61938 h -5.027083 l -4.55083403,-1.87854 0.82020903,6.08541 -0.21166703,9.57792 -1.005417,-0.10583 -0.84666597,-0.42334 -2.725209,-1.56104 -2.619375,-1.11125 z"
       inkscape:connector-curvature="0"
       style="display:inline;fill:#fefee4;stroke:#808080;stroke-width:0.26458332;stroke-opacity:1" />
    <path
       class="country"
       id="10m-admin-1-states-provinces-shp.2672"
       d="m 93.439151,-20.935212 0.39688,0.3175 -0.0265,0.714375 -0.47625,0.740834 -0.9525,0.343958 -0.26459,-0.3175 -1.1377,-1.799167 -1.21709,-0.661458 -2.80458,-0.714375 -1.64042,-0.740833 1.16417,1.613958 3.70417,3.466042 v 0.343958 l -1.61396,0.714375 -1.98438,0.555625 -1.77271,1.058333 -1.95791,0.555625 -4.73604,0.635 -4.02167,1.878542 1.87854,-7.011458 -1.24354,-1.666875 -3.25438,-1.984375 -3.22791,-0.502709 -1.50813,1.031875 -1.5875,0.370417 0.15875,-1.402292 1.00542,-1.455208 -1.19063,-2.090208 -2.75166,-0.291042 -0.37042,-3.33375 -3.174998,-1.217083 -3.33375,0.105833 -0.238125,0.502708 -0.185209,0.529167 -0.978958,0.555625 -1.031875,0.502708 -1.74625,1.561042 -2.513542,1.11125 -1.5875,-2.354792 -2.566458,-1.613958 -3.518958,0.105833 -1.984375,-0.132291 -1.825625,0.185208 -0.264584,1.508125 0.79375,1.084792 1.508125,0.238125 0.105834,0.846666 -0.02646,0.926042 0.370417,1.74625 0.132292,1.74625 -1.825625,2.778125 -2.8575,2.328333 -4.7625,2.989792 -16.906834,0.899583 1.296458,-3.704166 -0.449792,-0.714375 -0.502708,-0.926042 0.370417,-1.190625 0.529166,-1.190625 0.343959,-1.11125 0.449791,-1.031875 2.248959,-0.79375 0.15875,-2.116667 -0.238125,-2.407708 0.370416,-1.508125 0.105834,-1.5875 -0.132292,-0.767292 -0.185208,-0.714375 -1.905,-3.01625 -0.635,-3.386666 -0.105834,-3.518959 2.69875,0.343959 -0.264583,-2.883959 2.672292,-3.466041 7.858125,-0.926042 2.804583,-0.02646 2.751667,0.502708 2.725208,-0.264583 1.74625,-4.471459 1.375833,-0.05292 4.683125,0.238125 2.592917,-0.15875 1.719792,-0.926042 1.42875,-4.683125 0.47625,-0.15875 0.79375,0.978958 2.010833,1.693334 2.328333,1.27 -0.264583,-2.328334 0.291042,-2.354791 2.196041,-1.719792 0.211667,-1.719792 0.529167,-0.449791 0.47625,-0.396875 0.635,-0.529167 12.117918,9.8425 0.84667,1.375833 1.1377,1.42875 2.19605,2.090209 1.40229,1.799166 -1.24354,0.661459 -0.79375,-0.370417 -1.0848,-1.375833 -0.60854,-0.3175 -1.85208,-0.3175 -0.79375,0.264583 0.52917,1.084792 5.31812,4.947708 2.09021,1.137708 -0.82021,-1.27 -0.50271,-1.164166 0.23813,-0.873125 1.42875,-0.343959 0.66146,0.449792 1.08479,3.201458 4.89479,9.763125 -2.96333,-1.084791 -1.34938,-0.02646 -0.58208,1.481667 0.79375,0.370417 1.66687,0.264583 1.48167,0.9525 0.23812,2.354792 h 0.71438 l 0.34396,-0.608542 0.29104,-0.238125 0.34396,-0.185208 0.47625,-0.3175 0.58208,2.328333 1.45521,3.307292 1.93146,2.963333 z"
       inkscape:connector-curvature="0"
       style="display:inline;fill:#fefee4;stroke:#808080;stroke-width:0.26458332;stroke-opacity:1" />
    <path
       class="country"
       id="10m-admin-1-states-provinces-shp.2673"
       d="m 25.441236,-89.197712 -1.402292,2.963333 -2.143125,3.783542 -5.265208,-2.301875 -1.905,-1.084792 -1.27,-0.02646 0.238125,2.513542 0.714375,0.740833 1.11125,0.846667 0.635,1.005416 -0.661458,1.322917 -0.767292,0.238125 -0.740833,-0.396875 -0.687917,-0.582083 -1.957917,-1.005417 -3.8364583,-3.360208 -2.2225,-0.926042 1.137708,1.217083 2.010834,1.74625 1.137708,1.27 -2.487083,-0.47625 -2.460625,-1.031875 -4.92125003,-2.725208 -3.94229197,-3.095625 -2.328333,-0.820208 -1.11125,-0.714375 -0.820209,-0.343959 -0.132291,0.740834 -1.11125,-0.767292 -0.4233337,-1.005417 -0.211666,-1.190625 -0.396875,-1.349375 -0.661459,-1.137708 -1.455208,-1.905 -0.687917,-1.190625 2.2225,-1.11125 4.0481247,-3.730626 1.799167,-0.82021 8.016875,0.71438 4.180417,-0.47625 1.508125,0.18521 0.608541,1.37583 -0.105833,2.169583 0.291042,0.767292 0.899583,0.291041 0.8466673,0.105834 2.460625,0.635 0.502708,0.264583 0.449792,0.926042 1.11125,-0.02646 1.190625,-0.396875 0.873125,-0.105834 1.11125,0.661459 z"
       inkscape:connector-curvature="0"
       style="display:inline;fill:#fefee4;stroke:#808080;stroke-width:0.26458332;stroke-opacity:1" />
    <path
       class="country"
       id="path24"
       d="m -15.092931,-96.262087 -0.370416,1.217084 -0.291042,1.428749 0.02646,1.402292 0.185209,1.217083 0.423333,1.031875 0.846667,0.9525 0.423333,0.105834 1.984375,-0.105834 0.343958,0.3175 0.132292,1.561042 0.264583,0.635 1.1641667,0.740833 1.5875,0.661459 1.322917,0.767291 0.449791,0.978959 -0.714375,0.740833 h -1.349375 l -1.4552077,-0.449792 -1.005417,-0.635 -0.740833,-0.185208 -1.825625,1.084792 -1.296458,0.15875 -1.5875,-1.164167 -1.5875,-2.354792 -2.487084,-4.974166 1.137709,-1.772709 0.264583,-2.248958 0.635,-1.852083 2.2225,-0.47625 1.217083,0.370417 z"
       inkscape:connector-curvature="0"
       style="display:inline;fill:#fefee4;stroke:#808080;stroke-width:0.26458332;stroke-opacity:1" />
    <path
       class="country"
       id="path26"
       d="m -31.893973,-70.518128 -1.640416,1.561041 -2.592917,0.15875 -2.407708,-0.79375 -1.058334,-1.296458 v -4.259792 l 0.291042,-1.058333 0.687917,0.132292 0.714375,0.873125 0.423333,1.084791 1.74625,0.555625 2.116667,0.15875 0.529166,0.396875 z"
       inkscape:connector-curvature="0"
       style="display:inline;fill:#fefee4;stroke:#808080;stroke-width:0.26458332;stroke-opacity:1" />
    <path
       class="country"
       id="path28"
       d="m 59.149153,-65.279378 -0.47625,0.396875 -0.05292,-0.05292 -6.958542,-4.7625 -2.407708,-1.137708 -2.116667,-0.449792 -0.635,-0.291042 -1.852083,-1.402291 -0.687917,-0.423334 -0.714375,-0.105833 -0.820208,0.05292 -0.211667,-1.058334 -1.296458,-3.942292 0.238125,0.105834 v -0.767292 l -3.730622,-1.878542 -8.995833,-7.355416 -7.381875,-8.519583 -3.730625,-2.010834 -5.900209,-1.402288 -1.5345833,-1.11125 -0.211667,-1.56104 2.1431253,-0.95251 2.8575,-0.44979 4.233334,-0.23812 2.037291,0.39687 1.42875,1.00542 0.926042,3.360208 0.9525,1.42875 13.387917,15.769167 1.984375,1.455208 4.021666,2.275417 16.139584,13.096875 z"
       inkscape:connector-curvature="0"
       style="display:inline;fill:#fefee4;stroke:#808080;stroke-width:0.26458332;stroke-opacity:1" />
    <path
       class="country"
       id="10m-admin-1-states-provinces-shp.2674"
       d="m 40.919361,-78.455629 1.296458,3.942292 0.211667,1.058334 -1.27,0.05292 -0.820208,0.3175 -0.343959,0.555625 -0.370416,0.185209 -1.375834,-0.978959 -0.555625,-0.105833 -3.307291,0.07938 -0.9525,-0.264583 -7.3025,-6.323542 -3.122084,-2.010834 -1.11125,-0.502708 2.143125,-3.783542 1.402292,-2.963333 4.894792,5.344583 3.175,1.984375 z"
       inkscape:connector-curvature="0"
       style="display:inline;fill:#fefee4;stroke:#808080;stroke-width:0.26458332;stroke-opacity:1" />
    <path
       class="country"
       id="path31"
       d="m 17.741861,-45.858962 0.264583,2.883959 -2.69875,-0.343959 -1.957916,1.481667 -2.169584,1.084792 -3.5189583,0.3175 h -0.740833 l 0.635,-2.513542 v -6.0325 l 0.211666,-0.873125 -0.185208,-0.582083 -1.217083,-0.238125 -2.831042,-1.481667 -1.084792,-1.005417 -0.820208,-2.301875 -0.47625,-2.434166 -0.05292,-1.375834 1.217084,-1.296458 2.275416,-1.137708 2.513542,-0.79375 2.06375,-0.3175 0.9260423,-0.449792 2.248958,-3.01625 0.661458,-0.47625 0.740834,-0.449792 0.926041,-0.343958 1.164167,-0.185208 -0.9525,-1.799167 -1.190625,-1.5875 -1.508125,-1.508125 -1.984375,-1.481667 -7.5935423,-4.445 -1.508125,-1.905 3.307292,0.105833 3.095625,1.27 6.1912503,3.571876 5.900208,1.481666 1.534584,0.978959 2.434166,2.143125 0.582084,1.11125 -1.243542,0.635 0.264583,0.714375 0.370417,0.714375 -0.635,0.687916 2.143125,1.455209 5.08,-1.243542 9.233958,-3.677708 2.487084,0.238125 5.476875,1.508125 6.429375,2.910416 4.868333,0.926042 0.05292,0.05292 -0.529167,0.449791 -0.211667,1.719792 -2.196041,1.719792 -0.291042,2.354791 0.264583,2.328334 -2.328333,-1.27 -2.010833,-1.693334 -0.79375,-0.978958 -0.47625,0.15875 -1.42875,4.683125 -1.719792,0.926042 -2.592917,0.15875 -4.683125,-0.238125 -1.375833,0.05292 -1.74625,4.471459 -2.725208,0.264583 -2.751667,-0.502708 -2.804583,0.02646 -7.858125,0.926042 z"
       inkscape:connector-curvature="0"
       style="display:inline;fill:#fefee4;stroke:#808080;stroke-width:0.26458332;stroke-opacity:1" />
    <path
       class="country"
       id="10m-admin-1-states-provinces-shp.2675"
       d="m 19.699778,158.39937 -2.116667,1.905 -2.090208,1.19062 -1.772709,-1.29645 -2.566458,-2.91042 -0.582083,-0.87312 -0.291042,-0.87313 -0.9260423,-1.03187 -2.8575,0.50271 -2.513541,1.79916 -2.963334,0.87313 -2.831041,-2.01083 -2.434167,0.10583 -3.915833,3.06917 -2.1695837,0.87312 -0.264583,-6.16479 -3.783542,-20.37292 -0.185208,-3.57187 0.211667,-3.54542 1.11125,-2.8575 1.534583,-2.61937 0.370417,-1.16417 0.740833,-1.03188 1.4816667,-0.39687 1.217083,-0.66146 -0.582083,-0.9525 -1.243542,-0.29104 0.502708,-1.37583 0.714375,-1.19063 1.322917,-0.42333 1.455208,-0.10584 1.11125,-0.44979 0.740834,-0.9525 -0.396875,-1.08479 -0.555625,-1.16417 0.3175,-2.7252 0.978958,-2.51355 0.185208,-1.21708 0.370417,-1.13771 1.322917,-0.68791 1.26999997,-0.84667 0.291041,-1.137713 0.47625,-1.05833 2.16958403,-1.11125 0.423333,-0.9525 0.132292,-1.03188 0.635,-1.45521 1.534583,-0.68791 -0.132292,0.15875 -0.07937,0.18521 0.661459,-0.18521 0.767291,-0.82021 0.02646,-1.27 0.608541,-1.00542 2.116667,1.21709 1.2964583,-1.00542 -1.2435413,-2.30188 0.608541,-1.21708 0.7672923,-1.16417 0.105833,-2.35479 -0.07937,-2.77812 0.396875,-1.34938 0.264584,-1.24354 -1.243542,-0.76729 -1.4022923,-0.47625 -0.9525,-1.87854 -0.370416,-2.01084 -1.084792,-4.10104 0.05292,-2.06375 -0.185209,-1.98437 2.196042,1.24354 9.4456253,4.33917 2.037292,0.5027 1.957916,0.79375 1.534584,1.11125 1.878541,0.26459 3.413125,1.32291 3.069167,2.51355 1.666875,1.69333 1.852083,1.13771 1.931459,-0.0529 1.561041,1.27 0.02646,1.27 -0.185209,1.32292 0.291042,2.19604 -0.132292,1.905 0.185209,1.77271 1.42875,0.60854 1.666875,0.13229 0.846666,1.42875 0.264584,1.71979 0.9525,2.40771 0.502708,2.43417 -0.396875,3.598333 2.619375,2.48708 -0.47625,1.69334 0.264583,1.82562 0.899584,0.50271 0.767291,0.21167 0.740834,1.61396 1.005416,1.71979 0.714375,1.77271 0.02646,1.7727 0.370416,0.26459 0.529167,0.74083 0.291042,3.46604 0.555625,3.20146 1.878541,1.85208 -0.02646,1.19063 -0.3175,1.21708 0.02646,0.9525 -0.370416,0.89959 -1.455209,1.32291 -0.238125,2.16959 1.031875,2.0902 0.608542,1.03188 0.529167,1.08479 0.291041,1.29646 -0.211666,1.24354 -0.582084,0.79375 -0.05292,1.05833 -1.217084,0.58209 -1.217083,0.29104 0.820208,1.32292 0.608542,1.40229 -1.084792,0.52916 -1.481666,-0.26458 -1.508125,0.84667 0.15875,1.16416 -0.132292,1.05834 -1.772708,-0.13229 -1.5875,-1.13771 h -1.455209 l -0.343958,2.09021 -0.423333,0.55562 -0.343959,0.60854 0.07937,0.66146 0.15875,0.50271 -1.825625,0.52917 -2.116666,-0.23813 -0.9525,-1.98437 -1.481667,-1.56105 -2.460625,-0.3175 -2.248958,0.89959 -0.370417,1.95791 0.132292,2.11667 -0.343959,1.21708 -0.740833,1.00542 -1.084792,0.0529 -5.000625,1.11125 -2.407708,1.13771 z"
       inkscape:connector-curvature="0"
       style="display:inline;fill:#fefee4;stroke:#808080;stroke-width:0.26458332;stroke-opacity:1" />
    <path
       class="country"
       id="10m-admin-1-states-provinces-shp.2676"
       d="m -17.606472,159.19312 -1.905,0.50271 -2.434167,-0.13229 -4.445,-32.46437 -0.608542,-1.32292 0.396875,-0.47625 0.3175,-0.0265 0.740834,0.50271 0.15875,-1.79917 0.529166,-2.06375 0.238125,-2.01083 -0.555625,-1.56104 -0.79375,-1.40229 -0.291041,-1.905 0.02646,-3.81 -2.645833,-12.938133 -1.217084,-2.54 -1.031875,-5.34458 -1.693333,-4.23334 -2.566459,-11.66812 v -3.30729 l 0.423334,0.18521 0.05292,0.0529 v 0.10584 l 0.211664,0.37046 0.370417,-1.93146 -0.529167,-6.11187 -0.529167,-1.85208 1.693334,-1.11125 1.5875,-2.06375 1.164166,-2.32834 0.449792,-1.98437 0.449792,-1.27 3.042708,-4.78896 -1.561041,3.67771 -1.931459,3.43958 0.529167,1.05833 0.740833,0.74084 1.005417,0.39687 h 1.217083 l -1.005416,2.80459 -1.031875,2.06375 -0.449792,0.37041 -0.47625,0.0529 -0.370417,0.29104 -0.15875,1.08479 0.07937,2.46063 -0.07937,0.74083 -1.74625,5.55625 0.185208,3.06917 2.328334,2.75166 -2.06375,4.28625 3.280833,2.38125 4.736042,0.37042 2.434167,-1.71979 -0.47625,-1.82563 -1.084792,-2.01083 -1.27,-1.5875 -1.005417,-0.66146 -0.3175,-1.11125 3.439584,-6.58812 -0.105834,-1.19063 -0.449791,-0.89958 -0.502709,-0.74083 -0.3175,-0.7673 -0.105833,-1.24354 0.132292,-2.14312 -0.02646,-0.92604 -0.343958,-0.89959 -0.370417,-0.34396 -0.185208,-0.42333 0.185208,-1.13771 0.502709,-1.00541 1.322916,-1.74625 0.264584,-1.13771 0.238125,-2.16959 0.9525,-4.33916 0.978958,-10.10709 0.635,-1.1377 0.661458,-0.58209 0.502709,-0.68791 0.238125,-1.50813 v -4.28625 l 0.582083,-2.11667 1.402292,-1.34937 1.640416,-1.13771 0.9525,-1.03187 1.190625,0.68791 2.6987497,1.03188 3.01625,0.26458 2.619375,1.11125 2.725209,1.56104 0.58208297,4.25979 -1.85208297,3.96875 -3.201459,2.61938 -0.132291,0.71437 -0.47625,0.92605 -1.719792,0.79375 -1.11125,2.56645 1.508125,2.91042 2.54,10.42458 0.635,1.82563 h 2.116667 l 1.74624997,-0.79375 1.82562503,1.37583 2.06375,-0.0794 1.508125,1.21708 1.164166,1.48167 0.185209,1.98437 -0.05292,2.06375 1.084792,4.10104 0.370416,2.01084 0.9525,1.87854 1.4022923,0.47625 1.243542,0.76729 -0.264584,1.24354 -0.396875,1.34938 0.07937,2.77812 -0.105833,2.35479 -0.7672923,1.16417 -0.608541,1.21708 1.2435413,2.30188 -1.2964583,1.00542 -2.116667,-1.21709 -0.608541,1.00542 -0.02646,1.27 -0.767291,0.82021 -0.661459,0.18521 0.07937,-0.18521 0.132292,-0.15875 -1.534583,0.68791 -0.635,1.45521 -0.132292,1.03188 -0.423333,0.9525 -2.16958403,1.11125 -0.47625,1.05833 -0.291041,1.137713 -1.26999997,0.84667 -1.322917,0.68791 -0.370417,1.13771 -0.185208,1.21708 -0.978958,2.51355 -0.3175,2.7252 0.555625,1.16417 0.396875,1.08479 -0.740834,0.9525 -1.11125,0.44979 -1.455208,0.10584 -1.322917,0.42333 -0.714375,1.19063 -0.502708,1.37583 1.243542,0.29104 0.582083,0.9525 -1.217083,0.66146 -1.4816667,0.39687 -0.740833,1.03188 -0.370417,1.16417 -1.534583,2.61937 -1.11125,2.8575 -0.211667,3.54542 0.185208,3.57187 3.783542,20.37292 0.264583,6.16479 -1.799166,-0.68792 -1.508125,0.92604 -1.190625,-0.13229 -0.79375,-0.89958 z"
       inkscape:connector-curvature="0"
       style="display:inline;fill:#fefee4;stroke:#808080;stroke-width:0.26458332;stroke-opacity:1" />
    <path
       class="country"
       id="10m-admin-1-states-provinces-shp.2677"
       d="m 88.094571,256.66562 0.97896,1.87854 0.79375,2.40771 1.905,2.11667 0.9525,2.64583 -0.52917,1.79917 -2.14313,-0.71438 -3.75708,-0.74083 -1.19062,-1.40229 -1.56105,-1.24355 -1.95791,0.21167 -1.95792,0.44979 -1.95791,-0.29104 -7.51417,-2.75167 -5.87375,-1.1377 v -0.97896 l 0.55562,-0.55563 -1.32291,-0.97896 0.0794,-0.97895 -1.13771,-1.4023 -2.460622,0.39688 -1.825625,-0.3175 0.661459,-1.85208 -1.481667,-2.72521 -4.497917,0.58208 -1.74625,0.0265 -0.687916,1.66687 -2.010834,0.47625 -2.010833,0.29105 -0.873125,-1.29646 -1.666875,0.0529 -3.175,-1.56104 -1.534583,-0.0529 -1.719792,-0.68792 -1.402292,-1.19063 -1.243541,-1.29645 -3.704167,-6.4823 -4.339167,-6.11187 -0.529166,-1.74625 1.534583,-0.60854 -1.481667,-2.83104 -2.275416,-2.11667 -1.42875,-0.55563 -1.137709,-1.05833 -0.608541,-3.01625 -3.122084,-3.04271 -0.978958,-2.06375 -0.661458,-1.95791 0.15875,-1.64042 -1.799167,-4.7625 -0.343958,-2.11667 2.248958,-2.03729 -2.513542,-2.67229 0.529167,-1.24354 0.449792,-1.42875 1.11125,-1.77271 1.296458,-1.61396 1.5875,-0.71437 4.259792,4.33916 1.27,1.61396 1.561041,1.24354 0.740834,-0.42333 1.031875,-0.23813 0.740833,0.89959 0.47625,1.03187 2.566458,0.55563 3.122084,-1.77271 1.27,-0.13229 1.561041,0.0529 2.196042,1.27 2.831042,0.9525 2.037291,0.29105 2.037292,-0.0794 -0.07937,1.69333 0.687917,0.7673 -0.767292,0.74083 -0.370417,1.05833 2.090209,1.61396 2.513541,0.21167 5.318125,1.19062 5.609157,0.76729 2.16959,-0.37041 2.54,-0.18521 3.38666,0.10583 3.20146,-0.42333 5.79438,-3.06917 0.29104,3.81 0.74083,-0.37041 0.76729,-0.29105 1.4023,1.53459 1.74625,0.55562 -0.23813,0.9525 -0.3175,0.82021 -0.39687,0.39688 -2.77813,1.27 -0.47625,1.34937 1.08479,1.71979 1.56105,1.27 2.32833,0.44979 2.46062,-1.00541 2.09021,-1.56104 1.87854,-0.0794 -1.69333,2.56646 -1.05833,2.64583 -1.85209,2.27542 -0.97895,2.27542 -1.00542,4.49791 -1.93146,2.75167 -1.56104,2.93687 0.3175,1.7198 0.635,1.61395 0.0794,6.40292 1.16417,2.2225 1.42875,1.93146 1.95792,1.05833 z"
       inkscape:connector-curvature="0"
       style="display:inline;fill:#fefee4;stroke:#808080;stroke-width:0.26458332;stroke-opacity:1" />
    <path
       class="country"
       id="10m-admin-1-states-provinces-shp.2678"
       d="m 34.913319,294.10416 0.185209,1.08479 v 0.10584 l -0.661459,-0.0794 -0.502708,-0.23812 -0.3175,-0.47625 -0.449792,-0.47625 -0.79375,-0.23813 -0.47625,0.18521 -0.370416,0.3175 -0.396875,0.29104 -0.529167,-0.0265 -0.370417,-0.29104 -0.635,-0.92604 -0.396875,-0.23813 -5.106458,-1.85208 -3.069167,-0.635 -2.2225,-1.79917 -1.481666,-0.74083 -0.767292,0.76729 -1.905,-1.53458 -8.3608333,-8.89 -0.687917,-0.55563 -0.3175,-0.37041 -0.105833,-0.42334 0.02646,-0.89958 -0.264583,-0.44979 -1.27,-1.66688 -4.736042,-10.05416 -0.185208,-0.9525 0.05292,-1.71979 -0.185208,-0.52917 -0.846667,-1.77271 -0.846666,-4.84187 -1.905,-3.38667 -1.164167,-4.86833 0.687917,0.15875 0.555625,0.79375 0.608541,0.55562 0.661459,-0.47625 1.031875,-0.42333 0.740833,0.74083 0.529167,0.87313 3.757083,1.7727 1.878542,0.37042 2.037291,0.89958 1.640417,1.45521 1.693333,1.13771 4.4450003,0.84667 2.804584,-1.56104 3.095625,-0.26459 3.042708,2.32834 1.561042,1.53458 1.613958,1.27 0.185208,-2.06375 -0.767291,-2.24896 v -2.2225 l 1.905,-0.82021 3.571875,-2.2225 3.65125,-0.84666 1.243541,1.29645 1.402292,1.19063 1.719792,0.68792 1.534583,0.0529 3.175,1.56104 1.666875,-0.0529 0.873125,1.29646 -2.116667,0.635 -1.375833,1.40229 1.217083,1.85208 1.561042,1.5875 -0.608542,2.93688 -3.148541,-0.74084 -1.957917,-1.85208 -2.169583,-1.64042 -1.693334,-0.50271 -1.640416,0.4498 1.005416,1.905 2.037292,1.32291 2.169583,3.09563 0.767292,2.96333 -1.799167,2.19604 -3.598333,-0.635 1.058333,1.29646 0.502709,1.66688 -0.740834,2.14312 -0.926041,2.01083 0.661458,2.01084 1.561042,1.50812 1.852083,1.24354 1.613958,1.48167 -1.402291,1.66688 -1.640417,1.66687 -1.402292,0.55563 -0.608541,0.97895 0.3175,1.0848 0.79375,0.42333 1.825625,0.76729 -0.635,1.24354 -1.852084,0.68792 -1.137708,2.01083 z"
       inkscape:connector-curvature="0"
       style="display:inline;fill:#fefee4;stroke:#808080;stroke-width:0.26458332;stroke-opacity:1" />
    <path
       class="country"
       id="10m-admin-1-states-provinces-shp.2679"
       d="m 167.62832,237.69499 2.48708,0.7673 0.89958,0.3175 -3.12208,4.97416 -3.22792,3.22792 -5.92666,4.23333 -1.95792,0.60854 -2.59292,1.4023 -19.02354,15.02833 -3.78354,2.06375 -12.35604,4.41854 -0.18521,-1.5875 -0.74083,-0.58208 -0.79375,0.21166 -0.37042,0.82021 -0.21167,1.74625 -0.58208,0.66146 -0.89958,0.23813 -1.16417,0.52916 -2.2225,1.34938 -2.2225,1.00541 -10.689159,2.30188 -5.15938,1.77271 -5.66208,1.03187 -2.59292,1.00542 -1.53458,2.19604 -2.77813,-0.55562 -2.67229,1.03187 -7.88458,5.87375 -0.26459,0.29104 -0.55562,-0.3175 -2.61938,-1.19062 -1.19062,-1.905 0.71437,-0.39688 0.0529,-0.87312 -0.87312,-0.47625 -1.00542,-0.0794 -1.40229,-0.9525 -0.23813,-1.64041 3.30729,-1.42875 -1.1377,-3.96875 0.9525,-0.87313 0.37041,-0.89958 -1.13771,-0.23813 -1.19062,0.18521 -1.69333,-0.89958 -0.34396,-1.77271 0.60854,-0.92604 0.47625,-1.08479 -0.52917,-0.55563 -0.92604,0.15875 -1.931458,-0.74083 -1.772709,-1.24354 1.243542,-4.445 3.915835,-2.9898 -0.68792,-1.64041 0.68792,-1.82563 -0.15875,-0.76729 0.9525,-0.39687 5.87375,1.1377 7.51417,2.75167 1.95791,0.29104 1.95792,-0.44979 1.95791,-0.21167 1.56105,1.24355 1.19062,1.40229 3.75708,0.74083 2.14313,0.71438 0.52917,-1.79917 -0.9525,-2.64583 -1.905,-2.11667 2.54,-1.64042 2.56645,-1.40229 2.91042,-0.9525 2.222499,-1.69333 -1.005419,-2.32834 0.50271,-2.32833 h 1.296459 l 1.37583,-0.10583 0.84667,-1.19063 v -1.37583 l 1.24354,0.89958 0.97896,-1.11125 2.56646,-0.0265 2.54,0.3175 1.74625,0.635 0.79375,1.905 1.00542,0.1323 1.11125,-0.0529 0.92604,-0.66146 1.29646,-0.13229 1.905,2.51354 1.56104,2.67229 2.56646,1.05834 2.80458,-1.53459 1.00542,-1.00541 1.5875,-0.66146 2.96333,-0.79375 6.08542,-2.38125 1.13771,-0.82021 0.23812,0.3175 0.89958,0.13229 2.75167,-1.00542 2.8575,0.635 1.32292,-2.19604 v -0.89958 l -0.0529,-0.84667 0.44979,-0.635 0.44979,-0.71437 -0.52916,-1.40229 -0.0529,-1.74625 2.03729,-1.61396 2.43417,-1.11125 1.85208,-1.79917 2.16959,-1.66687 2.75166,-0.50271 1.85209,-2.14313 3.0427,3.78354 1.19063,0.0794 1.29646,0.18521 z"
       inkscape:connector-curvature="0"
       style="display:inline;fill:#fefee4;stroke:#808080;stroke-width:0.26458332;stroke-opacity:1" />
    <path
       class="country"
       id="10m-admin-1-states-provinces-shp.2680"
       d="m 67.218941,292.56958 2.61938,1.19062 0.55562,0.3175 -1.56104,1.82563 -4.20687,-0.23813 -1.74625,0.23813 -1.34938,0.52916 -1.428748,0.82021 -2.487084,1.87854 -1.42875,0.3175 -1.693333,-0.66145 -1.799167,-0.92605 -1.74625,-0.52916 -5.953125,0.71437 -1.666875,-0.34396 -0.873125,-0.87312 -0.555625,-1.11125 -0.740833,-1.16417 -1.74625,1.03188 -1.561042,0.10583 -2.751666,-0.39687 v -0.10584 l -0.185209,-1.08479 -0.02646,-1.13771 1.137708,-2.01083 1.852084,-0.68792 0.635,-1.24354 -1.825625,-0.76729 -0.79375,-0.42333 -0.3175,-1.0848 0.608541,-0.97895 1.402292,-0.55563 1.640417,-1.66687 1.402291,-1.66688 -1.613958,-1.48167 -1.852083,-1.24354 -1.561042,-1.50812 -0.661458,-2.01084 0.926041,-2.01083 0.740834,-2.14312 -0.502709,-1.66688 -1.058333,-1.29646 3.598333,0.635 1.799167,-2.19604 -0.767292,-2.96333 -2.169583,-3.09563 -2.037292,-1.32291 -1.005416,-1.905 1.640416,-0.4498 1.693334,0.50271 2.169583,1.64042 1.957917,1.85208 3.148541,0.74084 0.608542,-2.93688 -1.561042,-1.5875 -1.217083,-1.85208 1.375833,-1.40229 2.116667,-0.635 2.010833,-0.29105 2.010834,-0.47625 0.687916,-1.66687 1.74625,-0.0265 4.497917,-0.58208 1.481667,2.72521 -0.661459,1.85208 1.825625,0.3175 2.460624,-0.39688 1.13771,1.4023 -0.0794,0.97895 1.32291,0.97896 -0.55562,0.55563 v 0.97896 l -0.9525,0.39687 0.15875,0.76729 -0.68792,1.82563 0.68792,1.64041 -3.915837,2.9898 -1.243542,4.445 1.772709,1.24354 1.93146,0.74083 0.92604,-0.15875 0.52917,0.55563 -0.47625,1.08479 -0.60854,0.92604 0.34396,1.77271 1.69333,0.89958 1.19062,-0.18521 1.13771,0.23813 -0.37041,0.89958 -0.9525,0.87313 1.1377,3.96875 -3.30729,1.42875 0.23813,1.64041 1.40229,0.9525 1.00542,0.0794 0.87312,0.47625 -0.0529,0.87312 -0.71437,0.39688 z"
       inkscape:connector-curvature="0"
       style="display:inline;fill:#fefee4;stroke:#808080;stroke-width:0.26458332;stroke-opacity:1" />
    <path
       class="country"
       id="10m-admin-1-states-provinces-shp.2681"
       d="m 96.376031,137.81479 -0.50271,-8.44021 1.00541,-4.86833 0.26459,0.26458 1.56104,0.9525 0.66146,1.48167 0.13229,1.66687 0.820209,2.48709 2.51354,4.23333 1.87854,-0.66146 1.00542,-0.23812 1.24354,-0.47625 2.19604,-2.03729 5.02708,-2.80459 4.55084,0.97896 0.37041,5.18583 -1.05833,5.02709 -0.58208,1.05833 -0.29104,0.92604 0.3175,1.27 0.39687,1.29646 0.68792,4.55083 1.11125,2.40771 1.53458,1.53459 0.89958,-0.21167 1.27,0.23812 0.42334,0.92605 0.71437,1.19062 0.89959,1.87854 0.37041,1.85209 -3.99521,0.95249 v 2.14313 l -0.79375,1.93145 -2.80458,3.57188 -0.92604,1.5875 -1.69333,0.71437 -1.42875,-1.53458 -1.69334,-0.21167 -1.19062,1.82563 -0.3175,2.09021 1.27,1.66687 1.5875,1.53459 1.00541,2.11666 1.21709,1.27 3.75708,-1.00541 1.11125,1.42875 0.55563,0.5027 0.76729,0.92605 0.52916,1.37583 0.29105,1.45521 v 1.905 l -0.47625,1.87854 -0.39688,2.8575 -0.55562,1.11125 -0.68792,1.08479 -0.26458,1.61396 -0.52917,1.48167 -1.32292,0.29104 -1.03187,-0.44979 -0.60854,0.635 -0.4498,0.8202 -1.05833,1.32292 -1.27,1.05833 -2.61937,0.71438 -2.19605,1.21708 2.48709,3.51896 -2.96334,0.89958 -0.89958,1.7198 -3.46604,0.3175 -0.23813,2.16958 0.21167,2.2225 -0.87312,1.87854 0.39687,1.34938 1.79917,0.47625 0.10583,1.82562 -1.50812,2.38125 -0.21167,1.50813 0.0265,1.5875 0.9525,2.88395 1.53458,2.38125 -2.14312,0.7673 -0.3175,2.46062 -1.11125,-0.52917 -1.0848,-0.71437 -1.4552,2.24896 -0.39688,2.75166 -0.899579,-1.42875 -1.19063,-1.48166 -0.44979,-3.28084 -0.68792,-0.42333 -0.71437,-0.34396 -0.71438,-2.27541 -0.9525,-2.11667 -0.79375,-0.18521 -0.8202,-0.42333 -0.47625,-1.77271 -0.79375,-1.24354 -1.21709,-0.0529 -1.87854,0.0794 -2.09021,1.56104 -2.46062,1.00541 -2.32834,-0.44979 -1.56104,-1.27 -1.08479,-1.71979 0.47625,-1.34937 2.77813,-1.27 0.39687,-0.39688 0.3175,-0.82021 0.23813,-0.9525 -1.74625,-0.55562 -1.4023,-1.53459 -0.76729,0.29105 -0.74083,0.37041 -0.29104,-3.81 1.93146,-0.47625 1.05833,-1.48166 -0.9525,-0.47625 -0.92604,-0.60855 1.50812,-2.46062 -0.42333,-0.68792 -0.50271,-0.635 -0.58208,-1.5875 -0.68792,-1.45521 -3.25437,-1.64041 -0.1323,-1.66688 1.85209,-0.0794 1.93146,0.10583 1.37583,-1.5875 0.47625,-2.06375 1.64042,-1.48167 1.85208,-0.87312 3.86292,-0.84667 2.27541,-3.41312 0.47625,-2.01084 0.92604,-1.82562 0.82021,-0.76729 0.68792,-0.84667 0.34396,-0.76729 -0.15875,-0.71438 -0.55563,-1.82562 0.47625,-0.97896 0.71438,-0.84667 -0.37042,-0.52916 -0.47625,-0.55563 -0.21167,-0.87312 0.23813,-0.9525 -0.79375,-2.56646 0.10583,-1.87854 1.29646,-0.79375 2.19604,-0.60854 2.75167,-2.59292 0.18521,-3.36021 -2.24896,-7.46124 z"
       inkscape:connector-curvature="0"
       style="display:inline;fill:#fefee4;stroke:#808080;stroke-width:0.26458332;stroke-opacity:1" />
    <path
       class="country"
       id="10m-admin-1-states-provinces-shp.2682"
       d="m 121.80248,162.57979 v -2.14313 l 3.99521,-0.95249 0.79375,1.98437 0.89959,1.69333 2.0902,-0.74083 1.905,-1.4023 -0.55562,-3.83645 v -3.96875 l 2.54,0.10583 2.06375,-1.16416 0.47625,-0.71438 0.71437,-0.87312 0.47625,-1.00542 -0.13229,-1.21708 -0.55562,-1.21709 -0.0265,-1.34937 1.05833,-0.0794 1.42875,-0.37041 0.68792,-1.11125 0.37042,-0.97896 1.1377,-0.50271 1.24355,-0.42333 2.56645,-1.37584 2.01084,0.52917 -1.50813,2.38125 0.635,0.37042 0.68792,0.13229 -0.21167,1.37583 1.21709,5.45042 -0.15875,2.48708 0.42333,1.98438 2.27542,1.98437 1.42875,2.51354 0.29104,2.2225 2.2225,3.06917 -1.66688,1.32291 -2.14312,2.54 -1.19063,3.20146 1.32292,2.43417 0.42333,1.5875 0.79375,1.42875 0.82021,0.37041 h 0.76729 l 0.635,0.37042 0.52917,0.47625 3.65125,0.9525 3.01625,1.82563 -0.18521,1.93145 -0.47625,2.0373 0.68792,2.01083 0.0265,1.98437 1.21708,1.77271 0.50271,2.03729 -2.64584,37.96771 -1.85208,2.14313 -2.75167,0.50271 -2.16958,1.66687 -1.85208,1.79917 -2.43417,1.11125 -2.03729,1.61396 0.0529,1.74625 0.52916,1.40229 -0.44979,0.71437 -0.44979,0.635 0.0529,0.84667 v 0.89958 l -1.32292,2.19604 -2.8575,-0.635 -2.75167,1.00542 -0.89958,-0.13229 -0.23813,-0.3175 -1.1377,0.82021 -6.08542,2.38125 -2.96333,0.79375 -1.5875,0.66146 -1.00542,1.00541 -2.80458,1.53459 -2.56646,-1.05834 -1.56104,-2.67229 -1.905,-2.51354 -1.29646,0.13229 -0.92604,0.66146 -1.11125,0.0529 -1.00542,-0.1323 -0.79375,-1.905 -1.74625,-0.635 -2.54,-0.3175 -2.56646,0.0265 -0.97896,1.11125 -1.24354,-0.89958 v 1.37583 l -0.84667,1.19063 -1.37583,0.10583 h -1.296459 l -0.50271,2.32833 1.005419,2.32834 -2.222499,1.69333 -2.91042,0.9525 -2.56645,1.40229 -2.54,1.64042 -0.79375,-2.40771 -0.97896,-1.87854 -1.87854,-1.32292 -1.95792,-1.05833 -1.42875,-1.93146 -1.16417,-2.2225 -0.0794,-6.40292 -0.635,-1.61395 -0.3175,-1.7198 1.56104,-2.93687 1.93146,-2.75167 1.00541,-4.49791 0.97896,-2.27542 1.85209,-2.27542 1.05833,-2.64583 1.69333,-2.56646 1.21709,0.0529 0.79375,1.24354 0.47625,1.77271 0.8202,0.42333 0.79375,0.18521 0.9525,2.11667 0.71438,2.27541 0.71437,0.34396 0.68792,0.42333 0.44979,3.28084 1.19063,1.48166 0.899579,1.42875 0.39688,-2.75166 1.4552,-2.24896 1.0848,0.71437 1.11125,0.52917 0.3175,-2.46062 2.14312,-0.7673 -1.53458,-2.38125 -0.9525,-2.88395 -0.0265,-1.5875 0.21167,-1.50813 1.50812,-2.38125 -0.10583,-1.82562 -1.79917,-0.47625 -0.39687,-1.34938 0.87312,-1.87854 -0.21167,-2.2225 0.23813,-2.16958 3.46604,-0.3175 0.89958,-1.7198 2.96334,-0.89958 -2.48708,-3.51896 2.19604,-1.21708 2.61937,-0.71438 1.27,-1.05833 1.05833,-1.32292 0.4498,-0.8202 0.60854,-0.635 1.03187,0.44979 1.32292,-0.29104 0.52917,-1.48167 0.26458,-1.61396 0.68792,-1.08479 0.55562,-1.11125 0.39688,-2.8575 0.47625,-1.87854 v -1.905 l -0.29105,-1.45521 -0.52916,-1.37583 -0.76729,-0.92605 -0.55563,-0.5027 -1.11125,-1.42875 -3.75708,1.00541 -1.21709,-1.27 -1.00541,-2.11666 -1.5875,-1.53459 -1.27,-1.66687 0.3175,-2.09021 1.19062,-1.82563 1.69334,0.21167 1.42875,1.53458 1.69333,-0.71437 0.92604,-1.5875 2.80458,-3.57188 z"
       inkscape:connector-curvature="0"
       style="display:inline;fill:#fefee4;stroke:#808080;stroke-width:0.26458332;stroke-opacity:1" />
    <path
       class="country"
       id="10m-admin-1-states-provinces-shp.2683"
       d="m 23.033528,200.25645 -4.259792,-4.33916 -1.5875,0.71437 -0.05292,-1.00542 -0.132291,-1.00541 1.375833,-1.27 -0.3175,-1.87854 -1.772708,-0.89959 -2.2225,-0.15875 0.291041,-0.84666 v -0.9525 l -1.534583,-4.8948 0.529167,-3.01625 1.296458,-3.01625 1.481667,-1.03187 0.767291,-1.74625 -2.143125,-0.635 -2.513541,0.58208 -1.243542,-2.59291 0.449792,-2.93688 1.613958,-0.82021 1.322917,-1.27 0.291041,-3.54541 1.005417,-0.82021 -0.185208,-1.37584 2.090208,-1.19062 2.116667,-1.905 2.248958,-1.61395 2.407708,-1.13771 5.000625,-1.11125 1.084792,-0.0529 0.740833,-1.00542 0.343959,-1.21708 -0.132292,-2.11667 0.370417,-1.95791 2.248958,-0.89959 2.460625,0.3175 1.481667,1.56105 0.9525,1.98437 1.243541,3.175 4.445,3.88938 -0.185208,2.01082 0.873125,0.60855 2.592917,1.4552 1.243541,1.50813 -0.238125,1.85208 0.02646,1.50813 1.481666,1.48166 1.190625,1.50813 -0.582083,1.34937 -0.79375,1.27 -1.11125,0.26459 -1.137708,0.0794 -1.613959,1.74625 -3.545416,0.58209 -1.164167,1.08479 1.561042,3.73062 0.740833,1.29646 -0.740833,1.5875 -0.05292,2.03729 0.132292,0.34396 0.343958,0.0794 -0.899583,1.4552 -1.42875,1.27 -0.767292,0.26459 -0.582083,0.76729 0.582083,0.79375 0.661458,0.66146 -0.714375,3.83646 0.873125,2.98979 2.989792,0.97896 2.354792,1.7727 0.79375,2.72521 0.15875,1.37584 -1.164167,1.03187 -2.037292,0.0794 -2.037291,-0.29105 -2.831042,-0.9525 -2.196042,-1.27 -1.561041,-0.0529 -1.27,0.13229 -3.122084,1.77271 -2.566458,-0.55563 -0.47625,-1.03187 -0.740833,-0.89959 -1.031875,0.23813 -0.740834,0.42333 -1.561041,-1.24354 z"
       inkscape:connector-curvature="0"
       style="display:inline;fill:#fefee4;stroke:#808080;stroke-width:0.26458332;stroke-opacity:1" />
    <path
       class="country"
       id="10m-admin-1-states-provinces-shp.2684"
       d="m -14.325639,217.61312 h -0.05292 l 0.05292,-0.0529 z"
       inkscape:connector-curvature="0"
       style="display:inline;fill:#fefee4;stroke:#808080;stroke-width:0.26458332;stroke-opacity:1" />
    <path
       class="country"
       id="10m-admin-1-states-provinces-shp.2685"
       d="m -14.510847,217.71895 v -0.0794 h 0.105833 z"
       inkscape:connector-curvature="0"
       style="display:inline;fill:#fefee4;stroke:#808080;stroke-width:0.26458332;stroke-opacity:1" />
    <path
       class="country"
       id="10m-admin-1-states-provinces-shp.2686"
       d="m -14.405014,217.63958 0.02646,-0.0265 -0.15875,0.29104 -3.81,-9.8425 -1.534583,-8.5725 v -7.46125 l 0.105833,-0.29104 2.2225,0.87312 1.693334,0.87313 1.799166,0.42333 0.820209,-0.42333 0.926041,-0.39688 5.0799997,1.50813 1.772709,-0.34396 1.74625,-0.13229 1.375833,0.84667 1.217083,1.1377 1.16416697,0.635 1.19062503,0.47625 1.799167,0.21167 2.196041,-0.10583 0.132292,-2.03729 0.396875,-1.93146 1.640417,-1.61396 2.010833,-0.9525 2.7781253,0.29104 1.878542,-0.66146 2.2225,0.15875 1.772708,0.89959 0.3175,1.87854 -1.375833,1.27 0.132291,1.00541 0.05292,1.00542 -1.296458,1.61396 -1.11125,1.77271 -0.449792,1.42875 -0.529167,1.24354 2.513542,2.67229 -2.248958,2.03729 -2.989792,-0.68791 -3.3337503,1.40229 0.661458,2.98979 -2.010833,-0.50271 -1.322917,-3.09562 -0.529166,-0.3175 -0.635,-0.1323 -1.27,1.48167 -1.5875,0.82021 -1.13770903,-0.52917 -1.13770797,0.13229 -3.942292,3.38667 -1.137708,0.52917 -1.190625,0.26458 -2.9368747,1.11125 -4.7625,-2.93687 -0.105833,1.71979 0.635,1.905 0.3175,1.32291 0.02646,1.29646 -0.05292,0.0529 -0.02646,0.0265 h -0.105833 v 0.0794 z"
       inkscape:connector-curvature="0"
       style="display:inline;fill:#fefee4;stroke:#808080;stroke-width:0.26458332;stroke-opacity:1" />
    <path
       class="country"
       id="10m-admin-1-states-provinces-shp.2687"
       d="m -15.860222,193.48312 -1.693334,-0.87313 -2.2225,-0.87312 1.031875,-2.46063 0.264584,-1.16416 -0.02646,-1.21709 -4.894791,-17.48895 0.661458,-2.54 -0.02646,1.56104 0.370416,1.00541 0.555625,0.7673 0.502709,0.89958 0.978958,3.46604 0.47625,0.84667 h 0.635 l 0.15875,-1.00542 0.291042,-0.42333 0.238125,-0.0529 0.07937,0.0529 -0.02646,-3.175 -0.238125,-1.40229 -0.502708,-1.13771 -0.47625,-0.3175 -1.349375,-0.3175 -0.608542,-0.39688 -0.449791,-0.87312 0.185208,-0.82021 0.396875,-0.76729 0.211667,-0.74084 -0.608542,-4.47145 2.434167,0.13229 1.905,-0.50271 1.984375,-0.26458 0.79375,0.89958 1.190625,0.13229 1.508125,-0.92604 1.799166,0.68792 2.1695837,-0.87312 3.915833,-3.06917 2.434167,-0.10583 2.831041,2.01083 2.963334,-0.87313 2.513541,-1.79916 2.8575,-0.50271 0.9260423,1.03187 0.291042,0.87313 0.582083,0.87312 2.566458,2.91042 1.772709,1.29645 0.185208,1.37584 -1.005417,0.82021 -0.291041,3.54541 -1.322917,1.27 -1.613958,0.82021 -0.449792,2.93688 1.243542,2.59291 2.513541,-0.58208 2.143125,0.635 -0.767291,1.74625 -1.481667,1.03187 -1.296458,3.01625 -0.529167,3.01625 1.534583,4.8948 v 0.9525 l -0.291041,0.84666 -1.878542,0.66146 -2.7781253,-0.29104 -2.010833,0.9525 -1.640417,1.61396 -0.396875,1.93146 -0.132292,2.03729 -2.196041,0.10583 -1.799167,-0.21167 -1.19062503,-0.47625 -1.16416697,-0.635 -1.217083,-1.1377 -1.375833,-0.84667 -1.74625,0.13229 -1.772709,0.34396 -5.0799997,-1.50813 -0.926041,0.39688 -0.820209,0.42333 z"
       inkscape:connector-curvature="0"
       style="display:inline;fill:#fefee4;stroke:#808080;stroke-width:0.26458332;stroke-opacity:1" />
    <path
       class="country"
       id="10m-admin-1-states-provinces-shp.2688"
       d="m -4.9064723,246.87604 -0.555625,-0.79375 -0.687917,-0.15875 -0.449792,-1.74625 -0.211666,-0.18521 -0.449792,-0.26459 -0.449792,-0.42333 -0.291041,-0.55562 0.132291,-0.60855 0.502709,-0.13229 0.529166,0.0529 0.238125,-0.0265 -0.846666,-5.84729 -7.0908337,-18.28271 0.15875,-0.29104 h 0.05292 v -0.0529 l -0.02646,-1.29646 -0.3175,-1.32291 -0.635,-1.905 0.105833,-1.71979 4.7625,2.93687 2.9368747,-1.11125 1.190625,-0.26458 1.137708,-0.52917 3.942292,-3.38667 1.13770797,-0.13229 1.13770903,0.52917 1.5875,-0.82021 1.27,-1.48167 0.635,0.1323 0.529166,0.3175 1.322917,3.09562 2.010833,0.50271 -0.661458,-2.98979 3.3337503,-1.40229 2.989792,0.68791 0.343958,2.11667 1.799167,4.7625 -0.15875,1.64042 0.661458,1.95791 0.978958,2.06375 3.122084,3.04271 0.608541,3.01625 1.137709,1.05833 1.42875,0.55563 2.275416,2.11667 1.481667,2.83104 -1.534583,0.60854 0.529166,1.74625 4.339167,6.11187 3.704167,6.4823 -3.65125,0.84666 -3.571875,2.2225 -1.905,0.82021 v 2.2225 l 0.767291,2.24896 -0.185208,2.06375 -1.613958,-1.27 -1.561042,-1.53458 -3.042708,-2.32834 -3.095625,0.26459 -2.804584,1.56104 -4.4450003,-0.84667 -1.693333,-1.13771 -1.640417,-1.45521 -2.037291,-0.89958 -1.878542,-0.37042 -3.757083,-1.7727 -0.529167,-0.87313 -0.740833,-0.74083 -1.031875,0.42333 -0.661459,0.47625 z"
       inkscape:connector-curvature="0"
       style="display:inline;fill:#fefee4;stroke:#808080;stroke-width:0.26458332;stroke-opacity:1" />
  </g>
</svg>
