<?xml version="1.0" encoding="UTF-8" standalone="no"?>
<!-- Created with Inkscape (http://www.inkscape.org/) -->

<svg
   xmlns:dc="http://purl.org/dc/elements/1.1/"
   xmlns:cc="http://creativecommons.org/ns#"
   xmlns:rdf="http://www.w3.org/1999/02/22-rdf-syntax-ns#"
   xmlns:svg="http://www.w3.org/2000/svg"
   xmlns="http://www.w3.org/2000/svg"
   xmlns:sodipodi="http://sodipodi.sourceforge.net/DTD/sodipodi-0.dtd"
   xmlns:inkscape="http://www.inkscape.org/namespaces/inkscape"
   width="1575.8761"
   height="886.4303"
   viewBox="0 0 416.95055 234.53469"
   version="1.1"
   id="svg4642"
   inkscape:version="0.92.1 r15371"
   sodipodi:docname="srilanka.svg">
  <defs
     id="defs4636" />
  <sodipodi:namedview
     id="base"
     pagecolor="#ffffff"
     bordercolor="#666666"
     borderopacity="1.0"
     inkscape:pageopacity="0.0"
     inkscape:pageshadow="2"
     inkscape:zoom="0.49497475"
     inkscape:cx="691.03482"
     inkscape:cy="487.34233"
     inkscape:document-units="px"
     inkscape:current-layer="Sri-Lanka"
     showgrid="false"
     fit-margin-top="0"
     fit-margin-left="0"
     fit-margin-right="0"
     fit-margin-bottom="0"
     inkscape:window-width="1920"
     inkscape:window-height="1051"
     inkscape:window-x="-4"
     inkscape:window-y="-4"
     inkscape:window-maximized="1"
     units="px" />
  <metadata
     id="metadata4639">
    <rdf:RDF>
      <cc:Work
         rdf:about="">
        <dc:format>image/svg+xml</dc:format>
        <dc:type
           rdf:resource="http://purl.org/dc/dcmitype/StillImage" />
        <dc:title></dc:title>
      </cc:Work>
    </rdf:RDF>
  </metadata>
  <g
     inkscape:label="Sri Lanka"
     inkscape:groupmode="layer"
     id="Sri-Lanka"
     transform="translate(0,0">
    <path
       id="Central-Province"
       style="display:inline;fill:#fefee4;stroke:#808080;stroke-width:0.15347895;stroke-opacity:1"
       d="m 227.04451,158.23714 2.54774,-0.3837 2.47101,0.50649 -0.0614,1.08969 0.46044,1.48875 -0.13813,0.55253 0.12278,0.50647 0.27626,0.32231 0.21488,0.30696 -0.4144,0.49113 -0.27626,0.56787 0.32231,1.05901 0.0921,0.41439 -0.19953,0.44509 -0.39904,0.49113 -0.47579,0.44509 -0.53717,1.059 -0.27627,1.16645 -1.31991,1.97987 -2.2408,0.49114 -1.07435,0.50648 -0.95157,0.85948 -0.27626,1.19714 -0.79809,0.92087 -1.1204,-0.0614 -1.07435,0.0461 0.0767,0.96692 1.88779,0.95156 0.39904,0.84414 0.33765,0.92087 0.29162,0.36835 0.24556,0.39905 -0.87483,1.42735 0.53718,0.35301 0.55252,0.27626 -0.61391,0.85948 -1.1204,0.27626 -3.36119,1.78036 -1.8571,0.24556 -1.96452,-0.0614 -1.4734,0.10744 -1.25853,0.21487 -3.25376,-0.44509 -3.08493,-0.69065 -1.45805,-0.12279 -1.21248,-0.93622 0.21487,-0.61392 0.44509,-0.42974 -0.39905,-0.44509 0.0461,-0.98226 0.67531,-0.59857 -0.0921,-0.79809 -0.46043,-1.58084 -1.36597,-1.0283 -1.73431,-0.56787 -0.50648,-1.73431 0.4144,-2.22545 -0.3837,-0.3837 -0.33765,-0.46044 0.33765,-0.44508 0.44509,-0.15349 0.82878,-0.7367 0.52183,-0.84412 -0.19952,-0.0461 -0.0767,-0.19953 1.70362,0.15349 2.65518,3.9751 1.73432,1.02831 1.28922,-1.36597 0.70601,-1.99522 -0.70601,-0.96692 -0.89018,-0.84414 -1.04366,-1.93383 -0.46043,-0.21487 -0.49113,0.15348 1.35061,-1.07435 2.14871,0.26091 1.19714,-0.26091 1.7343,-1.21249 1.1511,-0.0154 1.02831,0.26092 3.82162,-4.54298 1.21249,-2.04127 -0.55253,-2.24079 -0.18417,-1.74966 1.02831,0.93622 0.84413,1.15109 0.62926,0.21487 0.50648,0.0614 1.36596,2.16406 z m 0.99761,-31.27901 3.19236,0.23022 3.06958,-0.56787 -0.0461,0.99761 0.42974,1.36596 0.13813,1.1511 -0.56787,2.83936 -0.58322,2.82401 0.29161,4.89598 -1.88779,-0.19952 -1.19714,0.18417 -0.65996,1.10505 -0.38369,0.32231 -0.42974,0.24556 -0.72135,-0.89017 -0.98227,0.47578 -2.44031,-0.0154 -1.88779,1.55014 -1.70362,0.26091 -2.2101,-1.8264 -0.87483,-0.353 -0.82878,0.50648 -0.35301,0.93622 0.19952,2.2101 -1.27387,1.39666 -2.1794,-0.12279 -3.77558,-2.37892 -1.22784,-1.68827 0.0307,-0.61392 0.33765,-0.46043 0.12279,-0.72135 -0.16883,-0.75205 -0.30696,-0.62926 -0.353,-0.59857 -0.59856,-1.21248 0.13813,-1.25853 0.84413,-0.7674 0.21487,-0.52183 -0.0154,-0.55252 0.18418,-0.706 0.0154,-0.69066 -1.08971,-1.07435 -0.3223,-1.8571 -0.16883,-2.01057 -0.30696,-0.42974 -0.21487,-0.15348 -0.0154,-1.02831 -0.41439,-1.02831 -0.58322,-0.99762 -0.42974,-0.93622 -0.44509,-0.12278 -0.52183,-0.29161 -0.15348,-1.05901 0.27627,-0.98227 1.25852,-0.93621 1.99523,-0.7367 1.059,-1.27388 0.95157,0.0461 0.70601,0.46043 0.89018,-0.61391 0.44509,-0.72136 0.41439,-0.2916 0.3837,-0.23022 -0.0461,-0.41439 -0.12278,-0.27626 0.75205,-0.7981 0.56786,-0.85948 v -1.12039 l 0.32231,-0.95158 h 0.59857 l 0.44509,0.10744 0.353,-0.24556 1.15109,-1.21249 0.7674,-0.69066 1.13574,-0.56787 1.24318,-0.50648 0.52183,0.50648 0.81344,0.93622 -0.0154,1.05901 0.3223,0.353 0.50649,0.18418 0.38369,-0.24557 0.0153,-0.3837 0.72136,-0.33766 0.69065,0.19953 0.93622,0.18417 0.87483,0.52184 -1.78035,1.87243 -0.58322,2.83936 -0.16883,1.38132 -0.56787,2.42496 -0.19952,0.42974 -0.12278,0.42975 -1.71897,0.3837 -0.39904,1.65757 0.79809,3.63745 -0.10744,1.16644 0.59857,0.84414 1.56549,0.33765 1.48874,-0.61392 1.18179,-1.08969 0.50648,0.72135 0.90552,0.56787 0.26091,-1.059 z m -20.30527,15.96181 0.706,-0.16882 0.706,-0.33766 1.22784,1.68827 3.77558,2.37892 2.1794,0.12279 1.27388,-1.39666 -0.19953,-2.2101 0.35301,-0.93622 0.82879,-0.50648 0.87482,0.353 2.2101,1.8264 1.70362,-0.26091 1.88779,-1.55014 2.44032,0.0154 0.98226,-0.47578 0.72135,0.89017 0.42974,-0.24556 0.3837,-0.32231 0.65996,-1.10505 1.19713,-0.18417 1.8878,0.19952 0.52182,9.07061 1.30458,4.3281 -0.10744,1.94919 -1.59618,1.50409 -1.27388,0.353 -0.75205,0.46044 -2.47101,-0.50648 -2.54774,0.38369 -2.17941,-0.16882 -1.36596,-2.16406 -0.50648,-0.0614 -0.62926,-0.21487 -0.84414,-1.15109 -1.02831,-0.93622 0.18418,1.74966 0.55252,2.24079 -1.21248,2.04127 -3.82163,4.54298 -1.02831,-0.26092 -1.15109,0.0154 -1.73431,1.21248 -1.19714,0.26091 -2.14871,-0.26091 -1.35061,1.07435 0.49113,-0.15348 0.46044,0.21487 1.04365,1.93383 0.89019,0.84414 0.706,0.96692 -0.706,1.99522 -1.28923,1.36597 -1.73431,-1.02831 -2.65519,-3.9751 -1.70361,-0.15349 0.0307,-1.18178 0.42974,-0.92088 -0.42974,-0.75204 -0.90553,-2.16406 0.67531,-0.62926 2.05662,-0.33766 0.93622,-1.01296 0.65996,-0.0461 0.64461,-0.15349 0.46044,-0.7367 0.33765,-0.78274 -0.69066,-0.87483 -0.85948,-0.85948 -0.0154,-0.87483 0.13813,-1.07435 -0.72135,-0.87483 -1.50409,-0.84413 -0.50648,-0.35301 0.10743,-1.16643 -2.57844,-2.25615 -0.72135,-1.84174 1.22782,0.13813 1.05901,-0.30696 -0.0921,-0.29161 -0.0461,-0.3837 0.19953,-0.353 0.24556,-0.3223 0.19952,-1.21249 h 0.84414 l 0.92087,0.65996 1.02831,0.0767 0.0767,-0.61392 -0.0921,-0.6753 0.87483,-0.49114 0.85948,0.15348 0.62927,-0.30695 -0.353,-0.81344 z"
       inkscape:connector-curvature="0" />
    <path
       id="Eastern-Province"
       style="display:inline;fill:#fefee4;stroke:#808080;stroke-width:0.15347895;stroke-opacity:1"
       d="m 228.28768,51.262307 1.1511,-0.322303 0.93622,-0.414396 0.0307,0.936223 0.69066,0.506483 -0.62926,0.598565 -0.56788,0.659961 0.93622,0.736699 1.01297,-0.07674 0.81343,-0.767397 0.61392,-1.07435 0.39904,-0.982264 2.14871,2.59379 1.91849,3.284453 0.76739,0.798089 1.0897,0.322302 0.87483,0.706007 1.27388,3.100273 0.6753,0.706001 1.45805,0.659961 0.7367,1.565485 0.82879,3.130971 0.15348,-0.567873 0.18417,-0.230216 0.32231,0.07674 0.58322,0.322308 -0.16883,0.567868 1.64222,1.811055 0.55253,0.890176 v 1.0897 l -0.42974,0.429745 -0.61392,0.276262 -0.56787,0.659954 0.87483,-0.230215 0.33766,-0.184175 1.30457,2.808662 0.18417,1.473398 -1.48874,0.230221 0.30695,-0.96692 -0.39904,-0.78274 -0.64461,-0.09209 -0.47579,1.02831 0.15348,0.798088 0.42974,0.567874 0.23022,0.613913 -0.44509,0.920874 -0.99761,-0.767391 -1.02831,-0.644611 -1.02831,-0.245571 -0.99761,0.429745 -0.7674,1.028304 0.26091,0.552525 0.92088,-0.153477 1.24318,-1.012961 0.84413,0.905524 0.7674,1.0897 0.93622,0.905531 1.30457,0.368349 2.73192,-0.04606 0.92088,-0.598565 -0.61392,-1.396659 1.56549,-0.721351 0.62926,-0.184174 0.64461,0.04606 0.72135,0.414396 0.65996,0.706001 0.49114,0.813438 0.42974,2.40962 0.92087,3.084924 0.0614,1.626881 -0.75205,-0.537175 -0.78275,-1.596183 -0.706,-0.337652 -0.0154,0.445088 0.30696,2.087312 0.3223,0.752048 0.7674,0.353 h 0.81344 l 0.62926,0.291611 0.3837,2.302184 0.52182,1.857097 0.13814,0.966914 -5.34107,-0.567873 -0.98226,0.353007 h -0.92088 -0.7367 l -0.55252,0.583216 -0.3837,0.72135 -0.44509,0.337657 -0.41439,0.353001 -0.3837,1.565485 -0.29161,0.583222 -0.84413,1.964534 -1.48875,0.33765 -0.29161,-0.0921 -0.23022,-0.16884 0.67531,-0.42973 0.32231,-0.752055 -0.19953,-1.135741 0.0154,-0.782745 -0.0921,-0.752048 -0.41439,-0.613914 -0.75205,0.06139 -1.059,-0.537176 -0.95157,-0.736699 -0.98227,-0.567873 h -1.07435 l -4.49693,-1.105048 -2.50171,0.24557 -0.7367,-0.736699 -0.24557,-1.258531 -0.92087,-0.706002 -0.96691,-0.383698 -0.69066,-1.02831 -0.89018,0.260913 1.28922,-4.604368 0.13813,-0.752042 0.24557,-0.736699 0.7367,-0.706007 0.84413,-0.552525 0.49114,-0.890176 -0.39905,-0.920873 -0.69065,-0.537176 -0.53718,-0.675309 -0.82879,-1.995224 -1.58083,-2.332882 -0.24556,-1.442701 -0.62927,-0.613919 -0.50648,-0.567868 -0.0461,-1.227833 0.92087,-2.148707 -0.44508,-1.258526 -1.10505,-2.40962 -0.0307,-2.578447 0.99761,-1.488747 0.69065,-1.550136 -0.55252,-0.429739 -0.49113,-0.644612 -0.90553,-1.01296 -2.59379,-1.81105 -1.5041,-0.859484 -1.74966,-0.03069 -1.67292,0.690652 0.26091,-1.059002 0.49114,-0.844135 2.33288,-1.0897 2.74727,-0.368349 1.13574,-0.322309 z m 25.10916,43.158285 0.30696,3.13097 -0.47579,9.454298 0.44509,2.2101 0.98227,2.16405 0.49114,2.2408 -0.53719,0.046 -2.16405,-0.29161 -1.68827,0.24557 -1.33526,0.89017 -0.44509,1.74966 -0.53718,4.61972 0.84413,4.63507 1.61153,0.32231 1.91849,-0.0921 1.58083,0.52183 2.02593,2.9468 1.31991,1.25852 1.81106,0.50649 1.88779,0.36835 -0.0921,1.7957 -0.58322,1.74966 0.12278,0.99761 0.53718,0.89018 1.87244,1.13574 1.01297,0.98227 3.89836,0.6753 3.95976,-0.42974 1.38131,-0.78274 0.0307,1.50409 0.46043,1.4734 0.18418,3.39189 0.42974,0.96692 2.08732,-2.05662 1.19713,-0.98227 1.62688,-0.26091 1.13574,-0.18418 -0.0461,-0.21487 0.62927,-0.47578 -0.42975,-0.3837 -0.16882,-0.33765 -0.12278,-0.33766 -0.29161,-0.38369 -0.30696,-0.53718 0.26091,-0.36835 0.42974,-0.32231 0.23022,-0.41439 -0.0614,-0.24557 -0.29161,-0.56787 -0.0614,-0.19952 0.353,-1.51944 0.0614,-0.10744 -1.10505,-2.80866 -0.3223,-0.47579 -1.38131,-1.01296 -0.69066,-0.26091 0.21487,0.82879 -0.36835,0.44508 -0.27626,-0.56787 -0.10744,-0.41439 0.0767,-0.33766 0.30696,-0.353 -0.64461,-1.0897 -0.61392,-0.706 -1.58083,-1.48875 0.0921,-0.64461 -0.36835,-0.44509 -0.64461,-0.3223 -0.70601,-0.26092 -0.44509,0.61392 -0.58322,0.21487 -0.69065,-0.0921 -0.706,-0.32231 0.41439,-1.33527 0.61391,-0.64461 0.81345,-0.0614 0.99761,0.353 0.76739,0.67531 1.45805,1.8571 0.59857,0.41439 1.31992,-0.39904 -0.13813,-1.15109 -0.82879,-1.31993 -2.5631,-2.68588 -0.61391,-1.01296 -0.4144,-1.24318 h -0.39904 l -1.27388,0.21487 -1.22783,-1.41201 -0.69066,-2.04127 0.35301,-1.30457 0.21487,-0.15348 0.32231,-0.21487 0.27626,-0.0154 -0.4451,-0.72135 -1.19713,-0.92087 -0.42974,-0.81344 -0.0154,-0.7367 0.19952,-0.47579 0.12279,-0.49113 -0.30696,-0.75205 -0.30696,0.24557 -0.59857,0.29161 -0.30696,0.24557 -0.0461,-0.26092 -0.0767,-0.16882 -0.12278,-0.13814 -0.12279,-0.21487 0.26092,-0.2916 -0.26092,-0.56788 -0.16882,0.27627 -0.39905,0.29161 -0.27626,0.2916 -0.7367,-1.68826 -0.42974,-0.70601 -0.65996,-0.7367 -0.50648,-0.82879 -0.49113,-2.16405 -0.47579,-0.87483 h -0.36835 l -0.33765,1.28922 -0.99761,0.0767 -1.04366,-0.7674 -0.49113,-1.25852 -0.10743,-0.18418 -0.50649,-0.15348 -0.19952,-0.23022 -0.0767,-0.36835 v -0.29161 l 0.0461,-0.18417 0.0307,0.0154 -0.0614,-0.59857 0.0614,-1.887789 h 0.44509 l 0.90553,2.501709 0.67531,2.82401 1.0897,-1.5041 -0.47578,-2.731919 -1.41201,-4.819241 -5.34107,-0.567873 -0.63898,0.273785 m 24.30543,31.128008 0.75205,0.75205 0.7367,1.73432 0.53718,0.79809 0.69065,1.84175 2.10267,3.36118 1.01296,5.23363 -0.0461,1.19714 -0.87483,0.7367 -0.84413,-0.6753 -0.36835,-0.3837 -0.0767,-0.59857 0.24556,-3.89836 -0.16882,-1.30458 -0.65996,-0.55252 -0.24557,-0.53718 -1.97988,-2.93144 -0.12278,-0.62927 -0.49113,-1.0897 -0.19953,-0.58322 0.0307,-0.62927 0.18417,-0.55252 0.0767,-0.58322 -0.29161,-0.70601 m 9.7153,41.96114 0.0921,1.24318 -0.33763,2.39427 -2.73192,9.51569 -0.15348,0.98227 -0.0614,1.30457 -0.19953,1.07436 -0.85947,1.68827 -0.18418,0.7367 -0.33766,1.0283 -1.70361,2.65519 0.41439,1.45805 -0.65996,1.73431 -3.77558,6.01638 -0.52183,-0.18418 -1.4427,-0.44509 -0.99761,-1.13574 -0.75205,-0.10744 -0.69066,-0.0461 -1.76501,-2.19474 1.5348,-22.02423 -0.29161,-1.18179 -0.70601,-1.02831 -0.0154,-1.15109 -0.39904,-1.16644 0.27626,-1.18179 0.10743,-1.12039 -1.74966,-1.05901 -2.11801,-0.55253 -0.30696,-0.27626 -0.36835,-0.21487 h -0.44508 l -0.47579,-0.21487 -0.46044,-0.82878 -0.24556,-0.92088 -0.7674,-1.41201 0.69066,-1.85709 1.24318,-1.4734 0.96692,-0.76739 -1.28922,-1.78036 -0.16883,-1.28922 -0.82879,-1.45805 -1.31992,-1.15109 -0.24556,-1.15109 0.0921,-1.4427 -0.706,-3.16167 0.12278,-0.79809 -0.39904,-0.0767 -0.36835,-0.21487 0.87483,-1.38131 -1.16644,-0.30696 -1.48875,0.79809 -0.72135,0.24557 -0.65996,0.29161 -0.21487,0.56787 -0.39905,0.64461 -0.82878,0.21487 -0.61392,0.0461 0.0154,0.78274 0.3223,0.706 0.0767,0.706 -0.27626,0.58323 -0.4144,0.50647 -0.27626,0.4144 -1.19713,0.6753 -1.4734,-0.0614 v 2.30219 l 0.3223,2.22544 -1.10505,0.81344 -1.21248,0.42974 -0.52183,-0.98226 -0.46044,-1.15109 -0.21486,-1.07436 -0.52184,-1.0897 -0.41439,-0.69065 -0.24557,-0.53718 -0.7367,-0.13813 -0.52182,0.12279 -0.89018,-0.89019 -0.64461,-1.39666 -0.39905,-2.63983 -0.23021,-0.75205 -0.18418,-0.7367 0.16883,-0.53717 0.33765,-0.61392 0.61392,-2.9161 -0.21487,-3.00819 -2.63984,-0.56787 -2.9161,1.62688 -1.27388,1.18179 -0.72135,0.27626 -0.58322,0.13813 -1.0897,0.3837 -1.45805,-2.45567 -0.47578,-1.4427 -0.0767,-0.96692 -0.3837,-0.85948 -0.90553,-0.55252 -0.15347,-0.15348 0.56786,-2.83936 -0.13812,-1.1511 -0.42974,-1.36596 0.0461,-0.99761 h 1.12039 l 2.2101,-0.21487 1.0897,-0.19953 2.16406,0.84414 1.74966,1.76501 2.8854,0.89017 1.39666,0.81345 1.15109,0.13813 0.15348,-0.62927 0.27626,-0.69066 0.3837,-0.39904 0.3223,-0.64461 -0.18417,-1.42736 0.26091,-1.35061 1.61153,0.3223 1.91849,-0.0921 1.58083,0.52183 2.02593,2.9468 1.31992,1.25852 1.81105,0.50648 1.88779,0.36835 -0.0921,1.7957 -0.58322,1.74966 0.12278,0.99762 0.53718,0.89018 1.87244,1.13574 1.01296,0.98227 3.89837,0.6753 3.95976,-0.42974 1.38131,-0.78274 0.0307,1.50409 0.46044,1.4734 0.18418,3.39188 0.42974,0.96692 2.08731,-2.05662 1.19714,-0.98226 1.62687,-0.26091 1.13575,-0.18418 0.0614,0.24557 0.47578,0.0921 0.49114,-0.61392 h 0.36835 l 0.46044,2.42496 -0.0154,0.89019 h 0.4144 l 0.0461,-0.85949 0.13813,-0.82878 0.26092,-0.72135 0.353,-0.49114 v -0.41439 l -0.15348,-0.47578 0.10743,-0.18418 0.32231,0.13813 0.53717,0.52183 0.18418,0.47578 0.13813,1.27388 0.90553,1.45805 1.48874,5.0955 -0.27626,14.12006 0.13813,0.95157 z"
       inkscape:connector-curvature="0" />
    <path
       id="North-Central-Province"
       style="display:inline;fill:#fefee4;stroke:#808080;stroke-width:0.15347895;stroke-opacity:1"
       d="m 188.3985,101.32714 -5.4792,-2.517052 -1.27387,-0.72135 -0.67531,-0.859484 -0.87483,-0.706002 -1.19713,0.04606 -1.05901,-0.798089 -1.01296,0.460437 h -1.22784 l -0.36835,-1.059008 -1.47339,-6.047069 -0.87483,-1.68827 0.64461,-1.488741 0.99761,-0.460437 0.27627,-0.537181 0.0767,-0.41439 1.85709,-1.519445 1.07435,-2.302184 -0.33765,-2.47101 0.49114,0.24557 0.58321,0.06139 0.12279,-5.555941 -0.47579,-3.530012 2.63984,1.0897 h 2.9161 l 5.78616,-1.519444 0.0154,1.949183 0.61391,1.688271 0.90553,0.322302 0.87483,0.399048 0.3837,0.736699 0.21487,0.813437 0.62926,1.273874 1.25853,0.67531 0.61391,0.168826 0.58322,0.03069 0.90553,-1.642224 1.05901,-0.460437 1.10504,-2.578446 2.34823,-3.054232 1.81105,-0.828787 1.0897,0.583216 1.01297,0.721356 1.88778,-0.01537 1.58084,-1.212484 1.50409,-1.350613 1.30458,-1.519445 0.706,-1.105048 0.84413,-1.012961 1.41201,-1.120398 -0.50648,-1.565485 -1.0897,-1.412002 -1.55014,-0.537182 -0.10744,-1.319914 4.4202,-0.138134 1.73431,-1.212479 1.55014,-0.445094 1.64222,-0.306954 1.67292,-0.690658 1.74966,0.03069 1.5041,0.859484 2.59379,1.81105 0.90553,1.01296 0.49113,0.644612 0.55252,0.429739 -0.69065,1.550137 -0.99761,1.488746 0.0307,2.578447 1.10505,2.40962 0.44509,1.258526 -0.92088,2.148707 0.0461,1.227834 0.50648,0.567867 0.62927,0.61392 0.24556,1.4427 1.58084,2.332882 0.82878,1.995224 0.53718,0.67531 0.69065,0.537175 0.39905,0.920874 -0.49114,0.890176 -0.84413,0.552524 -0.7367,0.706007 -0.24557,0.736699 -0.13812,0.752042 -1.28923,4.604368 -0.76739,0.798095 -0.44509,1.074351 -0.24557,1.043658 -0.76739,0.445088 h -2.6245 l -2.34822,0.445088 -0.87483,2.302185 -0.49113,2.517056 -0.85949,2.256136 -0.39904,2.34823 -0.10743,2.08731 1.19713,0.95158 -1.16644,1.62687 -0.0767,1.58083 -1.24318,0.50648 -1.13575,0.56788 -0.76739,0.69065 -1.15109,1.21249 -0.353,0.24556 -0.4451,-0.10743 h -0.59856 l -0.32231,0.95157 v 1.12039 l -0.56787,0.85948 -0.75204,0.7981 0.12277,0.27626 0.0461,0.41439 -0.38369,0.23022 -0.41439,0.29161 -0.44509,0.72135 -0.89019,0.61392 -0.706,-0.46044 -0.95157,-0.0461 -1.059,1.27388 -1.99523,0.7367 -1.25853,0.93622 -1.51944,-1.4427 0.23022,-2.08731 -0.29161,-1.41201 -0.55253,-1.39666 -0.15347,-0.99761 -0.49114,-0.82879 -0.96691,-0.0767 -0.82879,-0.353 -0.10743,-1.02831 0.0767,-1.10505 -0.16883,-1.27387 0.10744,-0.7674 -0.0154,-0.7367 -0.90553,-0.7367 -1.1204,0.0307 -1.07435,-0.65996 -0.96692,-0.98227 -1.78035,-1.45805 -1.97988,-0.76739 -1.0897,-0.15348 -0.89018,-0.64462 -1.13574,-0.46043 z m 60.57815,14.9335 -0.53718,4.61972 0.84413,4.63507 -0.26091,1.35061 0.18417,1.42736 -0.3223,0.64461 -0.3837,0.39904 -0.27626,0.69066 -0.15348,0.62927 -1.15109,-0.13813 -1.39666,-0.81345 -2.88541,-0.89017 -1.74966,-1.76501 -2.16405,-0.84414 -1.0897,0.19953 -2.21009,0.21487 h -1.1204 l -3.06958,0.56787 -3.19236,-0.23022 -0.13813,1.07436 -0.26092,1.059 -0.90552,-0.56787 -0.50648,-0.72135 -1.18179,1.0897 -1.48875,0.61392 -1.56548,-0.33766 -0.59857,-0.84414 0.10743,-1.16643 -0.79808,-3.63746 0.39904,-1.65757 1.71897,-0.3837 0.12277,-0.42974 0.19953,-0.42974 0.56787,-2.42497 0.16883,-1.38131 0.58322,-2.83936 1.78036,-1.87244 -0.87484,-0.52184 -0.93622,-0.18417 -0.69065,-0.19952 -0.72135,0.33765 -0.0154,0.3837 -0.3837,0.24557 -0.50648,-0.18418 -0.32231,-0.353 0.0154,-1.05901 -0.81343,-0.93622 -0.52184,-0.50648 0.0767,-1.58083 1.16645,-1.62688 -1.19714,-0.95157 0.10744,-2.08731 0.39904,-2.34823 0.85948,-2.256138 0.49114,-2.517056 0.87483,-2.302185 2.34823,-0.445088 h 2.62448 l 0.7674,-0.445088 0.24557,-1.043658 0.44508,-1.074351 0.7674,-0.798095 0.89018,-0.260913 0.69065,1.02831 0.96692,0.383699 0.92087,0.706001 0.24557,1.258531 0.7367,0.736699 2.5017,-0.24557 4.49694,1.105048 h 1.07435 l 0.98227,0.567873 0.95157,0.736699 1.059,0.537176 0.75205,-0.06139 0.41439,0.613914 0.0921,0.752048 -0.0154,0.782745 0.19953,1.135741 -0.32231,0.752048 -0.67531,0.42974 0.23022,0.16883 0.29161,0.0921 1.48875,-0.33766 0.84413,-1.964527 0.29161,-0.583222 0.3837,-1.565485 0.41439,-0.353 0.44509,-0.337658 0.3837,-0.72135 0.55252,-0.583216 h 0.7367 0.92088 l 0.30695,3.13097 -0.47579,9.454298 0.4451,2.2101 0.98226,2.16405 0.49114,2.2408 -0.53718,0.046 -2.16406,-0.29161 -1.68827,0.24557 -1.33526,0.89017 z"
       inkscape:connector-curvature="0" />
    <path
       id="Northern-Province"
       style="display:inline;fill:#fefee4;stroke:#808080;stroke-width:0.15347895;stroke-opacity:1"
       d="m 188.35246,34.149405 0.15347,1.672921 -1.56548,-0.199523 -1.13574,0.859484 -1.25853,0.629263 -2.04127,0.184174 h -0.42974 l 0.36835,-1.458049 v -3.49932 l 0.12278,-0.506483 -0.10743,-0.337652 -0.70601,-0.138128 -1.64222,-0.859484 -0.62927,-0.583222 -0.47578,-1.335264 -0.27627,-1.412009 -0.0307,-0.798088 0.70601,-0.752048 1.31992,-0.659961 1.45805,-0.460436 1.19714,-0.184175 0.53717,-0.260913 1.30457,-1.74966 0.3837,-0.276263 0.42974,-0.260913 0.53718,-0.199523 0.67531,-0.107437 -0.55253,-1.043658 -0.69066,-0.920874 -0.87482,-0.874827 -1.1511,-0.859484 -4.40484,-2.578447 -0.87484,-1.105042 1.9185,0.06139 1.7957,0.736693 3.5914,2.071969 3.42259,0.859484 0.89017,0.567873 1.41201,1.243177 0.33765,0.644612 -0.72135,0.368349 0.15348,0.414396 0.21487,0.41439 -0.36835,0.399048 1.24318,0.844135 2.9468,-0.721356 5.35641,-2.133353 1.44271,0.138128 3.17701,0.874833 3.72954,1.688265 2.82401,0.537175 0.0307,0.03069 -0.30696,0.260914 -0.12278,0.997618 -1.27387,0.997612 -0.16884,1.365962 0.15349,1.350613 -1.35062,-0.736699 -1.16644,-0.982264 -0.46044,-0.567873 -0.27626,0.09209 -0.82878,2.716581 -0.99762,0.537175 -1.50409,0.09209 -2.71658,-0.138134 -0.79809,0.03069 -1.01296,2.593795 -1.58083,0.153483 -1.59618,-0.291611 -1.62688,0.01537 -4.55833,0.537175 z m 13.44475,-18.908609 0.75205,2.286841 0.12278,0.613914 -0.7367,0.03069 -0.47578,0.184175 -0.19952,0.322309 -0.21487,0.10743 -0.79809,-0.567867 -0.32231,-0.0614 -1.91849,0.04606 -0.55252,-0.153477 -4.23602,-3.668146 -1.81105,-1.166438 -0.64461,-0.291611 1.24317,-2.194748 0.81344,-1.718962 2.83937,3.100273 1.84175,1.151089 z m 10.57471,7.643258 -0.27627,0.230215 -0.0307,-0.03069 -4.03649,-2.762621 -1.39666,-0.659961 -1.22784,-0.260913 -0.36835,-0.168826 -1.07435,-0.813437 -0.39904,-0.24557 -0.41439,-0.06139 -0.47579,0.03069 -0.12279,-0.613914 -0.75204,-2.286841 0.13813,0.0614 v -0.445093 l -2.16405,-1.089699 -5.21828,-4.2667171 -4.28206,-4.9420203 -2.16406,-1.1664381 -3.42258,-0.8134375 -0.89018,-0.6446116 -0.12278,-0.9055248 1.24318,-0.55253004 1.65757,-0.26091326 2.4558,-0.13806434 1.18166,0.23015172 0.82878,0.58322193 0.53718,1.94918369 0.55252,0.8287863 7.76604,9.1473414 1.15109,0.844136 2.33288,1.319915 9.36222,7.597211 z m -52.81212,-3.038884 -0.95156,0.905525 -1.5041,0.09209 -1.39666,-0.460436 -0.61391,-0.752048 -5e-4,-2.47101 0.16932,-0.61392 0.39905,0.07674 0.41439,0.506478 0.24557,0.629263 1.01296,0.322308 1.22783,0.09209 0.30696,0.230215 z m 9.74592,-14.9335028 -0.21487,0.7060071 -0.16883,0.8287805 0.0154,0.8134433 0.10744,0.7060012 0.24556,0.5985651 0.49114,0.5525242 0.24556,0.061395 1.1511,-0.061395 0.19951,0.1841747 0.0767,0.9055307 0.15348,0.368349 0.67531,0.42974 0.92087,0.383698 0.7674,0.445088 0.26091,0.567873 -0.41439,0.429739 h -0.78275 l -0.84413,-0.260913 -0.58322,-0.36835 -0.42974,-0.107436 -1.05901,0.629263 -0.75204,0.09209 -0.92088,-0.675303 -0.92087,-1.365968 -1.4427,-2.8854002 0.65996,-1.0283099 0.15348,-1.3045721 0.36835,-1.0743507 1.28922,-0.2762621 0.706,0.2148724 z m 23.51297,4.097891 -0.81344,1.7189618 -1.24317,2.194749 -3.05423,-1.335264 -1.10505,-0.629269 -0.7367,-0.01537 0.13813,1.458055 0.41439,0.429739 0.64461,0.491135 0.36835,0.583216 -0.38369,0.767391 -0.44509,0.138134 -0.42974,-0.230222 -0.39905,-0.337652 -1.13574,-0.583216 -2.22545,-1.949183 -1.28922,-0.537176 0.65996,0.706002 1.16644,1.012961 0.65996,0.736699 -1.44271,-0.276265 -1.42735,-0.598565 -2.8547,-1.580834 -2.28685,-1.7957064 -1.35061,-0.4757799 -0.64461,-0.4143961 -0.47579,-0.1995236 -0.0767,0.429745 -0.64462,-0.4450938 -0.24556,-0.5832162 -0.12279,-0.6906582 -0.23021,-0.7827397 -0.3837,-0.6599605 -0.84413,-1.1050484 -0.39905,-0.6906582 1.28922,-0.6446116 2.34823,-2.16405035 1.04365,-0.4757857 4.65042,0.41439605 2.42497,-0.27626211 0.87483,0.10743623 0.353,0.79808858 -0.0614,1.2585255 0.16882,0.445088 0.52183,0.1688259 0.49113,0.061395 1.42736,0.3683495 0.29161,0.153477 0.26092,0.5371754 0.64461,-0.015372 0.69065,-0.2302155 0.50648,-0.061395 0.64461,0.3836983 z m 39.4441,39.5975638 0.23022,0.184175 -0.0154,0.414396 -0.27626,0.429739 -0.55253,0.199524 -0.15348,-0.184175 -0.65995,-1.043659 -0.70601,-0.383698 -1.62688,-0.414391 -0.95157,-0.429739 0.67531,0.936217 2.14871,2.010579 v 0.199518 l -0.93622,0.414396 -1.1511,0.322303 -1.02831,0.61392 -1.13574,0.322303 -2.74727,0.368349 -2.33288,1.0897 1.0897,-4.067188 -0.72135,-0.96692 -1.8878,-1.151089 -1.87244,-0.291611 -0.87483,0.598565 -0.92087,0.214872 0.0921,-0.813437 0.58322,-0.844135 -0.69066,-1.212485 -1.59618,-0.168826 -0.21487,-1.933835 -1.84175,-0.706001 -1.93384,0.06139 -0.13812,0.291611 -0.10744,0.306954 -0.56787,0.322308 -0.59857,0.291611 -1.01297,0.905525 -1.45804,0.644612 -0.92088,-1.365962 -1.48874,-0.936223 -2.04127,0.06139 -1.1511,-0.07674 -1.059,0.107436 -0.15348,0.874827 0.46044,0.629268 0.87483,0.138129 0.0614,0.491134 -0.0154,0.537176 0.21487,1.012961 0.0767,1.012961 -1.05901,1.611526 -1.65757,1.350618 -2.76262,1.734312 -9.80728,0.521826 0.75205,-2.148701 -0.26091,-0.414396 -0.29162,-0.537176 0.21488,-0.690658 0.30695,-0.690652 0.19952,-0.644612 0.26092,-0.598571 1.30457,-0.460437 0.0921,-1.227827 -0.13813,-1.39666 0.21487,-0.874833 0.0614,-0.920873 -0.0767,-0.445088 -0.10743,-0.414391 -1.10505,-1.74966 -0.36835,-1.964532 -0.0614,-2.041271 1.56548,0.199523 -0.15347,-1.672921 1.55013,-2.010574 4.55833,-0.537175 1.62688,-0.01537 1.59618,0.291611 1.58083,-0.153483 1.01296,-2.593795 0.79809,-0.03069 2.71658,0.138134 1.50409,-0.09209 0.99762,-0.537175 0.82878,-2.71658 0.27626,-0.09209 0.46044,0.567873 1.16644,0.982264 1.35062,0.736699 -0.15348,-1.350613 0.16883,-1.365962 1.27387,-0.997612 0.12278,-0.997612 0.30696,-0.260919 0.27626,-0.230216 0.36835,-0.30696 7.02934,5.709417 0.49114,0.798095 0.65995,0.828786 1.27388,1.212479 0.81344,1.043659 -0.72135,0.383698 -0.46044,-0.214872 -0.62927,-0.798089 -0.353,-0.184175 -1.07435,-0.184174 -0.46043,0.153477 0.30696,0.629262 3.08492,2.870058 1.21248,0.65996 -0.47578,-0.736699 -0.29161,-0.675309 0.13813,-0.506478 0.82879,-0.199523 0.3837,0.260913 0.62926,1.857096 2.83936,5.663376 -1.71896,-0.629268 -0.78275,-0.01537 -0.33765,0.859484 0.46044,0.214872 0.96691,0.153477 0.85948,0.552525 0.13813,1.365961 h 0.4144 l 0.19952,-0.353 0.16883,-0.138128 0.19952,-0.107437 0.27626,-0.184174 0.33766,1.350612 0.84413,1.918486 1.1204,1.718968 z m -59.64192,27.933171 -1.56549,-0.598571 -0.69066,-0.399041 0.23022,-0.230222 0.67531,-2.133358 0.12278,-0.122779 0.13814,-0.537182 0.55252,-1.197135 0.53718,-5.847546 -1.44271,-3.729541 0.12279,-0.644612 0.0921,-4.312757 -0.13813,-1.412002 -0.16883,-0.690658 -0.30696,-0.537176 -0.24557,-0.598565 0.55253,-0.291611 0.79809,-0.153483 0.52183,-0.168825 3.45328,-3.100273 1.7957,-0.890176 0.7367,-0.659961 0.39904,-1.458049 0.72135,-1.504096 0.39905,-2.087311 1.91849,-4.942027 0.24556,-0.997612 h 0.42974 l 2.04127,-0.184174 1.25853,-0.629263 1.13574,-0.859484 0.0614,2.041271 0.36835,1.964532 1.10505,1.74966 0.10743,0.414391 0.0767,0.445088 -0.0614,0.920873 -0.21487,0.874833 0.13813,1.39666 -0.0921,1.227827 -1.30457,0.460437 -0.26091,0.598571 -0.19953,0.644612 -0.30695,0.690652 -0.21487,0.690658 0.29161,0.537176 0.26091,0.414396 -0.75205,2.148701 9.80731,-0.521826 1.61153,0.752048 0.92087,1.473397 0.90553,2.302185 -0.30696,2.10266 -3.19236,1.166438 -3.34584,0.429739 -2.14871,-0.245564 -1.65757,0.920873 -0.89018,2.010574 -1.53479,0.153483 -0.21487,0.890176 -0.0154,0.782739 1.39666,1.074357 2.25614,2.900749 -5.78616,1.519445 h -2.9161 l -2.63984,-1.0897 0.47579,3.530012 -0.12279,5.55594 -0.58321,-0.06139 -0.49114,-0.24557 -1.58083,-0.905525 -1.51944,-0.644611 z m -11.40349,-32.89054 2.39427,0.613914 2.5324,0.96692 2.40962,1.412008 2.04127,1.964527 -0.98227,-0.214867 -1.71896,-0.844135 -0.99761,-0.168826 2.76262,3.146314 0.52183,0.936223 -1.412,-0.168826 -0.93623,-0.72135 -0.62926,-0.782746 -0.49113,-0.368349 -0.61392,-0.306954 -2.44032,-2.179405 -2.44031,-1.0897 -1.35062,-0.383698 -1.30457,-0.138129 -0.65996,-0.260913 -0.29161,-0.583222 0.18418,-0.567873 0.76739,-0.260913 z m 28.94613,29.02287 -0.61392,-1.68827 -0.0154,-1.949184 -2.25614,-2.900749 -1.39666,-1.074357 0.0154,-0.782739 0.21487,-0.890176 1.53479,-0.153483 0.89018,-2.010574 1.65758,-0.920873 2.1487,0.245564 3.34584,-0.429739 3.19236,-1.166438 0.30696,-2.10266 -0.90552,-2.302185 -0.92088,-1.473397 -1.61153,-0.752048 2.76262,-1.734312 1.65757,-1.350618 1.05901,-1.611526 -0.0767,-1.012961 -0.21487,-1.012961 0.0154,-0.537176 -0.0614,-0.491134 -0.87484,-0.138129 -0.46043,-0.629268 0.15348,-0.874827 1.059,-0.107436 1.1511,0.07674 2.04126,-0.06139 1.48875,0.936223 0.92087,1.365962 1.45805,-0.644612 1.01296,-0.905525 0.59857,-0.291611 0.56788,-0.322308 0.10743,-0.306954 0.13813,-0.291611 1.93384,-0.06139 1.84175,0.706001 0.21487,1.933835 1.59618,0.168826 0.69065,1.212485 -0.58322,0.844135 -0.0921,0.813437 0.92088,-0.214872 0.87483,-0.598565 1.87244,0.291611 1.88779,1.151089 0.72135,0.96692 -1.0897,4.067188 -0.49113,0.844135 -0.26092,1.059008 -1.64222,0.306954 -1.55014,0.445093 -1.73431,1.212479 -4.42019,0.138134 0.10743,1.319915 1.55014,0.537181 1.0897,1.412002 0.50648,1.565486 -1.412,1.120397 -0.84414,1.012961 -0.70601,1.105049 -1.30456,1.519444 -1.5041,1.350613 -1.58083,1.212485 -1.88779,0.01537 -1.01296,-0.721356 -1.08971,-0.583216 -1.81105,0.828786 -2.34822,3.054232 -1.10505,2.578447 -1.05901,0.460436 -0.90552,1.642224 -0.58323,-0.03069 -0.61391,-0.168826 -1.25853,-0.675309 -0.62926,-1.273874 -0.21487,-0.813438 -0.3837,-0.736699 -0.87483,-0.399047 z"
       inkscape:connector-curvature="0" />
    <path
       id="North-Western-Province"
       style="display:inline;fill:#fefee4;stroke:#808080;stroke-width:0.15347895;stroke-opacity:1"
       d="m 167.84767,153.0956 -1.10505,0.29161 -1.41201,-0.0767 -2.57844,-18.83187 -0.353,-0.76739 0.23021,-0.27626 0.18418,-0.0154 0.42974,0.29161 0.0921,-1.04365 0.30695,-1.19714 0.13814,-1.16644 -0.32231,-0.90552 -0.46044,-0.81344 -0.16882,-1.10505 0.0154,-2.2101 -1.53479,-7.50513 -0.70601,-1.47339 -0.59856,-3.10028 -0.98226,-2.45566 -1.48875,-6.76842 v -1.91849 l 0.24556,0.10744 0.0307,0.0307 v 0.0614 l 0.12278,0.21489 0.21487,-1.12039 -0.30696,-3.545403 -0.30695,-1.074351 0.98226,-0.644612 0.92087,-1.197135 0.67531,-1.350619 0.26092,-1.151089 0.26091,-0.736699 1.76501,-2.77797 -0.90553,2.133358 -1.12039,1.995225 0.30696,0.613913 0.42974,0.429745 0.58322,0.230216 h 0.706 l -0.58322,1.626881 -0.59857,1.197135 -0.26091,0.214867 -0.27626,0.03069 -0.21488,0.168826 -0.0921,0.629263 0.0461,1.427357 -0.0461,0.429739 -1.01296,3.223053 0.10743,1.78036 1.35062,1.59618 -1.19714,2.48636 1.90314,1.38131 2.74727,0.21487 1.41201,-0.99761 -0.27627,-1.05901 -0.62926,-1.16644 -0.7367,-0.92087 -0.58322,-0.3837 -0.18417,-0.64461 1.99523,-3.82163 -0.0614,-0.69065 -0.26092,-0.52183 -0.29161,-0.42974 -0.18417,-0.44509 -0.0614,-0.72135 0.0767,-1.243177 -0.0154,-0.537175 -0.19951,-0.521832 -0.21488,-0.199524 -0.10743,-0.245564 0.10743,-0.659961 0.29161,-0.583216 0.7674,-1.012961 0.15348,-0.659961 0.13813,-1.258531 0.55252,-2.517051 0.56787,-5.8629 0.36835,-0.659954 0.3837,-0.337658 0.29161,-0.399041 0.13813,-0.874833 v -2.486359 l 0.33766,-1.227834 0.81344,-0.78274 0.95156,-0.65996 0.55253,-0.598565 0.69065,0.399041 1.56549,0.598571 1.74966,0.153477 1.51944,0.644612 1.58083,0.905525 0.33766,2.47101 -1.07436,2.302184 -1.85709,1.519445 -0.0767,0.41439 -0.27627,0.537181 -0.99761,0.460437 -0.64461,1.488741 0.87483,1.68827 1.4734,6.047069 0.36835,1.059008 h 1.22783 l 1.01296,-0.460437 1.05901,0.798089 1.19713,-0.04606 0.87483,0.706002 0.67531,0.859484 0.10744,1.151089 -0.0307,1.197129 0.62926,2.37893 0.21487,1.16644 0.55253,1.0897 0.81343,0.27626 0.72136,0.44509 -0.15348,0.72135 -0.23022,0.78275 0.0461,1.61152 -0.0614,1.36596 -0.44509,0.67531 -0.35301,0.706 0.72136,1.33527 -0.75205,0.58323 -1.22783,-0.70601 -0.353,0.58322 -0.0154,0.7367 -0.44509,0.47579 -0.3837,0.10743 0.0461,-0.10743 0.0767,-0.0921 -0.89018,0.39904 -0.36835,0.84413 -0.0767,0.59858 -0.24557,0.55252 -1.25852,0.64461 -0.27626,0.61392 -0.16883,0.65996 -0.7367,0.49113 -0.76739,0.39904 -0.21488,0.65996 -0.10743,0.706 -0.56787,1.45806 -0.18418,1.58083 0.32231,0.67531 0.23022,0.62926 -0.42975,0.55253 -0.64461,0.26091 -0.84413,0.0614 -0.76739,0.24556 -0.4144,0.69066 -0.2916,0.79809 0.72135,0.16882 0.33765,0.55253 -0.706,0.3837 -0.85949,0.23021 -0.42974,0.59857 -0.21487,0.67531 -0.89018,1.51944 -0.64461,1.65757 -0.12278,2.05662 0.10743,2.07197 2.19475,11.81788 0.15348,3.57606 -1.04365,-0.39905 -0.87484,0.53718 -0.69065,-0.0767 -0.46044,-0.52183 z m 21.64053,-0.46044 -1.22783,1.10505 -1.21248,0.69065 -1.02831,-0.75204 -1.48875,-1.68827 -0.33765,-0.50648 -0.16883,-0.50648 -0.53717,-0.59857 -1.65758,0.29161 -1.45805,1.04366 -1.71896,0.50648 -1.64223,-1.16644 -1.41201,0.0614 -2.27148,1.78036 -1.25853,0.50648 -0.15348,-3.57606 -2.19475,-11.81788 -0.10744,-2.07197 0.12279,-2.05662 0.64461,-1.65757 0.89018,-1.51944 0.21487,-0.67531 0.42974,-0.59857 0.85948,-0.23021 0.706,-0.3837 -0.33765,-0.55253 -0.72135,-0.16882 0.29161,-0.79809 0.41439,-0.69066 0.7674,-0.24556 0.84414,-0.0614 0.64461,-0.26091 0.42974,-0.55253 -0.23022,-0.62926 -0.32231,-0.67531 0.18418,-1.58083 0.56787,-1.45806 0.10744,-0.706 0.21486,-0.65996 0.7674,-0.39904 0.7367,-0.49114 0.16882,-0.65996 0.27627,-0.61391 1.25853,-0.64461 0.24556,-0.55253 0.0767,-0.59857 0.36835,-0.84413 0.89018,-0.39904 -0.0767,0.0921 -0.0461,0.10744 0.3837,-0.10744 0.44508,-0.47578 0.0154,-0.7367 0.35301,-0.58322 1.22783,0.706 0.75205,-0.58322 -0.72135,-1.33527 0.353,-0.706 0.44509,-0.67531 0.0614,-1.36596 -0.0461,-1.61153 0.23022,-0.78274 0.15347,-0.72135 -0.72135,-0.44509 -0.81343,-0.27626 -0.55253,-1.0897 -0.21487,-1.16644 -0.62926,-2.37893 0.0307,-1.197133 -0.10744,-1.151089 1.27388,0.72135 5.4792,2.517052 1.18178,0.29161 1.13575,0.46044 0.89018,0.64461 1.0897,0.15348 1.97988,0.76739 1.78035,1.45806 0.96692,0.98226 1.07435,0.65996 1.1204,-0.0307 0.90552,0.7367 0.0154,0.7367 -0.10743,0.7674 0.16882,1.27387 -0.0767,1.10505 0.10744,1.02831 0.82878,0.353 0.96692,0.0767 0.49113,0.82879 0.15349,0.99761 0.55252,1.39666 0.29161,1.41201 -0.23022,2.08731 1.51944,1.4427 -0.27626,0.98227 0.15348,1.059 0.52183,0.29161 0.44508,0.12279 0.42975,0.93622 0.58321,0.99761 0.4144,1.02832 0.0154,1.0283 0.21487,0.15348 0.30696,0.42974 0.16882,2.01058 0.32231,1.85709 1.0897,1.07435 -0.0154,0.69066 -0.18417,0.706 0.0154,0.55253 -0.21488,0.52183 -0.84413,0.76739 -0.13813,1.25853 0.59857,1.21248 0.353,0.59857 0.30696,0.62926 0.16882,0.75205 -0.12278,0.72135 -0.33765,0.46044 -0.0307,0.61391 -0.70601,0.33766 -0.706,0.16883 0.47578,0.76739 0.35301,0.81344 -0.62927,0.30695 -0.85948,-0.15347 -0.87483,0.49113 0.0921,0.67531 -0.0767,0.61392 -1.02831,-0.0767 -0.92087,-0.65996 h -0.84417 l -0.19952,1.21248 -0.24557,0.3223 -0.19953,0.353 0.0461,0.3837 0.0921,0.29161 -1.059,0.30696 -1.22783,-0.13813 -0.55252,-1.15109 -0.85948,-0.90553 -1.42736,-0.18418 -1.30457,0.52184 -0.21487,1.13574 0.0767,1.22783 -0.19952,0.706 -0.42974,0.58322 -0.62927,0.0307 -2.90075,0.64461 -1.39666,0.65996 z"
       inkscape:connector-curvature="0" />
    <path
       id="Southern-Province"
       style="display:inline;fill:#fefee4;stroke:#808080;stroke-width:0.15347895;stroke-opacity:1"
       d="m 217.05302,230.46434 1.51945,0.69065 0.3223,0.18417 -0.90552,1.05901 -2.44032,-0.13813 -1.01296,0.13813 -0.78274,0.30696 -0.82879,0.47578 -1.4427,1.0897 -0.82879,0.18409 -0.98227,-0.38361 -1.04365,-0.53718 -1.01296,-0.30695 -3.45328,0.41439 -0.96692,-0.19953 -0.50648,-0.50647 -0.3223,-0.64461 -0.42975,-0.67531 -1.01296,0.59857 -0.90552,0.0614 -1.59618,-0.23022 v -0.0614 l -0.10744,-0.62927 -0.0154,-0.65996 0.65996,-1.16644 1.07435,-0.39904 0.36835,-0.72135 -1.059,-0.44509 -0.46044,-0.24557 -0.18418,-0.62926 0.353,-0.56787 0.81345,-0.32231 0.95156,-0.96691 0.81344,-0.96692 -0.93622,-0.85949 -1.07435,-0.72135 -0.90553,-0.87483 -0.3837,-1.16644 0.53718,-1.16644 0.42974,-1.24317 -0.29161,-0.96692 -0.61391,-0.75205 2.08731,0.36835 1.04366,-1.27388 -0.44509,-1.71896 -1.25853,-1.79571 -1.18179,-0.76739 -0.58322,-1.10505 0.95157,-0.26091 0.98227,0.29161 1.25853,0.95157 1.13574,1.07435 1.8264,0.42974 0.353,-1.70362 -0.90553,-0.92087 -0.706,-1.07435 0.79809,-0.81344 1.22783,-0.36835 1.16644,-0.16883 1.16645,-0.27626 0.39904,-0.96692 1.01296,-0.0154 2.60914,-0.33765 0.85949,1.58083 -0.3837,1.07436 1.059,0.18417 1.42736,-0.23022 0.65996,0.81344 -0.0461,0.56787 0.76739,0.56787 -0.3223,0.32231 v 0.56787 l -0.55253,0.23022 0.0921,0.44509 -0.39904,1.05901 0.39904,0.95156 -2.27149,1.73432 -0.72135,2.57844 1.02831,0.72135 1.1204,0.42974 0.53718,-0.0921 0.30695,0.32231 -0.27626,0.62926 -0.353,0.53717 0.19953,1.02831 0.98226,0.52183 0.69065,-0.10744 0.65996,0.13814 -0.21486,0.52182 -0.55253,0.50649 0.65996,2.30218 -1.91849,0.82879 0.13813,0.95156 0.81344,0.55253 0.58322,0.0461 0.50648,0.27626 -0.0307,0.50648 -0.41439,0.23022 z m 58.24527,-31.83154 1.4427,0.44509 0.52183,0.18418 -1.81105,2.8854 -1.87245,1.87244 -3.43792,2.45566 -1.13575,0.353 -1.50409,0.81345 -11.03514,8.7176 -2.19475,1.19714 -7.16747,2.56309 -0.10743,-0.92087 -0.42974,-0.33765 -0.46044,0.12278 -0.21487,0.47578 -0.12279,1.01296 -0.33765,0.3837 -0.52182,0.13814 -0.67531,0.30695 -1.28923,0.78275 -1.28922,0.58321 -6.20055,1.33527 -2.99284,1.02831 -3.28445,0.59857 -1.50409,0.58322 -0.89018,1.27387 -1.61153,-0.3223 -1.55014,0.59857 -4.57367,3.40723 -0.15348,0.16882 -0.3223,-0.18417 -1.51945,-0.69065 -0.69065,-1.10505 0.41439,-0.23022 0.0307,-0.50648 -0.50648,-0.27626 -0.58322,-0.0461 -0.81344,-0.55252 -0.13813,-0.95157 1.91849,-0.82879 -0.65996,-2.30218 0.55253,-0.50648 0.21486,-0.52183 -0.65996,-0.13814 -0.69065,0.10744 -0.98226,-0.52183 -0.19953,-1.02831 0.353,-0.53717 0.27626,-0.62926 -0.30695,-0.32231 -0.53718,0.0921 -1.1204,-0.42974 -1.02831,-0.72135 0.72135,-2.57845 2.27149,-1.73432 -0.39904,-0.95156 0.39904,-1.05901 -0.0921,-0.44509 0.55253,-0.23021 3.40723,0.65995 4.35881,1.59618 1.13574,0.16883 1.13574,-0.26091 1.13574,-0.12279 0.90553,0.72136 0.69066,0.81343 2.17939,0.42974 1.24319,0.4144 0.30696,-1.04366 -0.55253,-1.53479 -1.10505,-1.22783 1.4734,-0.95157 1.48874,-0.81344 1.68827,-0.55252 1.28923,-0.98227 -0.58322,-1.35062 0.29161,-1.35061 h 0.75204 l 0.79809,-0.0614 0.49114,-0.69066 v -0.79808 l 0.72135,0.52182 0.56787,-0.64461 1.48875,-0.0154 1.47339,0.18417 1.01297,0.36835 0.46043,1.10505 0.58322,0.0768 0.64462,-0.0307 0.53717,-0.3837 0.75205,-0.0767 1.10505,1.45805 0.90552,1.55014 1.48875,0.61392 1.62687,-0.89018 0.58323,-0.58322 0.92087,-0.3837 1.71896,-0.46044 3.53002,-1.38131 0.65996,-0.47578 0.13813,0.18417 0.52183,0.0767 1.59618,-0.58322 1.65757,0.36835 0.7674,-1.27388 v -0.52182 l -0.0307,-0.49114 0.26092,-0.36835 0.26091,-0.41439 -0.30695,-0.81343 -0.0307,-1.01297 1.18179,-0.93622 1.41201,-0.64461 1.07435,-1.04366 1.25853,-0.96691 1.59617,-0.29161 1.07436,-1.24319 1.765,2.19475 0.69066,0.0461 0.75205,0.10744 z m -76.98505,32.72171 0.10744,0.62927 v 0.0614 l -0.3837,-0.0461 -0.29161,-0.13813 -0.18418,-0.27626 -0.26091,-0.27626 -0.46044,-0.13813 -0.27626,0.10743 -0.21487,0.18418 -0.23022,0.16882 -0.30696,-0.0154 -0.21487,-0.16882 -0.36835,-0.53718 -0.23021,-0.13813 -2.96215,-1.07435 -1.78036,-0.36835 -1.28922,-1.04366 -0.85948,-0.42974 -0.44509,0.44509 -1.10505,-0.89018 -4.84993,-5.15689 -0.39905,-0.32231 -0.18417,-0.21487 -0.0614,-0.24557 0.0154,-0.52182 -0.15348,-0.26092 -0.7367,-0.96692 -2.74727,-5.83219 -0.10744,-0.55253 0.0307,-0.99761 -0.10743,-0.30696 -0.49114,-1.02831 -0.49113,-2.80866 -1.10505,-1.96454 -0.67531,-2.82401 0.39905,0.0921 0.3223,0.46044 0.35301,0.3223 0.38369,-0.27626 0.59857,-0.24557 0.42974,0.42974 0.30696,0.50649 2.1794,1.0283 1.0897,0.21487 1.18179,0.52183 0.95157,0.84414 0.98226,0.65996 2.57845,0.49113 1.62688,-0.90552 1.7957,-0.15349 1.76501,1.35062 0.90553,0.89018 0.93622,0.7367 0.10743,-1.19714 -0.44508,-1.30457 v -1.28922 l 1.10505,-0.47579 2.07196,-1.28922 2.11801,-0.49113 0.72135,0.75204 0.81344,0.69066 0.99761,0.39905 0.89018,0.0307 1.84175,0.90553 0.96691,-0.0307 0.50648,0.75205 -1.22783,0.36835 -0.79809,0.81343 0.706,1.07436 0.90553,0.92087 -0.353,1.70362 -1.8264,-0.42975 -1.13575,-1.07435 -1.25852,-0.95157 -0.98227,-0.29161 -0.95157,0.26092 0.58323,1.10505 1.18178,0.76739 1.25853,1.79571 0.44509,1.71896 -1.04366,1.27387 -2.08732,-0.36835 0.61392,0.75205 0.29162,0.96692 -0.42975,1.24318 -0.53717,1.16644 0.38369,1.16644 0.90553,0.87483 1.07435,0.72135 0.93622,0.85948 -0.81344,0.96692 -0.95157,0.96692 -0.81343,0.3223 -0.35301,0.56787 0.18418,0.62927 0.46044,0.24556 1.059,0.44509 -0.36835,0.72135 -1.07435,0.39905 -0.65996,1.16644 z"
       inkscape:connector-curvature="0" />
    <path
       id="Uva"
       style="display:inline;fill:#fefee4;stroke:#808080;stroke-width:0.15347895;stroke-opacity:1"
       d="m 248.71573,155.06013 v -1.24318 l 2.31753,-0.55252 0.46044,1.15109 0.52183,0.98226 1.21248,-0.42974 1.10505,-0.81344 -0.3223,-2.22544 v -2.30219 l 1.4734,0.0614 1.19713,-0.6753 0.27626,-0.4144 0.4144,-0.50647 0.27626,-0.58323 -0.0767,-0.706 -0.3223,-0.706 -0.0154,-0.78274 0.61392,-0.0461 0.82878,-0.21487 0.39905,-0.64461 0.21487,-0.56787 0.65996,-0.29161 0.72135,-0.24557 1.48875,-0.79809 1.16644,0.30696 -0.87483,1.38131 0.36835,0.21487 0.39904,0.0767 -0.12278,0.79809 0.706,3.16167 -0.0921,1.4427 0.24556,1.15109 1.31992,1.15109 0.82879,1.45805 0.16883,1.28922 1.28922,1.78036 -0.96692,0.76739 -1.24318,1.4734 -0.69066,1.85709 0.7674,1.41201 0.24556,0.92088 0.46044,0.82878 0.47579,0.21487 h 0.44508 l 0.36835,0.21487 0.30696,0.27626 2.11801,0.55253 1.74966,1.05901 -0.10743,1.12039 -0.27626,1.18179 0.39904,1.16644 0.0154,1.15109 0.70601,1.02831 0.29161,1.18179 -1.5348,22.02423 -1.07435,1.24318 -1.59618,0.29161 -1.25853,0.96691 -1.07435,1.04366 -1.412,0.64461 -1.18179,0.93623 0.0307,1.01296 0.30696,0.81344 -0.26091,0.41439 -0.26092,0.36834 0.0307,0.49114 v 0.52183 l -0.7674,1.27387 -1.65757,-0.36835 -1.59618,0.58322 -0.52183,-0.0767 -0.13813,-0.18417 -0.65996,0.47579 -3.53002,1.38131 -1.71896,0.46043 -0.92088,0.3837 -0.58322,0.58322 -1.62687,0.89018 -1.48875,-0.61392 -0.90552,-1.55014 -1.10505,-1.45805 -0.75205,0.0767 -0.53718,0.3837 -0.64461,0.0307 -0.58322,-0.0768 -0.46044,-1.10505 -1.01296,-0.36835 -1.4734,-0.18417 -1.48874,0.0154 -0.56788,0.64461 -0.72135,-0.52182 v 0.79809 l -0.49113,0.69065 -0.79809,0.0614 h -0.75205 l -0.29161,1.35062 0.58322,1.35061 -1.28922,0.98227 -1.68827,0.55252 -1.48874,0.81344 -1.4734,0.95157 -0.46044,-1.39666 -0.56787,-1.0897 -1.0897,-0.76739 -1.13574,-0.61392 -0.82879,-1.1204 -0.67531,-1.28922 -0.0461,-3.71419 -0.36835,-0.93622 -0.18417,-0.99762 0.90552,-1.70361 1.1204,-1.59618 0.58321,-2.60914 0.56788,-1.31992 1.07435,-1.31992 0.61392,-1.53479 0.98226,-1.48875 0.70601,0.0307 0.46044,0.72135 0.27626,1.02831 0.47578,0.24556 0.46043,0.10744 0.55253,1.22783 0.41439,1.31992 0.41439,0.19952 0.39905,0.24557 0.26092,1.90314 0.69065,0.85948 0.52183,0.82878 0.23022,-1.59617 0.84413,-1.30458 0.62927,0.41439 0.64461,0.30696 0.18418,-1.42735 1.24317,-0.44509 -0.89017,-1.38131 -0.55253,-1.67292 -0.0154,-0.92087 0.12279,-0.87483 0.87482,-1.38131 -0.0614,-1.05901 -1.04366,-0.27626 -0.23021,-0.78274 0.50648,-1.0897 -0.12279,-1.28923 0.13814,-1.25852 2.01057,-0.18418 0.52183,-0.99761 1.71896,-0.52183 -1.4427,-2.04127 1.27388,-0.706 1.51944,-0.4144 0.7367,-0.61391 0.61391,-0.7674 0.26092,-0.47578 0.353,-0.36835 0.59856,0.26091 0.7674,-0.16882 0.30696,-0.85949 0.15348,-0.93622 0.39904,-0.62926 0.32231,-0.64461 0.23022,-1.65758 0.27626,-1.0897 v -1.10504 l -0.16883,-0.84414 -0.30695,-0.79809 -0.44509,-0.53718 -0.32231,-0.2916 -0.64461,-0.82879 -2.1794,0.58322 -0.70601,-0.7367 -0.58322,-1.22783 -0.92087,-0.89018 -0.7367,-0.96692 0.18418,-1.21248 0.69065,-1.05901 0.98227,0.12279 0.82878,0.89017 0.98227,-0.41439 0.53717,-0.92087 1.62688,-2.07197 z m -14.74932,-14.36563 -0.29161,-4.89598 0.58321,-2.82401 0.15349,0.15348 0.90552,0.55252 0.3837,0.85948 0.0767,0.96692 0.47578,1.4427 1.45805,2.45567 1.0897,-0.3837 0.58323,-0.13813 0.72135,-0.27626 1.27387,-1.18179 2.9161,-1.62688 2.63984,0.56787 0.21487,3.00819 -0.61392,2.9161 -0.33765,0.61392 -0.16883,0.53717 0.18418,0.7367 0.23022,0.75205 0.39904,2.63983 0.64461,1.39666 0.89018,0.89019 0.52183,-0.12279 0.7367,0.13813 0.24557,0.53718 0.41439,0.69065 0.52183,1.0897 0.21486,1.07436 -2.31753,0.55252 v 1.24318 l -0.46044,1.12039 -1.62687,2.07197 -0.53718,0.92087 -0.98226,0.41439 -0.82879,-0.89017 -0.98226,-0.12279 -0.69066,1.05901 -0.18417,1.21248 0.7367,0.96692 0.92087,0.89018 0.58322,1.22783 0.706,0.7367 2.1794,-0.58322 0.64462,0.82879 0.3223,0.2916 0.44509,0.53718 0.30696,0.79809 0.16883,0.84414 v 1.10505 l -0.27626,1.0897 -0.23023,1.65757 -0.3223,0.64461 -0.39905,0.62926 -0.15347,0.93623 -0.30696,0.85948 -0.7674,0.16883 -0.59856,-0.26092 -0.35301,0.36835 -0.26091,0.47578 -0.61392,0.7674 -0.7367,0.61391 -1.51944,0.4144 -1.27388,0.706 1.44271,2.04127 -1.71897,0.52183 -0.52182,0.99761 -2.01058,0.18418 -0.13813,1.25853 0.12278,1.28922 -0.50647,1.0897 0.23021,0.78274 1.04366,0.27627 0.0614,1.059 -0.87483,1.38131 -0.12278,0.87483 0.0154,0.92087 0.55252,1.67292 0.89018,1.38131 -1.24318,0.44509 -0.18417,1.42736 -0.64461,-0.30696 -0.62927,-0.41439 -0.84413,1.30457 -0.23022,1.59618 -0.52183,-0.82879 -0.69066,-0.85948 -0.26091,-1.90314 -0.39905,-0.24557 -0.41439,-0.19952 -0.41439,-1.31992 -0.55253,-1.22783 -0.46044,-0.10744 -0.47578,-0.24556 -0.27626,-1.02831 -0.46043,-0.72135 -0.70601,-0.0307 -1.0897,0.0461 -1.21249,0.90553 -1.42735,0.58321 -1.35062,-0.26091 -0.90552,-0.7367 -0.62926,-0.99761 0.27626,-0.78274 1.61153,-0.7367 0.23022,-0.23022 0.18417,-0.47579 0.13813,-0.55252 -1.01296,-0.3223 -0.81344,-0.89019 -0.44509,0.16884 -0.42974,0.21486 -0.16882,-2.21009 1.12039,-0.27627 0.61392,-0.85947 -0.55253,-0.27627 -0.53717,-0.353 0.87483,-1.42735 -0.24557,-0.39905 -0.29161,-0.36835 -0.33765,-0.92087 -0.39905,-0.84414 -1.88779,-0.95157 -0.0768,-0.96692 1.07436,-0.0461 1.1204,0.0614 0.79809,-0.92088 0.27626,-1.19713 0.95157,-0.85949 1.07435,-0.50648 2.2408,-0.49113 1.31991,-1.97988 0.27626,-1.16644 0.53718,-1.059 0.47578,-0.44509 0.39905,-0.49113 0.19952,-0.44509 -0.0921,-0.4144 -0.3223,-1.059 0.27626,-0.56787 0.41439,-0.49114 -0.21487,-0.30695 -0.27626,-0.32231 -0.12279,-0.50648 0.13814,-0.55252 -0.46044,-1.48875 0.0614,-1.0897 0.75205,-0.46044 1.27387,-0.353 1.59619,-1.50409 0.10743,-1.94919 -1.30457,-4.3281 z"
       inkscape:connector-curvature="0" />
    <path
       id="Sabaragamuwa"
       style="display:inline;fill:#fefee4;stroke:#808080;stroke-width:0.15347895;stroke-opacity:1"
       d="m 191.42204,176.91553 -2.47102,-2.51705 -0.92087,0.41439 -0.0307,-0.58322 -0.0767,-0.58322 0.79809,-0.7367 -0.18417,-1.0897 -1.02831,-0.52183 -1.28922,-0.0921 0.16882,-0.49113 v -0.55252 l -0.89017,-2.83937 0.30695,-1.74966 0.75205,-1.74966 0.85948,-0.59856 0.44509,-1.01296 -1.24318,-0.36835 -1.45805,0.33765 -0.72135,-1.50409 0.26091,-1.70362 0.93622,-0.47579 0.7674,-0.7367 0.16883,-2.05661 0.58322,-0.47579 -0.10744,-0.79809 1.21249,-0.69065 1.22782,-1.10505 1.30458,-0.93622 1.39666,-0.65996 2.90075,-0.64461 0.62926,-0.0307 0.42974,-0.58322 0.19953,-0.706 -0.0767,-1.22783 0.21486,-1.13574 1.30458,-0.52184 1.42735,0.18418 0.85948,0.90553 0.55252,1.15109 0.72135,1.84175 2.57845,2.25614 -0.10743,1.16643 0.50648,0.35301 1.50409,0.84413 0.72135,0.87483 -0.13813,1.07435 0.0154,0.87484 0.85948,0.85947 0.69066,0.87484 -0.33766,0.78274 -0.46043,0.7367 -0.64461,0.15348 -0.65996,0.0461 -0.93623,1.01296 -2.05661,0.33765 -0.67531,0.62927 0.90552,2.16405 0.42975,0.75205 -0.42975,0.92087 -0.0307,1.18179 0.0768,0.19952 0.19952,0.0461 -0.52182,0.84413 -0.82879,0.7367 -0.44509,0.15348 -0.33765,0.44509 0.33765,0.46043 0.3837,0.3837 -0.4144,2.22545 0.50649,1.73431 1.73431,0.56787 1.36596,1.02831 0.46044,1.58083 0.0921,0.7981 -0.67531,0.59856 -1.18179,0.0461 -1.18179,-0.16883 -1.64222,-0.55253 -1.27387,-0.7367 -0.90553,-0.0307 -0.7367,0.0767 -1.81105,1.02831 -1.48875,-0.32231 -0.27626,-0.59857 -0.42974,-0.52183 -0.59857,0.13813 -0.42974,0.24557 -0.90553,-0.72135 z m 37.74048,32.72171 0.56787,1.0897 0.46044,1.39666 1.10504,1.22783 0.55253,1.53479 -0.30696,1.04366 -1.24318,-0.41439 -2.1794,-0.42974 -0.69066,-0.81344 -0.90553,-0.72136 -1.13574,0.12279 -1.13574,0.26091 -1.13574,-0.16882 -4.35881,-1.59619 -3.40723,-0.65995 v -0.56788 l 0.3223,-0.3223 -0.76739,-0.56788 0.0461,-0.56786 -0.65996,-0.81345 -1.42735,0.23022 -1.05901,-0.18417 0.3837,-1.07435 -0.85949,-1.58084 -2.60913,0.33766 -1.01297,0.0154 -0.39904,0.96691 -1.16644,0.27626 -1.16645,0.16884 -0.50647,-0.75205 -0.96692,0.0307 -1.84175,-0.90552 -0.89018,-0.0307 -0.99761,-0.39904 -0.81344,-0.69066 -0.72135,-0.75204 -2.1487,-3.76024 -2.51706,-3.54536 -0.30695,-1.01297 0.89017,-0.353 -0.85948,-1.64222 -1.31992,-1.22783 -0.82878,-0.32231 -0.65996,-0.61392 -0.35301,-1.74966 -1.81105,-1.76501 -0.56787,-1.19713 -0.3837,-1.13574 0.0921,-0.95157 -1.04366,-2.76262 -0.19952,-1.22784 1.30457,-1.18178 -1.45805,-1.55014 0.30696,-0.72135 0.26092,-0.82879 0.64461,-1.02831 0.75204,-0.93622 0.92087,-0.41439 2.47102,2.51705 0.7367,0.93622 0.90552,0.72135 0.42974,-0.24556 0.59857,-0.13813 0.42974,0.52183 0.27627,0.59856 1.48874,0.32231 1.81105,-1.02831 0.7367,-0.0767 0.90553,0.0307 1.27387,0.7367 1.64223,0.55252 1.18179,0.16883 1.18178,-0.046 -0.0461,0.98226 0.39905,0.44509 -0.44509,0.42974 -0.21487,0.61392 1.21248,0.93622 1.45805,0.12278 3.08493,0.69066 3.25375,0.44508 1.25853,-0.21486 1.4734,-0.10744 1.96453,0.0614 1.85709,-0.24556 3.36119,-1.78036 0.16883,2.2101 0.42974,-0.21487 0.44509,-0.16883 0.81344,0.89018 1.01296,0.3223 -0.13813,0.55253 -0.18418,0.47578 -0.23021,0.23022 -1.61153,0.7367 -0.27627,0.78274 0.62927,0.99761 0.90553,0.7367 1.35061,0.26092 1.42735,-0.58322 1.21249,-0.90552 1.0897,-0.0461 -0.98227,1.48874 -0.61391,1.53479 -1.07436,1.31992 -0.56787,1.31992 -0.58322,2.60914 -1.12039,1.59618 -0.90553,1.70362 0.18418,0.99762 0.36834,0.93621 0.0461,3.7142 0.67531,1.28922 0.82879,1.1204 1.13575,0.61391 z"
       inkscape:connector-curvature="0" />
    <path
       id="Western-Province"
       style="display:inline;fill:#fefee4;stroke:#808080;stroke-width:0.15347895;stroke-opacity:1"
       d="m 175.21466,203.95852 -0.32231,-0.46043 -0.39904,-0.0921 -0.26092,-1.01296 -0.12278,-0.10744 -0.26092,-0.15348 -0.26091,-0.24557 -0.16883,-0.3223 0.0767,-0.35301 0.29162,-0.0767 0.30696,0.0307 0.13812,-0.0154 -0.49113,-3.39188 -4.11324,-10.6054 0.0921,-0.16883 h 0.0307 v -0.0307 l -0.0154,-0.75205 -0.18417,-0.76739 -0.36835,-1.10505 0.0614,-0.99761 2.76262,1.70361 1.70362,-0.64461 0.69065,-0.15348 0.65996,-0.30696 2.28684,-1.96453 0.65996,-0.0767 0.65996,0.30696 0.92087,-0.47578 0.7367,-0.85949 0.36835,0.0767 0.30696,0.18417 0.76739,1.7957 1.16645,0.29161 -0.3837,-1.73431 1.93383,-0.81344 1.73431,0.39905 0.19953,1.22783 1.04366,2.76262 -0.0921,0.95157 0.38369,1.13574 0.56787,1.19714 1.81106,1.76501 0.353,1.74966 0.65996,0.61391 0.82878,0.32231 1.31992,1.22783 0.85948,1.64223 -0.89017,0.353 0.30695,1.01296 2.51706,3.54536 2.14871,3.76024 -2.11801,0.49113 -2.07197,1.28922 -1.10505,0.47579 v 1.28922 l 0.44509,1.30457 -0.10744,1.19714 -0.93622,-0.7367 -0.90553,-0.89018 -1.765,-1.35062 -1.79571,0.15349 -1.62687,0.90552 -2.57845,-0.49113 -0.98227,-0.65996 -0.95156,-0.84414 -1.18179,-0.52182 -1.08971,-0.21488 -2.17939,-1.0283 -0.30696,-0.50648 -0.42974,-0.42974 -0.59857,0.24556 -0.3837,0.27626 z m -6.35403,-30.97205 -0.98227,-0.50648 -1.28922,-0.50648 0.59857,-1.42736 0.15348,-0.6753 -0.0154,-0.70601 -2.83936,-10.14495 0.3837,-1.4734 -0.0154,0.90552 0.21487,0.58322 0.32231,0.44509 0.29161,0.52183 0.56787,2.01057 0.27627,0.49114 h 0.36835 l 0.0921,-0.58322 0.16882,-0.24557 0.13813,-0.0307 0.0461,0.0307 -0.0154,-1.84175 -0.13813,-0.81343 -0.29161,-0.65996 -0.27626,-0.18418 -0.78275,-0.18417 -0.353,-0.23023 -0.26091,-0.50647 0.10743,-0.47579 0.23022,-0.44509 0.12279,-0.42974 -0.35301,-2.59379 1.41201,0.0767 1.10505,-0.29161 1.15109,-0.15348 0.46044,0.52183 0.69066,0.0767 0.87482,-0.53717 1.04366,0.39905 1.25853,-0.50648 2.27148,-1.78036 1.41201,-0.0614 1.64223,1.16644 1.71896,-0.50648 1.45805,-1.04366 1.65758,-0.29161 0.53717,0.59857 0.16883,0.50648 0.33765,0.50648 1.48875,1.68827 1.02831,0.75204 0.10743,0.79809 -0.58322,0.47579 -0.16883,2.05661 -0.76739,0.7367 -0.93622,0.47579 -0.26092,1.70362 0.72136,1.50409 1.45805,-0.33765 1.24317,0.36835 -0.44508,1.01296 -0.85949,0.59856 -0.75204,1.74966 -0.30696,1.74966 0.89018,2.83937 v 0.55252 l -0.16883,0.49113 -1.0897,0.3837 -1.61153,-0.16883 -1.16644,0.55253 -0.95157,0.93622 -0.23022,1.1204 -0.0767,1.18178 -1.27387,0.0614 -1.04366,-0.12278 -0.69066,-0.27626 -0.6753,-0.36835 -0.70601,-0.65996 -0.79809,-0.49113 -1.01296,0.0767 -1.02831,0.19952 -2.9468,-0.87483 -0.53717,0.23022 -0.47579,0.24556 z m 0.84413,14.01263 0.0154,-0.0154 -0.0921,0.16882 -2.21009,-5.70942 -0.89018,-4.97271 v -4.32811 l 0.0614,-0.16883 1.28922,0.50648 0.98227,0.50649 1.04365,0.24556 0.47579,-0.24556 0.53718,-0.23023 2.94679,0.87484 1.02831,-0.19953 1.01296,-0.0767 0.7981,0.49114 0.706,0.65995 0.67531,0.36835 0.69065,0.27627 1.04366,0.12278 1.27387,-0.0614 0.0767,-1.18179 0.23023,-1.12039 0.95156,-0.93623 1.16644,-0.55252 1.61153,0.16883 1.0897,-0.3837 1.28922,0.0921 1.02831,0.52184 0.18418,1.0897 -0.79809,0.7367 0.0767,0.58321 0.0307,0.58322 -0.75205,0.93623 -0.64461,1.02831 -0.26091,0.82878 -0.30696,0.72135 1.45805,1.55014 -1.30457,1.18179 -1.73432,-0.39905 -1.93383,0.81344 0.3837,1.73431 -1.16644,-0.29161 -0.7674,-1.7957 -0.30695,-0.18417 -0.36835,-0.0767 -0.7367,0.85949 -0.92087,0.47578 -0.65997,-0.30696 -0.65996,0.0767 -2.28683,1.96453 -0.65996,0.30696 -0.69066,0.15348 -1.70361,0.64461 -2.76262,-1.70361 -0.0614,0.99761 0.36834,1.10505 0.18418,0.76739 0.0154,0.75205 -0.0307,0.0307 -0.0154,0.0154 h -0.0614 v 0.0461 z"
       inkscape:connector-curvature="0" />
  </g>
</svg>
